M48
; DRILL file {KiCad (5.1.5-0-10_14)} date 2020 February 15, Saturday 13:43:36
; FORMAT={-:-/ absolute / metric / decimal}
; #@! TF.CreationDate,2020-02-15T13:43:36+07:00
; #@! TF.GenerationSoftware,Kicad,Pcbnew,(5.1.5-0-10_14)
; #@! TF.FileFunction,NonPlated,1,2,NPTH
FMAT,2
METRIC
T1C0.400
%
G90
G05
T1
X84.2Y-103.49
X84.8Y-103.49
X85.4Y-103.49
X86.0Y-103.49
X86.6Y-103.49
X87.2Y-103.49
X87.8Y-103.49
X88.4Y-103.49
X89.0Y-103.49
X89.6Y-103.49
X90.2Y-103.49
X90.8Y-103.49
X91.4Y-103.49
X92.0Y-103.49
X92.6Y-103.49
X93.2Y-103.49
X93.8Y-103.49
X94.4Y-103.49
X95.0Y-103.49
X95.6Y-103.49
X96.2Y-103.49
X96.8Y-103.49
X97.4Y-103.49
X98.0Y-103.49
X98.6Y-103.49
X99.2Y-103.49
X99.8Y-103.49
X84.2Y-78.49
X84.8Y-78.49
X85.4Y-78.49
X86.0Y-78.49
X86.6Y-78.49
X87.2Y-78.49
X87.8Y-78.49
X88.4Y-78.49
X89.0Y-78.49
X89.6Y-78.49
X90.2Y-78.49
X90.8Y-78.49
X91.4Y-78.49
X92.0Y-78.49
X92.6Y-78.49
X93.2Y-78.49
X93.8Y-78.49
X94.4Y-78.49
X95.0Y-78.49
X95.6Y-78.49
X96.2Y-78.49
X96.8Y-78.49
X97.4Y-78.49
X98.0Y-78.49
X98.6Y-78.49
X99.2Y-78.49
X99.8Y-78.49
T0
M30
