M48
; DRILL file {KiCad (5.1.5-0-10_14)} date 2020 February 15, Saturday 13:43:36
; FORMAT={-:-/ absolute / metric / decimal}
; #@! TF.CreationDate,2020-02-15T13:43:36+07:00
; #@! TF.GenerationSoftware,Kicad,Pcbnew,(5.1.5-0-10_14)
; #@! TF.FileFunction,Plated,1,2,PTH
FMAT,2
METRIC
T1C0.400
T2C1.000
T3C3.200
%
G90
G05
T1
X94.6Y-74.74
X95.303Y-73.043
X95.303Y-76.437
X97.0Y-72.34
X97.0Y-77.14
X98.697Y-73.043
X98.697Y-76.437
X99.4Y-74.74
X84.6Y-74.74
X85.303Y-73.043
X85.303Y-76.437
X87.0Y-72.34
X87.0Y-77.14
X88.697Y-73.043
X88.697Y-76.437
X89.4Y-74.74
X84.6Y-107.24
X85.303Y-105.543
X85.303Y-108.937
X87.0Y-104.84
X87.0Y-109.64
X88.697Y-105.543
X88.697Y-108.937
X89.4Y-107.24
X94.6Y-107.24
X95.303Y-105.543
X95.303Y-108.937
X97.0Y-104.84
X97.0Y-109.64
X98.697Y-105.543
X98.697Y-108.937
X99.4Y-107.24
T2
X85.65Y-82.1
X85.65Y-84.64
X85.65Y-87.18
X85.65Y-89.72
X85.65Y-92.26
X85.65Y-94.8
X85.65Y-97.34
X85.65Y-99.88
X98.35Y-82.1
X98.35Y-84.64
X98.35Y-87.18
X98.35Y-89.72
X98.35Y-92.26
X98.35Y-94.8
X98.35Y-97.34
X98.35Y-99.88
T3
X87.0Y-107.24
X97.0Y-107.24
X97.0Y-74.74
X87.0Y-74.74
T0
M30
