G04 #@! TF.GenerationSoftware,KiCad,Pcbnew,(5.1.5-0-10_14)*
G04 #@! TF.CreationDate,2020-02-15T13:43:34+07:00*
G04 #@! TF.ProjectId,connector-breakout-a1,636f6e6e-6563-4746-9f72-2d627265616b,rev?*
G04 #@! TF.SameCoordinates,Original*
G04 #@! TF.FileFunction,Soldermask,Top*
G04 #@! TF.FilePolarity,Negative*
%FSLAX46Y46*%
G04 Gerber Fmt 4.6, Leading zero omitted, Abs format (unit mm)*
G04 Created by KiCad (PCBNEW (5.1.5-0-10_14)) date 2020-02-15 13:43:34*
%MOMM*%
%LPD*%
G04 APERTURE LIST*
%ADD10C,0.010000*%
%ADD11C,0.100000*%
G04 APERTURE END LIST*
D10*
X100749999Y-110990000D02*
X83250001Y-110990000D01*
X83250001Y-110990000D02*
X83250000Y-70990000D01*
X100750001Y-70990000D02*
X100749999Y-110990000D01*
X83250000Y-70990000D02*
X100750000Y-70990000D01*
G36*
X98606890Y-101743818D02*
G01*
X98113111Y-101743818D01*
X98113111Y-101556182D01*
X98606890Y-101556182D01*
X98606890Y-101743818D01*
G37*
X98606890Y-101743818D02*
X98113111Y-101743818D01*
X98113111Y-101556182D01*
X98606890Y-101556182D01*
X98606890Y-101743818D01*
G36*
X96702024Y-81997977D02*
G01*
X97010589Y-81997977D01*
X97010589Y-82162024D01*
X96702024Y-82162024D01*
X96702024Y-82470589D01*
X96537977Y-82470589D01*
X96537977Y-82162024D01*
X96229412Y-82162024D01*
X96229412Y-81997977D01*
X96537977Y-81997977D01*
X96537977Y-81689412D01*
X96702024Y-81689412D01*
X96702024Y-81997977D01*
G37*
X96702024Y-81997977D02*
X97010589Y-81997977D01*
X97010589Y-82162024D01*
X96702024Y-82162024D01*
X96702024Y-82470589D01*
X96537977Y-82470589D01*
X96537977Y-82162024D01*
X96229412Y-82162024D01*
X96229412Y-81997977D01*
X96537977Y-81997977D01*
X96537977Y-81689412D01*
X96702024Y-81689412D01*
X96702024Y-81997977D01*
G36*
X96758518Y-84933338D02*
G01*
X96948425Y-84933338D01*
X96948425Y-85089332D01*
X96378705Y-85089332D01*
X96378705Y-84933338D01*
X96568612Y-84933338D01*
X96568612Y-84423371D01*
X96536396Y-84442243D01*
X96515361Y-84454661D01*
X96487724Y-84471104D01*
X96458497Y-84488588D01*
X96449920Y-84493739D01*
X96395661Y-84526361D01*
X96393744Y-84443365D01*
X96393139Y-84407928D01*
X96393438Y-84383585D01*
X96394912Y-84367884D01*
X96397833Y-84358369D01*
X96402472Y-84352586D01*
X96403918Y-84351447D01*
X96413362Y-84345362D01*
X96432520Y-84333689D01*
X96459367Y-84317638D01*
X96491880Y-84298417D01*
X96528033Y-84277237D01*
X96531744Y-84275074D01*
X96647479Y-84207624D01*
X96758518Y-84207624D01*
X96758518Y-84933338D01*
G37*
X96758518Y-84933338D02*
X96948425Y-84933338D01*
X96948425Y-85089332D01*
X96378705Y-85089332D01*
X96378705Y-84933338D01*
X96568612Y-84933338D01*
X96568612Y-84423371D01*
X96536396Y-84442243D01*
X96515361Y-84454661D01*
X96487724Y-84471104D01*
X96458497Y-84488588D01*
X96449920Y-84493739D01*
X96395661Y-84526361D01*
X96393744Y-84443365D01*
X96393139Y-84407928D01*
X96393438Y-84383585D01*
X96394912Y-84367884D01*
X96397833Y-84358369D01*
X96402472Y-84352586D01*
X96403918Y-84351447D01*
X96413362Y-84345362D01*
X96432520Y-84333689D01*
X96459367Y-84317638D01*
X96491880Y-84298417D01*
X96528033Y-84277237D01*
X96531744Y-84275074D01*
X96647479Y-84207624D01*
X96758518Y-84207624D01*
X96758518Y-84933338D01*
G36*
X96646644Y-86733557D02*
G01*
X96710829Y-86744021D01*
X96767190Y-86764094D01*
X96814971Y-86793429D01*
X96853413Y-86831679D01*
X96878564Y-86871723D01*
X96887272Y-86890709D01*
X96892803Y-86907487D01*
X96895835Y-86926076D01*
X96897049Y-86950498D01*
X96897145Y-86981615D01*
X96895903Y-87017353D01*
X96892050Y-87049784D01*
X96884741Y-87080370D01*
X96873126Y-87110577D01*
X96856358Y-87141866D01*
X96833590Y-87175703D01*
X96803973Y-87213550D01*
X96766661Y-87256871D01*
X96720806Y-87307131D01*
X96688976Y-87341081D01*
X96576918Y-87459773D01*
X96754194Y-87463164D01*
X96931469Y-87466555D01*
X96935305Y-87619159D01*
X96331229Y-87619159D01*
X96331229Y-87478091D01*
X96480986Y-87318285D01*
X96532749Y-87262848D01*
X96575888Y-87216029D01*
X96611210Y-87176700D01*
X96639521Y-87143729D01*
X96661629Y-87115986D01*
X96678339Y-87092340D01*
X96690459Y-87071661D01*
X96698795Y-87052818D01*
X96704155Y-87034680D01*
X96707344Y-87016117D01*
X96708979Y-86998771D01*
X96707415Y-86959164D01*
X96696087Y-86928417D01*
X96674538Y-86905524D01*
X96663565Y-86898668D01*
X96649174Y-86892271D01*
X96632882Y-86888752D01*
X96610845Y-86887653D01*
X96579216Y-86888513D01*
X96578786Y-86888533D01*
X96516204Y-86896627D01*
X96457024Y-86915736D01*
X96398010Y-86946917D01*
X96395395Y-86948565D01*
X96377735Y-86959249D01*
X96365435Y-86965718D01*
X96361815Y-86966702D01*
X96358544Y-86960036D01*
X96351053Y-86943571D01*
X96340532Y-86919950D01*
X96330723Y-86897656D01*
X96301391Y-86830652D01*
X96317985Y-86817215D01*
X96357029Y-86791826D01*
X96406241Y-86769620D01*
X96462390Y-86751653D01*
X96522247Y-86738981D01*
X96575394Y-86733049D01*
X96646644Y-86733557D01*
G37*
X96646644Y-86733557D02*
X96710829Y-86744021D01*
X96767190Y-86764094D01*
X96814971Y-86793429D01*
X96853413Y-86831679D01*
X96878564Y-86871723D01*
X96887272Y-86890709D01*
X96892803Y-86907487D01*
X96895835Y-86926076D01*
X96897049Y-86950498D01*
X96897145Y-86981615D01*
X96895903Y-87017353D01*
X96892050Y-87049784D01*
X96884741Y-87080370D01*
X96873126Y-87110577D01*
X96856358Y-87141866D01*
X96833590Y-87175703D01*
X96803973Y-87213550D01*
X96766661Y-87256871D01*
X96720806Y-87307131D01*
X96688976Y-87341081D01*
X96576918Y-87459773D01*
X96754194Y-87463164D01*
X96931469Y-87466555D01*
X96935305Y-87619159D01*
X96331229Y-87619159D01*
X96331229Y-87478091D01*
X96480986Y-87318285D01*
X96532749Y-87262848D01*
X96575888Y-87216029D01*
X96611210Y-87176700D01*
X96639521Y-87143729D01*
X96661629Y-87115986D01*
X96678339Y-87092340D01*
X96690459Y-87071661D01*
X96698795Y-87052818D01*
X96704155Y-87034680D01*
X96707344Y-87016117D01*
X96708979Y-86998771D01*
X96707415Y-86959164D01*
X96696087Y-86928417D01*
X96674538Y-86905524D01*
X96663565Y-86898668D01*
X96649174Y-86892271D01*
X96632882Y-86888752D01*
X96610845Y-86887653D01*
X96579216Y-86888513D01*
X96578786Y-86888533D01*
X96516204Y-86896627D01*
X96457024Y-86915736D01*
X96398010Y-86946917D01*
X96395395Y-86948565D01*
X96377735Y-86959249D01*
X96365435Y-86965718D01*
X96361815Y-86966702D01*
X96358544Y-86960036D01*
X96351053Y-86943571D01*
X96340532Y-86919950D01*
X96330723Y-86897656D01*
X96301391Y-86830652D01*
X96317985Y-86817215D01*
X96357029Y-86791826D01*
X96406241Y-86769620D01*
X96462390Y-86751653D01*
X96522247Y-86738981D01*
X96575394Y-86733049D01*
X96646644Y-86733557D01*
G36*
X96674376Y-89270863D02*
G01*
X96692071Y-89273756D01*
X96751869Y-89291084D01*
X96803186Y-89317663D01*
X96845040Y-89352837D01*
X96876448Y-89395951D01*
X96877031Y-89397015D01*
X96892040Y-89435894D01*
X96899977Y-89481446D01*
X96900442Y-89528534D01*
X96893036Y-89572023D01*
X96891106Y-89578270D01*
X96876109Y-89609428D01*
X96853030Y-89641606D01*
X96825744Y-89670149D01*
X96798127Y-89690404D01*
X96797429Y-89690784D01*
X96774012Y-89703395D01*
X96813470Y-89723112D01*
X96856541Y-89751692D01*
X96889395Y-89788918D01*
X96911584Y-89834025D01*
X96922659Y-89886249D01*
X96923896Y-89911470D01*
X96920160Y-89963676D01*
X96907788Y-90007790D01*
X96885622Y-90047034D01*
X96867071Y-90069658D01*
X96824826Y-90107595D01*
X96776083Y-90135194D01*
X96726896Y-90151840D01*
X96686335Y-90159538D01*
X96638233Y-90164453D01*
X96588388Y-90166276D01*
X96542597Y-90164697D01*
X96524054Y-90162682D01*
X96442115Y-90144726D01*
X96366445Y-90115045D01*
X96358358Y-90110981D01*
X96328125Y-90095433D01*
X96308474Y-90083719D01*
X96298279Y-90072824D01*
X96296415Y-90059729D01*
X96301755Y-90041418D01*
X96313174Y-90014875D01*
X96318232Y-90003459D01*
X96330675Y-89976111D01*
X96341659Y-89953628D01*
X96349777Y-89938799D01*
X96353092Y-89934403D01*
X96362358Y-89935324D01*
X96370655Y-89940697D01*
X96389420Y-89953591D01*
X96417027Y-89968218D01*
X96449250Y-89982675D01*
X96481862Y-89995057D01*
X96509197Y-90003126D01*
X96557723Y-90011083D01*
X96605183Y-90012477D01*
X96648772Y-90007640D01*
X96685688Y-89996901D01*
X96713127Y-89980589D01*
X96714964Y-89978927D01*
X96731774Y-89954581D01*
X96740584Y-89923396D01*
X96741447Y-89889446D01*
X96734419Y-89856804D01*
X96719556Y-89829544D01*
X96712846Y-89822335D01*
X96696895Y-89809804D01*
X96678591Y-89800793D01*
X96655487Y-89794786D01*
X96625135Y-89791267D01*
X96585090Y-89789718D01*
X96557426Y-89789519D01*
X96466876Y-89789519D01*
X96466876Y-89634856D01*
X96556743Y-89632319D01*
X96602121Y-89630297D01*
X96636276Y-89626651D01*
X96661522Y-89620626D01*
X96680173Y-89611469D01*
X96694542Y-89598425D01*
X96704928Y-89584023D01*
X96714591Y-89558748D01*
X96717548Y-89528068D01*
X96714116Y-89497011D01*
X96704607Y-89470606D01*
X96697170Y-89460170D01*
X96676294Y-89441303D01*
X96653865Y-89429892D01*
X96624011Y-89422985D01*
X96622871Y-89422806D01*
X96577611Y-89421209D01*
X96526968Y-89428591D01*
X96474731Y-89443936D01*
X96424686Y-89466228D01*
X96395324Y-89483830D01*
X96364506Y-89504629D01*
X96337369Y-89445613D01*
X96325372Y-89418455D01*
X96315771Y-89394712D01*
X96309942Y-89377889D01*
X96308861Y-89373065D01*
X96313976Y-89359943D01*
X96330532Y-89344649D01*
X96356794Y-89328239D01*
X96391028Y-89311765D01*
X96431499Y-89296283D01*
X96439747Y-89293541D01*
X96496613Y-89279015D01*
X96557861Y-89270143D01*
X96618709Y-89267301D01*
X96674376Y-89270863D01*
G37*
X96674376Y-89270863D02*
X96692071Y-89273756D01*
X96751869Y-89291084D01*
X96803186Y-89317663D01*
X96845040Y-89352837D01*
X96876448Y-89395951D01*
X96877031Y-89397015D01*
X96892040Y-89435894D01*
X96899977Y-89481446D01*
X96900442Y-89528534D01*
X96893036Y-89572023D01*
X96891106Y-89578270D01*
X96876109Y-89609428D01*
X96853030Y-89641606D01*
X96825744Y-89670149D01*
X96798127Y-89690404D01*
X96797429Y-89690784D01*
X96774012Y-89703395D01*
X96813470Y-89723112D01*
X96856541Y-89751692D01*
X96889395Y-89788918D01*
X96911584Y-89834025D01*
X96922659Y-89886249D01*
X96923896Y-89911470D01*
X96920160Y-89963676D01*
X96907788Y-90007790D01*
X96885622Y-90047034D01*
X96867071Y-90069658D01*
X96824826Y-90107595D01*
X96776083Y-90135194D01*
X96726896Y-90151840D01*
X96686335Y-90159538D01*
X96638233Y-90164453D01*
X96588388Y-90166276D01*
X96542597Y-90164697D01*
X96524054Y-90162682D01*
X96442115Y-90144726D01*
X96366445Y-90115045D01*
X96358358Y-90110981D01*
X96328125Y-90095433D01*
X96308474Y-90083719D01*
X96298279Y-90072824D01*
X96296415Y-90059729D01*
X96301755Y-90041418D01*
X96313174Y-90014875D01*
X96318232Y-90003459D01*
X96330675Y-89976111D01*
X96341659Y-89953628D01*
X96349777Y-89938799D01*
X96353092Y-89934403D01*
X96362358Y-89935324D01*
X96370655Y-89940697D01*
X96389420Y-89953591D01*
X96417027Y-89968218D01*
X96449250Y-89982675D01*
X96481862Y-89995057D01*
X96509197Y-90003126D01*
X96557723Y-90011083D01*
X96605183Y-90012477D01*
X96648772Y-90007640D01*
X96685688Y-89996901D01*
X96713127Y-89980589D01*
X96714964Y-89978927D01*
X96731774Y-89954581D01*
X96740584Y-89923396D01*
X96741447Y-89889446D01*
X96734419Y-89856804D01*
X96719556Y-89829544D01*
X96712846Y-89822335D01*
X96696895Y-89809804D01*
X96678591Y-89800793D01*
X96655487Y-89794786D01*
X96625135Y-89791267D01*
X96585090Y-89789718D01*
X96557426Y-89789519D01*
X96466876Y-89789519D01*
X96466876Y-89634856D01*
X96556743Y-89632319D01*
X96602121Y-89630297D01*
X96636276Y-89626651D01*
X96661522Y-89620626D01*
X96680173Y-89611469D01*
X96694542Y-89598425D01*
X96704928Y-89584023D01*
X96714591Y-89558748D01*
X96717548Y-89528068D01*
X96714116Y-89497011D01*
X96704607Y-89470606D01*
X96697170Y-89460170D01*
X96676294Y-89441303D01*
X96653865Y-89429892D01*
X96624011Y-89422985D01*
X96622871Y-89422806D01*
X96577611Y-89421209D01*
X96526968Y-89428591D01*
X96474731Y-89443936D01*
X96424686Y-89466228D01*
X96395324Y-89483830D01*
X96364506Y-89504629D01*
X96337369Y-89445613D01*
X96325372Y-89418455D01*
X96315771Y-89394712D01*
X96309942Y-89377889D01*
X96308861Y-89373065D01*
X96313976Y-89359943D01*
X96330532Y-89344649D01*
X96356794Y-89328239D01*
X96391028Y-89311765D01*
X96431499Y-89296283D01*
X96439747Y-89293541D01*
X96496613Y-89279015D01*
X96557861Y-89270143D01*
X96618709Y-89267301D01*
X96674376Y-89270863D01*
G36*
X96846689Y-92380387D02*
G01*
X96968772Y-92380387D01*
X96968772Y-92529071D01*
X96909426Y-92531031D01*
X96850081Y-92532991D01*
X96846259Y-92692377D01*
X96656783Y-92692377D01*
X96656783Y-92529599D01*
X96290535Y-92529599D01*
X96290650Y-92460080D01*
X96290766Y-92390561D01*
X96303746Y-92371909D01*
X96477937Y-92371909D01*
X96478705Y-92375434D01*
X96486984Y-92377889D01*
X96504355Y-92379429D01*
X96532396Y-92380208D01*
X96564820Y-92380387D01*
X96656783Y-92380387D01*
X96656783Y-92247000D01*
X96656666Y-92206362D01*
X96656339Y-92171000D01*
X96655840Y-92142905D01*
X96655206Y-92124066D01*
X96654474Y-92116474D01*
X96654346Y-92116440D01*
X96649631Y-92122978D01*
X96638593Y-92138731D01*
X96622587Y-92161733D01*
X96602972Y-92190019D01*
X96581105Y-92221623D01*
X96558342Y-92254578D01*
X96536043Y-92286920D01*
X96515563Y-92316684D01*
X96498260Y-92341902D01*
X96485491Y-92360611D01*
X96478615Y-92370843D01*
X96477937Y-92371909D01*
X96303746Y-92371909D01*
X96492426Y-92100800D01*
X96694086Y-91811040D01*
X96770388Y-91810854D01*
X96846689Y-91810668D01*
X96846689Y-92380387D01*
G37*
X96846689Y-92380387D02*
X96968772Y-92380387D01*
X96968772Y-92529071D01*
X96909426Y-92531031D01*
X96850081Y-92532991D01*
X96846259Y-92692377D01*
X96656783Y-92692377D01*
X96656783Y-92529599D01*
X96290535Y-92529599D01*
X96290650Y-92460080D01*
X96290766Y-92390561D01*
X96303746Y-92371909D01*
X96477937Y-92371909D01*
X96478705Y-92375434D01*
X96486984Y-92377889D01*
X96504355Y-92379429D01*
X96532396Y-92380208D01*
X96564820Y-92380387D01*
X96656783Y-92380387D01*
X96656783Y-92247000D01*
X96656666Y-92206362D01*
X96656339Y-92171000D01*
X96655840Y-92142905D01*
X96655206Y-92124066D01*
X96654474Y-92116474D01*
X96654346Y-92116440D01*
X96649631Y-92122978D01*
X96638593Y-92138731D01*
X96622587Y-92161733D01*
X96602972Y-92190019D01*
X96581105Y-92221623D01*
X96558342Y-92254578D01*
X96536043Y-92286920D01*
X96515563Y-92316684D01*
X96498260Y-92341902D01*
X96485491Y-92360611D01*
X96478615Y-92370843D01*
X96477937Y-92371909D01*
X96303746Y-92371909D01*
X96492426Y-92100800D01*
X96694086Y-91811040D01*
X96770388Y-91810854D01*
X96846689Y-91810668D01*
X96846689Y-92380387D01*
G36*
X96907731Y-94496489D02*
G01*
X96534700Y-94496489D01*
X96534700Y-94592007D01*
X96534971Y-94631250D01*
X96535879Y-94658484D01*
X96537568Y-94675258D01*
X96540179Y-94683120D01*
X96543178Y-94683974D01*
X96586090Y-94669249D01*
X96629913Y-94661563D01*
X96679964Y-94660064D01*
X96690464Y-94660403D01*
X96723834Y-94662296D01*
X96748505Y-94665534D01*
X96769341Y-94671199D01*
X96791205Y-94680369D01*
X96800460Y-94684834D01*
X96851006Y-94716912D01*
X96891960Y-94758354D01*
X96922828Y-94808462D01*
X96943115Y-94866539D01*
X96948450Y-94893708D01*
X96952039Y-94957387D01*
X96943113Y-95017175D01*
X96922428Y-95071993D01*
X96890740Y-95120761D01*
X96848806Y-95162398D01*
X96797380Y-95195824D01*
X96737220Y-95219960D01*
X96716198Y-95225556D01*
X96678818Y-95231507D01*
X96633429Y-95234439D01*
X96585251Y-95234348D01*
X96539502Y-95231231D01*
X96504179Y-95225716D01*
X96462378Y-95214637D01*
X96422583Y-95200691D01*
X96386810Y-95184936D01*
X96357073Y-95168434D01*
X96335390Y-95152246D01*
X96323776Y-95137432D01*
X96322426Y-95130080D01*
X96325772Y-95118140D01*
X96333600Y-95097489D01*
X96344529Y-95071651D01*
X96350830Y-95057657D01*
X96377863Y-94998867D01*
X96416874Y-95022358D01*
X96480250Y-95054103D01*
X96544583Y-95074016D01*
X96608108Y-95081673D01*
X96653781Y-95079170D01*
X96696192Y-95068724D01*
X96728062Y-95050012D01*
X96749844Y-95022498D01*
X96761990Y-94985647D01*
X96765078Y-94947517D01*
X96761827Y-94906052D01*
X96751111Y-94874154D01*
X96731482Y-94849236D01*
X96701492Y-94828708D01*
X96697477Y-94826596D01*
X96676094Y-94816470D01*
X96658084Y-94811044D01*
X96637859Y-94809276D01*
X96609833Y-94810123D01*
X96609306Y-94810151D01*
X96576388Y-94814370D01*
X96541812Y-94822819D01*
X96509377Y-94834169D01*
X96482879Y-94847093D01*
X96466144Y-94860228D01*
X96456007Y-94865493D01*
X96435346Y-94868521D01*
X96402722Y-94869519D01*
X96344794Y-94869519D01*
X96344794Y-94347276D01*
X96907731Y-94347276D01*
X96907731Y-94496489D01*
G37*
X96907731Y-94496489D02*
X96534700Y-94496489D01*
X96534700Y-94592007D01*
X96534971Y-94631250D01*
X96535879Y-94658484D01*
X96537568Y-94675258D01*
X96540179Y-94683120D01*
X96543178Y-94683974D01*
X96586090Y-94669249D01*
X96629913Y-94661563D01*
X96679964Y-94660064D01*
X96690464Y-94660403D01*
X96723834Y-94662296D01*
X96748505Y-94665534D01*
X96769341Y-94671199D01*
X96791205Y-94680369D01*
X96800460Y-94684834D01*
X96851006Y-94716912D01*
X96891960Y-94758354D01*
X96922828Y-94808462D01*
X96943115Y-94866539D01*
X96948450Y-94893708D01*
X96952039Y-94957387D01*
X96943113Y-95017175D01*
X96922428Y-95071993D01*
X96890740Y-95120761D01*
X96848806Y-95162398D01*
X96797380Y-95195824D01*
X96737220Y-95219960D01*
X96716198Y-95225556D01*
X96678818Y-95231507D01*
X96633429Y-95234439D01*
X96585251Y-95234348D01*
X96539502Y-95231231D01*
X96504179Y-95225716D01*
X96462378Y-95214637D01*
X96422583Y-95200691D01*
X96386810Y-95184936D01*
X96357073Y-95168434D01*
X96335390Y-95152246D01*
X96323776Y-95137432D01*
X96322426Y-95130080D01*
X96325772Y-95118140D01*
X96333600Y-95097489D01*
X96344529Y-95071651D01*
X96350830Y-95057657D01*
X96377863Y-94998867D01*
X96416874Y-95022358D01*
X96480250Y-95054103D01*
X96544583Y-95074016D01*
X96608108Y-95081673D01*
X96653781Y-95079170D01*
X96696192Y-95068724D01*
X96728062Y-95050012D01*
X96749844Y-95022498D01*
X96761990Y-94985647D01*
X96765078Y-94947517D01*
X96761827Y-94906052D01*
X96751111Y-94874154D01*
X96731482Y-94849236D01*
X96701492Y-94828708D01*
X96697477Y-94826596D01*
X96676094Y-94816470D01*
X96658084Y-94811044D01*
X96637859Y-94809276D01*
X96609833Y-94810123D01*
X96609306Y-94810151D01*
X96576388Y-94814370D01*
X96541812Y-94822819D01*
X96509377Y-94834169D01*
X96482879Y-94847093D01*
X96466144Y-94860228D01*
X96456007Y-94865493D01*
X96435346Y-94868521D01*
X96402722Y-94869519D01*
X96344794Y-94869519D01*
X96344794Y-94347276D01*
X96907731Y-94347276D01*
X96907731Y-94496489D01*
G36*
X96757288Y-96872552D02*
G01*
X96819791Y-96880653D01*
X96879726Y-96895358D01*
X96934041Y-96915635D01*
X96979682Y-96940450D01*
X96998072Y-96954049D01*
X97017197Y-96969931D01*
X96988765Y-97033730D01*
X96976461Y-97060866D01*
X96965893Y-97083307D01*
X96958436Y-97098180D01*
X96955823Y-97102529D01*
X96948096Y-97102063D01*
X96933686Y-97095160D01*
X96925603Y-97090056D01*
X96905916Y-97078028D01*
X96879726Y-97063755D01*
X96854639Y-97051263D01*
X96831450Y-97040985D01*
X96811977Y-97034639D01*
X96791413Y-97031288D01*
X96764953Y-97029998D01*
X96744512Y-97029824D01*
X96713419Y-97030091D01*
X96692043Y-97031543D01*
X96676541Y-97034955D01*
X96663071Y-97041101D01*
X96650892Y-97048694D01*
X96617242Y-97078881D01*
X96590313Y-97120067D01*
X96570622Y-97171189D01*
X96558686Y-97231184D01*
X96557628Y-97240574D01*
X96553234Y-97283457D01*
X96584022Y-97253957D01*
X96621484Y-97224862D01*
X96663854Y-97205597D01*
X96713464Y-97195332D01*
X96755127Y-97193048D01*
X96787379Y-97193476D01*
X96811037Y-97195784D01*
X96831033Y-97200847D01*
X96852301Y-97209542D01*
X96854951Y-97210767D01*
X96905894Y-97241678D01*
X96948134Y-97282136D01*
X96980818Y-97330630D01*
X97003097Y-97385647D01*
X97014120Y-97445675D01*
X97014407Y-97494299D01*
X97003893Y-97558967D01*
X96982165Y-97617080D01*
X96949895Y-97667685D01*
X96907758Y-97709828D01*
X96856425Y-97742556D01*
X96831220Y-97753682D01*
X96798775Y-97762491D01*
X96757744Y-97768121D01*
X96712769Y-97770388D01*
X96668494Y-97769107D01*
X96629563Y-97764095D01*
X96620389Y-97762033D01*
X96559217Y-97739890D01*
X96505081Y-97706481D01*
X96458591Y-97662485D01*
X96420356Y-97608584D01*
X96390987Y-97545457D01*
X96373947Y-97487278D01*
X96370861Y-97468226D01*
X96577105Y-97468226D01*
X96578568Y-97508216D01*
X96589316Y-97545315D01*
X96607845Y-97576950D01*
X96632652Y-97600548D01*
X96661994Y-97613486D01*
X96678088Y-97617290D01*
X96687304Y-97619831D01*
X96704543Y-97622355D01*
X96727512Y-97619148D01*
X96740994Y-97615714D01*
X96778790Y-97599064D01*
X96806916Y-97573067D01*
X96825011Y-97538240D01*
X96832713Y-97495102D01*
X96832976Y-97483680D01*
X96827342Y-97437844D01*
X96811119Y-97399286D01*
X96786090Y-97370238D01*
X96765937Y-97355831D01*
X96745307Y-97347880D01*
X96719734Y-97345263D01*
X96691111Y-97346370D01*
X96650343Y-97354823D01*
X96618360Y-97373593D01*
X96595250Y-97402583D01*
X96581102Y-97441702D01*
X96577105Y-97468226D01*
X96370861Y-97468226D01*
X96367423Y-97447008D01*
X96363441Y-97398018D01*
X96361956Y-97344163D01*
X96362923Y-97289300D01*
X96366297Y-97237283D01*
X96372035Y-97191969D01*
X96377685Y-97165354D01*
X96403316Y-97090622D01*
X96437059Y-97026336D01*
X96478547Y-96972779D01*
X96527410Y-96930235D01*
X96583282Y-96898989D01*
X96645793Y-96879323D01*
X96714576Y-96871522D01*
X96757288Y-96872552D01*
G37*
X96757288Y-96872552D02*
X96819791Y-96880653D01*
X96879726Y-96895358D01*
X96934041Y-96915635D01*
X96979682Y-96940450D01*
X96998072Y-96954049D01*
X97017197Y-96969931D01*
X96988765Y-97033730D01*
X96976461Y-97060866D01*
X96965893Y-97083307D01*
X96958436Y-97098180D01*
X96955823Y-97102529D01*
X96948096Y-97102063D01*
X96933686Y-97095160D01*
X96925603Y-97090056D01*
X96905916Y-97078028D01*
X96879726Y-97063755D01*
X96854639Y-97051263D01*
X96831450Y-97040985D01*
X96811977Y-97034639D01*
X96791413Y-97031288D01*
X96764953Y-97029998D01*
X96744512Y-97029824D01*
X96713419Y-97030091D01*
X96692043Y-97031543D01*
X96676541Y-97034955D01*
X96663071Y-97041101D01*
X96650892Y-97048694D01*
X96617242Y-97078881D01*
X96590313Y-97120067D01*
X96570622Y-97171189D01*
X96558686Y-97231184D01*
X96557628Y-97240574D01*
X96553234Y-97283457D01*
X96584022Y-97253957D01*
X96621484Y-97224862D01*
X96663854Y-97205597D01*
X96713464Y-97195332D01*
X96755127Y-97193048D01*
X96787379Y-97193476D01*
X96811037Y-97195784D01*
X96831033Y-97200847D01*
X96852301Y-97209542D01*
X96854951Y-97210767D01*
X96905894Y-97241678D01*
X96948134Y-97282136D01*
X96980818Y-97330630D01*
X97003097Y-97385647D01*
X97014120Y-97445675D01*
X97014407Y-97494299D01*
X97003893Y-97558967D01*
X96982165Y-97617080D01*
X96949895Y-97667685D01*
X96907758Y-97709828D01*
X96856425Y-97742556D01*
X96831220Y-97753682D01*
X96798775Y-97762491D01*
X96757744Y-97768121D01*
X96712769Y-97770388D01*
X96668494Y-97769107D01*
X96629563Y-97764095D01*
X96620389Y-97762033D01*
X96559217Y-97739890D01*
X96505081Y-97706481D01*
X96458591Y-97662485D01*
X96420356Y-97608584D01*
X96390987Y-97545457D01*
X96373947Y-97487278D01*
X96370861Y-97468226D01*
X96577105Y-97468226D01*
X96578568Y-97508216D01*
X96589316Y-97545315D01*
X96607845Y-97576950D01*
X96632652Y-97600548D01*
X96661994Y-97613486D01*
X96678088Y-97617290D01*
X96687304Y-97619831D01*
X96704543Y-97622355D01*
X96727512Y-97619148D01*
X96740994Y-97615714D01*
X96778790Y-97599064D01*
X96806916Y-97573067D01*
X96825011Y-97538240D01*
X96832713Y-97495102D01*
X96832976Y-97483680D01*
X96827342Y-97437844D01*
X96811119Y-97399286D01*
X96786090Y-97370238D01*
X96765937Y-97355831D01*
X96745307Y-97347880D01*
X96719734Y-97345263D01*
X96691111Y-97346370D01*
X96650343Y-97354823D01*
X96618360Y-97373593D01*
X96595250Y-97402583D01*
X96581102Y-97441702D01*
X96577105Y-97468226D01*
X96370861Y-97468226D01*
X96367423Y-97447008D01*
X96363441Y-97398018D01*
X96361956Y-97344163D01*
X96362923Y-97289300D01*
X96366297Y-97237283D01*
X96372035Y-97191969D01*
X96377685Y-97165354D01*
X96403316Y-97090622D01*
X96437059Y-97026336D01*
X96478547Y-96972779D01*
X96527410Y-96930235D01*
X96583282Y-96898989D01*
X96645793Y-96879323D01*
X96714576Y-96871522D01*
X96757288Y-96872552D01*
G36*
X93951849Y-79830792D02*
G01*
X93993834Y-79838126D01*
X94035112Y-79852892D01*
X94047743Y-79859082D01*
X94071017Y-79874138D01*
X94095078Y-79894626D01*
X94117792Y-79918354D01*
X94137025Y-79943128D01*
X94148874Y-79963030D01*
X94165301Y-80004592D01*
X94174074Y-80046757D01*
X94175525Y-80088716D01*
X94169984Y-80129660D01*
X94157783Y-80168779D01*
X94139254Y-80205265D01*
X94114728Y-80238308D01*
X94084535Y-80267099D01*
X94049007Y-80290828D01*
X94008476Y-80308686D01*
X94007202Y-80309117D01*
X93972378Y-80317828D01*
X93935633Y-80321779D01*
X93900038Y-80320774D01*
X93878864Y-80317346D01*
X93836893Y-80303766D01*
X93798402Y-80283316D01*
X93764164Y-80256775D01*
X93734949Y-80224921D01*
X93711526Y-80188533D01*
X93694667Y-80148388D01*
X93688470Y-80124984D01*
X93683230Y-80084037D01*
X93685340Y-80044090D01*
X93694959Y-80004014D01*
X93711282Y-79964626D01*
X93733843Y-79927578D01*
X93761790Y-79896052D01*
X93794252Y-79870319D01*
X93830360Y-79850654D01*
X93869242Y-79837329D01*
X93910029Y-79830618D01*
X93951849Y-79830792D01*
G37*
X93951849Y-79830792D02*
X93993834Y-79838126D01*
X94035112Y-79852892D01*
X94047743Y-79859082D01*
X94071017Y-79874138D01*
X94095078Y-79894626D01*
X94117792Y-79918354D01*
X94137025Y-79943128D01*
X94148874Y-79963030D01*
X94165301Y-80004592D01*
X94174074Y-80046757D01*
X94175525Y-80088716D01*
X94169984Y-80129660D01*
X94157783Y-80168779D01*
X94139254Y-80205265D01*
X94114728Y-80238308D01*
X94084535Y-80267099D01*
X94049007Y-80290828D01*
X94008476Y-80308686D01*
X94007202Y-80309117D01*
X93972378Y-80317828D01*
X93935633Y-80321779D01*
X93900038Y-80320774D01*
X93878864Y-80317346D01*
X93836893Y-80303766D01*
X93798402Y-80283316D01*
X93764164Y-80256775D01*
X93734949Y-80224921D01*
X93711526Y-80188533D01*
X93694667Y-80148388D01*
X93688470Y-80124984D01*
X93683230Y-80084037D01*
X93685340Y-80044090D01*
X93694959Y-80004014D01*
X93711282Y-79964626D01*
X93733843Y-79927578D01*
X93761790Y-79896052D01*
X93794252Y-79870319D01*
X93830360Y-79850654D01*
X93869242Y-79837329D01*
X93910029Y-79830618D01*
X93951849Y-79830792D01*
G36*
X93370911Y-79835723D02*
G01*
X93407495Y-79841733D01*
X93441607Y-79853335D01*
X93462657Y-79864530D01*
X93495585Y-79889436D01*
X93521706Y-79918081D01*
X93540730Y-79949981D01*
X93552367Y-79984650D01*
X93556325Y-80021227D01*
X93555990Y-80035280D01*
X93554566Y-80047951D01*
X93551557Y-80061391D01*
X93546464Y-80077748D01*
X93538790Y-80099174D01*
X93537422Y-80102858D01*
X93531199Y-80119340D01*
X93522198Y-80142838D01*
X93510644Y-80172775D01*
X93496766Y-80208573D01*
X93480790Y-80249655D01*
X93462943Y-80295445D01*
X93443451Y-80345365D01*
X93422542Y-80398837D01*
X93400443Y-80455286D01*
X93377380Y-80514134D01*
X93353580Y-80574803D01*
X93329270Y-80636718D01*
X93304678Y-80699300D01*
X93280029Y-80761972D01*
X93255551Y-80824158D01*
X93231471Y-80885280D01*
X93208015Y-80944762D01*
X93185411Y-81002026D01*
X93163885Y-81056495D01*
X93143664Y-81107592D01*
X93124975Y-81154740D01*
X93108046Y-81197362D01*
X93093102Y-81234881D01*
X93080370Y-81266719D01*
X93070079Y-81292300D01*
X93062454Y-81311047D01*
X93061811Y-81312610D01*
X93045590Y-81349499D01*
X93029899Y-81379437D01*
X93013880Y-81403518D01*
X92996678Y-81422840D01*
X92977434Y-81438498D01*
X92955291Y-81451586D01*
X92951677Y-81453391D01*
X92930728Y-81460628D01*
X92904990Y-81465045D01*
X92877386Y-81466497D01*
X92850842Y-81464843D01*
X92828281Y-81459941D01*
X92826919Y-81459469D01*
X92792259Y-81443363D01*
X92761178Y-81421515D01*
X92735332Y-81395209D01*
X92724200Y-81379708D01*
X92721210Y-81374062D01*
X92716422Y-81363693D01*
X92709765Y-81348428D01*
X92701172Y-81328094D01*
X92690574Y-81302518D01*
X92677901Y-81271528D01*
X92663085Y-81234951D01*
X92646057Y-81192615D01*
X92626747Y-81144346D01*
X92605087Y-81089973D01*
X92581008Y-81029322D01*
X92554441Y-80962221D01*
X92525317Y-80888498D01*
X92493567Y-80807979D01*
X92459122Y-80720493D01*
X92421913Y-80625866D01*
X92381872Y-80523925D01*
X92350428Y-80443812D01*
X92325330Y-80379856D01*
X92303040Y-80323038D01*
X92283402Y-80272889D01*
X92266257Y-80228939D01*
X92251446Y-80190719D01*
X92238813Y-80157759D01*
X92228197Y-80129590D01*
X92219442Y-80105742D01*
X92212389Y-80085746D01*
X92206881Y-80069133D01*
X92202758Y-80055432D01*
X92199863Y-80044175D01*
X92198038Y-80034892D01*
X92197124Y-80027113D01*
X92196963Y-80020369D01*
X92197398Y-80014191D01*
X92198269Y-80008109D01*
X92199420Y-80001653D01*
X92200135Y-79997653D01*
X92210458Y-79960987D01*
X92227540Y-79927860D01*
X92250532Y-79898846D01*
X92278585Y-79874522D01*
X92310847Y-79855462D01*
X92346471Y-79842241D01*
X92384605Y-79835436D01*
X92424401Y-79835621D01*
X92437103Y-79837213D01*
X92470814Y-79845020D01*
X92499341Y-79857656D01*
X92524706Y-79876111D01*
X92533364Y-79884280D01*
X92540348Y-79891593D01*
X92546878Y-79899347D01*
X92553268Y-79908210D01*
X92559832Y-79918851D01*
X92566882Y-79931937D01*
X92574733Y-79948135D01*
X92583697Y-79968115D01*
X92594088Y-79992544D01*
X92606219Y-80022090D01*
X92620404Y-80057421D01*
X92636957Y-80099205D01*
X92651258Y-80135549D01*
X92676050Y-80198594D01*
X92700222Y-80259920D01*
X92723599Y-80319086D01*
X92746001Y-80375647D01*
X92767251Y-80429160D01*
X92787171Y-80479181D01*
X92805584Y-80525266D01*
X92822313Y-80566973D01*
X92837179Y-80603858D01*
X92850004Y-80635477D01*
X92860613Y-80661386D01*
X92868825Y-80681142D01*
X92874465Y-80694302D01*
X92877354Y-80700421D01*
X92877640Y-80700810D01*
X92879805Y-80697603D01*
X92884570Y-80687615D01*
X92891584Y-80671676D01*
X92900494Y-80650618D01*
X92910950Y-80625274D01*
X92922598Y-80596473D01*
X92935058Y-80565124D01*
X92961829Y-80497263D01*
X92987970Y-80431123D01*
X93013308Y-80367138D01*
X93037667Y-80305742D01*
X93060875Y-80247370D01*
X93082757Y-80192458D01*
X93103138Y-80141440D01*
X93121846Y-80094750D01*
X93138705Y-80052823D01*
X93153543Y-80016094D01*
X93166183Y-79984999D01*
X93176454Y-79959971D01*
X93184180Y-79941445D01*
X93189188Y-79929856D01*
X93190675Y-79926686D01*
X93205363Y-79904103D01*
X93225349Y-79882135D01*
X93248005Y-79863367D01*
X93266141Y-79852464D01*
X93298253Y-79840967D01*
X93333837Y-79835427D01*
X93370911Y-79835723D01*
G37*
X93370911Y-79835723D02*
X93407495Y-79841733D01*
X93441607Y-79853335D01*
X93462657Y-79864530D01*
X93495585Y-79889436D01*
X93521706Y-79918081D01*
X93540730Y-79949981D01*
X93552367Y-79984650D01*
X93556325Y-80021227D01*
X93555990Y-80035280D01*
X93554566Y-80047951D01*
X93551557Y-80061391D01*
X93546464Y-80077748D01*
X93538790Y-80099174D01*
X93537422Y-80102858D01*
X93531199Y-80119340D01*
X93522198Y-80142838D01*
X93510644Y-80172775D01*
X93496766Y-80208573D01*
X93480790Y-80249655D01*
X93462943Y-80295445D01*
X93443451Y-80345365D01*
X93422542Y-80398837D01*
X93400443Y-80455286D01*
X93377380Y-80514134D01*
X93353580Y-80574803D01*
X93329270Y-80636718D01*
X93304678Y-80699300D01*
X93280029Y-80761972D01*
X93255551Y-80824158D01*
X93231471Y-80885280D01*
X93208015Y-80944762D01*
X93185411Y-81002026D01*
X93163885Y-81056495D01*
X93143664Y-81107592D01*
X93124975Y-81154740D01*
X93108046Y-81197362D01*
X93093102Y-81234881D01*
X93080370Y-81266719D01*
X93070079Y-81292300D01*
X93062454Y-81311047D01*
X93061811Y-81312610D01*
X93045590Y-81349499D01*
X93029899Y-81379437D01*
X93013880Y-81403518D01*
X92996678Y-81422840D01*
X92977434Y-81438498D01*
X92955291Y-81451586D01*
X92951677Y-81453391D01*
X92930728Y-81460628D01*
X92904990Y-81465045D01*
X92877386Y-81466497D01*
X92850842Y-81464843D01*
X92828281Y-81459941D01*
X92826919Y-81459469D01*
X92792259Y-81443363D01*
X92761178Y-81421515D01*
X92735332Y-81395209D01*
X92724200Y-81379708D01*
X92721210Y-81374062D01*
X92716422Y-81363693D01*
X92709765Y-81348428D01*
X92701172Y-81328094D01*
X92690574Y-81302518D01*
X92677901Y-81271528D01*
X92663085Y-81234951D01*
X92646057Y-81192615D01*
X92626747Y-81144346D01*
X92605087Y-81089973D01*
X92581008Y-81029322D01*
X92554441Y-80962221D01*
X92525317Y-80888498D01*
X92493567Y-80807979D01*
X92459122Y-80720493D01*
X92421913Y-80625866D01*
X92381872Y-80523925D01*
X92350428Y-80443812D01*
X92325330Y-80379856D01*
X92303040Y-80323038D01*
X92283402Y-80272889D01*
X92266257Y-80228939D01*
X92251446Y-80190719D01*
X92238813Y-80157759D01*
X92228197Y-80129590D01*
X92219442Y-80105742D01*
X92212389Y-80085746D01*
X92206881Y-80069133D01*
X92202758Y-80055432D01*
X92199863Y-80044175D01*
X92198038Y-80034892D01*
X92197124Y-80027113D01*
X92196963Y-80020369D01*
X92197398Y-80014191D01*
X92198269Y-80008109D01*
X92199420Y-80001653D01*
X92200135Y-79997653D01*
X92210458Y-79960987D01*
X92227540Y-79927860D01*
X92250532Y-79898846D01*
X92278585Y-79874522D01*
X92310847Y-79855462D01*
X92346471Y-79842241D01*
X92384605Y-79835436D01*
X92424401Y-79835621D01*
X92437103Y-79837213D01*
X92470814Y-79845020D01*
X92499341Y-79857656D01*
X92524706Y-79876111D01*
X92533364Y-79884280D01*
X92540348Y-79891593D01*
X92546878Y-79899347D01*
X92553268Y-79908210D01*
X92559832Y-79918851D01*
X92566882Y-79931937D01*
X92574733Y-79948135D01*
X92583697Y-79968115D01*
X92594088Y-79992544D01*
X92606219Y-80022090D01*
X92620404Y-80057421D01*
X92636957Y-80099205D01*
X92651258Y-80135549D01*
X92676050Y-80198594D01*
X92700222Y-80259920D01*
X92723599Y-80319086D01*
X92746001Y-80375647D01*
X92767251Y-80429160D01*
X92787171Y-80479181D01*
X92805584Y-80525266D01*
X92822313Y-80566973D01*
X92837179Y-80603858D01*
X92850004Y-80635477D01*
X92860613Y-80661386D01*
X92868825Y-80681142D01*
X92874465Y-80694302D01*
X92877354Y-80700421D01*
X92877640Y-80700810D01*
X92879805Y-80697603D01*
X92884570Y-80687615D01*
X92891584Y-80671676D01*
X92900494Y-80650618D01*
X92910950Y-80625274D01*
X92922598Y-80596473D01*
X92935058Y-80565124D01*
X92961829Y-80497263D01*
X92987970Y-80431123D01*
X93013308Y-80367138D01*
X93037667Y-80305742D01*
X93060875Y-80247370D01*
X93082757Y-80192458D01*
X93103138Y-80141440D01*
X93121846Y-80094750D01*
X93138705Y-80052823D01*
X93153543Y-80016094D01*
X93166183Y-79984999D01*
X93176454Y-79959971D01*
X93184180Y-79941445D01*
X93189188Y-79929856D01*
X93190675Y-79926686D01*
X93205363Y-79904103D01*
X93225349Y-79882135D01*
X93248005Y-79863367D01*
X93266141Y-79852464D01*
X93298253Y-79840967D01*
X93333837Y-79835427D01*
X93370911Y-79835723D01*
G36*
X93951823Y-80488307D02*
G01*
X93991750Y-80493189D01*
X94025302Y-80501997D01*
X94053465Y-80515117D01*
X94077223Y-80532937D01*
X94084870Y-80540559D01*
X94096061Y-80554084D01*
X94105892Y-80568629D01*
X94110762Y-80577859D01*
X94114022Y-80585603D01*
X94116878Y-80593023D01*
X94119357Y-80600687D01*
X94121487Y-80609166D01*
X94123293Y-80619027D01*
X94124802Y-80630839D01*
X94126042Y-80645171D01*
X94127037Y-80662591D01*
X94127816Y-80683668D01*
X94128405Y-80708972D01*
X94128830Y-80739069D01*
X94129117Y-80774530D01*
X94129295Y-80815923D01*
X94129389Y-80863816D01*
X94129425Y-80918778D01*
X94129431Y-80976636D01*
X94129423Y-81036813D01*
X94129389Y-81089391D01*
X94129318Y-81134937D01*
X94129198Y-81174016D01*
X94129017Y-81207196D01*
X94128763Y-81235043D01*
X94128424Y-81258125D01*
X94127987Y-81277007D01*
X94127441Y-81292256D01*
X94126775Y-81304439D01*
X94125975Y-81314123D01*
X94125030Y-81321874D01*
X94123928Y-81328259D01*
X94122657Y-81333844D01*
X94121801Y-81337074D01*
X94108032Y-81372310D01*
X94087612Y-81403546D01*
X94061351Y-81429785D01*
X94030058Y-81450033D01*
X94029987Y-81450069D01*
X94004374Y-81459815D01*
X93973753Y-81466486D01*
X93940777Y-81469828D01*
X93908102Y-81469586D01*
X93878381Y-81465506D01*
X93875668Y-81464875D01*
X93839091Y-81452294D01*
X93807319Y-81433754D01*
X93780954Y-81409845D01*
X93760599Y-81381156D01*
X93746857Y-81348276D01*
X93743732Y-81335935D01*
X93742809Y-81329090D01*
X93742021Y-81317595D01*
X93741364Y-81301087D01*
X93740834Y-81279200D01*
X93740427Y-81251570D01*
X93740142Y-81217833D01*
X93739973Y-81177624D01*
X93739918Y-81130578D01*
X93739973Y-81076331D01*
X93740135Y-81014518D01*
X93740295Y-80970512D01*
X93740538Y-80909676D01*
X93740765Y-80856457D01*
X93740992Y-80810303D01*
X93741234Y-80770665D01*
X93741507Y-80736994D01*
X93741825Y-80708739D01*
X93742206Y-80685350D01*
X93742662Y-80666277D01*
X93743212Y-80650971D01*
X93743868Y-80638882D01*
X93744648Y-80629458D01*
X93745567Y-80622152D01*
X93746640Y-80616412D01*
X93747882Y-80611689D01*
X93749309Y-80607433D01*
X93750578Y-80604035D01*
X93756987Y-80588241D01*
X93763392Y-80575868D01*
X93771426Y-80564501D01*
X93782721Y-80551729D01*
X93793404Y-80540697D01*
X93821341Y-80518077D01*
X93854232Y-80501523D01*
X93891287Y-80491295D01*
X93931715Y-80487656D01*
X93951823Y-80488307D01*
G37*
X93951823Y-80488307D02*
X93991750Y-80493189D01*
X94025302Y-80501997D01*
X94053465Y-80515117D01*
X94077223Y-80532937D01*
X94084870Y-80540559D01*
X94096061Y-80554084D01*
X94105892Y-80568629D01*
X94110762Y-80577859D01*
X94114022Y-80585603D01*
X94116878Y-80593023D01*
X94119357Y-80600687D01*
X94121487Y-80609166D01*
X94123293Y-80619027D01*
X94124802Y-80630839D01*
X94126042Y-80645171D01*
X94127037Y-80662591D01*
X94127816Y-80683668D01*
X94128405Y-80708972D01*
X94128830Y-80739069D01*
X94129117Y-80774530D01*
X94129295Y-80815923D01*
X94129389Y-80863816D01*
X94129425Y-80918778D01*
X94129431Y-80976636D01*
X94129423Y-81036813D01*
X94129389Y-81089391D01*
X94129318Y-81134937D01*
X94129198Y-81174016D01*
X94129017Y-81207196D01*
X94128763Y-81235043D01*
X94128424Y-81258125D01*
X94127987Y-81277007D01*
X94127441Y-81292256D01*
X94126775Y-81304439D01*
X94125975Y-81314123D01*
X94125030Y-81321874D01*
X94123928Y-81328259D01*
X94122657Y-81333844D01*
X94121801Y-81337074D01*
X94108032Y-81372310D01*
X94087612Y-81403546D01*
X94061351Y-81429785D01*
X94030058Y-81450033D01*
X94029987Y-81450069D01*
X94004374Y-81459815D01*
X93973753Y-81466486D01*
X93940777Y-81469828D01*
X93908102Y-81469586D01*
X93878381Y-81465506D01*
X93875668Y-81464875D01*
X93839091Y-81452294D01*
X93807319Y-81433754D01*
X93780954Y-81409845D01*
X93760599Y-81381156D01*
X93746857Y-81348276D01*
X93743732Y-81335935D01*
X93742809Y-81329090D01*
X93742021Y-81317595D01*
X93741364Y-81301087D01*
X93740834Y-81279200D01*
X93740427Y-81251570D01*
X93740142Y-81217833D01*
X93739973Y-81177624D01*
X93739918Y-81130578D01*
X93739973Y-81076331D01*
X93740135Y-81014518D01*
X93740295Y-80970512D01*
X93740538Y-80909676D01*
X93740765Y-80856457D01*
X93740992Y-80810303D01*
X93741234Y-80770665D01*
X93741507Y-80736994D01*
X93741825Y-80708739D01*
X93742206Y-80685350D01*
X93742662Y-80666277D01*
X93743212Y-80650971D01*
X93743868Y-80638882D01*
X93744648Y-80629458D01*
X93745567Y-80622152D01*
X93746640Y-80616412D01*
X93747882Y-80611689D01*
X93749309Y-80607433D01*
X93750578Y-80604035D01*
X93756987Y-80588241D01*
X93763392Y-80575868D01*
X93771426Y-80564501D01*
X93782721Y-80551729D01*
X93793404Y-80540697D01*
X93821341Y-80518077D01*
X93854232Y-80501523D01*
X93891287Y-80491295D01*
X93931715Y-80487656D01*
X93951823Y-80488307D01*
G36*
X91869521Y-79841552D02*
G01*
X91906402Y-79850598D01*
X91940602Y-79866463D01*
X91970917Y-79888296D01*
X91996144Y-79915250D01*
X92013540Y-79943253D01*
X92026715Y-79970013D01*
X92027870Y-80364106D01*
X92028066Y-80441504D01*
X92028169Y-80511217D01*
X92028162Y-80573726D01*
X92028029Y-80629511D01*
X92027757Y-80679054D01*
X92027328Y-80722834D01*
X92026728Y-80761333D01*
X92025942Y-80795032D01*
X92024953Y-80824410D01*
X92023747Y-80849949D01*
X92022308Y-80872129D01*
X92020621Y-80891431D01*
X92018671Y-80908335D01*
X92016441Y-80923323D01*
X92013916Y-80936875D01*
X92011082Y-80949471D01*
X92008829Y-80958263D01*
X91993647Y-81009808D01*
X91977050Y-81055505D01*
X91958041Y-81097660D01*
X91935619Y-81138582D01*
X91919497Y-81164451D01*
X91876921Y-81222876D01*
X91828682Y-81276134D01*
X91775426Y-81323780D01*
X91717800Y-81365369D01*
X91656448Y-81400458D01*
X91592018Y-81428600D01*
X91525155Y-81449353D01*
X91495932Y-81455871D01*
X91439792Y-81464562D01*
X91380605Y-81469428D01*
X91321284Y-81470369D01*
X91264746Y-81467287D01*
X91240748Y-81464528D01*
X91167937Y-81451042D01*
X91099735Y-81430992D01*
X91035592Y-81404104D01*
X90974959Y-81370105D01*
X90917283Y-81328721D01*
X90862016Y-81279678D01*
X90854906Y-81272653D01*
X90804452Y-81217113D01*
X90761697Y-81158989D01*
X90726496Y-81097976D01*
X90698707Y-81033765D01*
X90678185Y-80966052D01*
X90664786Y-80894527D01*
X90660798Y-80858231D01*
X90659958Y-80843719D01*
X90659236Y-80821141D01*
X90658632Y-80790594D01*
X90658147Y-80752175D01*
X90657781Y-80705982D01*
X90657537Y-80652115D01*
X90657413Y-80590669D01*
X90657411Y-80521744D01*
X90657531Y-80445437D01*
X90657667Y-80394505D01*
X90658928Y-79981817D01*
X90676271Y-79946820D01*
X90697317Y-79912629D01*
X90723157Y-79884924D01*
X90753416Y-79863869D01*
X90787721Y-79849627D01*
X90825695Y-79842363D01*
X90866967Y-79842241D01*
X90903008Y-79847585D01*
X90938013Y-79858880D01*
X90969728Y-79876720D01*
X90997202Y-79900139D01*
X91019480Y-79928168D01*
X91035610Y-79959839D01*
X91044122Y-79990888D01*
X91044772Y-79998724D01*
X91045433Y-80014264D01*
X91046098Y-80037049D01*
X91046759Y-80066617D01*
X91047410Y-80102508D01*
X91048044Y-80144260D01*
X91048653Y-80191414D01*
X91049232Y-80243508D01*
X91049773Y-80300081D01*
X91050269Y-80360672D01*
X91050714Y-80424822D01*
X91050769Y-80433604D01*
X91051200Y-80503572D01*
X91051598Y-80565870D01*
X91051991Y-80620997D01*
X91052406Y-80669448D01*
X91052869Y-80711721D01*
X91053409Y-80748312D01*
X91054052Y-80779718D01*
X91054826Y-80806436D01*
X91055757Y-80828963D01*
X91056874Y-80847795D01*
X91058203Y-80863430D01*
X91059771Y-80876364D01*
X91061606Y-80887094D01*
X91063735Y-80896117D01*
X91066185Y-80903929D01*
X91068983Y-80911028D01*
X91072156Y-80917910D01*
X91075733Y-80925072D01*
X91077926Y-80929397D01*
X91102284Y-80968847D01*
X91132503Y-81003025D01*
X91167864Y-81031501D01*
X91207652Y-81053843D01*
X91251150Y-81069619D01*
X91297640Y-81078400D01*
X91328531Y-81080148D01*
X91379514Y-81076737D01*
X91427432Y-81066037D01*
X91471788Y-81048349D01*
X91512082Y-81023977D01*
X91547818Y-80993222D01*
X91578496Y-80956385D01*
X91603617Y-80913770D01*
X91603822Y-80913350D01*
X91608501Y-80903871D01*
X91612668Y-80895423D01*
X91616355Y-80887502D01*
X91619594Y-80879605D01*
X91622417Y-80871227D01*
X91624857Y-80861866D01*
X91626945Y-80851017D01*
X91628714Y-80838176D01*
X91630196Y-80822840D01*
X91631423Y-80804505D01*
X91632427Y-80782668D01*
X91633240Y-80756823D01*
X91633895Y-80726468D01*
X91634423Y-80691099D01*
X91634857Y-80650213D01*
X91635229Y-80603304D01*
X91635571Y-80549870D01*
X91635915Y-80489407D01*
X91636294Y-80421410D01*
X91636400Y-80402764D01*
X91638835Y-79977920D01*
X91654223Y-79946791D01*
X91675369Y-79912447D01*
X91701527Y-79884409D01*
X91732286Y-79862878D01*
X91767237Y-79848054D01*
X91805968Y-79840138D01*
X91848068Y-79839331D01*
X91869521Y-79841552D01*
G37*
X91869521Y-79841552D02*
X91906402Y-79850598D01*
X91940602Y-79866463D01*
X91970917Y-79888296D01*
X91996144Y-79915250D01*
X92013540Y-79943253D01*
X92026715Y-79970013D01*
X92027870Y-80364106D01*
X92028066Y-80441504D01*
X92028169Y-80511217D01*
X92028162Y-80573726D01*
X92028029Y-80629511D01*
X92027757Y-80679054D01*
X92027328Y-80722834D01*
X92026728Y-80761333D01*
X92025942Y-80795032D01*
X92024953Y-80824410D01*
X92023747Y-80849949D01*
X92022308Y-80872129D01*
X92020621Y-80891431D01*
X92018671Y-80908335D01*
X92016441Y-80923323D01*
X92013916Y-80936875D01*
X92011082Y-80949471D01*
X92008829Y-80958263D01*
X91993647Y-81009808D01*
X91977050Y-81055505D01*
X91958041Y-81097660D01*
X91935619Y-81138582D01*
X91919497Y-81164451D01*
X91876921Y-81222876D01*
X91828682Y-81276134D01*
X91775426Y-81323780D01*
X91717800Y-81365369D01*
X91656448Y-81400458D01*
X91592018Y-81428600D01*
X91525155Y-81449353D01*
X91495932Y-81455871D01*
X91439792Y-81464562D01*
X91380605Y-81469428D01*
X91321284Y-81470369D01*
X91264746Y-81467287D01*
X91240748Y-81464528D01*
X91167937Y-81451042D01*
X91099735Y-81430992D01*
X91035592Y-81404104D01*
X90974959Y-81370105D01*
X90917283Y-81328721D01*
X90862016Y-81279678D01*
X90854906Y-81272653D01*
X90804452Y-81217113D01*
X90761697Y-81158989D01*
X90726496Y-81097976D01*
X90698707Y-81033765D01*
X90678185Y-80966052D01*
X90664786Y-80894527D01*
X90660798Y-80858231D01*
X90659958Y-80843719D01*
X90659236Y-80821141D01*
X90658632Y-80790594D01*
X90658147Y-80752175D01*
X90657781Y-80705982D01*
X90657537Y-80652115D01*
X90657413Y-80590669D01*
X90657411Y-80521744D01*
X90657531Y-80445437D01*
X90657667Y-80394505D01*
X90658928Y-79981817D01*
X90676271Y-79946820D01*
X90697317Y-79912629D01*
X90723157Y-79884924D01*
X90753416Y-79863869D01*
X90787721Y-79849627D01*
X90825695Y-79842363D01*
X90866967Y-79842241D01*
X90903008Y-79847585D01*
X90938013Y-79858880D01*
X90969728Y-79876720D01*
X90997202Y-79900139D01*
X91019480Y-79928168D01*
X91035610Y-79959839D01*
X91044122Y-79990888D01*
X91044772Y-79998724D01*
X91045433Y-80014264D01*
X91046098Y-80037049D01*
X91046759Y-80066617D01*
X91047410Y-80102508D01*
X91048044Y-80144260D01*
X91048653Y-80191414D01*
X91049232Y-80243508D01*
X91049773Y-80300081D01*
X91050269Y-80360672D01*
X91050714Y-80424822D01*
X91050769Y-80433604D01*
X91051200Y-80503572D01*
X91051598Y-80565870D01*
X91051991Y-80620997D01*
X91052406Y-80669448D01*
X91052869Y-80711721D01*
X91053409Y-80748312D01*
X91054052Y-80779718D01*
X91054826Y-80806436D01*
X91055757Y-80828963D01*
X91056874Y-80847795D01*
X91058203Y-80863430D01*
X91059771Y-80876364D01*
X91061606Y-80887094D01*
X91063735Y-80896117D01*
X91066185Y-80903929D01*
X91068983Y-80911028D01*
X91072156Y-80917910D01*
X91075733Y-80925072D01*
X91077926Y-80929397D01*
X91102284Y-80968847D01*
X91132503Y-81003025D01*
X91167864Y-81031501D01*
X91207652Y-81053843D01*
X91251150Y-81069619D01*
X91297640Y-81078400D01*
X91328531Y-81080148D01*
X91379514Y-81076737D01*
X91427432Y-81066037D01*
X91471788Y-81048349D01*
X91512082Y-81023977D01*
X91547818Y-80993222D01*
X91578496Y-80956385D01*
X91603617Y-80913770D01*
X91603822Y-80913350D01*
X91608501Y-80903871D01*
X91612668Y-80895423D01*
X91616355Y-80887502D01*
X91619594Y-80879605D01*
X91622417Y-80871227D01*
X91624857Y-80861866D01*
X91626945Y-80851017D01*
X91628714Y-80838176D01*
X91630196Y-80822840D01*
X91631423Y-80804505D01*
X91632427Y-80782668D01*
X91633240Y-80756823D01*
X91633895Y-80726468D01*
X91634423Y-80691099D01*
X91634857Y-80650213D01*
X91635229Y-80603304D01*
X91635571Y-80549870D01*
X91635915Y-80489407D01*
X91636294Y-80421410D01*
X91636400Y-80402764D01*
X91638835Y-79977920D01*
X91654223Y-79946791D01*
X91675369Y-79912447D01*
X91701527Y-79884409D01*
X91732286Y-79862878D01*
X91767237Y-79848054D01*
X91805968Y-79840138D01*
X91848068Y-79839331D01*
X91869521Y-79841552D01*
G36*
X88734063Y-79841648D02*
G01*
X88763485Y-79848850D01*
X88789620Y-79860509D01*
X88813871Y-79877030D01*
X88825283Y-79886832D01*
X88850991Y-79914566D01*
X88869466Y-79944577D01*
X88881301Y-79977168D01*
X88887867Y-80014912D01*
X88888192Y-80052654D01*
X88882591Y-80089026D01*
X88871375Y-80122657D01*
X88854857Y-80152178D01*
X88836540Y-80173337D01*
X88819287Y-80187901D01*
X88800948Y-80199836D01*
X88780182Y-80209648D01*
X88755648Y-80217847D01*
X88726007Y-80224939D01*
X88689917Y-80231432D01*
X88678429Y-80233219D01*
X88648006Y-80238227D01*
X88623486Y-80243352D01*
X88602621Y-80249240D01*
X88583166Y-80256537D01*
X88562874Y-80265888D01*
X88560295Y-80267169D01*
X88517203Y-80292572D01*
X88480904Y-80322417D01*
X88451156Y-80356999D01*
X88427719Y-80396610D01*
X88410351Y-80441544D01*
X88406830Y-80454019D01*
X88405976Y-80459688D01*
X88405206Y-80470073D01*
X88404518Y-80485494D01*
X88403906Y-80506268D01*
X88403367Y-80532714D01*
X88402897Y-80565149D01*
X88402491Y-80603892D01*
X88402146Y-80649261D01*
X88401858Y-80701574D01*
X88401623Y-80761149D01*
X88401436Y-80828303D01*
X88401313Y-80890894D01*
X88400626Y-81309396D01*
X88389484Y-81341514D01*
X88372988Y-81378801D01*
X88351523Y-81409662D01*
X88324915Y-81434279D01*
X88292988Y-81452840D01*
X88277709Y-81458959D01*
X88257716Y-81464077D01*
X88232798Y-81467584D01*
X88205681Y-81469362D01*
X88179092Y-81469298D01*
X88155759Y-81467276D01*
X88142913Y-81464659D01*
X88105544Y-81450354D01*
X88073639Y-81430245D01*
X88047560Y-81404712D01*
X88027667Y-81374138D01*
X88014323Y-81338905D01*
X88011271Y-81325565D01*
X88010466Y-81318789D01*
X88009765Y-81307151D01*
X88009166Y-81290349D01*
X88008668Y-81268082D01*
X88008269Y-81240049D01*
X88007965Y-81205948D01*
X88007756Y-81165478D01*
X88007638Y-81118337D01*
X88007610Y-81064224D01*
X88007670Y-81002837D01*
X88007816Y-80933876D01*
X88008035Y-80860272D01*
X88008267Y-80790773D01*
X88008483Y-80728944D01*
X88008695Y-80674290D01*
X88008913Y-80626316D01*
X88009148Y-80584526D01*
X88009411Y-80548426D01*
X88009713Y-80517519D01*
X88010065Y-80491311D01*
X88010478Y-80469305D01*
X88010963Y-80451008D01*
X88011530Y-80435923D01*
X88012192Y-80423554D01*
X88012958Y-80413407D01*
X88013841Y-80404987D01*
X88014849Y-80397797D01*
X88015996Y-80391343D01*
X88017291Y-80385130D01*
X88018688Y-80378917D01*
X88039323Y-80304052D01*
X88065995Y-80234597D01*
X88098848Y-80170304D01*
X88138031Y-80110928D01*
X88183689Y-80056222D01*
X88235968Y-80005940D01*
X88244279Y-79998857D01*
X88302847Y-79954265D01*
X88363483Y-79917233D01*
X88426755Y-79887542D01*
X88493229Y-79864974D01*
X88563474Y-79849310D01*
X88638056Y-79840332D01*
X88659749Y-79838989D01*
X88699952Y-79838496D01*
X88734063Y-79841648D01*
G37*
X88734063Y-79841648D02*
X88763485Y-79848850D01*
X88789620Y-79860509D01*
X88813871Y-79877030D01*
X88825283Y-79886832D01*
X88850991Y-79914566D01*
X88869466Y-79944577D01*
X88881301Y-79977168D01*
X88887867Y-80014912D01*
X88888192Y-80052654D01*
X88882591Y-80089026D01*
X88871375Y-80122657D01*
X88854857Y-80152178D01*
X88836540Y-80173337D01*
X88819287Y-80187901D01*
X88800948Y-80199836D01*
X88780182Y-80209648D01*
X88755648Y-80217847D01*
X88726007Y-80224939D01*
X88689917Y-80231432D01*
X88678429Y-80233219D01*
X88648006Y-80238227D01*
X88623486Y-80243352D01*
X88602621Y-80249240D01*
X88583166Y-80256537D01*
X88562874Y-80265888D01*
X88560295Y-80267169D01*
X88517203Y-80292572D01*
X88480904Y-80322417D01*
X88451156Y-80356999D01*
X88427719Y-80396610D01*
X88410351Y-80441544D01*
X88406830Y-80454019D01*
X88405976Y-80459688D01*
X88405206Y-80470073D01*
X88404518Y-80485494D01*
X88403906Y-80506268D01*
X88403367Y-80532714D01*
X88402897Y-80565149D01*
X88402491Y-80603892D01*
X88402146Y-80649261D01*
X88401858Y-80701574D01*
X88401623Y-80761149D01*
X88401436Y-80828303D01*
X88401313Y-80890894D01*
X88400626Y-81309396D01*
X88389484Y-81341514D01*
X88372988Y-81378801D01*
X88351523Y-81409662D01*
X88324915Y-81434279D01*
X88292988Y-81452840D01*
X88277709Y-81458959D01*
X88257716Y-81464077D01*
X88232798Y-81467584D01*
X88205681Y-81469362D01*
X88179092Y-81469298D01*
X88155759Y-81467276D01*
X88142913Y-81464659D01*
X88105544Y-81450354D01*
X88073639Y-81430245D01*
X88047560Y-81404712D01*
X88027667Y-81374138D01*
X88014323Y-81338905D01*
X88011271Y-81325565D01*
X88010466Y-81318789D01*
X88009765Y-81307151D01*
X88009166Y-81290349D01*
X88008668Y-81268082D01*
X88008269Y-81240049D01*
X88007965Y-81205948D01*
X88007756Y-81165478D01*
X88007638Y-81118337D01*
X88007610Y-81064224D01*
X88007670Y-81002837D01*
X88007816Y-80933876D01*
X88008035Y-80860272D01*
X88008267Y-80790773D01*
X88008483Y-80728944D01*
X88008695Y-80674290D01*
X88008913Y-80626316D01*
X88009148Y-80584526D01*
X88009411Y-80548426D01*
X88009713Y-80517519D01*
X88010065Y-80491311D01*
X88010478Y-80469305D01*
X88010963Y-80451008D01*
X88011530Y-80435923D01*
X88012192Y-80423554D01*
X88012958Y-80413407D01*
X88013841Y-80404987D01*
X88014849Y-80397797D01*
X88015996Y-80391343D01*
X88017291Y-80385130D01*
X88018688Y-80378917D01*
X88039323Y-80304052D01*
X88065995Y-80234597D01*
X88098848Y-80170304D01*
X88138031Y-80110928D01*
X88183689Y-80056222D01*
X88235968Y-80005940D01*
X88244279Y-79998857D01*
X88302847Y-79954265D01*
X88363483Y-79917233D01*
X88426755Y-79887542D01*
X88493229Y-79864974D01*
X88563474Y-79849310D01*
X88638056Y-79840332D01*
X88659749Y-79838989D01*
X88699952Y-79838496D01*
X88734063Y-79841648D01*
G36*
X95402652Y-79834689D02*
G01*
X95478109Y-79842648D01*
X95551848Y-79857456D01*
X95623458Y-79878851D01*
X95692526Y-79906571D01*
X95758641Y-79940355D01*
X95821390Y-79979940D01*
X95880361Y-80025065D01*
X95935143Y-80075467D01*
X95985322Y-80130885D01*
X96030487Y-80191056D01*
X96070225Y-80255720D01*
X96104126Y-80324613D01*
X96131776Y-80397474D01*
X96152763Y-80474041D01*
X96166676Y-80554053D01*
X96167422Y-80560176D01*
X96172786Y-80639731D01*
X96170252Y-80719014D01*
X96160059Y-80797416D01*
X96142447Y-80874331D01*
X96117657Y-80949152D01*
X96085928Y-81021272D01*
X96047502Y-81090085D01*
X96002617Y-81154983D01*
X95951515Y-81215360D01*
X95894434Y-81270609D01*
X95882141Y-81281142D01*
X95817157Y-81330715D01*
X95748982Y-81372964D01*
X95677230Y-81408070D01*
X95601516Y-81436209D01*
X95521456Y-81457560D01*
X95484969Y-81464812D01*
X95465276Y-81467466D01*
X95439404Y-81469679D01*
X95409332Y-81471399D01*
X95377037Y-81472575D01*
X95344497Y-81473158D01*
X95313690Y-81473096D01*
X95286594Y-81472338D01*
X95265187Y-81470834D01*
X95262449Y-81470524D01*
X95182067Y-81456803D01*
X95104201Y-81435626D01*
X95029322Y-81407327D01*
X94957902Y-81372236D01*
X94890412Y-81330687D01*
X94827323Y-81283012D01*
X94769107Y-81229543D01*
X94716234Y-81170612D01*
X94669177Y-81106553D01*
X94628405Y-81037696D01*
X94617114Y-81015424D01*
X94584968Y-80940351D01*
X94560581Y-80863282D01*
X94543954Y-80784766D01*
X94535086Y-80705349D01*
X94534665Y-80674970D01*
X95000127Y-80674970D01*
X95002949Y-80708418D01*
X95012348Y-80773250D01*
X95029106Y-80835176D01*
X95052806Y-80893728D01*
X95083028Y-80948435D01*
X95119354Y-80998827D01*
X95161366Y-81044434D01*
X95208644Y-81084786D01*
X95260769Y-81119413D01*
X95317325Y-81147845D01*
X95377891Y-81169612D01*
X95423725Y-81180889D01*
X95453837Y-81185307D01*
X95489115Y-81187874D01*
X95526763Y-81188565D01*
X95563988Y-81187356D01*
X95597997Y-81184225D01*
X95609800Y-81182475D01*
X95671969Y-81167941D01*
X95731665Y-81145906D01*
X95788168Y-81116841D01*
X95840754Y-81081218D01*
X95888702Y-81039511D01*
X95931292Y-80992190D01*
X95958710Y-80954180D01*
X95975373Y-80927676D01*
X95988421Y-80904199D01*
X95999418Y-80880558D01*
X96009930Y-80853559D01*
X96014858Y-80839642D01*
X96032059Y-80777870D01*
X96041618Y-80714528D01*
X96043527Y-80650611D01*
X96037778Y-80587118D01*
X96024365Y-80525043D01*
X96017404Y-80502475D01*
X95993221Y-80442714D01*
X95962325Y-80387077D01*
X95925256Y-80336031D01*
X95882554Y-80290042D01*
X95834761Y-80249576D01*
X95782417Y-80215099D01*
X95726061Y-80187078D01*
X95666236Y-80165977D01*
X95613146Y-80153847D01*
X95593215Y-80151108D01*
X95570430Y-80149149D01*
X95546048Y-80147943D01*
X95521325Y-80147465D01*
X95497518Y-80147689D01*
X95475884Y-80148587D01*
X95457680Y-80150135D01*
X95444163Y-80152307D01*
X95436589Y-80155075D01*
X95435571Y-80157538D01*
X95455355Y-80205701D01*
X95468795Y-80250681D01*
X95476224Y-80293999D01*
X95477972Y-80337177D01*
X95477463Y-80349904D01*
X95470543Y-80404173D01*
X95456093Y-80455389D01*
X95433985Y-80503952D01*
X95419837Y-80527643D01*
X95387597Y-80570220D01*
X95350115Y-80606981D01*
X95308169Y-80637627D01*
X95262539Y-80661859D01*
X95214005Y-80679374D01*
X95163347Y-80689874D01*
X95111345Y-80693057D01*
X95058777Y-80688624D01*
X95022069Y-80680830D01*
X95000127Y-80674970D01*
X94534665Y-80674970D01*
X94533979Y-80625581D01*
X94540630Y-80546008D01*
X94555042Y-80467178D01*
X94577213Y-80389641D01*
X94607144Y-80313942D01*
X94617114Y-80292743D01*
X94655616Y-80222979D01*
X94700826Y-80157435D01*
X94752190Y-80096597D01*
X94809154Y-80040950D01*
X94871164Y-79990979D01*
X94937667Y-79947171D01*
X95008109Y-79910011D01*
X95081935Y-79879983D01*
X95091892Y-79876582D01*
X95170097Y-79854526D01*
X95248234Y-79840366D01*
X95325889Y-79833841D01*
X95402652Y-79834689D01*
G37*
X95402652Y-79834689D02*
X95478109Y-79842648D01*
X95551848Y-79857456D01*
X95623458Y-79878851D01*
X95692526Y-79906571D01*
X95758641Y-79940355D01*
X95821390Y-79979940D01*
X95880361Y-80025065D01*
X95935143Y-80075467D01*
X95985322Y-80130885D01*
X96030487Y-80191056D01*
X96070225Y-80255720D01*
X96104126Y-80324613D01*
X96131776Y-80397474D01*
X96152763Y-80474041D01*
X96166676Y-80554053D01*
X96167422Y-80560176D01*
X96172786Y-80639731D01*
X96170252Y-80719014D01*
X96160059Y-80797416D01*
X96142447Y-80874331D01*
X96117657Y-80949152D01*
X96085928Y-81021272D01*
X96047502Y-81090085D01*
X96002617Y-81154983D01*
X95951515Y-81215360D01*
X95894434Y-81270609D01*
X95882141Y-81281142D01*
X95817157Y-81330715D01*
X95748982Y-81372964D01*
X95677230Y-81408070D01*
X95601516Y-81436209D01*
X95521456Y-81457560D01*
X95484969Y-81464812D01*
X95465276Y-81467466D01*
X95439404Y-81469679D01*
X95409332Y-81471399D01*
X95377037Y-81472575D01*
X95344497Y-81473158D01*
X95313690Y-81473096D01*
X95286594Y-81472338D01*
X95265187Y-81470834D01*
X95262449Y-81470524D01*
X95182067Y-81456803D01*
X95104201Y-81435626D01*
X95029322Y-81407327D01*
X94957902Y-81372236D01*
X94890412Y-81330687D01*
X94827323Y-81283012D01*
X94769107Y-81229543D01*
X94716234Y-81170612D01*
X94669177Y-81106553D01*
X94628405Y-81037696D01*
X94617114Y-81015424D01*
X94584968Y-80940351D01*
X94560581Y-80863282D01*
X94543954Y-80784766D01*
X94535086Y-80705349D01*
X94534665Y-80674970D01*
X95000127Y-80674970D01*
X95002949Y-80708418D01*
X95012348Y-80773250D01*
X95029106Y-80835176D01*
X95052806Y-80893728D01*
X95083028Y-80948435D01*
X95119354Y-80998827D01*
X95161366Y-81044434D01*
X95208644Y-81084786D01*
X95260769Y-81119413D01*
X95317325Y-81147845D01*
X95377891Y-81169612D01*
X95423725Y-81180889D01*
X95453837Y-81185307D01*
X95489115Y-81187874D01*
X95526763Y-81188565D01*
X95563988Y-81187356D01*
X95597997Y-81184225D01*
X95609800Y-81182475D01*
X95671969Y-81167941D01*
X95731665Y-81145906D01*
X95788168Y-81116841D01*
X95840754Y-81081218D01*
X95888702Y-81039511D01*
X95931292Y-80992190D01*
X95958710Y-80954180D01*
X95975373Y-80927676D01*
X95988421Y-80904199D01*
X95999418Y-80880558D01*
X96009930Y-80853559D01*
X96014858Y-80839642D01*
X96032059Y-80777870D01*
X96041618Y-80714528D01*
X96043527Y-80650611D01*
X96037778Y-80587118D01*
X96024365Y-80525043D01*
X96017404Y-80502475D01*
X95993221Y-80442714D01*
X95962325Y-80387077D01*
X95925256Y-80336031D01*
X95882554Y-80290042D01*
X95834761Y-80249576D01*
X95782417Y-80215099D01*
X95726061Y-80187078D01*
X95666236Y-80165977D01*
X95613146Y-80153847D01*
X95593215Y-80151108D01*
X95570430Y-80149149D01*
X95546048Y-80147943D01*
X95521325Y-80147465D01*
X95497518Y-80147689D01*
X95475884Y-80148587D01*
X95457680Y-80150135D01*
X95444163Y-80152307D01*
X95436589Y-80155075D01*
X95435571Y-80157538D01*
X95455355Y-80205701D01*
X95468795Y-80250681D01*
X95476224Y-80293999D01*
X95477972Y-80337177D01*
X95477463Y-80349904D01*
X95470543Y-80404173D01*
X95456093Y-80455389D01*
X95433985Y-80503952D01*
X95419837Y-80527643D01*
X95387597Y-80570220D01*
X95350115Y-80606981D01*
X95308169Y-80637627D01*
X95262539Y-80661859D01*
X95214005Y-80679374D01*
X95163347Y-80689874D01*
X95111345Y-80693057D01*
X95058777Y-80688624D01*
X95022069Y-80680830D01*
X95000127Y-80674970D01*
X94534665Y-80674970D01*
X94533979Y-80625581D01*
X94540630Y-80546008D01*
X94555042Y-80467178D01*
X94577213Y-80389641D01*
X94607144Y-80313942D01*
X94617114Y-80292743D01*
X94655616Y-80222979D01*
X94700826Y-80157435D01*
X94752190Y-80096597D01*
X94809154Y-80040950D01*
X94871164Y-79990979D01*
X94937667Y-79947171D01*
X95008109Y-79910011D01*
X95081935Y-79879983D01*
X95091892Y-79876582D01*
X95170097Y-79854526D01*
X95248234Y-79840366D01*
X95325889Y-79833841D01*
X95402652Y-79834689D01*
G36*
X90303913Y-79843712D02*
G01*
X90318822Y-79846108D01*
X90352402Y-79857097D01*
X90384144Y-79875006D01*
X90412490Y-79898594D01*
X90435885Y-79926621D01*
X90449473Y-79950291D01*
X90461202Y-79975303D01*
X90459812Y-80440244D01*
X90459596Y-80511746D01*
X90459393Y-80575558D01*
X90459194Y-80632156D01*
X90458987Y-80682018D01*
X90458765Y-80725618D01*
X90458517Y-80763434D01*
X90458233Y-80795942D01*
X90457905Y-80823617D01*
X90457521Y-80846936D01*
X90457073Y-80866375D01*
X90456551Y-80882411D01*
X90455946Y-80895520D01*
X90455247Y-80906177D01*
X90454444Y-80914860D01*
X90453529Y-80922044D01*
X90452492Y-80928205D01*
X90451322Y-80933821D01*
X90450011Y-80939366D01*
X90449652Y-80940830D01*
X90437325Y-80985534D01*
X90422659Y-81029755D01*
X90406623Y-81070761D01*
X90393309Y-81099713D01*
X90356602Y-81164361D01*
X90313973Y-81223817D01*
X90265868Y-81277744D01*
X90212735Y-81325804D01*
X90155023Y-81367661D01*
X90093177Y-81402978D01*
X90027647Y-81431417D01*
X89958880Y-81452641D01*
X89911466Y-81462614D01*
X89882938Y-81466570D01*
X89849432Y-81469679D01*
X89813255Y-81471856D01*
X89776713Y-81473017D01*
X89742113Y-81473078D01*
X89711760Y-81471954D01*
X89695353Y-81470542D01*
X89620165Y-81458245D01*
X89549142Y-81438950D01*
X89482084Y-81412555D01*
X89418787Y-81378961D01*
X89359049Y-81338068D01*
X89302669Y-81289776D01*
X89276095Y-81263265D01*
X89228048Y-81207198D01*
X89187010Y-81146974D01*
X89153084Y-81082798D01*
X89126372Y-81014871D01*
X89106979Y-80943394D01*
X89102997Y-80923439D01*
X89100687Y-80906445D01*
X89098569Y-80881880D01*
X89096651Y-80850336D01*
X89094940Y-80812408D01*
X89093445Y-80768687D01*
X89092172Y-80719766D01*
X89091129Y-80666238D01*
X89090325Y-80608696D01*
X89089766Y-80547732D01*
X89089461Y-80483940D01*
X89089417Y-80417912D01*
X89089642Y-80350242D01*
X89090143Y-80281521D01*
X89090928Y-80212343D01*
X89092005Y-80143300D01*
X89092538Y-80114908D01*
X89095160Y-79981986D01*
X89110823Y-79950310D01*
X89131606Y-79916665D01*
X89157528Y-79888877D01*
X89187947Y-79867465D01*
X89222220Y-79852944D01*
X89236481Y-79849263D01*
X89257188Y-79846590D01*
X89282235Y-79846000D01*
X89308819Y-79847315D01*
X89334138Y-79850355D01*
X89355389Y-79854942D01*
X89362500Y-79857315D01*
X89397325Y-79875062D01*
X89427734Y-79899165D01*
X89452760Y-79928662D01*
X89471431Y-79962591D01*
X89473323Y-79967231D01*
X89482489Y-79990605D01*
X89485387Y-80425438D01*
X89485865Y-80495456D01*
X89486317Y-80557779D01*
X89486755Y-80612878D01*
X89487187Y-80661224D01*
X89487623Y-80703288D01*
X89488073Y-80739541D01*
X89488546Y-80770454D01*
X89489054Y-80796499D01*
X89489604Y-80818145D01*
X89490208Y-80835864D01*
X89490874Y-80850127D01*
X89491613Y-80861406D01*
X89492433Y-80870170D01*
X89493346Y-80876891D01*
X89494361Y-80882040D01*
X89494880Y-80884068D01*
X89510901Y-80927264D01*
X89533480Y-80966138D01*
X89561982Y-81000225D01*
X89595771Y-81029065D01*
X89634212Y-81052197D01*
X89676667Y-81069157D01*
X89722502Y-81079485D01*
X89768479Y-81082732D01*
X89819127Y-81078917D01*
X89866682Y-81067907D01*
X89910610Y-81050133D01*
X89950376Y-81026021D01*
X89985449Y-80996000D01*
X90015292Y-80960499D01*
X90039374Y-80919945D01*
X90057160Y-80874767D01*
X90064705Y-80845047D01*
X90065598Y-80837601D01*
X90066439Y-80824116D01*
X90067233Y-80804378D01*
X90067982Y-80778174D01*
X90068692Y-80745289D01*
X90069364Y-80705510D01*
X90070004Y-80658623D01*
X90070614Y-80604414D01*
X90071199Y-80542670D01*
X90071761Y-80473176D01*
X90072277Y-80400006D01*
X90075067Y-79978356D01*
X90087668Y-79951817D01*
X90106828Y-79920229D01*
X90131864Y-79892579D01*
X90161377Y-79869991D01*
X90193969Y-79853590D01*
X90219192Y-79846108D01*
X90245445Y-79842615D01*
X90275116Y-79841816D01*
X90303913Y-79843712D01*
G37*
X90303913Y-79843712D02*
X90318822Y-79846108D01*
X90352402Y-79857097D01*
X90384144Y-79875006D01*
X90412490Y-79898594D01*
X90435885Y-79926621D01*
X90449473Y-79950291D01*
X90461202Y-79975303D01*
X90459812Y-80440244D01*
X90459596Y-80511746D01*
X90459393Y-80575558D01*
X90459194Y-80632156D01*
X90458987Y-80682018D01*
X90458765Y-80725618D01*
X90458517Y-80763434D01*
X90458233Y-80795942D01*
X90457905Y-80823617D01*
X90457521Y-80846936D01*
X90457073Y-80866375D01*
X90456551Y-80882411D01*
X90455946Y-80895520D01*
X90455247Y-80906177D01*
X90454444Y-80914860D01*
X90453529Y-80922044D01*
X90452492Y-80928205D01*
X90451322Y-80933821D01*
X90450011Y-80939366D01*
X90449652Y-80940830D01*
X90437325Y-80985534D01*
X90422659Y-81029755D01*
X90406623Y-81070761D01*
X90393309Y-81099713D01*
X90356602Y-81164361D01*
X90313973Y-81223817D01*
X90265868Y-81277744D01*
X90212735Y-81325804D01*
X90155023Y-81367661D01*
X90093177Y-81402978D01*
X90027647Y-81431417D01*
X89958880Y-81452641D01*
X89911466Y-81462614D01*
X89882938Y-81466570D01*
X89849432Y-81469679D01*
X89813255Y-81471856D01*
X89776713Y-81473017D01*
X89742113Y-81473078D01*
X89711760Y-81471954D01*
X89695353Y-81470542D01*
X89620165Y-81458245D01*
X89549142Y-81438950D01*
X89482084Y-81412555D01*
X89418787Y-81378961D01*
X89359049Y-81338068D01*
X89302669Y-81289776D01*
X89276095Y-81263265D01*
X89228048Y-81207198D01*
X89187010Y-81146974D01*
X89153084Y-81082798D01*
X89126372Y-81014871D01*
X89106979Y-80943394D01*
X89102997Y-80923439D01*
X89100687Y-80906445D01*
X89098569Y-80881880D01*
X89096651Y-80850336D01*
X89094940Y-80812408D01*
X89093445Y-80768687D01*
X89092172Y-80719766D01*
X89091129Y-80666238D01*
X89090325Y-80608696D01*
X89089766Y-80547732D01*
X89089461Y-80483940D01*
X89089417Y-80417912D01*
X89089642Y-80350242D01*
X89090143Y-80281521D01*
X89090928Y-80212343D01*
X89092005Y-80143300D01*
X89092538Y-80114908D01*
X89095160Y-79981986D01*
X89110823Y-79950310D01*
X89131606Y-79916665D01*
X89157528Y-79888877D01*
X89187947Y-79867465D01*
X89222220Y-79852944D01*
X89236481Y-79849263D01*
X89257188Y-79846590D01*
X89282235Y-79846000D01*
X89308819Y-79847315D01*
X89334138Y-79850355D01*
X89355389Y-79854942D01*
X89362500Y-79857315D01*
X89397325Y-79875062D01*
X89427734Y-79899165D01*
X89452760Y-79928662D01*
X89471431Y-79962591D01*
X89473323Y-79967231D01*
X89482489Y-79990605D01*
X89485387Y-80425438D01*
X89485865Y-80495456D01*
X89486317Y-80557779D01*
X89486755Y-80612878D01*
X89487187Y-80661224D01*
X89487623Y-80703288D01*
X89488073Y-80739541D01*
X89488546Y-80770454D01*
X89489054Y-80796499D01*
X89489604Y-80818145D01*
X89490208Y-80835864D01*
X89490874Y-80850127D01*
X89491613Y-80861406D01*
X89492433Y-80870170D01*
X89493346Y-80876891D01*
X89494361Y-80882040D01*
X89494880Y-80884068D01*
X89510901Y-80927264D01*
X89533480Y-80966138D01*
X89561982Y-81000225D01*
X89595771Y-81029065D01*
X89634212Y-81052197D01*
X89676667Y-81069157D01*
X89722502Y-81079485D01*
X89768479Y-81082732D01*
X89819127Y-81078917D01*
X89866682Y-81067907D01*
X89910610Y-81050133D01*
X89950376Y-81026021D01*
X89985449Y-80996000D01*
X90015292Y-80960499D01*
X90039374Y-80919945D01*
X90057160Y-80874767D01*
X90064705Y-80845047D01*
X90065598Y-80837601D01*
X90066439Y-80824116D01*
X90067233Y-80804378D01*
X90067982Y-80778174D01*
X90068692Y-80745289D01*
X90069364Y-80705510D01*
X90070004Y-80658623D01*
X90070614Y-80604414D01*
X90071199Y-80542670D01*
X90071761Y-80473176D01*
X90072277Y-80400006D01*
X90075067Y-79978356D01*
X90087668Y-79951817D01*
X90106828Y-79920229D01*
X90131864Y-79892579D01*
X90161377Y-79869991D01*
X90193969Y-79853590D01*
X90219192Y-79846108D01*
X90245445Y-79842615D01*
X90275116Y-79841816D01*
X90303913Y-79843712D01*
D11*
G36*
X97802144Y-104595680D02*
G01*
X98302612Y-104802981D01*
X98510805Y-104942091D01*
X98753023Y-105103936D01*
X99136064Y-105486977D01*
X99136065Y-105486979D01*
X99437019Y-105937388D01*
X99644320Y-106437856D01*
X99750000Y-106969147D01*
X99750000Y-107510853D01*
X99644320Y-108042144D01*
X99437019Y-108542612D01*
X99437018Y-108542613D01*
X99136064Y-108993023D01*
X98753023Y-109376064D01*
X98691925Y-109416888D01*
X98302612Y-109677019D01*
X97802144Y-109884320D01*
X97270853Y-109990000D01*
X96729147Y-109990000D01*
X96197856Y-109884320D01*
X95697388Y-109677019D01*
X95308075Y-109416888D01*
X95246977Y-109376064D01*
X94863936Y-108993023D01*
X94562982Y-108542613D01*
X94562981Y-108542612D01*
X94355680Y-108042144D01*
X94250000Y-107510853D01*
X94250000Y-106969147D01*
X94355680Y-106437856D01*
X94562981Y-105937388D01*
X94863935Y-105486979D01*
X94863936Y-105486977D01*
X95246977Y-105103936D01*
X95489195Y-104942091D01*
X95697388Y-104802981D01*
X96197856Y-104595680D01*
X96729147Y-104490000D01*
X97270853Y-104490000D01*
X97802144Y-104595680D01*
G37*
G36*
X87802144Y-104595680D02*
G01*
X88302612Y-104802981D01*
X88510805Y-104942091D01*
X88753023Y-105103936D01*
X89136064Y-105486977D01*
X89136065Y-105486979D01*
X89437019Y-105937388D01*
X89644320Y-106437856D01*
X89750000Y-106969147D01*
X89750000Y-107510853D01*
X89644320Y-108042144D01*
X89437019Y-108542612D01*
X89437018Y-108542613D01*
X89136064Y-108993023D01*
X88753023Y-109376064D01*
X88691925Y-109416888D01*
X88302612Y-109677019D01*
X87802144Y-109884320D01*
X87270853Y-109990000D01*
X86729147Y-109990000D01*
X86197856Y-109884320D01*
X85697388Y-109677019D01*
X85308075Y-109416888D01*
X85246977Y-109376064D01*
X84863936Y-108993023D01*
X84562982Y-108542613D01*
X84562981Y-108542612D01*
X84355680Y-108042144D01*
X84250000Y-107510853D01*
X84250000Y-106969147D01*
X84355680Y-106437856D01*
X84562981Y-105937388D01*
X84863935Y-105486979D01*
X84863936Y-105486977D01*
X85246977Y-105103936D01*
X85489195Y-104942091D01*
X85697388Y-104802981D01*
X86197856Y-104595680D01*
X86729147Y-104490000D01*
X87270853Y-104490000D01*
X87802144Y-104595680D01*
G37*
G36*
X89058338Y-103297685D02*
G01*
X89094736Y-103312762D01*
X89127488Y-103334646D01*
X89127490Y-103334648D01*
X89127493Y-103334650D01*
X89155350Y-103362507D01*
X89155352Y-103362510D01*
X89155354Y-103362512D01*
X89177238Y-103395264D01*
X89192315Y-103431662D01*
X89200000Y-103470300D01*
X89200000Y-103509700D01*
X89192315Y-103548338D01*
X89177238Y-103584736D01*
X89155354Y-103617488D01*
X89155352Y-103617490D01*
X89155350Y-103617493D01*
X89127493Y-103645350D01*
X89127490Y-103645352D01*
X89127488Y-103645354D01*
X89094736Y-103667238D01*
X89058338Y-103682315D01*
X89019700Y-103690000D01*
X88980300Y-103690000D01*
X88941662Y-103682315D01*
X88905264Y-103667238D01*
X88872512Y-103645354D01*
X88872510Y-103645352D01*
X88872507Y-103645350D01*
X88844650Y-103617493D01*
X88844648Y-103617490D01*
X88844646Y-103617488D01*
X88822762Y-103584736D01*
X88807685Y-103548338D01*
X88800000Y-103509700D01*
X88800000Y-103470300D01*
X88807685Y-103431662D01*
X88822762Y-103395264D01*
X88844646Y-103362512D01*
X88844648Y-103362510D01*
X88844650Y-103362507D01*
X88872507Y-103334650D01*
X88872510Y-103334648D01*
X88872512Y-103334646D01*
X88905264Y-103312762D01*
X88941662Y-103297685D01*
X88980300Y-103290000D01*
X89019700Y-103290000D01*
X89058338Y-103297685D01*
G37*
G36*
X88458338Y-103297685D02*
G01*
X88494736Y-103312762D01*
X88527488Y-103334646D01*
X88527490Y-103334648D01*
X88527493Y-103334650D01*
X88555350Y-103362507D01*
X88555352Y-103362510D01*
X88555354Y-103362512D01*
X88577238Y-103395264D01*
X88592315Y-103431662D01*
X88600000Y-103470300D01*
X88600000Y-103509700D01*
X88592315Y-103548338D01*
X88577238Y-103584736D01*
X88555354Y-103617488D01*
X88555352Y-103617490D01*
X88555350Y-103617493D01*
X88527493Y-103645350D01*
X88527490Y-103645352D01*
X88527488Y-103645354D01*
X88494736Y-103667238D01*
X88458338Y-103682315D01*
X88419700Y-103690000D01*
X88380300Y-103690000D01*
X88341662Y-103682315D01*
X88305264Y-103667238D01*
X88272512Y-103645354D01*
X88272510Y-103645352D01*
X88272507Y-103645350D01*
X88244650Y-103617493D01*
X88244648Y-103617490D01*
X88244646Y-103617488D01*
X88222762Y-103584736D01*
X88207685Y-103548338D01*
X88200000Y-103509700D01*
X88200000Y-103470300D01*
X88207685Y-103431662D01*
X88222762Y-103395264D01*
X88244646Y-103362512D01*
X88244648Y-103362510D01*
X88244650Y-103362507D01*
X88272507Y-103334650D01*
X88272510Y-103334648D01*
X88272512Y-103334646D01*
X88305264Y-103312762D01*
X88341662Y-103297685D01*
X88380300Y-103290000D01*
X88419700Y-103290000D01*
X88458338Y-103297685D01*
G37*
G36*
X87858338Y-103297685D02*
G01*
X87894736Y-103312762D01*
X87927488Y-103334646D01*
X87927490Y-103334648D01*
X87927493Y-103334650D01*
X87955350Y-103362507D01*
X87955352Y-103362510D01*
X87955354Y-103362512D01*
X87977238Y-103395264D01*
X87992315Y-103431662D01*
X88000000Y-103470300D01*
X88000000Y-103509700D01*
X87992315Y-103548338D01*
X87977238Y-103584736D01*
X87955354Y-103617488D01*
X87955352Y-103617490D01*
X87955350Y-103617493D01*
X87927493Y-103645350D01*
X87927490Y-103645352D01*
X87927488Y-103645354D01*
X87894736Y-103667238D01*
X87858338Y-103682315D01*
X87819700Y-103690000D01*
X87780300Y-103690000D01*
X87741662Y-103682315D01*
X87705264Y-103667238D01*
X87672512Y-103645354D01*
X87672510Y-103645352D01*
X87672507Y-103645350D01*
X87644650Y-103617493D01*
X87644648Y-103617490D01*
X87644646Y-103617488D01*
X87622762Y-103584736D01*
X87607685Y-103548338D01*
X87600000Y-103509700D01*
X87600000Y-103470300D01*
X87607685Y-103431662D01*
X87622762Y-103395264D01*
X87644646Y-103362512D01*
X87644648Y-103362510D01*
X87644650Y-103362507D01*
X87672507Y-103334650D01*
X87672510Y-103334648D01*
X87672512Y-103334646D01*
X87705264Y-103312762D01*
X87741662Y-103297685D01*
X87780300Y-103290000D01*
X87819700Y-103290000D01*
X87858338Y-103297685D01*
G37*
G36*
X87258338Y-103297685D02*
G01*
X87294736Y-103312762D01*
X87327488Y-103334646D01*
X87327490Y-103334648D01*
X87327493Y-103334650D01*
X87355350Y-103362507D01*
X87355352Y-103362510D01*
X87355354Y-103362512D01*
X87377238Y-103395264D01*
X87392315Y-103431662D01*
X87400000Y-103470300D01*
X87400000Y-103509700D01*
X87392315Y-103548338D01*
X87377238Y-103584736D01*
X87355354Y-103617488D01*
X87355352Y-103617490D01*
X87355350Y-103617493D01*
X87327493Y-103645350D01*
X87327490Y-103645352D01*
X87327488Y-103645354D01*
X87294736Y-103667238D01*
X87258338Y-103682315D01*
X87219700Y-103690000D01*
X87180300Y-103690000D01*
X87141662Y-103682315D01*
X87105264Y-103667238D01*
X87072512Y-103645354D01*
X87072510Y-103645352D01*
X87072507Y-103645350D01*
X87044650Y-103617493D01*
X87044648Y-103617490D01*
X87044646Y-103617488D01*
X87022762Y-103584736D01*
X87007685Y-103548338D01*
X87000000Y-103509700D01*
X87000000Y-103470300D01*
X87007685Y-103431662D01*
X87022762Y-103395264D01*
X87044646Y-103362512D01*
X87044648Y-103362510D01*
X87044650Y-103362507D01*
X87072507Y-103334650D01*
X87072510Y-103334648D01*
X87072512Y-103334646D01*
X87105264Y-103312762D01*
X87141662Y-103297685D01*
X87180300Y-103290000D01*
X87219700Y-103290000D01*
X87258338Y-103297685D01*
G37*
G36*
X86658338Y-103297685D02*
G01*
X86694736Y-103312762D01*
X86727488Y-103334646D01*
X86727490Y-103334648D01*
X86727493Y-103334650D01*
X86755350Y-103362507D01*
X86755352Y-103362510D01*
X86755354Y-103362512D01*
X86777238Y-103395264D01*
X86792315Y-103431662D01*
X86800000Y-103470300D01*
X86800000Y-103509700D01*
X86792315Y-103548338D01*
X86777238Y-103584736D01*
X86755354Y-103617488D01*
X86755352Y-103617490D01*
X86755350Y-103617493D01*
X86727493Y-103645350D01*
X86727490Y-103645352D01*
X86727488Y-103645354D01*
X86694736Y-103667238D01*
X86658338Y-103682315D01*
X86619700Y-103690000D01*
X86580300Y-103690000D01*
X86541662Y-103682315D01*
X86505264Y-103667238D01*
X86472512Y-103645354D01*
X86472510Y-103645352D01*
X86472507Y-103645350D01*
X86444650Y-103617493D01*
X86444648Y-103617490D01*
X86444646Y-103617488D01*
X86422762Y-103584736D01*
X86407685Y-103548338D01*
X86400000Y-103509700D01*
X86400000Y-103470300D01*
X86407685Y-103431662D01*
X86422762Y-103395264D01*
X86444646Y-103362512D01*
X86444648Y-103362510D01*
X86444650Y-103362507D01*
X86472507Y-103334650D01*
X86472510Y-103334648D01*
X86472512Y-103334646D01*
X86505264Y-103312762D01*
X86541662Y-103297685D01*
X86580300Y-103290000D01*
X86619700Y-103290000D01*
X86658338Y-103297685D01*
G37*
G36*
X86058338Y-103297685D02*
G01*
X86094736Y-103312762D01*
X86127488Y-103334646D01*
X86127490Y-103334648D01*
X86127493Y-103334650D01*
X86155350Y-103362507D01*
X86155352Y-103362510D01*
X86155354Y-103362512D01*
X86177238Y-103395264D01*
X86192315Y-103431662D01*
X86200000Y-103470300D01*
X86200000Y-103509700D01*
X86192315Y-103548338D01*
X86177238Y-103584736D01*
X86155354Y-103617488D01*
X86155352Y-103617490D01*
X86155350Y-103617493D01*
X86127493Y-103645350D01*
X86127490Y-103645352D01*
X86127488Y-103645354D01*
X86094736Y-103667238D01*
X86058338Y-103682315D01*
X86019700Y-103690000D01*
X85980300Y-103690000D01*
X85941662Y-103682315D01*
X85905264Y-103667238D01*
X85872512Y-103645354D01*
X85872510Y-103645352D01*
X85872507Y-103645350D01*
X85844650Y-103617493D01*
X85844648Y-103617490D01*
X85844646Y-103617488D01*
X85822762Y-103584736D01*
X85807685Y-103548338D01*
X85800000Y-103509700D01*
X85800000Y-103470300D01*
X85807685Y-103431662D01*
X85822762Y-103395264D01*
X85844646Y-103362512D01*
X85844648Y-103362510D01*
X85844650Y-103362507D01*
X85872507Y-103334650D01*
X85872510Y-103334648D01*
X85872512Y-103334646D01*
X85905264Y-103312762D01*
X85941662Y-103297685D01*
X85980300Y-103290000D01*
X86019700Y-103290000D01*
X86058338Y-103297685D01*
G37*
G36*
X85458338Y-103297685D02*
G01*
X85494736Y-103312762D01*
X85527488Y-103334646D01*
X85527490Y-103334648D01*
X85527493Y-103334650D01*
X85555350Y-103362507D01*
X85555352Y-103362510D01*
X85555354Y-103362512D01*
X85577238Y-103395264D01*
X85592315Y-103431662D01*
X85600000Y-103470300D01*
X85600000Y-103509700D01*
X85592315Y-103548338D01*
X85577238Y-103584736D01*
X85555354Y-103617488D01*
X85555352Y-103617490D01*
X85555350Y-103617493D01*
X85527493Y-103645350D01*
X85527490Y-103645352D01*
X85527488Y-103645354D01*
X85494736Y-103667238D01*
X85458338Y-103682315D01*
X85419700Y-103690000D01*
X85380300Y-103690000D01*
X85341662Y-103682315D01*
X85305264Y-103667238D01*
X85272512Y-103645354D01*
X85272510Y-103645352D01*
X85272507Y-103645350D01*
X85244650Y-103617493D01*
X85244648Y-103617490D01*
X85244646Y-103617488D01*
X85222762Y-103584736D01*
X85207685Y-103548338D01*
X85200000Y-103509700D01*
X85200000Y-103470300D01*
X85207685Y-103431662D01*
X85222762Y-103395264D01*
X85244646Y-103362512D01*
X85244648Y-103362510D01*
X85244650Y-103362507D01*
X85272507Y-103334650D01*
X85272510Y-103334648D01*
X85272512Y-103334646D01*
X85305264Y-103312762D01*
X85341662Y-103297685D01*
X85380300Y-103290000D01*
X85419700Y-103290000D01*
X85458338Y-103297685D01*
G37*
G36*
X84858338Y-103297685D02*
G01*
X84894736Y-103312762D01*
X84927488Y-103334646D01*
X84927490Y-103334648D01*
X84927493Y-103334650D01*
X84955350Y-103362507D01*
X84955352Y-103362510D01*
X84955354Y-103362512D01*
X84977238Y-103395264D01*
X84992315Y-103431662D01*
X85000000Y-103470300D01*
X85000000Y-103509700D01*
X84992315Y-103548338D01*
X84977238Y-103584736D01*
X84955354Y-103617488D01*
X84955352Y-103617490D01*
X84955350Y-103617493D01*
X84927493Y-103645350D01*
X84927490Y-103645352D01*
X84927488Y-103645354D01*
X84894736Y-103667238D01*
X84858338Y-103682315D01*
X84819700Y-103690000D01*
X84780300Y-103690000D01*
X84741662Y-103682315D01*
X84705264Y-103667238D01*
X84672512Y-103645354D01*
X84672510Y-103645352D01*
X84672507Y-103645350D01*
X84644650Y-103617493D01*
X84644648Y-103617490D01*
X84644646Y-103617488D01*
X84622762Y-103584736D01*
X84607685Y-103548338D01*
X84600000Y-103509700D01*
X84600000Y-103470300D01*
X84607685Y-103431662D01*
X84622762Y-103395264D01*
X84644646Y-103362512D01*
X84644648Y-103362510D01*
X84644650Y-103362507D01*
X84672507Y-103334650D01*
X84672510Y-103334648D01*
X84672512Y-103334646D01*
X84705264Y-103312762D01*
X84741662Y-103297685D01*
X84780300Y-103290000D01*
X84819700Y-103290000D01*
X84858338Y-103297685D01*
G37*
G36*
X84258338Y-103297685D02*
G01*
X84294736Y-103312762D01*
X84327488Y-103334646D01*
X84327490Y-103334648D01*
X84327493Y-103334650D01*
X84355350Y-103362507D01*
X84355352Y-103362510D01*
X84355354Y-103362512D01*
X84377238Y-103395264D01*
X84392315Y-103431662D01*
X84400000Y-103470300D01*
X84400000Y-103509700D01*
X84392315Y-103548338D01*
X84377238Y-103584736D01*
X84355354Y-103617488D01*
X84355352Y-103617490D01*
X84355350Y-103617493D01*
X84327493Y-103645350D01*
X84327490Y-103645352D01*
X84327488Y-103645354D01*
X84294736Y-103667238D01*
X84258338Y-103682315D01*
X84219700Y-103690000D01*
X84180300Y-103690000D01*
X84141662Y-103682315D01*
X84105264Y-103667238D01*
X84072512Y-103645354D01*
X84072510Y-103645352D01*
X84072507Y-103645350D01*
X84044650Y-103617493D01*
X84044648Y-103617490D01*
X84044646Y-103617488D01*
X84022762Y-103584736D01*
X84007685Y-103548338D01*
X84000000Y-103509700D01*
X84000000Y-103470300D01*
X84007685Y-103431662D01*
X84022762Y-103395264D01*
X84044646Y-103362512D01*
X84044648Y-103362510D01*
X84044650Y-103362507D01*
X84072507Y-103334650D01*
X84072510Y-103334648D01*
X84072512Y-103334646D01*
X84105264Y-103312762D01*
X84141662Y-103297685D01*
X84180300Y-103290000D01*
X84219700Y-103290000D01*
X84258338Y-103297685D01*
G37*
G36*
X96858338Y-103297685D02*
G01*
X96894736Y-103312762D01*
X96927488Y-103334646D01*
X96927490Y-103334648D01*
X96927493Y-103334650D01*
X96955350Y-103362507D01*
X96955352Y-103362510D01*
X96955354Y-103362512D01*
X96977238Y-103395264D01*
X96992315Y-103431662D01*
X97000000Y-103470300D01*
X97000000Y-103509700D01*
X96992315Y-103548338D01*
X96977238Y-103584736D01*
X96955354Y-103617488D01*
X96955352Y-103617490D01*
X96955350Y-103617493D01*
X96927493Y-103645350D01*
X96927490Y-103645352D01*
X96927488Y-103645354D01*
X96894736Y-103667238D01*
X96858338Y-103682315D01*
X96819700Y-103690000D01*
X96780300Y-103690000D01*
X96741662Y-103682315D01*
X96705264Y-103667238D01*
X96672512Y-103645354D01*
X96672510Y-103645352D01*
X96672507Y-103645350D01*
X96644650Y-103617493D01*
X96644648Y-103617490D01*
X96644646Y-103617488D01*
X96622762Y-103584736D01*
X96607685Y-103548338D01*
X96600000Y-103509700D01*
X96600000Y-103470300D01*
X96607685Y-103431662D01*
X96622762Y-103395264D01*
X96644646Y-103362512D01*
X96644648Y-103362510D01*
X96644650Y-103362507D01*
X96672507Y-103334650D01*
X96672510Y-103334648D01*
X96672512Y-103334646D01*
X96705264Y-103312762D01*
X96741662Y-103297685D01*
X96780300Y-103290000D01*
X96819700Y-103290000D01*
X96858338Y-103297685D01*
G37*
G36*
X97458338Y-103297685D02*
G01*
X97494736Y-103312762D01*
X97527488Y-103334646D01*
X97527490Y-103334648D01*
X97527493Y-103334650D01*
X97555350Y-103362507D01*
X97555352Y-103362510D01*
X97555354Y-103362512D01*
X97577238Y-103395264D01*
X97592315Y-103431662D01*
X97600000Y-103470300D01*
X97600000Y-103509700D01*
X97592315Y-103548338D01*
X97577238Y-103584736D01*
X97555354Y-103617488D01*
X97555352Y-103617490D01*
X97555350Y-103617493D01*
X97527493Y-103645350D01*
X97527490Y-103645352D01*
X97527488Y-103645354D01*
X97494736Y-103667238D01*
X97458338Y-103682315D01*
X97419700Y-103690000D01*
X97380300Y-103690000D01*
X97341662Y-103682315D01*
X97305264Y-103667238D01*
X97272512Y-103645354D01*
X97272510Y-103645352D01*
X97272507Y-103645350D01*
X97244650Y-103617493D01*
X97244648Y-103617490D01*
X97244646Y-103617488D01*
X97222762Y-103584736D01*
X97207685Y-103548338D01*
X97200000Y-103509700D01*
X97200000Y-103470300D01*
X97207685Y-103431662D01*
X97222762Y-103395264D01*
X97244646Y-103362512D01*
X97244648Y-103362510D01*
X97244650Y-103362507D01*
X97272507Y-103334650D01*
X97272510Y-103334648D01*
X97272512Y-103334646D01*
X97305264Y-103312762D01*
X97341662Y-103297685D01*
X97380300Y-103290000D01*
X97419700Y-103290000D01*
X97458338Y-103297685D01*
G37*
G36*
X99858338Y-103297685D02*
G01*
X99894736Y-103312762D01*
X99927488Y-103334646D01*
X99927490Y-103334648D01*
X99927493Y-103334650D01*
X99955350Y-103362507D01*
X99955352Y-103362510D01*
X99955354Y-103362512D01*
X99977238Y-103395264D01*
X99992315Y-103431662D01*
X100000000Y-103470300D01*
X100000000Y-103509700D01*
X99992315Y-103548338D01*
X99977238Y-103584736D01*
X99955354Y-103617488D01*
X99955352Y-103617490D01*
X99955350Y-103617493D01*
X99927493Y-103645350D01*
X99927490Y-103645352D01*
X99927488Y-103645354D01*
X99894736Y-103667238D01*
X99858338Y-103682315D01*
X99819700Y-103690000D01*
X99780300Y-103690000D01*
X99741662Y-103682315D01*
X99705264Y-103667238D01*
X99672512Y-103645354D01*
X99672510Y-103645352D01*
X99672507Y-103645350D01*
X99644650Y-103617493D01*
X99644648Y-103617490D01*
X99644646Y-103617488D01*
X99622762Y-103584736D01*
X99607685Y-103548338D01*
X99600000Y-103509700D01*
X99600000Y-103470300D01*
X99607685Y-103431662D01*
X99622762Y-103395264D01*
X99644646Y-103362512D01*
X99644648Y-103362510D01*
X99644650Y-103362507D01*
X99672507Y-103334650D01*
X99672510Y-103334648D01*
X99672512Y-103334646D01*
X99705264Y-103312762D01*
X99741662Y-103297685D01*
X99780300Y-103290000D01*
X99819700Y-103290000D01*
X99858338Y-103297685D01*
G37*
G36*
X96258338Y-103297685D02*
G01*
X96294736Y-103312762D01*
X96327488Y-103334646D01*
X96327490Y-103334648D01*
X96327493Y-103334650D01*
X96355350Y-103362507D01*
X96355352Y-103362510D01*
X96355354Y-103362512D01*
X96377238Y-103395264D01*
X96392315Y-103431662D01*
X96400000Y-103470300D01*
X96400000Y-103509700D01*
X96392315Y-103548338D01*
X96377238Y-103584736D01*
X96355354Y-103617488D01*
X96355352Y-103617490D01*
X96355350Y-103617493D01*
X96327493Y-103645350D01*
X96327490Y-103645352D01*
X96327488Y-103645354D01*
X96294736Y-103667238D01*
X96258338Y-103682315D01*
X96219700Y-103690000D01*
X96180300Y-103690000D01*
X96141662Y-103682315D01*
X96105264Y-103667238D01*
X96072512Y-103645354D01*
X96072510Y-103645352D01*
X96072507Y-103645350D01*
X96044650Y-103617493D01*
X96044648Y-103617490D01*
X96044646Y-103617488D01*
X96022762Y-103584736D01*
X96007685Y-103548338D01*
X96000000Y-103509700D01*
X96000000Y-103470300D01*
X96007685Y-103431662D01*
X96022762Y-103395264D01*
X96044646Y-103362512D01*
X96044648Y-103362510D01*
X96044650Y-103362507D01*
X96072507Y-103334650D01*
X96072510Y-103334648D01*
X96072512Y-103334646D01*
X96105264Y-103312762D01*
X96141662Y-103297685D01*
X96180300Y-103290000D01*
X96219700Y-103290000D01*
X96258338Y-103297685D01*
G37*
G36*
X95658338Y-103297685D02*
G01*
X95694736Y-103312762D01*
X95727488Y-103334646D01*
X95727490Y-103334648D01*
X95727493Y-103334650D01*
X95755350Y-103362507D01*
X95755352Y-103362510D01*
X95755354Y-103362512D01*
X95777238Y-103395264D01*
X95792315Y-103431662D01*
X95800000Y-103470300D01*
X95800000Y-103509700D01*
X95792315Y-103548338D01*
X95777238Y-103584736D01*
X95755354Y-103617488D01*
X95755352Y-103617490D01*
X95755350Y-103617493D01*
X95727493Y-103645350D01*
X95727490Y-103645352D01*
X95727488Y-103645354D01*
X95694736Y-103667238D01*
X95658338Y-103682315D01*
X95619700Y-103690000D01*
X95580300Y-103690000D01*
X95541662Y-103682315D01*
X95505264Y-103667238D01*
X95472512Y-103645354D01*
X95472510Y-103645352D01*
X95472507Y-103645350D01*
X95444650Y-103617493D01*
X95444648Y-103617490D01*
X95444646Y-103617488D01*
X95422762Y-103584736D01*
X95407685Y-103548338D01*
X95400000Y-103509700D01*
X95400000Y-103470300D01*
X95407685Y-103431662D01*
X95422762Y-103395264D01*
X95444646Y-103362512D01*
X95444648Y-103362510D01*
X95444650Y-103362507D01*
X95472507Y-103334650D01*
X95472510Y-103334648D01*
X95472512Y-103334646D01*
X95505264Y-103312762D01*
X95541662Y-103297685D01*
X95580300Y-103290000D01*
X95619700Y-103290000D01*
X95658338Y-103297685D01*
G37*
G36*
X95058338Y-103297685D02*
G01*
X95094736Y-103312762D01*
X95127488Y-103334646D01*
X95127490Y-103334648D01*
X95127493Y-103334650D01*
X95155350Y-103362507D01*
X95155352Y-103362510D01*
X95155354Y-103362512D01*
X95177238Y-103395264D01*
X95192315Y-103431662D01*
X95200000Y-103470300D01*
X95200000Y-103509700D01*
X95192315Y-103548338D01*
X95177238Y-103584736D01*
X95155354Y-103617488D01*
X95155352Y-103617490D01*
X95155350Y-103617493D01*
X95127493Y-103645350D01*
X95127490Y-103645352D01*
X95127488Y-103645354D01*
X95094736Y-103667238D01*
X95058338Y-103682315D01*
X95019700Y-103690000D01*
X94980300Y-103690000D01*
X94941662Y-103682315D01*
X94905264Y-103667238D01*
X94872512Y-103645354D01*
X94872510Y-103645352D01*
X94872507Y-103645350D01*
X94844650Y-103617493D01*
X94844648Y-103617490D01*
X94844646Y-103617488D01*
X94822762Y-103584736D01*
X94807685Y-103548338D01*
X94800000Y-103509700D01*
X94800000Y-103470300D01*
X94807685Y-103431662D01*
X94822762Y-103395264D01*
X94844646Y-103362512D01*
X94844648Y-103362510D01*
X94844650Y-103362507D01*
X94872507Y-103334650D01*
X94872510Y-103334648D01*
X94872512Y-103334646D01*
X94905264Y-103312762D01*
X94941662Y-103297685D01*
X94980300Y-103290000D01*
X95019700Y-103290000D01*
X95058338Y-103297685D01*
G37*
G36*
X94458338Y-103297685D02*
G01*
X94494736Y-103312762D01*
X94527488Y-103334646D01*
X94527490Y-103334648D01*
X94527493Y-103334650D01*
X94555350Y-103362507D01*
X94555352Y-103362510D01*
X94555354Y-103362512D01*
X94577238Y-103395264D01*
X94592315Y-103431662D01*
X94600000Y-103470300D01*
X94600000Y-103509700D01*
X94592315Y-103548338D01*
X94577238Y-103584736D01*
X94555354Y-103617488D01*
X94555352Y-103617490D01*
X94555350Y-103617493D01*
X94527493Y-103645350D01*
X94527490Y-103645352D01*
X94527488Y-103645354D01*
X94494736Y-103667238D01*
X94458338Y-103682315D01*
X94419700Y-103690000D01*
X94380300Y-103690000D01*
X94341662Y-103682315D01*
X94305264Y-103667238D01*
X94272512Y-103645354D01*
X94272510Y-103645352D01*
X94272507Y-103645350D01*
X94244650Y-103617493D01*
X94244648Y-103617490D01*
X94244646Y-103617488D01*
X94222762Y-103584736D01*
X94207685Y-103548338D01*
X94200000Y-103509700D01*
X94200000Y-103470300D01*
X94207685Y-103431662D01*
X94222762Y-103395264D01*
X94244646Y-103362512D01*
X94244648Y-103362510D01*
X94244650Y-103362507D01*
X94272507Y-103334650D01*
X94272510Y-103334648D01*
X94272512Y-103334646D01*
X94305264Y-103312762D01*
X94341662Y-103297685D01*
X94380300Y-103290000D01*
X94419700Y-103290000D01*
X94458338Y-103297685D01*
G37*
G36*
X93858338Y-103297685D02*
G01*
X93894736Y-103312762D01*
X93927488Y-103334646D01*
X93927490Y-103334648D01*
X93927493Y-103334650D01*
X93955350Y-103362507D01*
X93955352Y-103362510D01*
X93955354Y-103362512D01*
X93977238Y-103395264D01*
X93992315Y-103431662D01*
X94000000Y-103470300D01*
X94000000Y-103509700D01*
X93992315Y-103548338D01*
X93977238Y-103584736D01*
X93955354Y-103617488D01*
X93955352Y-103617490D01*
X93955350Y-103617493D01*
X93927493Y-103645350D01*
X93927490Y-103645352D01*
X93927488Y-103645354D01*
X93894736Y-103667238D01*
X93858338Y-103682315D01*
X93819700Y-103690000D01*
X93780300Y-103690000D01*
X93741662Y-103682315D01*
X93705264Y-103667238D01*
X93672512Y-103645354D01*
X93672510Y-103645352D01*
X93672507Y-103645350D01*
X93644650Y-103617493D01*
X93644648Y-103617490D01*
X93644646Y-103617488D01*
X93622762Y-103584736D01*
X93607685Y-103548338D01*
X93600000Y-103509700D01*
X93600000Y-103470300D01*
X93607685Y-103431662D01*
X93622762Y-103395264D01*
X93644646Y-103362512D01*
X93644648Y-103362510D01*
X93644650Y-103362507D01*
X93672507Y-103334650D01*
X93672510Y-103334648D01*
X93672512Y-103334646D01*
X93705264Y-103312762D01*
X93741662Y-103297685D01*
X93780300Y-103290000D01*
X93819700Y-103290000D01*
X93858338Y-103297685D01*
G37*
G36*
X99258338Y-103297685D02*
G01*
X99294736Y-103312762D01*
X99327488Y-103334646D01*
X99327490Y-103334648D01*
X99327493Y-103334650D01*
X99355350Y-103362507D01*
X99355352Y-103362510D01*
X99355354Y-103362512D01*
X99377238Y-103395264D01*
X99392315Y-103431662D01*
X99400000Y-103470300D01*
X99400000Y-103509700D01*
X99392315Y-103548338D01*
X99377238Y-103584736D01*
X99355354Y-103617488D01*
X99355352Y-103617490D01*
X99355350Y-103617493D01*
X99327493Y-103645350D01*
X99327490Y-103645352D01*
X99327488Y-103645354D01*
X99294736Y-103667238D01*
X99258338Y-103682315D01*
X99219700Y-103690000D01*
X99180300Y-103690000D01*
X99141662Y-103682315D01*
X99105264Y-103667238D01*
X99072512Y-103645354D01*
X99072510Y-103645352D01*
X99072507Y-103645350D01*
X99044650Y-103617493D01*
X99044648Y-103617490D01*
X99044646Y-103617488D01*
X99022762Y-103584736D01*
X99007685Y-103548338D01*
X99000000Y-103509700D01*
X99000000Y-103470300D01*
X99007685Y-103431662D01*
X99022762Y-103395264D01*
X99044646Y-103362512D01*
X99044648Y-103362510D01*
X99044650Y-103362507D01*
X99072507Y-103334650D01*
X99072510Y-103334648D01*
X99072512Y-103334646D01*
X99105264Y-103312762D01*
X99141662Y-103297685D01*
X99180300Y-103290000D01*
X99219700Y-103290000D01*
X99258338Y-103297685D01*
G37*
G36*
X93258338Y-103297685D02*
G01*
X93294736Y-103312762D01*
X93327488Y-103334646D01*
X93327490Y-103334648D01*
X93327493Y-103334650D01*
X93355350Y-103362507D01*
X93355352Y-103362510D01*
X93355354Y-103362512D01*
X93377238Y-103395264D01*
X93392315Y-103431662D01*
X93400000Y-103470300D01*
X93400000Y-103509700D01*
X93392315Y-103548338D01*
X93377238Y-103584736D01*
X93355354Y-103617488D01*
X93355352Y-103617490D01*
X93355350Y-103617493D01*
X93327493Y-103645350D01*
X93327490Y-103645352D01*
X93327488Y-103645354D01*
X93294736Y-103667238D01*
X93258338Y-103682315D01*
X93219700Y-103690000D01*
X93180300Y-103690000D01*
X93141662Y-103682315D01*
X93105264Y-103667238D01*
X93072512Y-103645354D01*
X93072510Y-103645352D01*
X93072507Y-103645350D01*
X93044650Y-103617493D01*
X93044648Y-103617490D01*
X93044646Y-103617488D01*
X93022762Y-103584736D01*
X93007685Y-103548338D01*
X93000000Y-103509700D01*
X93000000Y-103470300D01*
X93007685Y-103431662D01*
X93022762Y-103395264D01*
X93044646Y-103362512D01*
X93044648Y-103362510D01*
X93044650Y-103362507D01*
X93072507Y-103334650D01*
X93072510Y-103334648D01*
X93072512Y-103334646D01*
X93105264Y-103312762D01*
X93141662Y-103297685D01*
X93180300Y-103290000D01*
X93219700Y-103290000D01*
X93258338Y-103297685D01*
G37*
G36*
X92658338Y-103297685D02*
G01*
X92694736Y-103312762D01*
X92727488Y-103334646D01*
X92727490Y-103334648D01*
X92727493Y-103334650D01*
X92755350Y-103362507D01*
X92755352Y-103362510D01*
X92755354Y-103362512D01*
X92777238Y-103395264D01*
X92792315Y-103431662D01*
X92800000Y-103470300D01*
X92800000Y-103509700D01*
X92792315Y-103548338D01*
X92777238Y-103584736D01*
X92755354Y-103617488D01*
X92755352Y-103617490D01*
X92755350Y-103617493D01*
X92727493Y-103645350D01*
X92727490Y-103645352D01*
X92727488Y-103645354D01*
X92694736Y-103667238D01*
X92658338Y-103682315D01*
X92619700Y-103690000D01*
X92580300Y-103690000D01*
X92541662Y-103682315D01*
X92505264Y-103667238D01*
X92472512Y-103645354D01*
X92472510Y-103645352D01*
X92472507Y-103645350D01*
X92444650Y-103617493D01*
X92444648Y-103617490D01*
X92444646Y-103617488D01*
X92422762Y-103584736D01*
X92407685Y-103548338D01*
X92400000Y-103509700D01*
X92400000Y-103470300D01*
X92407685Y-103431662D01*
X92422762Y-103395264D01*
X92444646Y-103362512D01*
X92444648Y-103362510D01*
X92444650Y-103362507D01*
X92472507Y-103334650D01*
X92472510Y-103334648D01*
X92472512Y-103334646D01*
X92505264Y-103312762D01*
X92541662Y-103297685D01*
X92580300Y-103290000D01*
X92619700Y-103290000D01*
X92658338Y-103297685D01*
G37*
G36*
X98658338Y-103297685D02*
G01*
X98694736Y-103312762D01*
X98727488Y-103334646D01*
X98727490Y-103334648D01*
X98727493Y-103334650D01*
X98755350Y-103362507D01*
X98755352Y-103362510D01*
X98755354Y-103362512D01*
X98777238Y-103395264D01*
X98792315Y-103431662D01*
X98800000Y-103470300D01*
X98800000Y-103509700D01*
X98792315Y-103548338D01*
X98777238Y-103584736D01*
X98755354Y-103617488D01*
X98755352Y-103617490D01*
X98755350Y-103617493D01*
X98727493Y-103645350D01*
X98727490Y-103645352D01*
X98727488Y-103645354D01*
X98694736Y-103667238D01*
X98658338Y-103682315D01*
X98619700Y-103690000D01*
X98580300Y-103690000D01*
X98541662Y-103682315D01*
X98505264Y-103667238D01*
X98472512Y-103645354D01*
X98472510Y-103645352D01*
X98472507Y-103645350D01*
X98444650Y-103617493D01*
X98444648Y-103617490D01*
X98444646Y-103617488D01*
X98422762Y-103584736D01*
X98407685Y-103548338D01*
X98400000Y-103509700D01*
X98400000Y-103470300D01*
X98407685Y-103431662D01*
X98422762Y-103395264D01*
X98444646Y-103362512D01*
X98444648Y-103362510D01*
X98444650Y-103362507D01*
X98472507Y-103334650D01*
X98472510Y-103334648D01*
X98472512Y-103334646D01*
X98505264Y-103312762D01*
X98541662Y-103297685D01*
X98580300Y-103290000D01*
X98619700Y-103290000D01*
X98658338Y-103297685D01*
G37*
G36*
X92058338Y-103297685D02*
G01*
X92094736Y-103312762D01*
X92127488Y-103334646D01*
X92127490Y-103334648D01*
X92127493Y-103334650D01*
X92155350Y-103362507D01*
X92155352Y-103362510D01*
X92155354Y-103362512D01*
X92177238Y-103395264D01*
X92192315Y-103431662D01*
X92200000Y-103470300D01*
X92200000Y-103509700D01*
X92192315Y-103548338D01*
X92177238Y-103584736D01*
X92155354Y-103617488D01*
X92155352Y-103617490D01*
X92155350Y-103617493D01*
X92127493Y-103645350D01*
X92127490Y-103645352D01*
X92127488Y-103645354D01*
X92094736Y-103667238D01*
X92058338Y-103682315D01*
X92019700Y-103690000D01*
X91980300Y-103690000D01*
X91941662Y-103682315D01*
X91905264Y-103667238D01*
X91872512Y-103645354D01*
X91872510Y-103645352D01*
X91872507Y-103645350D01*
X91844650Y-103617493D01*
X91844648Y-103617490D01*
X91844646Y-103617488D01*
X91822762Y-103584736D01*
X91807685Y-103548338D01*
X91800000Y-103509700D01*
X91800000Y-103470300D01*
X91807685Y-103431662D01*
X91822762Y-103395264D01*
X91844646Y-103362512D01*
X91844648Y-103362510D01*
X91844650Y-103362507D01*
X91872507Y-103334650D01*
X91872510Y-103334648D01*
X91872512Y-103334646D01*
X91905264Y-103312762D01*
X91941662Y-103297685D01*
X91980300Y-103290000D01*
X92019700Y-103290000D01*
X92058338Y-103297685D01*
G37*
G36*
X91458338Y-103297685D02*
G01*
X91494736Y-103312762D01*
X91527488Y-103334646D01*
X91527490Y-103334648D01*
X91527493Y-103334650D01*
X91555350Y-103362507D01*
X91555352Y-103362510D01*
X91555354Y-103362512D01*
X91577238Y-103395264D01*
X91592315Y-103431662D01*
X91600000Y-103470300D01*
X91600000Y-103509700D01*
X91592315Y-103548338D01*
X91577238Y-103584736D01*
X91555354Y-103617488D01*
X91555352Y-103617490D01*
X91555350Y-103617493D01*
X91527493Y-103645350D01*
X91527490Y-103645352D01*
X91527488Y-103645354D01*
X91494736Y-103667238D01*
X91458338Y-103682315D01*
X91419700Y-103690000D01*
X91380300Y-103690000D01*
X91341662Y-103682315D01*
X91305264Y-103667238D01*
X91272512Y-103645354D01*
X91272510Y-103645352D01*
X91272507Y-103645350D01*
X91244650Y-103617493D01*
X91244648Y-103617490D01*
X91244646Y-103617488D01*
X91222762Y-103584736D01*
X91207685Y-103548338D01*
X91200000Y-103509700D01*
X91200000Y-103470300D01*
X91207685Y-103431662D01*
X91222762Y-103395264D01*
X91244646Y-103362512D01*
X91244648Y-103362510D01*
X91244650Y-103362507D01*
X91272507Y-103334650D01*
X91272510Y-103334648D01*
X91272512Y-103334646D01*
X91305264Y-103312762D01*
X91341662Y-103297685D01*
X91380300Y-103290000D01*
X91419700Y-103290000D01*
X91458338Y-103297685D01*
G37*
G36*
X90858338Y-103297685D02*
G01*
X90894736Y-103312762D01*
X90927488Y-103334646D01*
X90927490Y-103334648D01*
X90927493Y-103334650D01*
X90955350Y-103362507D01*
X90955352Y-103362510D01*
X90955354Y-103362512D01*
X90977238Y-103395264D01*
X90992315Y-103431662D01*
X91000000Y-103470300D01*
X91000000Y-103509700D01*
X90992315Y-103548338D01*
X90977238Y-103584736D01*
X90955354Y-103617488D01*
X90955352Y-103617490D01*
X90955350Y-103617493D01*
X90927493Y-103645350D01*
X90927490Y-103645352D01*
X90927488Y-103645354D01*
X90894736Y-103667238D01*
X90858338Y-103682315D01*
X90819700Y-103690000D01*
X90780300Y-103690000D01*
X90741662Y-103682315D01*
X90705264Y-103667238D01*
X90672512Y-103645354D01*
X90672510Y-103645352D01*
X90672507Y-103645350D01*
X90644650Y-103617493D01*
X90644648Y-103617490D01*
X90644646Y-103617488D01*
X90622762Y-103584736D01*
X90607685Y-103548338D01*
X90600000Y-103509700D01*
X90600000Y-103470300D01*
X90607685Y-103431662D01*
X90622762Y-103395264D01*
X90644646Y-103362512D01*
X90644648Y-103362510D01*
X90644650Y-103362507D01*
X90672507Y-103334650D01*
X90672510Y-103334648D01*
X90672512Y-103334646D01*
X90705264Y-103312762D01*
X90741662Y-103297685D01*
X90780300Y-103290000D01*
X90819700Y-103290000D01*
X90858338Y-103297685D01*
G37*
G36*
X90258338Y-103297685D02*
G01*
X90294736Y-103312762D01*
X90327488Y-103334646D01*
X90327490Y-103334648D01*
X90327493Y-103334650D01*
X90355350Y-103362507D01*
X90355352Y-103362510D01*
X90355354Y-103362512D01*
X90377238Y-103395264D01*
X90392315Y-103431662D01*
X90400000Y-103470300D01*
X90400000Y-103509700D01*
X90392315Y-103548338D01*
X90377238Y-103584736D01*
X90355354Y-103617488D01*
X90355352Y-103617490D01*
X90355350Y-103617493D01*
X90327493Y-103645350D01*
X90327490Y-103645352D01*
X90327488Y-103645354D01*
X90294736Y-103667238D01*
X90258338Y-103682315D01*
X90219700Y-103690000D01*
X90180300Y-103690000D01*
X90141662Y-103682315D01*
X90105264Y-103667238D01*
X90072512Y-103645354D01*
X90072510Y-103645352D01*
X90072507Y-103645350D01*
X90044650Y-103617493D01*
X90044648Y-103617490D01*
X90044646Y-103617488D01*
X90022762Y-103584736D01*
X90007685Y-103548338D01*
X90000000Y-103509700D01*
X90000000Y-103470300D01*
X90007685Y-103431662D01*
X90022762Y-103395264D01*
X90044646Y-103362512D01*
X90044648Y-103362510D01*
X90044650Y-103362507D01*
X90072507Y-103334650D01*
X90072510Y-103334648D01*
X90072512Y-103334646D01*
X90105264Y-103312762D01*
X90141662Y-103297685D01*
X90180300Y-103290000D01*
X90219700Y-103290000D01*
X90258338Y-103297685D01*
G37*
G36*
X89658338Y-103297685D02*
G01*
X89694736Y-103312762D01*
X89727488Y-103334646D01*
X89727490Y-103334648D01*
X89727493Y-103334650D01*
X89755350Y-103362507D01*
X89755352Y-103362510D01*
X89755354Y-103362512D01*
X89777238Y-103395264D01*
X89792315Y-103431662D01*
X89800000Y-103470300D01*
X89800000Y-103509700D01*
X89792315Y-103548338D01*
X89777238Y-103584736D01*
X89755354Y-103617488D01*
X89755352Y-103617490D01*
X89755350Y-103617493D01*
X89727493Y-103645350D01*
X89727490Y-103645352D01*
X89727488Y-103645354D01*
X89694736Y-103667238D01*
X89658338Y-103682315D01*
X89619700Y-103690000D01*
X89580300Y-103690000D01*
X89541662Y-103682315D01*
X89505264Y-103667238D01*
X89472512Y-103645354D01*
X89472510Y-103645352D01*
X89472507Y-103645350D01*
X89444650Y-103617493D01*
X89444648Y-103617490D01*
X89444646Y-103617488D01*
X89422762Y-103584736D01*
X89407685Y-103548338D01*
X89400000Y-103509700D01*
X89400000Y-103470300D01*
X89407685Y-103431662D01*
X89422762Y-103395264D01*
X89444646Y-103362512D01*
X89444648Y-103362510D01*
X89444650Y-103362507D01*
X89472507Y-103334650D01*
X89472510Y-103334648D01*
X89472512Y-103334646D01*
X89505264Y-103312762D01*
X89541662Y-103297685D01*
X89580300Y-103290000D01*
X89619700Y-103290000D01*
X89658338Y-103297685D01*
G37*
G36*
X98058338Y-103297685D02*
G01*
X98094736Y-103312762D01*
X98127488Y-103334646D01*
X98127490Y-103334648D01*
X98127493Y-103334650D01*
X98155350Y-103362507D01*
X98155352Y-103362510D01*
X98155354Y-103362512D01*
X98177238Y-103395264D01*
X98192315Y-103431662D01*
X98200000Y-103470300D01*
X98200000Y-103509700D01*
X98192315Y-103548338D01*
X98177238Y-103584736D01*
X98155354Y-103617488D01*
X98155352Y-103617490D01*
X98155350Y-103617493D01*
X98127493Y-103645350D01*
X98127490Y-103645352D01*
X98127488Y-103645354D01*
X98094736Y-103667238D01*
X98058338Y-103682315D01*
X98019700Y-103690000D01*
X97980300Y-103690000D01*
X97941662Y-103682315D01*
X97905264Y-103667238D01*
X97872512Y-103645354D01*
X97872510Y-103645352D01*
X97872507Y-103645350D01*
X97844650Y-103617493D01*
X97844648Y-103617490D01*
X97844646Y-103617488D01*
X97822762Y-103584736D01*
X97807685Y-103548338D01*
X97800000Y-103509700D01*
X97800000Y-103470300D01*
X97807685Y-103431662D01*
X97822762Y-103395264D01*
X97844646Y-103362512D01*
X97844648Y-103362510D01*
X97844650Y-103362507D01*
X97872507Y-103334650D01*
X97872510Y-103334648D01*
X97872512Y-103334646D01*
X97905264Y-103312762D01*
X97941662Y-103297685D01*
X97980300Y-103290000D01*
X98019700Y-103290000D01*
X98058338Y-103297685D01*
G37*
G36*
X96406891Y-98711265D02*
G01*
X96416878Y-98714295D01*
X96426091Y-98719219D01*
X96434160Y-98725840D01*
X96440781Y-98733909D01*
X96445705Y-98743122D01*
X96448735Y-98753109D01*
X96450000Y-98765954D01*
X96450000Y-101954046D01*
X96448735Y-101966891D01*
X96445705Y-101976878D01*
X96440781Y-101986091D01*
X96434160Y-101994160D01*
X96426091Y-102000781D01*
X96416878Y-102005705D01*
X96406891Y-102008735D01*
X96394046Y-102010000D01*
X94305954Y-102010000D01*
X94293109Y-102008735D01*
X94283122Y-102005705D01*
X94273909Y-102000781D01*
X94265840Y-101994160D01*
X94259219Y-101986091D01*
X94254295Y-101976878D01*
X94251265Y-101966891D01*
X94250000Y-101954046D01*
X94250000Y-98765954D01*
X94251265Y-98753109D01*
X94254295Y-98743122D01*
X94259219Y-98733909D01*
X94265840Y-98725840D01*
X94273909Y-98719219D01*
X94283122Y-98714295D01*
X94293109Y-98711265D01*
X94305954Y-98710000D01*
X96394046Y-98710000D01*
X96406891Y-98711265D01*
G37*
G36*
X89706891Y-98711265D02*
G01*
X89716878Y-98714295D01*
X89726091Y-98719219D01*
X89734160Y-98725840D01*
X89740781Y-98733909D01*
X89745705Y-98743122D01*
X89748735Y-98753109D01*
X89750000Y-98765954D01*
X89750000Y-101954046D01*
X89748735Y-101966891D01*
X89745705Y-101976878D01*
X89740781Y-101986091D01*
X89734160Y-101994160D01*
X89726091Y-102000781D01*
X89716878Y-102005705D01*
X89706891Y-102008735D01*
X89694046Y-102010000D01*
X87605954Y-102010000D01*
X87593109Y-102008735D01*
X87583122Y-102005705D01*
X87573909Y-102000781D01*
X87565840Y-101994160D01*
X87559219Y-101986091D01*
X87554295Y-101976878D01*
X87551265Y-101966891D01*
X87550000Y-101954046D01*
X87550000Y-98765954D01*
X87551265Y-98753109D01*
X87554295Y-98743122D01*
X87559219Y-98733909D01*
X87565840Y-98725840D01*
X87573909Y-98719219D01*
X87583122Y-98714295D01*
X87593109Y-98711265D01*
X87605954Y-98710000D01*
X89694046Y-98710000D01*
X89706891Y-98711265D01*
G37*
G36*
X99019153Y-99083359D02*
G01*
X99049595Y-99092594D01*
X99077643Y-99107586D01*
X99102233Y-99127767D01*
X99122414Y-99152357D01*
X99137406Y-99180405D01*
X99146641Y-99210847D01*
X99150000Y-99244954D01*
X99150000Y-100515046D01*
X99146641Y-100549153D01*
X99137406Y-100579595D01*
X99122414Y-100607643D01*
X99102233Y-100632233D01*
X99077643Y-100652414D01*
X99049595Y-100667406D01*
X99019153Y-100676641D01*
X98985046Y-100680000D01*
X97714954Y-100680000D01*
X97680847Y-100676641D01*
X97650405Y-100667406D01*
X97622357Y-100652414D01*
X97597767Y-100632233D01*
X97577586Y-100607643D01*
X97562594Y-100579595D01*
X97553359Y-100549153D01*
X97550000Y-100515046D01*
X97550000Y-99244954D01*
X97553359Y-99210847D01*
X97562594Y-99180405D01*
X97577586Y-99152357D01*
X97597767Y-99127767D01*
X97622357Y-99107586D01*
X97650405Y-99092594D01*
X97680847Y-99083359D01*
X97714954Y-99080000D01*
X98985046Y-99080000D01*
X99019153Y-99083359D01*
G37*
G36*
X86319153Y-99083359D02*
G01*
X86349595Y-99092594D01*
X86377643Y-99107586D01*
X86402233Y-99127767D01*
X86422414Y-99152357D01*
X86437406Y-99180405D01*
X86446641Y-99210847D01*
X86450000Y-99244954D01*
X86450000Y-100515046D01*
X86446641Y-100549153D01*
X86437406Y-100579595D01*
X86422414Y-100607643D01*
X86402233Y-100632233D01*
X86377643Y-100652414D01*
X86349595Y-100667406D01*
X86319153Y-100676641D01*
X86285046Y-100680000D01*
X85014954Y-100680000D01*
X84980847Y-100676641D01*
X84950405Y-100667406D01*
X84922357Y-100652414D01*
X84897767Y-100632233D01*
X84877586Y-100607643D01*
X84862594Y-100579595D01*
X84853359Y-100549153D01*
X84850000Y-100515046D01*
X84850000Y-99244954D01*
X84853359Y-99210847D01*
X84862594Y-99180405D01*
X84877586Y-99152357D01*
X84897767Y-99127767D01*
X84922357Y-99107586D01*
X84950405Y-99092594D01*
X84980847Y-99083359D01*
X85014954Y-99080000D01*
X86285046Y-99080000D01*
X86319153Y-99083359D01*
G37*
G36*
X91886431Y-97590560D02*
G01*
X91889537Y-97591502D01*
X91892398Y-97593031D01*
X91894908Y-97595092D01*
X91896969Y-97597602D01*
X91898498Y-97600463D01*
X91899440Y-97603569D01*
X91900000Y-97609256D01*
X91900000Y-98770744D01*
X91899440Y-98776431D01*
X91898498Y-98779537D01*
X91896969Y-98782398D01*
X91894908Y-98784908D01*
X91892398Y-98786969D01*
X91889537Y-98788498D01*
X91886431Y-98789440D01*
X91880744Y-98790000D01*
X91619256Y-98790000D01*
X91613569Y-98789440D01*
X91610463Y-98788498D01*
X91607602Y-98786969D01*
X91605092Y-98784908D01*
X91603031Y-98782398D01*
X91601502Y-98779537D01*
X91600560Y-98776431D01*
X91600000Y-98770744D01*
X91600000Y-97609256D01*
X91600560Y-97603569D01*
X91601502Y-97600463D01*
X91603031Y-97597602D01*
X91605092Y-97595092D01*
X91607602Y-97593031D01*
X91610463Y-97591502D01*
X91613569Y-97590560D01*
X91619256Y-97590000D01*
X91880744Y-97590000D01*
X91886431Y-97590560D01*
G37*
G36*
X90386431Y-97590560D02*
G01*
X90389537Y-97591502D01*
X90392398Y-97593031D01*
X90394908Y-97595092D01*
X90396969Y-97597602D01*
X90398498Y-97600463D01*
X90399440Y-97603569D01*
X90400000Y-97609256D01*
X90400000Y-98770744D01*
X90399440Y-98776431D01*
X90398498Y-98779537D01*
X90396969Y-98782398D01*
X90394908Y-98784908D01*
X90392398Y-98786969D01*
X90389537Y-98788498D01*
X90386431Y-98789440D01*
X90380744Y-98790000D01*
X90119256Y-98790000D01*
X90113569Y-98789440D01*
X90110463Y-98788498D01*
X90107602Y-98786969D01*
X90105092Y-98784908D01*
X90103031Y-98782398D01*
X90101502Y-98779537D01*
X90100560Y-98776431D01*
X90100000Y-98770744D01*
X90100000Y-97609256D01*
X90100560Y-97603569D01*
X90101502Y-97600463D01*
X90103031Y-97597602D01*
X90105092Y-97595092D01*
X90107602Y-97593031D01*
X90110463Y-97591502D01*
X90113569Y-97590560D01*
X90119256Y-97590000D01*
X90380744Y-97590000D01*
X90386431Y-97590560D01*
G37*
G36*
X90886431Y-97590560D02*
G01*
X90889537Y-97591502D01*
X90892398Y-97593031D01*
X90894908Y-97595092D01*
X90896969Y-97597602D01*
X90898498Y-97600463D01*
X90899440Y-97603569D01*
X90900000Y-97609256D01*
X90900000Y-98770744D01*
X90899440Y-98776431D01*
X90898498Y-98779537D01*
X90896969Y-98782398D01*
X90894908Y-98784908D01*
X90892398Y-98786969D01*
X90889537Y-98788498D01*
X90886431Y-98789440D01*
X90880744Y-98790000D01*
X90619256Y-98790000D01*
X90613569Y-98789440D01*
X90610463Y-98788498D01*
X90607602Y-98786969D01*
X90605092Y-98784908D01*
X90603031Y-98782398D01*
X90601502Y-98779537D01*
X90600560Y-98776431D01*
X90600000Y-98770744D01*
X90600000Y-97609256D01*
X90600560Y-97603569D01*
X90601502Y-97600463D01*
X90603031Y-97597602D01*
X90605092Y-97595092D01*
X90607602Y-97593031D01*
X90610463Y-97591502D01*
X90613569Y-97590560D01*
X90619256Y-97590000D01*
X90880744Y-97590000D01*
X90886431Y-97590560D01*
G37*
G36*
X91386431Y-97590560D02*
G01*
X91389537Y-97591502D01*
X91392398Y-97593031D01*
X91394908Y-97595092D01*
X91396969Y-97597602D01*
X91398498Y-97600463D01*
X91399440Y-97603569D01*
X91400000Y-97609256D01*
X91400000Y-98770744D01*
X91399440Y-98776431D01*
X91398498Y-98779537D01*
X91396969Y-98782398D01*
X91394908Y-98784908D01*
X91392398Y-98786969D01*
X91389537Y-98788498D01*
X91386431Y-98789440D01*
X91380744Y-98790000D01*
X91119256Y-98790000D01*
X91113569Y-98789440D01*
X91110463Y-98788498D01*
X91107602Y-98786969D01*
X91105092Y-98784908D01*
X91103031Y-98782398D01*
X91101502Y-98779537D01*
X91100560Y-98776431D01*
X91100000Y-98770744D01*
X91100000Y-97609256D01*
X91100560Y-97603569D01*
X91101502Y-97600463D01*
X91103031Y-97597602D01*
X91105092Y-97595092D01*
X91107602Y-97593031D01*
X91110463Y-97591502D01*
X91113569Y-97590560D01*
X91119256Y-97590000D01*
X91380744Y-97590000D01*
X91386431Y-97590560D01*
G37*
G36*
X92386431Y-97590560D02*
G01*
X92389537Y-97591502D01*
X92392398Y-97593031D01*
X92394908Y-97595092D01*
X92396969Y-97597602D01*
X92398498Y-97600463D01*
X92399440Y-97603569D01*
X92400000Y-97609256D01*
X92400000Y-98770744D01*
X92399440Y-98776431D01*
X92398498Y-98779537D01*
X92396969Y-98782398D01*
X92394908Y-98784908D01*
X92392398Y-98786969D01*
X92389537Y-98788498D01*
X92386431Y-98789440D01*
X92380744Y-98790000D01*
X92119256Y-98790000D01*
X92113569Y-98789440D01*
X92110463Y-98788498D01*
X92107602Y-98786969D01*
X92105092Y-98784908D01*
X92103031Y-98782398D01*
X92101502Y-98779537D01*
X92100560Y-98776431D01*
X92100000Y-98770744D01*
X92100000Y-97609256D01*
X92100560Y-97603569D01*
X92101502Y-97600463D01*
X92103031Y-97597602D01*
X92105092Y-97595092D01*
X92107602Y-97593031D01*
X92110463Y-97591502D01*
X92113569Y-97590560D01*
X92119256Y-97590000D01*
X92380744Y-97590000D01*
X92386431Y-97590560D01*
G37*
G36*
X93886431Y-97590560D02*
G01*
X93889537Y-97591502D01*
X93892398Y-97593031D01*
X93894908Y-97595092D01*
X93896969Y-97597602D01*
X93898498Y-97600463D01*
X93899440Y-97603569D01*
X93900000Y-97609256D01*
X93900000Y-98770744D01*
X93899440Y-98776431D01*
X93898498Y-98779537D01*
X93896969Y-98782398D01*
X93894908Y-98784908D01*
X93892398Y-98786969D01*
X93889537Y-98788498D01*
X93886431Y-98789440D01*
X93880744Y-98790000D01*
X93619256Y-98790000D01*
X93613569Y-98789440D01*
X93610463Y-98788498D01*
X93607602Y-98786969D01*
X93605092Y-98784908D01*
X93603031Y-98782398D01*
X93601502Y-98779537D01*
X93600560Y-98776431D01*
X93600000Y-98770744D01*
X93600000Y-97609256D01*
X93600560Y-97603569D01*
X93601502Y-97600463D01*
X93603031Y-97597602D01*
X93605092Y-97595092D01*
X93607602Y-97593031D01*
X93610463Y-97591502D01*
X93613569Y-97590560D01*
X93619256Y-97590000D01*
X93880744Y-97590000D01*
X93886431Y-97590560D01*
G37*
G36*
X93386431Y-97590560D02*
G01*
X93389537Y-97591502D01*
X93392398Y-97593031D01*
X93394908Y-97595092D01*
X93396969Y-97597602D01*
X93398498Y-97600463D01*
X93399440Y-97603569D01*
X93400000Y-97609256D01*
X93400000Y-98770744D01*
X93399440Y-98776431D01*
X93398498Y-98779537D01*
X93396969Y-98782398D01*
X93394908Y-98784908D01*
X93392398Y-98786969D01*
X93389537Y-98788498D01*
X93386431Y-98789440D01*
X93380744Y-98790000D01*
X93119256Y-98790000D01*
X93113569Y-98789440D01*
X93110463Y-98788498D01*
X93107602Y-98786969D01*
X93105092Y-98784908D01*
X93103031Y-98782398D01*
X93101502Y-98779537D01*
X93100560Y-98776431D01*
X93100000Y-98770744D01*
X93100000Y-97609256D01*
X93100560Y-97603569D01*
X93101502Y-97600463D01*
X93103031Y-97597602D01*
X93105092Y-97595092D01*
X93107602Y-97593031D01*
X93110463Y-97591502D01*
X93113569Y-97590560D01*
X93119256Y-97590000D01*
X93380744Y-97590000D01*
X93386431Y-97590560D01*
G37*
G36*
X92886431Y-97590560D02*
G01*
X92889537Y-97591502D01*
X92892398Y-97593031D01*
X92894908Y-97595092D01*
X92896969Y-97597602D01*
X92898498Y-97600463D01*
X92899440Y-97603569D01*
X92900000Y-97609256D01*
X92900000Y-98770744D01*
X92899440Y-98776431D01*
X92898498Y-98779537D01*
X92896969Y-98782398D01*
X92894908Y-98784908D01*
X92892398Y-98786969D01*
X92889537Y-98788498D01*
X92886431Y-98789440D01*
X92880744Y-98790000D01*
X92619256Y-98790000D01*
X92613569Y-98789440D01*
X92610463Y-98788498D01*
X92607602Y-98786969D01*
X92605092Y-98784908D01*
X92603031Y-98782398D01*
X92601502Y-98779537D01*
X92600560Y-98776431D01*
X92600000Y-98770744D01*
X92600000Y-97609256D01*
X92600560Y-97603569D01*
X92601502Y-97600463D01*
X92603031Y-97597602D01*
X92605092Y-97595092D01*
X92607602Y-97593031D01*
X92610463Y-97591502D01*
X92613569Y-97590560D01*
X92619256Y-97590000D01*
X92880744Y-97590000D01*
X92886431Y-97590560D01*
G37*
G36*
X89580000Y-98185000D02*
G01*
X89580000Y-98195000D01*
X89080000Y-98385000D01*
X89080000Y-97995000D01*
X89580000Y-98185000D01*
G37*
G36*
X99019153Y-96543359D02*
G01*
X99049595Y-96552594D01*
X99077643Y-96567586D01*
X99102233Y-96587767D01*
X99122414Y-96612357D01*
X99137406Y-96640405D01*
X99146641Y-96670847D01*
X99150000Y-96704954D01*
X99150000Y-97975046D01*
X99146641Y-98009153D01*
X99137406Y-98039595D01*
X99122414Y-98067643D01*
X99102233Y-98092233D01*
X99077643Y-98112414D01*
X99049595Y-98127406D01*
X99019153Y-98136641D01*
X98985046Y-98140000D01*
X97714954Y-98140000D01*
X97680847Y-98136641D01*
X97650405Y-98127406D01*
X97622357Y-98112414D01*
X97597767Y-98092233D01*
X97577586Y-98067643D01*
X97562594Y-98039595D01*
X97553359Y-98009153D01*
X97550000Y-97975046D01*
X97550000Y-96704954D01*
X97553359Y-96670847D01*
X97562594Y-96640405D01*
X97577586Y-96612357D01*
X97597767Y-96587767D01*
X97622357Y-96567586D01*
X97650405Y-96552594D01*
X97680847Y-96543359D01*
X97714954Y-96540000D01*
X98985046Y-96540000D01*
X99019153Y-96543359D01*
G37*
G36*
X86319153Y-96543359D02*
G01*
X86349595Y-96552594D01*
X86377643Y-96567586D01*
X86402233Y-96587767D01*
X86422414Y-96612357D01*
X86437406Y-96640405D01*
X86446641Y-96670847D01*
X86450000Y-96704954D01*
X86450000Y-97975046D01*
X86446641Y-98009153D01*
X86437406Y-98039595D01*
X86422414Y-98067643D01*
X86402233Y-98092233D01*
X86377643Y-98112414D01*
X86349595Y-98127406D01*
X86319153Y-98136641D01*
X86285046Y-98140000D01*
X85014954Y-98140000D01*
X84980847Y-98136641D01*
X84950405Y-98127406D01*
X84922357Y-98112414D01*
X84897767Y-98092233D01*
X84877586Y-98067643D01*
X84862594Y-98039595D01*
X84853359Y-98009153D01*
X84850000Y-97975046D01*
X84850000Y-96704954D01*
X84853359Y-96670847D01*
X84862594Y-96640405D01*
X84877586Y-96612357D01*
X84897767Y-96587767D01*
X84922357Y-96567586D01*
X84950405Y-96552594D01*
X84980847Y-96543359D01*
X85014954Y-96540000D01*
X86285046Y-96540000D01*
X86319153Y-96543359D01*
G37*
G36*
X99019153Y-94003359D02*
G01*
X99049595Y-94012594D01*
X99077643Y-94027586D01*
X99102233Y-94047767D01*
X99122414Y-94072357D01*
X99137406Y-94100405D01*
X99146641Y-94130847D01*
X99150000Y-94164954D01*
X99150000Y-95435046D01*
X99146641Y-95469153D01*
X99137406Y-95499595D01*
X99122414Y-95527643D01*
X99102233Y-95552233D01*
X99077643Y-95572414D01*
X99049595Y-95587406D01*
X99019153Y-95596641D01*
X98985046Y-95600000D01*
X97714954Y-95600000D01*
X97680847Y-95596641D01*
X97650405Y-95587406D01*
X97622357Y-95572414D01*
X97597767Y-95552233D01*
X97577586Y-95527643D01*
X97562594Y-95499595D01*
X97553359Y-95469153D01*
X97550000Y-95435046D01*
X97550000Y-94164954D01*
X97553359Y-94130847D01*
X97562594Y-94100405D01*
X97577586Y-94072357D01*
X97597767Y-94047767D01*
X97622357Y-94027586D01*
X97650405Y-94012594D01*
X97680847Y-94003359D01*
X97714954Y-94000000D01*
X98985046Y-94000000D01*
X99019153Y-94003359D01*
G37*
G36*
X86319153Y-94003359D02*
G01*
X86349595Y-94012594D01*
X86377643Y-94027586D01*
X86402233Y-94047767D01*
X86422414Y-94072357D01*
X86437406Y-94100405D01*
X86446641Y-94130847D01*
X86450000Y-94164954D01*
X86450000Y-95435046D01*
X86446641Y-95469153D01*
X86437406Y-95499595D01*
X86422414Y-95527643D01*
X86402233Y-95552233D01*
X86377643Y-95572414D01*
X86349595Y-95587406D01*
X86319153Y-95596641D01*
X86285046Y-95600000D01*
X85014954Y-95600000D01*
X84980847Y-95596641D01*
X84950405Y-95587406D01*
X84922357Y-95572414D01*
X84897767Y-95552233D01*
X84877586Y-95527643D01*
X84862594Y-95499595D01*
X84853359Y-95469153D01*
X84850000Y-95435046D01*
X84850000Y-94164954D01*
X84853359Y-94130847D01*
X84862594Y-94100405D01*
X84877586Y-94072357D01*
X84897767Y-94047767D01*
X84922357Y-94027586D01*
X84950405Y-94012594D01*
X84980847Y-94003359D01*
X85014954Y-94000000D01*
X86285046Y-94000000D01*
X86319153Y-94003359D01*
G37*
G36*
X86319153Y-91463359D02*
G01*
X86349595Y-91472594D01*
X86377643Y-91487586D01*
X86402233Y-91507767D01*
X86422414Y-91532357D01*
X86437406Y-91560405D01*
X86446641Y-91590847D01*
X86450000Y-91624954D01*
X86450000Y-92895046D01*
X86446641Y-92929153D01*
X86437406Y-92959595D01*
X86422414Y-92987643D01*
X86402233Y-93012233D01*
X86377643Y-93032414D01*
X86349595Y-93047406D01*
X86319153Y-93056641D01*
X86285046Y-93060000D01*
X85014954Y-93060000D01*
X84980847Y-93056641D01*
X84950405Y-93047406D01*
X84922357Y-93032414D01*
X84897767Y-93012233D01*
X84877586Y-92987643D01*
X84862594Y-92959595D01*
X84853359Y-92929153D01*
X84850000Y-92895046D01*
X84850000Y-91624954D01*
X84853359Y-91590847D01*
X84862594Y-91560405D01*
X84877586Y-91532357D01*
X84897767Y-91507767D01*
X84922357Y-91487586D01*
X84950405Y-91472594D01*
X84980847Y-91463359D01*
X85014954Y-91460000D01*
X86285046Y-91460000D01*
X86319153Y-91463359D01*
G37*
G36*
X99019153Y-91463359D02*
G01*
X99049595Y-91472594D01*
X99077643Y-91487586D01*
X99102233Y-91507767D01*
X99122414Y-91532357D01*
X99137406Y-91560405D01*
X99146641Y-91590847D01*
X99150000Y-91624954D01*
X99150000Y-92895046D01*
X99146641Y-92929153D01*
X99137406Y-92959595D01*
X99122414Y-92987643D01*
X99102233Y-93012233D01*
X99077643Y-93032414D01*
X99049595Y-93047406D01*
X99019153Y-93056641D01*
X98985046Y-93060000D01*
X97714954Y-93060000D01*
X97680847Y-93056641D01*
X97650405Y-93047406D01*
X97622357Y-93032414D01*
X97597767Y-93012233D01*
X97577586Y-92987643D01*
X97562594Y-92959595D01*
X97553359Y-92929153D01*
X97550000Y-92895046D01*
X97550000Y-91624954D01*
X97553359Y-91590847D01*
X97562594Y-91560405D01*
X97577586Y-91532357D01*
X97597767Y-91507767D01*
X97622357Y-91487586D01*
X97650405Y-91472594D01*
X97680847Y-91463359D01*
X97714954Y-91460000D01*
X98985046Y-91460000D01*
X99019153Y-91463359D01*
G37*
G36*
X86319153Y-88923359D02*
G01*
X86349595Y-88932594D01*
X86377643Y-88947586D01*
X86402233Y-88967767D01*
X86422414Y-88992357D01*
X86437406Y-89020405D01*
X86446641Y-89050847D01*
X86450000Y-89084954D01*
X86450000Y-90355046D01*
X86446641Y-90389153D01*
X86437406Y-90419595D01*
X86422414Y-90447643D01*
X86402233Y-90472233D01*
X86377643Y-90492414D01*
X86349595Y-90507406D01*
X86319153Y-90516641D01*
X86285046Y-90520000D01*
X85014954Y-90520000D01*
X84980847Y-90516641D01*
X84950405Y-90507406D01*
X84922357Y-90492414D01*
X84897767Y-90472233D01*
X84877586Y-90447643D01*
X84862594Y-90419595D01*
X84853359Y-90389153D01*
X84850000Y-90355046D01*
X84850000Y-89084954D01*
X84853359Y-89050847D01*
X84862594Y-89020405D01*
X84877586Y-88992357D01*
X84897767Y-88967767D01*
X84922357Y-88947586D01*
X84950405Y-88932594D01*
X84980847Y-88923359D01*
X85014954Y-88920000D01*
X86285046Y-88920000D01*
X86319153Y-88923359D01*
G37*
G36*
X99019153Y-88923359D02*
G01*
X99049595Y-88932594D01*
X99077643Y-88947586D01*
X99102233Y-88967767D01*
X99122414Y-88992357D01*
X99137406Y-89020405D01*
X99146641Y-89050847D01*
X99150000Y-89084954D01*
X99150000Y-90355046D01*
X99146641Y-90389153D01*
X99137406Y-90419595D01*
X99122414Y-90447643D01*
X99102233Y-90472233D01*
X99077643Y-90492414D01*
X99049595Y-90507406D01*
X99019153Y-90516641D01*
X98985046Y-90520000D01*
X97714954Y-90520000D01*
X97680847Y-90516641D01*
X97650405Y-90507406D01*
X97622357Y-90492414D01*
X97597767Y-90472233D01*
X97577586Y-90447643D01*
X97562594Y-90419595D01*
X97553359Y-90389153D01*
X97550000Y-90355046D01*
X97550000Y-89084954D01*
X97553359Y-89050847D01*
X97562594Y-89020405D01*
X97577586Y-88992357D01*
X97597767Y-88967767D01*
X97622357Y-88947586D01*
X97650405Y-88932594D01*
X97680847Y-88923359D01*
X97714954Y-88920000D01*
X98985046Y-88920000D01*
X99019153Y-88923359D01*
G37*
G36*
X86319153Y-86383359D02*
G01*
X86349595Y-86392594D01*
X86377643Y-86407586D01*
X86402233Y-86427767D01*
X86422414Y-86452357D01*
X86437406Y-86480405D01*
X86446641Y-86510847D01*
X86450000Y-86544954D01*
X86450000Y-87815046D01*
X86446641Y-87849153D01*
X86437406Y-87879595D01*
X86422414Y-87907643D01*
X86402233Y-87932233D01*
X86377643Y-87952414D01*
X86349595Y-87967406D01*
X86319153Y-87976641D01*
X86285046Y-87980000D01*
X85014954Y-87980000D01*
X84980847Y-87976641D01*
X84950405Y-87967406D01*
X84922357Y-87952414D01*
X84897767Y-87932233D01*
X84877586Y-87907643D01*
X84862594Y-87879595D01*
X84853359Y-87849153D01*
X84850000Y-87815046D01*
X84850000Y-86544954D01*
X84853359Y-86510847D01*
X84862594Y-86480405D01*
X84877586Y-86452357D01*
X84897767Y-86427767D01*
X84922357Y-86407586D01*
X84950405Y-86392594D01*
X84980847Y-86383359D01*
X85014954Y-86380000D01*
X86285046Y-86380000D01*
X86319153Y-86383359D01*
G37*
G36*
X99019153Y-86383359D02*
G01*
X99049595Y-86392594D01*
X99077643Y-86407586D01*
X99102233Y-86427767D01*
X99122414Y-86452357D01*
X99137406Y-86480405D01*
X99146641Y-86510847D01*
X99150000Y-86544954D01*
X99150000Y-87815046D01*
X99146641Y-87849153D01*
X99137406Y-87879595D01*
X99122414Y-87907643D01*
X99102233Y-87932233D01*
X99077643Y-87952414D01*
X99049595Y-87967406D01*
X99019153Y-87976641D01*
X98985046Y-87980000D01*
X97714954Y-87980000D01*
X97680847Y-87976641D01*
X97650405Y-87967406D01*
X97622357Y-87952414D01*
X97597767Y-87932233D01*
X97577586Y-87907643D01*
X97562594Y-87879595D01*
X97553359Y-87849153D01*
X97550000Y-87815046D01*
X97550000Y-86544954D01*
X97553359Y-86510847D01*
X97562594Y-86480405D01*
X97577586Y-86452357D01*
X97597767Y-86427767D01*
X97622357Y-86407586D01*
X97650405Y-86392594D01*
X97680847Y-86383359D01*
X97714954Y-86380000D01*
X98985046Y-86380000D01*
X99019153Y-86383359D01*
G37*
G36*
X99019153Y-83843359D02*
G01*
X99049595Y-83852594D01*
X99077643Y-83867586D01*
X99102233Y-83887767D01*
X99122414Y-83912357D01*
X99137406Y-83940405D01*
X99146641Y-83970847D01*
X99150000Y-84004954D01*
X99150000Y-85275046D01*
X99146641Y-85309153D01*
X99137406Y-85339595D01*
X99122414Y-85367643D01*
X99102233Y-85392233D01*
X99077643Y-85412414D01*
X99049595Y-85427406D01*
X99019153Y-85436641D01*
X98985046Y-85440000D01*
X97714954Y-85440000D01*
X97680847Y-85436641D01*
X97650405Y-85427406D01*
X97622357Y-85412414D01*
X97597767Y-85392233D01*
X97577586Y-85367643D01*
X97562594Y-85339595D01*
X97553359Y-85309153D01*
X97550000Y-85275046D01*
X97550000Y-84004954D01*
X97553359Y-83970847D01*
X97562594Y-83940405D01*
X97577586Y-83912357D01*
X97597767Y-83887767D01*
X97622357Y-83867586D01*
X97650405Y-83852594D01*
X97680847Y-83843359D01*
X97714954Y-83840000D01*
X98985046Y-83840000D01*
X99019153Y-83843359D01*
G37*
G36*
X86319153Y-83843359D02*
G01*
X86349595Y-83852594D01*
X86377643Y-83867586D01*
X86402233Y-83887767D01*
X86422414Y-83912357D01*
X86437406Y-83940405D01*
X86446641Y-83970847D01*
X86450000Y-84004954D01*
X86450000Y-85275046D01*
X86446641Y-85309153D01*
X86437406Y-85339595D01*
X86422414Y-85367643D01*
X86402233Y-85392233D01*
X86377643Y-85412414D01*
X86349595Y-85427406D01*
X86319153Y-85436641D01*
X86285046Y-85440000D01*
X85014954Y-85440000D01*
X84980847Y-85436641D01*
X84950405Y-85427406D01*
X84922357Y-85412414D01*
X84897767Y-85392233D01*
X84877586Y-85367643D01*
X84862594Y-85339595D01*
X84853359Y-85309153D01*
X84850000Y-85275046D01*
X84850000Y-84004954D01*
X84853359Y-83970847D01*
X84862594Y-83940405D01*
X84877586Y-83912357D01*
X84897767Y-83887767D01*
X84922357Y-83867586D01*
X84950405Y-83852594D01*
X84980847Y-83843359D01*
X85014954Y-83840000D01*
X86285046Y-83840000D01*
X86319153Y-83843359D01*
G37*
G36*
X86319153Y-81303359D02*
G01*
X86349595Y-81312594D01*
X86377643Y-81327586D01*
X86402233Y-81347767D01*
X86422414Y-81372357D01*
X86437406Y-81400405D01*
X86446641Y-81430847D01*
X86450000Y-81464954D01*
X86450000Y-82735046D01*
X86446641Y-82769153D01*
X86437406Y-82799595D01*
X86422414Y-82827643D01*
X86402233Y-82852233D01*
X86377643Y-82872414D01*
X86349595Y-82887406D01*
X86319153Y-82896641D01*
X86285046Y-82900000D01*
X85014954Y-82900000D01*
X84980847Y-82896641D01*
X84950405Y-82887406D01*
X84922357Y-82872414D01*
X84897767Y-82852233D01*
X84877586Y-82827643D01*
X84862594Y-82799595D01*
X84853359Y-82769153D01*
X84850000Y-82735046D01*
X84850000Y-81464954D01*
X84853359Y-81430847D01*
X84862594Y-81400405D01*
X84877586Y-81372357D01*
X84897767Y-81347767D01*
X84922357Y-81327586D01*
X84950405Y-81312594D01*
X84980847Y-81303359D01*
X85014954Y-81300000D01*
X86285046Y-81300000D01*
X86319153Y-81303359D01*
G37*
G36*
X99019153Y-81303359D02*
G01*
X99049595Y-81312594D01*
X99077643Y-81327586D01*
X99102233Y-81347767D01*
X99122414Y-81372357D01*
X99137406Y-81400405D01*
X99146641Y-81430847D01*
X99150000Y-81464954D01*
X99150000Y-82735046D01*
X99146641Y-82769153D01*
X99137406Y-82799595D01*
X99122414Y-82827643D01*
X99102233Y-82852233D01*
X99077643Y-82872414D01*
X99049595Y-82887406D01*
X99019153Y-82896641D01*
X98985046Y-82900000D01*
X97714954Y-82900000D01*
X97680847Y-82896641D01*
X97650405Y-82887406D01*
X97622357Y-82872414D01*
X97597767Y-82852233D01*
X97577586Y-82827643D01*
X97562594Y-82799595D01*
X97553359Y-82769153D01*
X97550000Y-82735046D01*
X97550000Y-81464954D01*
X97553359Y-81430847D01*
X97562594Y-81400405D01*
X97577586Y-81372357D01*
X97597767Y-81347767D01*
X97622357Y-81327586D01*
X97650405Y-81312594D01*
X97680847Y-81303359D01*
X97714954Y-81300000D01*
X98985046Y-81300000D01*
X99019153Y-81303359D01*
G37*
G36*
X84858338Y-78297685D02*
G01*
X84894736Y-78312762D01*
X84927488Y-78334646D01*
X84927490Y-78334648D01*
X84927493Y-78334650D01*
X84955350Y-78362507D01*
X84955352Y-78362510D01*
X84955354Y-78362512D01*
X84977238Y-78395264D01*
X84992315Y-78431662D01*
X85000000Y-78470300D01*
X85000000Y-78509700D01*
X84992315Y-78548338D01*
X84977238Y-78584736D01*
X84955354Y-78617488D01*
X84955352Y-78617490D01*
X84955350Y-78617493D01*
X84927493Y-78645350D01*
X84927490Y-78645352D01*
X84927488Y-78645354D01*
X84894736Y-78667238D01*
X84858338Y-78682315D01*
X84819700Y-78690000D01*
X84780300Y-78690000D01*
X84741662Y-78682315D01*
X84705264Y-78667238D01*
X84672512Y-78645354D01*
X84672510Y-78645352D01*
X84672507Y-78645350D01*
X84644650Y-78617493D01*
X84644648Y-78617490D01*
X84644646Y-78617488D01*
X84622762Y-78584736D01*
X84607685Y-78548338D01*
X84600000Y-78509700D01*
X84600000Y-78470300D01*
X84607685Y-78431662D01*
X84622762Y-78395264D01*
X84644646Y-78362512D01*
X84644648Y-78362510D01*
X84644650Y-78362507D01*
X84672507Y-78334650D01*
X84672510Y-78334648D01*
X84672512Y-78334646D01*
X84705264Y-78312762D01*
X84741662Y-78297685D01*
X84780300Y-78290000D01*
X84819700Y-78290000D01*
X84858338Y-78297685D01*
G37*
G36*
X85458338Y-78297685D02*
G01*
X85494736Y-78312762D01*
X85527488Y-78334646D01*
X85527490Y-78334648D01*
X85527493Y-78334650D01*
X85555350Y-78362507D01*
X85555352Y-78362510D01*
X85555354Y-78362512D01*
X85577238Y-78395264D01*
X85592315Y-78431662D01*
X85600000Y-78470300D01*
X85600000Y-78509700D01*
X85592315Y-78548338D01*
X85577238Y-78584736D01*
X85555354Y-78617488D01*
X85555352Y-78617490D01*
X85555350Y-78617493D01*
X85527493Y-78645350D01*
X85527490Y-78645352D01*
X85527488Y-78645354D01*
X85494736Y-78667238D01*
X85458338Y-78682315D01*
X85419700Y-78690000D01*
X85380300Y-78690000D01*
X85341662Y-78682315D01*
X85305264Y-78667238D01*
X85272512Y-78645354D01*
X85272510Y-78645352D01*
X85272507Y-78645350D01*
X85244650Y-78617493D01*
X85244648Y-78617490D01*
X85244646Y-78617488D01*
X85222762Y-78584736D01*
X85207685Y-78548338D01*
X85200000Y-78509700D01*
X85200000Y-78470300D01*
X85207685Y-78431662D01*
X85222762Y-78395264D01*
X85244646Y-78362512D01*
X85244648Y-78362510D01*
X85244650Y-78362507D01*
X85272507Y-78334650D01*
X85272510Y-78334648D01*
X85272512Y-78334646D01*
X85305264Y-78312762D01*
X85341662Y-78297685D01*
X85380300Y-78290000D01*
X85419700Y-78290000D01*
X85458338Y-78297685D01*
G37*
G36*
X86058338Y-78297685D02*
G01*
X86094736Y-78312762D01*
X86127488Y-78334646D01*
X86127490Y-78334648D01*
X86127493Y-78334650D01*
X86155350Y-78362507D01*
X86155352Y-78362510D01*
X86155354Y-78362512D01*
X86177238Y-78395264D01*
X86192315Y-78431662D01*
X86200000Y-78470300D01*
X86200000Y-78509700D01*
X86192315Y-78548338D01*
X86177238Y-78584736D01*
X86155354Y-78617488D01*
X86155352Y-78617490D01*
X86155350Y-78617493D01*
X86127493Y-78645350D01*
X86127490Y-78645352D01*
X86127488Y-78645354D01*
X86094736Y-78667238D01*
X86058338Y-78682315D01*
X86019700Y-78690000D01*
X85980300Y-78690000D01*
X85941662Y-78682315D01*
X85905264Y-78667238D01*
X85872512Y-78645354D01*
X85872510Y-78645352D01*
X85872507Y-78645350D01*
X85844650Y-78617493D01*
X85844648Y-78617490D01*
X85844646Y-78617488D01*
X85822762Y-78584736D01*
X85807685Y-78548338D01*
X85800000Y-78509700D01*
X85800000Y-78470300D01*
X85807685Y-78431662D01*
X85822762Y-78395264D01*
X85844646Y-78362512D01*
X85844648Y-78362510D01*
X85844650Y-78362507D01*
X85872507Y-78334650D01*
X85872510Y-78334648D01*
X85872512Y-78334646D01*
X85905264Y-78312762D01*
X85941662Y-78297685D01*
X85980300Y-78290000D01*
X86019700Y-78290000D01*
X86058338Y-78297685D01*
G37*
G36*
X86658338Y-78297685D02*
G01*
X86694736Y-78312762D01*
X86727488Y-78334646D01*
X86727490Y-78334648D01*
X86727493Y-78334650D01*
X86755350Y-78362507D01*
X86755352Y-78362510D01*
X86755354Y-78362512D01*
X86777238Y-78395264D01*
X86792315Y-78431662D01*
X86800000Y-78470300D01*
X86800000Y-78509700D01*
X86792315Y-78548338D01*
X86777238Y-78584736D01*
X86755354Y-78617488D01*
X86755352Y-78617490D01*
X86755350Y-78617493D01*
X86727493Y-78645350D01*
X86727490Y-78645352D01*
X86727488Y-78645354D01*
X86694736Y-78667238D01*
X86658338Y-78682315D01*
X86619700Y-78690000D01*
X86580300Y-78690000D01*
X86541662Y-78682315D01*
X86505264Y-78667238D01*
X86472512Y-78645354D01*
X86472510Y-78645352D01*
X86472507Y-78645350D01*
X86444650Y-78617493D01*
X86444648Y-78617490D01*
X86444646Y-78617488D01*
X86422762Y-78584736D01*
X86407685Y-78548338D01*
X86400000Y-78509700D01*
X86400000Y-78470300D01*
X86407685Y-78431662D01*
X86422762Y-78395264D01*
X86444646Y-78362512D01*
X86444648Y-78362510D01*
X86444650Y-78362507D01*
X86472507Y-78334650D01*
X86472510Y-78334648D01*
X86472512Y-78334646D01*
X86505264Y-78312762D01*
X86541662Y-78297685D01*
X86580300Y-78290000D01*
X86619700Y-78290000D01*
X86658338Y-78297685D01*
G37*
G36*
X87258338Y-78297685D02*
G01*
X87294736Y-78312762D01*
X87327488Y-78334646D01*
X87327490Y-78334648D01*
X87327493Y-78334650D01*
X87355350Y-78362507D01*
X87355352Y-78362510D01*
X87355354Y-78362512D01*
X87377238Y-78395264D01*
X87392315Y-78431662D01*
X87400000Y-78470300D01*
X87400000Y-78509700D01*
X87392315Y-78548338D01*
X87377238Y-78584736D01*
X87355354Y-78617488D01*
X87355352Y-78617490D01*
X87355350Y-78617493D01*
X87327493Y-78645350D01*
X87327490Y-78645352D01*
X87327488Y-78645354D01*
X87294736Y-78667238D01*
X87258338Y-78682315D01*
X87219700Y-78690000D01*
X87180300Y-78690000D01*
X87141662Y-78682315D01*
X87105264Y-78667238D01*
X87072512Y-78645354D01*
X87072510Y-78645352D01*
X87072507Y-78645350D01*
X87044650Y-78617493D01*
X87044648Y-78617490D01*
X87044646Y-78617488D01*
X87022762Y-78584736D01*
X87007685Y-78548338D01*
X87000000Y-78509700D01*
X87000000Y-78470300D01*
X87007685Y-78431662D01*
X87022762Y-78395264D01*
X87044646Y-78362512D01*
X87044648Y-78362510D01*
X87044650Y-78362507D01*
X87072507Y-78334650D01*
X87072510Y-78334648D01*
X87072512Y-78334646D01*
X87105264Y-78312762D01*
X87141662Y-78297685D01*
X87180300Y-78290000D01*
X87219700Y-78290000D01*
X87258338Y-78297685D01*
G37*
G36*
X87858338Y-78297685D02*
G01*
X87894736Y-78312762D01*
X87927488Y-78334646D01*
X87927490Y-78334648D01*
X87927493Y-78334650D01*
X87955350Y-78362507D01*
X87955352Y-78362510D01*
X87955354Y-78362512D01*
X87977238Y-78395264D01*
X87992315Y-78431662D01*
X88000000Y-78470300D01*
X88000000Y-78509700D01*
X87992315Y-78548338D01*
X87977238Y-78584736D01*
X87955354Y-78617488D01*
X87955352Y-78617490D01*
X87955350Y-78617493D01*
X87927493Y-78645350D01*
X87927490Y-78645352D01*
X87927488Y-78645354D01*
X87894736Y-78667238D01*
X87858338Y-78682315D01*
X87819700Y-78690000D01*
X87780300Y-78690000D01*
X87741662Y-78682315D01*
X87705264Y-78667238D01*
X87672512Y-78645354D01*
X87672510Y-78645352D01*
X87672507Y-78645350D01*
X87644650Y-78617493D01*
X87644648Y-78617490D01*
X87644646Y-78617488D01*
X87622762Y-78584736D01*
X87607685Y-78548338D01*
X87600000Y-78509700D01*
X87600000Y-78470300D01*
X87607685Y-78431662D01*
X87622762Y-78395264D01*
X87644646Y-78362512D01*
X87644648Y-78362510D01*
X87644650Y-78362507D01*
X87672507Y-78334650D01*
X87672510Y-78334648D01*
X87672512Y-78334646D01*
X87705264Y-78312762D01*
X87741662Y-78297685D01*
X87780300Y-78290000D01*
X87819700Y-78290000D01*
X87858338Y-78297685D01*
G37*
G36*
X88458338Y-78297685D02*
G01*
X88494736Y-78312762D01*
X88527488Y-78334646D01*
X88527490Y-78334648D01*
X88527493Y-78334650D01*
X88555350Y-78362507D01*
X88555352Y-78362510D01*
X88555354Y-78362512D01*
X88577238Y-78395264D01*
X88592315Y-78431662D01*
X88600000Y-78470300D01*
X88600000Y-78509700D01*
X88592315Y-78548338D01*
X88577238Y-78584736D01*
X88555354Y-78617488D01*
X88555352Y-78617490D01*
X88555350Y-78617493D01*
X88527493Y-78645350D01*
X88527490Y-78645352D01*
X88527488Y-78645354D01*
X88494736Y-78667238D01*
X88458338Y-78682315D01*
X88419700Y-78690000D01*
X88380300Y-78690000D01*
X88341662Y-78682315D01*
X88305264Y-78667238D01*
X88272512Y-78645354D01*
X88272510Y-78645352D01*
X88272507Y-78645350D01*
X88244650Y-78617493D01*
X88244648Y-78617490D01*
X88244646Y-78617488D01*
X88222762Y-78584736D01*
X88207685Y-78548338D01*
X88200000Y-78509700D01*
X88200000Y-78470300D01*
X88207685Y-78431662D01*
X88222762Y-78395264D01*
X88244646Y-78362512D01*
X88244648Y-78362510D01*
X88244650Y-78362507D01*
X88272507Y-78334650D01*
X88272510Y-78334648D01*
X88272512Y-78334646D01*
X88305264Y-78312762D01*
X88341662Y-78297685D01*
X88380300Y-78290000D01*
X88419700Y-78290000D01*
X88458338Y-78297685D01*
G37*
G36*
X89058338Y-78297685D02*
G01*
X89094736Y-78312762D01*
X89127488Y-78334646D01*
X89127490Y-78334648D01*
X89127493Y-78334650D01*
X89155350Y-78362507D01*
X89155352Y-78362510D01*
X89155354Y-78362512D01*
X89177238Y-78395264D01*
X89192315Y-78431662D01*
X89200000Y-78470300D01*
X89200000Y-78509700D01*
X89192315Y-78548338D01*
X89177238Y-78584736D01*
X89155354Y-78617488D01*
X89155352Y-78617490D01*
X89155350Y-78617493D01*
X89127493Y-78645350D01*
X89127490Y-78645352D01*
X89127488Y-78645354D01*
X89094736Y-78667238D01*
X89058338Y-78682315D01*
X89019700Y-78690000D01*
X88980300Y-78690000D01*
X88941662Y-78682315D01*
X88905264Y-78667238D01*
X88872512Y-78645354D01*
X88872510Y-78645352D01*
X88872507Y-78645350D01*
X88844650Y-78617493D01*
X88844648Y-78617490D01*
X88844646Y-78617488D01*
X88822762Y-78584736D01*
X88807685Y-78548338D01*
X88800000Y-78509700D01*
X88800000Y-78470300D01*
X88807685Y-78431662D01*
X88822762Y-78395264D01*
X88844646Y-78362512D01*
X88844648Y-78362510D01*
X88844650Y-78362507D01*
X88872507Y-78334650D01*
X88872510Y-78334648D01*
X88872512Y-78334646D01*
X88905264Y-78312762D01*
X88941662Y-78297685D01*
X88980300Y-78290000D01*
X89019700Y-78290000D01*
X89058338Y-78297685D01*
G37*
G36*
X89658338Y-78297685D02*
G01*
X89694736Y-78312762D01*
X89727488Y-78334646D01*
X89727490Y-78334648D01*
X89727493Y-78334650D01*
X89755350Y-78362507D01*
X89755352Y-78362510D01*
X89755354Y-78362512D01*
X89777238Y-78395264D01*
X89792315Y-78431662D01*
X89800000Y-78470300D01*
X89800000Y-78509700D01*
X89792315Y-78548338D01*
X89777238Y-78584736D01*
X89755354Y-78617488D01*
X89755352Y-78617490D01*
X89755350Y-78617493D01*
X89727493Y-78645350D01*
X89727490Y-78645352D01*
X89727488Y-78645354D01*
X89694736Y-78667238D01*
X89658338Y-78682315D01*
X89619700Y-78690000D01*
X89580300Y-78690000D01*
X89541662Y-78682315D01*
X89505264Y-78667238D01*
X89472512Y-78645354D01*
X89472510Y-78645352D01*
X89472507Y-78645350D01*
X89444650Y-78617493D01*
X89444648Y-78617490D01*
X89444646Y-78617488D01*
X89422762Y-78584736D01*
X89407685Y-78548338D01*
X89400000Y-78509700D01*
X89400000Y-78470300D01*
X89407685Y-78431662D01*
X89422762Y-78395264D01*
X89444646Y-78362512D01*
X89444648Y-78362510D01*
X89444650Y-78362507D01*
X89472507Y-78334650D01*
X89472510Y-78334648D01*
X89472512Y-78334646D01*
X89505264Y-78312762D01*
X89541662Y-78297685D01*
X89580300Y-78290000D01*
X89619700Y-78290000D01*
X89658338Y-78297685D01*
G37*
G36*
X90258338Y-78297685D02*
G01*
X90294736Y-78312762D01*
X90327488Y-78334646D01*
X90327490Y-78334648D01*
X90327493Y-78334650D01*
X90355350Y-78362507D01*
X90355352Y-78362510D01*
X90355354Y-78362512D01*
X90377238Y-78395264D01*
X90392315Y-78431662D01*
X90400000Y-78470300D01*
X90400000Y-78509700D01*
X90392315Y-78548338D01*
X90377238Y-78584736D01*
X90355354Y-78617488D01*
X90355352Y-78617490D01*
X90355350Y-78617493D01*
X90327493Y-78645350D01*
X90327490Y-78645352D01*
X90327488Y-78645354D01*
X90294736Y-78667238D01*
X90258338Y-78682315D01*
X90219700Y-78690000D01*
X90180300Y-78690000D01*
X90141662Y-78682315D01*
X90105264Y-78667238D01*
X90072512Y-78645354D01*
X90072510Y-78645352D01*
X90072507Y-78645350D01*
X90044650Y-78617493D01*
X90044648Y-78617490D01*
X90044646Y-78617488D01*
X90022762Y-78584736D01*
X90007685Y-78548338D01*
X90000000Y-78509700D01*
X90000000Y-78470300D01*
X90007685Y-78431662D01*
X90022762Y-78395264D01*
X90044646Y-78362512D01*
X90044648Y-78362510D01*
X90044650Y-78362507D01*
X90072507Y-78334650D01*
X90072510Y-78334648D01*
X90072512Y-78334646D01*
X90105264Y-78312762D01*
X90141662Y-78297685D01*
X90180300Y-78290000D01*
X90219700Y-78290000D01*
X90258338Y-78297685D01*
G37*
G36*
X90858338Y-78297685D02*
G01*
X90894736Y-78312762D01*
X90927488Y-78334646D01*
X90927490Y-78334648D01*
X90927493Y-78334650D01*
X90955350Y-78362507D01*
X90955352Y-78362510D01*
X90955354Y-78362512D01*
X90977238Y-78395264D01*
X90992315Y-78431662D01*
X91000000Y-78470300D01*
X91000000Y-78509700D01*
X90992315Y-78548338D01*
X90977238Y-78584736D01*
X90955354Y-78617488D01*
X90955352Y-78617490D01*
X90955350Y-78617493D01*
X90927493Y-78645350D01*
X90927490Y-78645352D01*
X90927488Y-78645354D01*
X90894736Y-78667238D01*
X90858338Y-78682315D01*
X90819700Y-78690000D01*
X90780300Y-78690000D01*
X90741662Y-78682315D01*
X90705264Y-78667238D01*
X90672512Y-78645354D01*
X90672510Y-78645352D01*
X90672507Y-78645350D01*
X90644650Y-78617493D01*
X90644648Y-78617490D01*
X90644646Y-78617488D01*
X90622762Y-78584736D01*
X90607685Y-78548338D01*
X90600000Y-78509700D01*
X90600000Y-78470300D01*
X90607685Y-78431662D01*
X90622762Y-78395264D01*
X90644646Y-78362512D01*
X90644648Y-78362510D01*
X90644650Y-78362507D01*
X90672507Y-78334650D01*
X90672510Y-78334648D01*
X90672512Y-78334646D01*
X90705264Y-78312762D01*
X90741662Y-78297685D01*
X90780300Y-78290000D01*
X90819700Y-78290000D01*
X90858338Y-78297685D01*
G37*
G36*
X91458338Y-78297685D02*
G01*
X91494736Y-78312762D01*
X91527488Y-78334646D01*
X91527490Y-78334648D01*
X91527493Y-78334650D01*
X91555350Y-78362507D01*
X91555352Y-78362510D01*
X91555354Y-78362512D01*
X91577238Y-78395264D01*
X91592315Y-78431662D01*
X91600000Y-78470300D01*
X91600000Y-78509700D01*
X91592315Y-78548338D01*
X91577238Y-78584736D01*
X91555354Y-78617488D01*
X91555352Y-78617490D01*
X91555350Y-78617493D01*
X91527493Y-78645350D01*
X91527490Y-78645352D01*
X91527488Y-78645354D01*
X91494736Y-78667238D01*
X91458338Y-78682315D01*
X91419700Y-78690000D01*
X91380300Y-78690000D01*
X91341662Y-78682315D01*
X91305264Y-78667238D01*
X91272512Y-78645354D01*
X91272510Y-78645352D01*
X91272507Y-78645350D01*
X91244650Y-78617493D01*
X91244648Y-78617490D01*
X91244646Y-78617488D01*
X91222762Y-78584736D01*
X91207685Y-78548338D01*
X91200000Y-78509700D01*
X91200000Y-78470300D01*
X91207685Y-78431662D01*
X91222762Y-78395264D01*
X91244646Y-78362512D01*
X91244648Y-78362510D01*
X91244650Y-78362507D01*
X91272507Y-78334650D01*
X91272510Y-78334648D01*
X91272512Y-78334646D01*
X91305264Y-78312762D01*
X91341662Y-78297685D01*
X91380300Y-78290000D01*
X91419700Y-78290000D01*
X91458338Y-78297685D01*
G37*
G36*
X92058338Y-78297685D02*
G01*
X92094736Y-78312762D01*
X92127488Y-78334646D01*
X92127490Y-78334648D01*
X92127493Y-78334650D01*
X92155350Y-78362507D01*
X92155352Y-78362510D01*
X92155354Y-78362512D01*
X92177238Y-78395264D01*
X92192315Y-78431662D01*
X92200000Y-78470300D01*
X92200000Y-78509700D01*
X92192315Y-78548338D01*
X92177238Y-78584736D01*
X92155354Y-78617488D01*
X92155352Y-78617490D01*
X92155350Y-78617493D01*
X92127493Y-78645350D01*
X92127490Y-78645352D01*
X92127488Y-78645354D01*
X92094736Y-78667238D01*
X92058338Y-78682315D01*
X92019700Y-78690000D01*
X91980300Y-78690000D01*
X91941662Y-78682315D01*
X91905264Y-78667238D01*
X91872512Y-78645354D01*
X91872510Y-78645352D01*
X91872507Y-78645350D01*
X91844650Y-78617493D01*
X91844648Y-78617490D01*
X91844646Y-78617488D01*
X91822762Y-78584736D01*
X91807685Y-78548338D01*
X91800000Y-78509700D01*
X91800000Y-78470300D01*
X91807685Y-78431662D01*
X91822762Y-78395264D01*
X91844646Y-78362512D01*
X91844648Y-78362510D01*
X91844650Y-78362507D01*
X91872507Y-78334650D01*
X91872510Y-78334648D01*
X91872512Y-78334646D01*
X91905264Y-78312762D01*
X91941662Y-78297685D01*
X91980300Y-78290000D01*
X92019700Y-78290000D01*
X92058338Y-78297685D01*
G37*
G36*
X92658338Y-78297685D02*
G01*
X92694736Y-78312762D01*
X92727488Y-78334646D01*
X92727490Y-78334648D01*
X92727493Y-78334650D01*
X92755350Y-78362507D01*
X92755352Y-78362510D01*
X92755354Y-78362512D01*
X92777238Y-78395264D01*
X92792315Y-78431662D01*
X92800000Y-78470300D01*
X92800000Y-78509700D01*
X92792315Y-78548338D01*
X92777238Y-78584736D01*
X92755354Y-78617488D01*
X92755352Y-78617490D01*
X92755350Y-78617493D01*
X92727493Y-78645350D01*
X92727490Y-78645352D01*
X92727488Y-78645354D01*
X92694736Y-78667238D01*
X92658338Y-78682315D01*
X92619700Y-78690000D01*
X92580300Y-78690000D01*
X92541662Y-78682315D01*
X92505264Y-78667238D01*
X92472512Y-78645354D01*
X92472510Y-78645352D01*
X92472507Y-78645350D01*
X92444650Y-78617493D01*
X92444648Y-78617490D01*
X92444646Y-78617488D01*
X92422762Y-78584736D01*
X92407685Y-78548338D01*
X92400000Y-78509700D01*
X92400000Y-78470300D01*
X92407685Y-78431662D01*
X92422762Y-78395264D01*
X92444646Y-78362512D01*
X92444648Y-78362510D01*
X92444650Y-78362507D01*
X92472507Y-78334650D01*
X92472510Y-78334648D01*
X92472512Y-78334646D01*
X92505264Y-78312762D01*
X92541662Y-78297685D01*
X92580300Y-78290000D01*
X92619700Y-78290000D01*
X92658338Y-78297685D01*
G37*
G36*
X93258338Y-78297685D02*
G01*
X93294736Y-78312762D01*
X93327488Y-78334646D01*
X93327490Y-78334648D01*
X93327493Y-78334650D01*
X93355350Y-78362507D01*
X93355352Y-78362510D01*
X93355354Y-78362512D01*
X93377238Y-78395264D01*
X93392315Y-78431662D01*
X93400000Y-78470300D01*
X93400000Y-78509700D01*
X93392315Y-78548338D01*
X93377238Y-78584736D01*
X93355354Y-78617488D01*
X93355352Y-78617490D01*
X93355350Y-78617493D01*
X93327493Y-78645350D01*
X93327490Y-78645352D01*
X93327488Y-78645354D01*
X93294736Y-78667238D01*
X93258338Y-78682315D01*
X93219700Y-78690000D01*
X93180300Y-78690000D01*
X93141662Y-78682315D01*
X93105264Y-78667238D01*
X93072512Y-78645354D01*
X93072510Y-78645352D01*
X93072507Y-78645350D01*
X93044650Y-78617493D01*
X93044648Y-78617490D01*
X93044646Y-78617488D01*
X93022762Y-78584736D01*
X93007685Y-78548338D01*
X93000000Y-78509700D01*
X93000000Y-78470300D01*
X93007685Y-78431662D01*
X93022762Y-78395264D01*
X93044646Y-78362512D01*
X93044648Y-78362510D01*
X93044650Y-78362507D01*
X93072507Y-78334650D01*
X93072510Y-78334648D01*
X93072512Y-78334646D01*
X93105264Y-78312762D01*
X93141662Y-78297685D01*
X93180300Y-78290000D01*
X93219700Y-78290000D01*
X93258338Y-78297685D01*
G37*
G36*
X93858338Y-78297685D02*
G01*
X93894736Y-78312762D01*
X93927488Y-78334646D01*
X93927490Y-78334648D01*
X93927493Y-78334650D01*
X93955350Y-78362507D01*
X93955352Y-78362510D01*
X93955354Y-78362512D01*
X93977238Y-78395264D01*
X93992315Y-78431662D01*
X94000000Y-78470300D01*
X94000000Y-78509700D01*
X93992315Y-78548338D01*
X93977238Y-78584736D01*
X93955354Y-78617488D01*
X93955352Y-78617490D01*
X93955350Y-78617493D01*
X93927493Y-78645350D01*
X93927490Y-78645352D01*
X93927488Y-78645354D01*
X93894736Y-78667238D01*
X93858338Y-78682315D01*
X93819700Y-78690000D01*
X93780300Y-78690000D01*
X93741662Y-78682315D01*
X93705264Y-78667238D01*
X93672512Y-78645354D01*
X93672510Y-78645352D01*
X93672507Y-78645350D01*
X93644650Y-78617493D01*
X93644648Y-78617490D01*
X93644646Y-78617488D01*
X93622762Y-78584736D01*
X93607685Y-78548338D01*
X93600000Y-78509700D01*
X93600000Y-78470300D01*
X93607685Y-78431662D01*
X93622762Y-78395264D01*
X93644646Y-78362512D01*
X93644648Y-78362510D01*
X93644650Y-78362507D01*
X93672507Y-78334650D01*
X93672510Y-78334648D01*
X93672512Y-78334646D01*
X93705264Y-78312762D01*
X93741662Y-78297685D01*
X93780300Y-78290000D01*
X93819700Y-78290000D01*
X93858338Y-78297685D01*
G37*
G36*
X94458338Y-78297685D02*
G01*
X94494736Y-78312762D01*
X94527488Y-78334646D01*
X94527490Y-78334648D01*
X94527493Y-78334650D01*
X94555350Y-78362507D01*
X94555352Y-78362510D01*
X94555354Y-78362512D01*
X94577238Y-78395264D01*
X94592315Y-78431662D01*
X94600000Y-78470300D01*
X94600000Y-78509700D01*
X94592315Y-78548338D01*
X94577238Y-78584736D01*
X94555354Y-78617488D01*
X94555352Y-78617490D01*
X94555350Y-78617493D01*
X94527493Y-78645350D01*
X94527490Y-78645352D01*
X94527488Y-78645354D01*
X94494736Y-78667238D01*
X94458338Y-78682315D01*
X94419700Y-78690000D01*
X94380300Y-78690000D01*
X94341662Y-78682315D01*
X94305264Y-78667238D01*
X94272512Y-78645354D01*
X94272510Y-78645352D01*
X94272507Y-78645350D01*
X94244650Y-78617493D01*
X94244648Y-78617490D01*
X94244646Y-78617488D01*
X94222762Y-78584736D01*
X94207685Y-78548338D01*
X94200000Y-78509700D01*
X94200000Y-78470300D01*
X94207685Y-78431662D01*
X94222762Y-78395264D01*
X94244646Y-78362512D01*
X94244648Y-78362510D01*
X94244650Y-78362507D01*
X94272507Y-78334650D01*
X94272510Y-78334648D01*
X94272512Y-78334646D01*
X94305264Y-78312762D01*
X94341662Y-78297685D01*
X94380300Y-78290000D01*
X94419700Y-78290000D01*
X94458338Y-78297685D01*
G37*
G36*
X95058338Y-78297685D02*
G01*
X95094736Y-78312762D01*
X95127488Y-78334646D01*
X95127490Y-78334648D01*
X95127493Y-78334650D01*
X95155350Y-78362507D01*
X95155352Y-78362510D01*
X95155354Y-78362512D01*
X95177238Y-78395264D01*
X95192315Y-78431662D01*
X95200000Y-78470300D01*
X95200000Y-78509700D01*
X95192315Y-78548338D01*
X95177238Y-78584736D01*
X95155354Y-78617488D01*
X95155352Y-78617490D01*
X95155350Y-78617493D01*
X95127493Y-78645350D01*
X95127490Y-78645352D01*
X95127488Y-78645354D01*
X95094736Y-78667238D01*
X95058338Y-78682315D01*
X95019700Y-78690000D01*
X94980300Y-78690000D01*
X94941662Y-78682315D01*
X94905264Y-78667238D01*
X94872512Y-78645354D01*
X94872510Y-78645352D01*
X94872507Y-78645350D01*
X94844650Y-78617493D01*
X94844648Y-78617490D01*
X94844646Y-78617488D01*
X94822762Y-78584736D01*
X94807685Y-78548338D01*
X94800000Y-78509700D01*
X94800000Y-78470300D01*
X94807685Y-78431662D01*
X94822762Y-78395264D01*
X94844646Y-78362512D01*
X94844648Y-78362510D01*
X94844650Y-78362507D01*
X94872507Y-78334650D01*
X94872510Y-78334648D01*
X94872512Y-78334646D01*
X94905264Y-78312762D01*
X94941662Y-78297685D01*
X94980300Y-78290000D01*
X95019700Y-78290000D01*
X95058338Y-78297685D01*
G37*
G36*
X95658338Y-78297685D02*
G01*
X95694736Y-78312762D01*
X95727488Y-78334646D01*
X95727490Y-78334648D01*
X95727493Y-78334650D01*
X95755350Y-78362507D01*
X95755352Y-78362510D01*
X95755354Y-78362512D01*
X95777238Y-78395264D01*
X95792315Y-78431662D01*
X95800000Y-78470300D01*
X95800000Y-78509700D01*
X95792315Y-78548338D01*
X95777238Y-78584736D01*
X95755354Y-78617488D01*
X95755352Y-78617490D01*
X95755350Y-78617493D01*
X95727493Y-78645350D01*
X95727490Y-78645352D01*
X95727488Y-78645354D01*
X95694736Y-78667238D01*
X95658338Y-78682315D01*
X95619700Y-78690000D01*
X95580300Y-78690000D01*
X95541662Y-78682315D01*
X95505264Y-78667238D01*
X95472512Y-78645354D01*
X95472510Y-78645352D01*
X95472507Y-78645350D01*
X95444650Y-78617493D01*
X95444648Y-78617490D01*
X95444646Y-78617488D01*
X95422762Y-78584736D01*
X95407685Y-78548338D01*
X95400000Y-78509700D01*
X95400000Y-78470300D01*
X95407685Y-78431662D01*
X95422762Y-78395264D01*
X95444646Y-78362512D01*
X95444648Y-78362510D01*
X95444650Y-78362507D01*
X95472507Y-78334650D01*
X95472510Y-78334648D01*
X95472512Y-78334646D01*
X95505264Y-78312762D01*
X95541662Y-78297685D01*
X95580300Y-78290000D01*
X95619700Y-78290000D01*
X95658338Y-78297685D01*
G37*
G36*
X96258338Y-78297685D02*
G01*
X96294736Y-78312762D01*
X96327488Y-78334646D01*
X96327490Y-78334648D01*
X96327493Y-78334650D01*
X96355350Y-78362507D01*
X96355352Y-78362510D01*
X96355354Y-78362512D01*
X96377238Y-78395264D01*
X96392315Y-78431662D01*
X96400000Y-78470300D01*
X96400000Y-78509700D01*
X96392315Y-78548338D01*
X96377238Y-78584736D01*
X96355354Y-78617488D01*
X96355352Y-78617490D01*
X96355350Y-78617493D01*
X96327493Y-78645350D01*
X96327490Y-78645352D01*
X96327488Y-78645354D01*
X96294736Y-78667238D01*
X96258338Y-78682315D01*
X96219700Y-78690000D01*
X96180300Y-78690000D01*
X96141662Y-78682315D01*
X96105264Y-78667238D01*
X96072512Y-78645354D01*
X96072510Y-78645352D01*
X96072507Y-78645350D01*
X96044650Y-78617493D01*
X96044648Y-78617490D01*
X96044646Y-78617488D01*
X96022762Y-78584736D01*
X96007685Y-78548338D01*
X96000000Y-78509700D01*
X96000000Y-78470300D01*
X96007685Y-78431662D01*
X96022762Y-78395264D01*
X96044646Y-78362512D01*
X96044648Y-78362510D01*
X96044650Y-78362507D01*
X96072507Y-78334650D01*
X96072510Y-78334648D01*
X96072512Y-78334646D01*
X96105264Y-78312762D01*
X96141662Y-78297685D01*
X96180300Y-78290000D01*
X96219700Y-78290000D01*
X96258338Y-78297685D01*
G37*
G36*
X96858338Y-78297685D02*
G01*
X96894736Y-78312762D01*
X96927488Y-78334646D01*
X96927490Y-78334648D01*
X96927493Y-78334650D01*
X96955350Y-78362507D01*
X96955352Y-78362510D01*
X96955354Y-78362512D01*
X96977238Y-78395264D01*
X96992315Y-78431662D01*
X97000000Y-78470300D01*
X97000000Y-78509700D01*
X96992315Y-78548338D01*
X96977238Y-78584736D01*
X96955354Y-78617488D01*
X96955352Y-78617490D01*
X96955350Y-78617493D01*
X96927493Y-78645350D01*
X96927490Y-78645352D01*
X96927488Y-78645354D01*
X96894736Y-78667238D01*
X96858338Y-78682315D01*
X96819700Y-78690000D01*
X96780300Y-78690000D01*
X96741662Y-78682315D01*
X96705264Y-78667238D01*
X96672512Y-78645354D01*
X96672510Y-78645352D01*
X96672507Y-78645350D01*
X96644650Y-78617493D01*
X96644648Y-78617490D01*
X96644646Y-78617488D01*
X96622762Y-78584736D01*
X96607685Y-78548338D01*
X96600000Y-78509700D01*
X96600000Y-78470300D01*
X96607685Y-78431662D01*
X96622762Y-78395264D01*
X96644646Y-78362512D01*
X96644648Y-78362510D01*
X96644650Y-78362507D01*
X96672507Y-78334650D01*
X96672510Y-78334648D01*
X96672512Y-78334646D01*
X96705264Y-78312762D01*
X96741662Y-78297685D01*
X96780300Y-78290000D01*
X96819700Y-78290000D01*
X96858338Y-78297685D01*
G37*
G36*
X97458338Y-78297685D02*
G01*
X97494736Y-78312762D01*
X97527488Y-78334646D01*
X97527490Y-78334648D01*
X97527493Y-78334650D01*
X97555350Y-78362507D01*
X97555352Y-78362510D01*
X97555354Y-78362512D01*
X97577238Y-78395264D01*
X97592315Y-78431662D01*
X97600000Y-78470300D01*
X97600000Y-78509700D01*
X97592315Y-78548338D01*
X97577238Y-78584736D01*
X97555354Y-78617488D01*
X97555352Y-78617490D01*
X97555350Y-78617493D01*
X97527493Y-78645350D01*
X97527490Y-78645352D01*
X97527488Y-78645354D01*
X97494736Y-78667238D01*
X97458338Y-78682315D01*
X97419700Y-78690000D01*
X97380300Y-78690000D01*
X97341662Y-78682315D01*
X97305264Y-78667238D01*
X97272512Y-78645354D01*
X97272510Y-78645352D01*
X97272507Y-78645350D01*
X97244650Y-78617493D01*
X97244648Y-78617490D01*
X97244646Y-78617488D01*
X97222762Y-78584736D01*
X97207685Y-78548338D01*
X97200000Y-78509700D01*
X97200000Y-78470300D01*
X97207685Y-78431662D01*
X97222762Y-78395264D01*
X97244646Y-78362512D01*
X97244648Y-78362510D01*
X97244650Y-78362507D01*
X97272507Y-78334650D01*
X97272510Y-78334648D01*
X97272512Y-78334646D01*
X97305264Y-78312762D01*
X97341662Y-78297685D01*
X97380300Y-78290000D01*
X97419700Y-78290000D01*
X97458338Y-78297685D01*
G37*
G36*
X98058338Y-78297685D02*
G01*
X98094736Y-78312762D01*
X98127488Y-78334646D01*
X98127490Y-78334648D01*
X98127493Y-78334650D01*
X98155350Y-78362507D01*
X98155352Y-78362510D01*
X98155354Y-78362512D01*
X98177238Y-78395264D01*
X98192315Y-78431662D01*
X98200000Y-78470300D01*
X98200000Y-78509700D01*
X98192315Y-78548338D01*
X98177238Y-78584736D01*
X98155354Y-78617488D01*
X98155352Y-78617490D01*
X98155350Y-78617493D01*
X98127493Y-78645350D01*
X98127490Y-78645352D01*
X98127488Y-78645354D01*
X98094736Y-78667238D01*
X98058338Y-78682315D01*
X98019700Y-78690000D01*
X97980300Y-78690000D01*
X97941662Y-78682315D01*
X97905264Y-78667238D01*
X97872512Y-78645354D01*
X97872510Y-78645352D01*
X97872507Y-78645350D01*
X97844650Y-78617493D01*
X97844648Y-78617490D01*
X97844646Y-78617488D01*
X97822762Y-78584736D01*
X97807685Y-78548338D01*
X97800000Y-78509700D01*
X97800000Y-78470300D01*
X97807685Y-78431662D01*
X97822762Y-78395264D01*
X97844646Y-78362512D01*
X97844648Y-78362510D01*
X97844650Y-78362507D01*
X97872507Y-78334650D01*
X97872510Y-78334648D01*
X97872512Y-78334646D01*
X97905264Y-78312762D01*
X97941662Y-78297685D01*
X97980300Y-78290000D01*
X98019700Y-78290000D01*
X98058338Y-78297685D01*
G37*
G36*
X98658338Y-78297685D02*
G01*
X98694736Y-78312762D01*
X98727488Y-78334646D01*
X98727490Y-78334648D01*
X98727493Y-78334650D01*
X98755350Y-78362507D01*
X98755352Y-78362510D01*
X98755354Y-78362512D01*
X98777238Y-78395264D01*
X98792315Y-78431662D01*
X98800000Y-78470300D01*
X98800000Y-78509700D01*
X98792315Y-78548338D01*
X98777238Y-78584736D01*
X98755354Y-78617488D01*
X98755352Y-78617490D01*
X98755350Y-78617493D01*
X98727493Y-78645350D01*
X98727490Y-78645352D01*
X98727488Y-78645354D01*
X98694736Y-78667238D01*
X98658338Y-78682315D01*
X98619700Y-78690000D01*
X98580300Y-78690000D01*
X98541662Y-78682315D01*
X98505264Y-78667238D01*
X98472512Y-78645354D01*
X98472510Y-78645352D01*
X98472507Y-78645350D01*
X98444650Y-78617493D01*
X98444648Y-78617490D01*
X98444646Y-78617488D01*
X98422762Y-78584736D01*
X98407685Y-78548338D01*
X98400000Y-78509700D01*
X98400000Y-78470300D01*
X98407685Y-78431662D01*
X98422762Y-78395264D01*
X98444646Y-78362512D01*
X98444648Y-78362510D01*
X98444650Y-78362507D01*
X98472507Y-78334650D01*
X98472510Y-78334648D01*
X98472512Y-78334646D01*
X98505264Y-78312762D01*
X98541662Y-78297685D01*
X98580300Y-78290000D01*
X98619700Y-78290000D01*
X98658338Y-78297685D01*
G37*
G36*
X99258338Y-78297685D02*
G01*
X99294736Y-78312762D01*
X99327488Y-78334646D01*
X99327490Y-78334648D01*
X99327493Y-78334650D01*
X99355350Y-78362507D01*
X99355352Y-78362510D01*
X99355354Y-78362512D01*
X99377238Y-78395264D01*
X99392315Y-78431662D01*
X99400000Y-78470300D01*
X99400000Y-78509700D01*
X99392315Y-78548338D01*
X99377238Y-78584736D01*
X99355354Y-78617488D01*
X99355352Y-78617490D01*
X99355350Y-78617493D01*
X99327493Y-78645350D01*
X99327490Y-78645352D01*
X99327488Y-78645354D01*
X99294736Y-78667238D01*
X99258338Y-78682315D01*
X99219700Y-78690000D01*
X99180300Y-78690000D01*
X99141662Y-78682315D01*
X99105264Y-78667238D01*
X99072512Y-78645354D01*
X99072510Y-78645352D01*
X99072507Y-78645350D01*
X99044650Y-78617493D01*
X99044648Y-78617490D01*
X99044646Y-78617488D01*
X99022762Y-78584736D01*
X99007685Y-78548338D01*
X99000000Y-78509700D01*
X99000000Y-78470300D01*
X99007685Y-78431662D01*
X99022762Y-78395264D01*
X99044646Y-78362512D01*
X99044648Y-78362510D01*
X99044650Y-78362507D01*
X99072507Y-78334650D01*
X99072510Y-78334648D01*
X99072512Y-78334646D01*
X99105264Y-78312762D01*
X99141662Y-78297685D01*
X99180300Y-78290000D01*
X99219700Y-78290000D01*
X99258338Y-78297685D01*
G37*
G36*
X99858338Y-78297685D02*
G01*
X99894736Y-78312762D01*
X99927488Y-78334646D01*
X99927490Y-78334648D01*
X99927493Y-78334650D01*
X99955350Y-78362507D01*
X99955352Y-78362510D01*
X99955354Y-78362512D01*
X99977238Y-78395264D01*
X99992315Y-78431662D01*
X100000000Y-78470300D01*
X100000000Y-78509700D01*
X99992315Y-78548338D01*
X99977238Y-78584736D01*
X99955354Y-78617488D01*
X99955352Y-78617490D01*
X99955350Y-78617493D01*
X99927493Y-78645350D01*
X99927490Y-78645352D01*
X99927488Y-78645354D01*
X99894736Y-78667238D01*
X99858338Y-78682315D01*
X99819700Y-78690000D01*
X99780300Y-78690000D01*
X99741662Y-78682315D01*
X99705264Y-78667238D01*
X99672512Y-78645354D01*
X99672510Y-78645352D01*
X99672507Y-78645350D01*
X99644650Y-78617493D01*
X99644648Y-78617490D01*
X99644646Y-78617488D01*
X99622762Y-78584736D01*
X99607685Y-78548338D01*
X99600000Y-78509700D01*
X99600000Y-78470300D01*
X99607685Y-78431662D01*
X99622762Y-78395264D01*
X99644646Y-78362512D01*
X99644648Y-78362510D01*
X99644650Y-78362507D01*
X99672507Y-78334650D01*
X99672510Y-78334648D01*
X99672512Y-78334646D01*
X99705264Y-78312762D01*
X99741662Y-78297685D01*
X99780300Y-78290000D01*
X99819700Y-78290000D01*
X99858338Y-78297685D01*
G37*
G36*
X84258338Y-78297685D02*
G01*
X84294736Y-78312762D01*
X84327488Y-78334646D01*
X84327490Y-78334648D01*
X84327493Y-78334650D01*
X84355350Y-78362507D01*
X84355352Y-78362510D01*
X84355354Y-78362512D01*
X84377238Y-78395264D01*
X84392315Y-78431662D01*
X84400000Y-78470300D01*
X84400000Y-78509700D01*
X84392315Y-78548338D01*
X84377238Y-78584736D01*
X84355354Y-78617488D01*
X84355352Y-78617490D01*
X84355350Y-78617493D01*
X84327493Y-78645350D01*
X84327490Y-78645352D01*
X84327488Y-78645354D01*
X84294736Y-78667238D01*
X84258338Y-78682315D01*
X84219700Y-78690000D01*
X84180300Y-78690000D01*
X84141662Y-78682315D01*
X84105264Y-78667238D01*
X84072512Y-78645354D01*
X84072510Y-78645352D01*
X84072507Y-78645350D01*
X84044650Y-78617493D01*
X84044648Y-78617490D01*
X84044646Y-78617488D01*
X84022762Y-78584736D01*
X84007685Y-78548338D01*
X84000000Y-78509700D01*
X84000000Y-78470300D01*
X84007685Y-78431662D01*
X84022762Y-78395264D01*
X84044646Y-78362512D01*
X84044648Y-78362510D01*
X84044650Y-78362507D01*
X84072507Y-78334650D01*
X84072510Y-78334648D01*
X84072512Y-78334646D01*
X84105264Y-78312762D01*
X84141662Y-78297685D01*
X84180300Y-78290000D01*
X84219700Y-78290000D01*
X84258338Y-78297685D01*
G37*
G36*
X92498664Y-76692805D02*
G01*
X92498664Y-76692806D01*
X92001055Y-77737786D01*
X92001052Y-77737792D01*
X92000000Y-77740000D01*
X91665671Y-77037909D01*
X91501055Y-76692216D01*
X91501054Y-76692214D01*
X91500000Y-76690000D01*
X92500000Y-76690000D01*
X92498664Y-76692805D01*
G37*
G36*
X87802144Y-72095680D02*
G01*
X88302612Y-72302981D01*
X88510805Y-72442091D01*
X88753023Y-72603936D01*
X89136064Y-72986977D01*
X89136065Y-72986979D01*
X89437019Y-73437388D01*
X89644320Y-73937856D01*
X89750000Y-74469147D01*
X89750000Y-75010853D01*
X89644320Y-75542144D01*
X89437019Y-76042612D01*
X89437018Y-76042613D01*
X89136064Y-76493023D01*
X88753023Y-76876064D01*
X88691925Y-76916888D01*
X88302612Y-77177019D01*
X87802144Y-77384320D01*
X87270853Y-77490000D01*
X86729147Y-77490000D01*
X86197856Y-77384320D01*
X85697388Y-77177019D01*
X85308075Y-76916888D01*
X85246977Y-76876064D01*
X84863936Y-76493023D01*
X84562982Y-76042613D01*
X84562981Y-76042612D01*
X84355680Y-75542144D01*
X84250000Y-75010853D01*
X84250000Y-74469147D01*
X84355680Y-73937856D01*
X84562981Y-73437388D01*
X84863935Y-72986979D01*
X84863936Y-72986977D01*
X85246977Y-72603936D01*
X85489195Y-72442091D01*
X85697388Y-72302981D01*
X86197856Y-72095680D01*
X86729147Y-71990000D01*
X87270853Y-71990000D01*
X87802144Y-72095680D01*
G37*
G36*
X97802144Y-72095680D02*
G01*
X98302612Y-72302981D01*
X98510805Y-72442091D01*
X98753023Y-72603936D01*
X99136064Y-72986977D01*
X99136065Y-72986979D01*
X99437019Y-73437388D01*
X99644320Y-73937856D01*
X99750000Y-74469147D01*
X99750000Y-75010853D01*
X99644320Y-75542144D01*
X99437019Y-76042612D01*
X99437018Y-76042613D01*
X99136064Y-76493023D01*
X98753023Y-76876064D01*
X98691925Y-76916888D01*
X98302612Y-77177019D01*
X97802144Y-77384320D01*
X97270853Y-77490000D01*
X96729147Y-77490000D01*
X96197856Y-77384320D01*
X95697388Y-77177019D01*
X95308075Y-76916888D01*
X95246977Y-76876064D01*
X94863936Y-76493023D01*
X94562982Y-76042613D01*
X94562981Y-76042612D01*
X94355680Y-75542144D01*
X94250000Y-75010853D01*
X94250000Y-74469147D01*
X94355680Y-73937856D01*
X94562981Y-73437388D01*
X94863935Y-72986979D01*
X94863936Y-72986977D01*
X95246977Y-72603936D01*
X95489195Y-72442091D01*
X95697388Y-72302981D01*
X96197856Y-72095680D01*
X96729147Y-71990000D01*
X97270853Y-71990000D01*
X97802144Y-72095680D01*
G37*
G36*
X84250000Y-72990000D02*
G01*
X84249999Y-71990000D01*
X85250000Y-71990000D01*
X84250000Y-72990000D01*
G37*
G36*
X99750000Y-72990000D02*
G01*
X98750000Y-71990000D01*
X99750000Y-71990000D01*
X99750000Y-72990000D01*
G37*
M02*
