G04 #@! TF.GenerationSoftware,KiCad,Pcbnew,(5.1.5-0-10_14)*
G04 #@! TF.CreationDate,2020-02-15T13:43:34+07:00*
G04 #@! TF.ProjectId,connector-breakout-a1,636f6e6e-6563-4746-9f72-2d627265616b,rev?*
G04 #@! TF.SameCoordinates,Original*
G04 #@! TF.FileFunction,Copper,L1,Top*
G04 #@! TF.FilePolarity,Positive*
%FSLAX46Y46*%
G04 Gerber Fmt 4.6, Leading zero omitted, Abs format (unit mm)*
G04 Created by KiCad (PCBNEW (5.1.5-0-10_14)) date 2020-02-15 13:43:34*
%MOMM*%
%LPD*%
G04 APERTURE LIST*
%ADD10C,0.010000*%
%ADD11C,0.100000*%
%ADD12C,5.500000*%
%ADD13C,0.700000*%
%ADD14C,1.600000*%
%ADD15C,0.200000*%
G04 APERTURE END LIST*
D10*
X100749999Y-110990000D02*
X83250001Y-110990000D01*
X83250001Y-110990000D02*
X83250000Y-70990000D01*
X100750001Y-70990000D02*
X100749999Y-110990000D01*
X83250000Y-70990000D02*
X100750000Y-70990000D01*
G04 #@! TA.AperFunction,SMDPad,CuDef*
D11*
G36*
X89080000Y-98385000D02*
G01*
X89080000Y-97995000D01*
X89580000Y-98185000D01*
X89580000Y-98195000D01*
X89080000Y-98385000D01*
G37*
G04 #@! TD.AperFunction*
G04 #@! TA.AperFunction,SMDPad,CuDef*
G36*
X96360704Y-98710477D02*
G01*
X96370314Y-98711902D01*
X96379738Y-98714263D01*
X96388886Y-98717536D01*
X96397668Y-98721690D01*
X96406001Y-98726685D01*
X96413805Y-98732472D01*
X96421004Y-98738996D01*
X96427528Y-98746195D01*
X96433315Y-98753999D01*
X96438310Y-98762332D01*
X96442464Y-98771114D01*
X96445737Y-98780262D01*
X96448098Y-98789686D01*
X96449523Y-98799296D01*
X96450000Y-98809000D01*
X96450000Y-101911000D01*
X96449523Y-101920704D01*
X96448098Y-101930314D01*
X96445737Y-101939738D01*
X96442464Y-101948886D01*
X96438310Y-101957668D01*
X96433315Y-101966001D01*
X96427528Y-101973805D01*
X96421004Y-101981004D01*
X96413805Y-101987528D01*
X96406001Y-101993315D01*
X96397668Y-101998310D01*
X96388886Y-102002464D01*
X96379738Y-102005737D01*
X96370314Y-102008098D01*
X96360704Y-102009523D01*
X96351000Y-102010000D01*
X94349000Y-102010000D01*
X94339296Y-102009523D01*
X94329686Y-102008098D01*
X94320262Y-102005737D01*
X94311114Y-102002464D01*
X94302332Y-101998310D01*
X94293999Y-101993315D01*
X94286195Y-101987528D01*
X94278996Y-101981004D01*
X94272472Y-101973805D01*
X94266685Y-101966001D01*
X94261690Y-101957668D01*
X94257536Y-101948886D01*
X94254263Y-101939738D01*
X94251902Y-101930314D01*
X94250477Y-101920704D01*
X94250000Y-101911000D01*
X94250000Y-98809000D01*
X94250477Y-98799296D01*
X94251902Y-98789686D01*
X94254263Y-98780262D01*
X94257536Y-98771114D01*
X94261690Y-98762332D01*
X94266685Y-98753999D01*
X94272472Y-98746195D01*
X94278996Y-98738996D01*
X94286195Y-98732472D01*
X94293999Y-98726685D01*
X94302332Y-98721690D01*
X94311114Y-98717536D01*
X94320262Y-98714263D01*
X94329686Y-98711902D01*
X94339296Y-98710477D01*
X94349000Y-98710000D01*
X96351000Y-98710000D01*
X96360704Y-98710477D01*
G37*
G04 #@! TD.AperFunction*
G04 #@! TA.AperFunction,SMDPad,CuDef*
G36*
X89660704Y-98710477D02*
G01*
X89670314Y-98711902D01*
X89679738Y-98714263D01*
X89688886Y-98717536D01*
X89697668Y-98721690D01*
X89706001Y-98726685D01*
X89713805Y-98732472D01*
X89721004Y-98738996D01*
X89727528Y-98746195D01*
X89733315Y-98753999D01*
X89738310Y-98762332D01*
X89742464Y-98771114D01*
X89745737Y-98780262D01*
X89748098Y-98789686D01*
X89749523Y-98799296D01*
X89750000Y-98809000D01*
X89750000Y-101911000D01*
X89749523Y-101920704D01*
X89748098Y-101930314D01*
X89745737Y-101939738D01*
X89742464Y-101948886D01*
X89738310Y-101957668D01*
X89733315Y-101966001D01*
X89727528Y-101973805D01*
X89721004Y-101981004D01*
X89713805Y-101987528D01*
X89706001Y-101993315D01*
X89697668Y-101998310D01*
X89688886Y-102002464D01*
X89679738Y-102005737D01*
X89670314Y-102008098D01*
X89660704Y-102009523D01*
X89651000Y-102010000D01*
X87649000Y-102010000D01*
X87639296Y-102009523D01*
X87629686Y-102008098D01*
X87620262Y-102005737D01*
X87611114Y-102002464D01*
X87602332Y-101998310D01*
X87593999Y-101993315D01*
X87586195Y-101987528D01*
X87578996Y-101981004D01*
X87572472Y-101973805D01*
X87566685Y-101966001D01*
X87561690Y-101957668D01*
X87557536Y-101948886D01*
X87554263Y-101939738D01*
X87551902Y-101930314D01*
X87550477Y-101920704D01*
X87550000Y-101911000D01*
X87550000Y-98809000D01*
X87550477Y-98799296D01*
X87551902Y-98789686D01*
X87554263Y-98780262D01*
X87557536Y-98771114D01*
X87561690Y-98762332D01*
X87566685Y-98753999D01*
X87572472Y-98746195D01*
X87578996Y-98738996D01*
X87586195Y-98732472D01*
X87593999Y-98726685D01*
X87602332Y-98721690D01*
X87611114Y-98717536D01*
X87620262Y-98714263D01*
X87629686Y-98711902D01*
X87639296Y-98710477D01*
X87649000Y-98710000D01*
X89651000Y-98710000D01*
X89660704Y-98710477D01*
G37*
G04 #@! TD.AperFunction*
G04 #@! TA.AperFunction,SMDPad,CuDef*
G36*
X93854811Y-97590241D02*
G01*
X93859674Y-97590963D01*
X93864443Y-97592157D01*
X93869072Y-97593814D01*
X93873517Y-97595916D01*
X93877734Y-97598443D01*
X93881683Y-97601372D01*
X93885326Y-97604674D01*
X93888628Y-97608317D01*
X93891557Y-97612266D01*
X93894084Y-97616483D01*
X93896186Y-97620928D01*
X93897843Y-97625557D01*
X93899037Y-97630326D01*
X93899759Y-97635189D01*
X93900000Y-97640100D01*
X93900000Y-98739900D01*
X93899759Y-98744811D01*
X93899037Y-98749674D01*
X93897843Y-98754443D01*
X93896186Y-98759072D01*
X93894084Y-98763517D01*
X93891557Y-98767734D01*
X93888628Y-98771683D01*
X93885326Y-98775326D01*
X93881683Y-98778628D01*
X93877734Y-98781557D01*
X93873517Y-98784084D01*
X93869072Y-98786186D01*
X93864443Y-98787843D01*
X93859674Y-98789037D01*
X93854811Y-98789759D01*
X93849900Y-98790000D01*
X93650100Y-98790000D01*
X93645189Y-98789759D01*
X93640326Y-98789037D01*
X93635557Y-98787843D01*
X93630928Y-98786186D01*
X93626483Y-98784084D01*
X93622266Y-98781557D01*
X93618317Y-98778628D01*
X93614674Y-98775326D01*
X93611372Y-98771683D01*
X93608443Y-98767734D01*
X93605916Y-98763517D01*
X93603814Y-98759072D01*
X93602157Y-98754443D01*
X93600963Y-98749674D01*
X93600241Y-98744811D01*
X93600000Y-98739900D01*
X93600000Y-97640100D01*
X93600241Y-97635189D01*
X93600963Y-97630326D01*
X93602157Y-97625557D01*
X93603814Y-97620928D01*
X93605916Y-97616483D01*
X93608443Y-97612266D01*
X93611372Y-97608317D01*
X93614674Y-97604674D01*
X93618317Y-97601372D01*
X93622266Y-97598443D01*
X93626483Y-97595916D01*
X93630928Y-97593814D01*
X93635557Y-97592157D01*
X93640326Y-97590963D01*
X93645189Y-97590241D01*
X93650100Y-97590000D01*
X93849900Y-97590000D01*
X93854811Y-97590241D01*
G37*
G04 #@! TD.AperFunction*
G04 #@! TA.AperFunction,SMDPad,CuDef*
G36*
X93354811Y-97590241D02*
G01*
X93359674Y-97590963D01*
X93364443Y-97592157D01*
X93369072Y-97593814D01*
X93373517Y-97595916D01*
X93377734Y-97598443D01*
X93381683Y-97601372D01*
X93385326Y-97604674D01*
X93388628Y-97608317D01*
X93391557Y-97612266D01*
X93394084Y-97616483D01*
X93396186Y-97620928D01*
X93397843Y-97625557D01*
X93399037Y-97630326D01*
X93399759Y-97635189D01*
X93400000Y-97640100D01*
X93400000Y-98739900D01*
X93399759Y-98744811D01*
X93399037Y-98749674D01*
X93397843Y-98754443D01*
X93396186Y-98759072D01*
X93394084Y-98763517D01*
X93391557Y-98767734D01*
X93388628Y-98771683D01*
X93385326Y-98775326D01*
X93381683Y-98778628D01*
X93377734Y-98781557D01*
X93373517Y-98784084D01*
X93369072Y-98786186D01*
X93364443Y-98787843D01*
X93359674Y-98789037D01*
X93354811Y-98789759D01*
X93349900Y-98790000D01*
X93150100Y-98790000D01*
X93145189Y-98789759D01*
X93140326Y-98789037D01*
X93135557Y-98787843D01*
X93130928Y-98786186D01*
X93126483Y-98784084D01*
X93122266Y-98781557D01*
X93118317Y-98778628D01*
X93114674Y-98775326D01*
X93111372Y-98771683D01*
X93108443Y-98767734D01*
X93105916Y-98763517D01*
X93103814Y-98759072D01*
X93102157Y-98754443D01*
X93100963Y-98749674D01*
X93100241Y-98744811D01*
X93100000Y-98739900D01*
X93100000Y-97640100D01*
X93100241Y-97635189D01*
X93100963Y-97630326D01*
X93102157Y-97625557D01*
X93103814Y-97620928D01*
X93105916Y-97616483D01*
X93108443Y-97612266D01*
X93111372Y-97608317D01*
X93114674Y-97604674D01*
X93118317Y-97601372D01*
X93122266Y-97598443D01*
X93126483Y-97595916D01*
X93130928Y-97593814D01*
X93135557Y-97592157D01*
X93140326Y-97590963D01*
X93145189Y-97590241D01*
X93150100Y-97590000D01*
X93349900Y-97590000D01*
X93354811Y-97590241D01*
G37*
G04 #@! TD.AperFunction*
G04 #@! TA.AperFunction,SMDPad,CuDef*
G36*
X92854811Y-97590241D02*
G01*
X92859674Y-97590963D01*
X92864443Y-97592157D01*
X92869072Y-97593814D01*
X92873517Y-97595916D01*
X92877734Y-97598443D01*
X92881683Y-97601372D01*
X92885326Y-97604674D01*
X92888628Y-97608317D01*
X92891557Y-97612266D01*
X92894084Y-97616483D01*
X92896186Y-97620928D01*
X92897843Y-97625557D01*
X92899037Y-97630326D01*
X92899759Y-97635189D01*
X92900000Y-97640100D01*
X92900000Y-98739900D01*
X92899759Y-98744811D01*
X92899037Y-98749674D01*
X92897843Y-98754443D01*
X92896186Y-98759072D01*
X92894084Y-98763517D01*
X92891557Y-98767734D01*
X92888628Y-98771683D01*
X92885326Y-98775326D01*
X92881683Y-98778628D01*
X92877734Y-98781557D01*
X92873517Y-98784084D01*
X92869072Y-98786186D01*
X92864443Y-98787843D01*
X92859674Y-98789037D01*
X92854811Y-98789759D01*
X92849900Y-98790000D01*
X92650100Y-98790000D01*
X92645189Y-98789759D01*
X92640326Y-98789037D01*
X92635557Y-98787843D01*
X92630928Y-98786186D01*
X92626483Y-98784084D01*
X92622266Y-98781557D01*
X92618317Y-98778628D01*
X92614674Y-98775326D01*
X92611372Y-98771683D01*
X92608443Y-98767734D01*
X92605916Y-98763517D01*
X92603814Y-98759072D01*
X92602157Y-98754443D01*
X92600963Y-98749674D01*
X92600241Y-98744811D01*
X92600000Y-98739900D01*
X92600000Y-97640100D01*
X92600241Y-97635189D01*
X92600963Y-97630326D01*
X92602157Y-97625557D01*
X92603814Y-97620928D01*
X92605916Y-97616483D01*
X92608443Y-97612266D01*
X92611372Y-97608317D01*
X92614674Y-97604674D01*
X92618317Y-97601372D01*
X92622266Y-97598443D01*
X92626483Y-97595916D01*
X92630928Y-97593814D01*
X92635557Y-97592157D01*
X92640326Y-97590963D01*
X92645189Y-97590241D01*
X92650100Y-97590000D01*
X92849900Y-97590000D01*
X92854811Y-97590241D01*
G37*
G04 #@! TD.AperFunction*
G04 #@! TA.AperFunction,SMDPad,CuDef*
G36*
X92354811Y-97590241D02*
G01*
X92359674Y-97590963D01*
X92364443Y-97592157D01*
X92369072Y-97593814D01*
X92373517Y-97595916D01*
X92377734Y-97598443D01*
X92381683Y-97601372D01*
X92385326Y-97604674D01*
X92388628Y-97608317D01*
X92391557Y-97612266D01*
X92394084Y-97616483D01*
X92396186Y-97620928D01*
X92397843Y-97625557D01*
X92399037Y-97630326D01*
X92399759Y-97635189D01*
X92400000Y-97640100D01*
X92400000Y-98739900D01*
X92399759Y-98744811D01*
X92399037Y-98749674D01*
X92397843Y-98754443D01*
X92396186Y-98759072D01*
X92394084Y-98763517D01*
X92391557Y-98767734D01*
X92388628Y-98771683D01*
X92385326Y-98775326D01*
X92381683Y-98778628D01*
X92377734Y-98781557D01*
X92373517Y-98784084D01*
X92369072Y-98786186D01*
X92364443Y-98787843D01*
X92359674Y-98789037D01*
X92354811Y-98789759D01*
X92349900Y-98790000D01*
X92150100Y-98790000D01*
X92145189Y-98789759D01*
X92140326Y-98789037D01*
X92135557Y-98787843D01*
X92130928Y-98786186D01*
X92126483Y-98784084D01*
X92122266Y-98781557D01*
X92118317Y-98778628D01*
X92114674Y-98775326D01*
X92111372Y-98771683D01*
X92108443Y-98767734D01*
X92105916Y-98763517D01*
X92103814Y-98759072D01*
X92102157Y-98754443D01*
X92100963Y-98749674D01*
X92100241Y-98744811D01*
X92100000Y-98739900D01*
X92100000Y-97640100D01*
X92100241Y-97635189D01*
X92100963Y-97630326D01*
X92102157Y-97625557D01*
X92103814Y-97620928D01*
X92105916Y-97616483D01*
X92108443Y-97612266D01*
X92111372Y-97608317D01*
X92114674Y-97604674D01*
X92118317Y-97601372D01*
X92122266Y-97598443D01*
X92126483Y-97595916D01*
X92130928Y-97593814D01*
X92135557Y-97592157D01*
X92140326Y-97590963D01*
X92145189Y-97590241D01*
X92150100Y-97590000D01*
X92349900Y-97590000D01*
X92354811Y-97590241D01*
G37*
G04 #@! TD.AperFunction*
G04 #@! TA.AperFunction,SMDPad,CuDef*
G36*
X91854811Y-97590241D02*
G01*
X91859674Y-97590963D01*
X91864443Y-97592157D01*
X91869072Y-97593814D01*
X91873517Y-97595916D01*
X91877734Y-97598443D01*
X91881683Y-97601372D01*
X91885326Y-97604674D01*
X91888628Y-97608317D01*
X91891557Y-97612266D01*
X91894084Y-97616483D01*
X91896186Y-97620928D01*
X91897843Y-97625557D01*
X91899037Y-97630326D01*
X91899759Y-97635189D01*
X91900000Y-97640100D01*
X91900000Y-98739900D01*
X91899759Y-98744811D01*
X91899037Y-98749674D01*
X91897843Y-98754443D01*
X91896186Y-98759072D01*
X91894084Y-98763517D01*
X91891557Y-98767734D01*
X91888628Y-98771683D01*
X91885326Y-98775326D01*
X91881683Y-98778628D01*
X91877734Y-98781557D01*
X91873517Y-98784084D01*
X91869072Y-98786186D01*
X91864443Y-98787843D01*
X91859674Y-98789037D01*
X91854811Y-98789759D01*
X91849900Y-98790000D01*
X91650100Y-98790000D01*
X91645189Y-98789759D01*
X91640326Y-98789037D01*
X91635557Y-98787843D01*
X91630928Y-98786186D01*
X91626483Y-98784084D01*
X91622266Y-98781557D01*
X91618317Y-98778628D01*
X91614674Y-98775326D01*
X91611372Y-98771683D01*
X91608443Y-98767734D01*
X91605916Y-98763517D01*
X91603814Y-98759072D01*
X91602157Y-98754443D01*
X91600963Y-98749674D01*
X91600241Y-98744811D01*
X91600000Y-98739900D01*
X91600000Y-97640100D01*
X91600241Y-97635189D01*
X91600963Y-97630326D01*
X91602157Y-97625557D01*
X91603814Y-97620928D01*
X91605916Y-97616483D01*
X91608443Y-97612266D01*
X91611372Y-97608317D01*
X91614674Y-97604674D01*
X91618317Y-97601372D01*
X91622266Y-97598443D01*
X91626483Y-97595916D01*
X91630928Y-97593814D01*
X91635557Y-97592157D01*
X91640326Y-97590963D01*
X91645189Y-97590241D01*
X91650100Y-97590000D01*
X91849900Y-97590000D01*
X91854811Y-97590241D01*
G37*
G04 #@! TD.AperFunction*
G04 #@! TA.AperFunction,SMDPad,CuDef*
G36*
X91354811Y-97590241D02*
G01*
X91359674Y-97590963D01*
X91364443Y-97592157D01*
X91369072Y-97593814D01*
X91373517Y-97595916D01*
X91377734Y-97598443D01*
X91381683Y-97601372D01*
X91385326Y-97604674D01*
X91388628Y-97608317D01*
X91391557Y-97612266D01*
X91394084Y-97616483D01*
X91396186Y-97620928D01*
X91397843Y-97625557D01*
X91399037Y-97630326D01*
X91399759Y-97635189D01*
X91400000Y-97640100D01*
X91400000Y-98739900D01*
X91399759Y-98744811D01*
X91399037Y-98749674D01*
X91397843Y-98754443D01*
X91396186Y-98759072D01*
X91394084Y-98763517D01*
X91391557Y-98767734D01*
X91388628Y-98771683D01*
X91385326Y-98775326D01*
X91381683Y-98778628D01*
X91377734Y-98781557D01*
X91373517Y-98784084D01*
X91369072Y-98786186D01*
X91364443Y-98787843D01*
X91359674Y-98789037D01*
X91354811Y-98789759D01*
X91349900Y-98790000D01*
X91150100Y-98790000D01*
X91145189Y-98789759D01*
X91140326Y-98789037D01*
X91135557Y-98787843D01*
X91130928Y-98786186D01*
X91126483Y-98784084D01*
X91122266Y-98781557D01*
X91118317Y-98778628D01*
X91114674Y-98775326D01*
X91111372Y-98771683D01*
X91108443Y-98767734D01*
X91105916Y-98763517D01*
X91103814Y-98759072D01*
X91102157Y-98754443D01*
X91100963Y-98749674D01*
X91100241Y-98744811D01*
X91100000Y-98739900D01*
X91100000Y-97640100D01*
X91100241Y-97635189D01*
X91100963Y-97630326D01*
X91102157Y-97625557D01*
X91103814Y-97620928D01*
X91105916Y-97616483D01*
X91108443Y-97612266D01*
X91111372Y-97608317D01*
X91114674Y-97604674D01*
X91118317Y-97601372D01*
X91122266Y-97598443D01*
X91126483Y-97595916D01*
X91130928Y-97593814D01*
X91135557Y-97592157D01*
X91140326Y-97590963D01*
X91145189Y-97590241D01*
X91150100Y-97590000D01*
X91349900Y-97590000D01*
X91354811Y-97590241D01*
G37*
G04 #@! TD.AperFunction*
G04 #@! TA.AperFunction,SMDPad,CuDef*
G36*
X90854811Y-97590241D02*
G01*
X90859674Y-97590963D01*
X90864443Y-97592157D01*
X90869072Y-97593814D01*
X90873517Y-97595916D01*
X90877734Y-97598443D01*
X90881683Y-97601372D01*
X90885326Y-97604674D01*
X90888628Y-97608317D01*
X90891557Y-97612266D01*
X90894084Y-97616483D01*
X90896186Y-97620928D01*
X90897843Y-97625557D01*
X90899037Y-97630326D01*
X90899759Y-97635189D01*
X90900000Y-97640100D01*
X90900000Y-98739900D01*
X90899759Y-98744811D01*
X90899037Y-98749674D01*
X90897843Y-98754443D01*
X90896186Y-98759072D01*
X90894084Y-98763517D01*
X90891557Y-98767734D01*
X90888628Y-98771683D01*
X90885326Y-98775326D01*
X90881683Y-98778628D01*
X90877734Y-98781557D01*
X90873517Y-98784084D01*
X90869072Y-98786186D01*
X90864443Y-98787843D01*
X90859674Y-98789037D01*
X90854811Y-98789759D01*
X90849900Y-98790000D01*
X90650100Y-98790000D01*
X90645189Y-98789759D01*
X90640326Y-98789037D01*
X90635557Y-98787843D01*
X90630928Y-98786186D01*
X90626483Y-98784084D01*
X90622266Y-98781557D01*
X90618317Y-98778628D01*
X90614674Y-98775326D01*
X90611372Y-98771683D01*
X90608443Y-98767734D01*
X90605916Y-98763517D01*
X90603814Y-98759072D01*
X90602157Y-98754443D01*
X90600963Y-98749674D01*
X90600241Y-98744811D01*
X90600000Y-98739900D01*
X90600000Y-97640100D01*
X90600241Y-97635189D01*
X90600963Y-97630326D01*
X90602157Y-97625557D01*
X90603814Y-97620928D01*
X90605916Y-97616483D01*
X90608443Y-97612266D01*
X90611372Y-97608317D01*
X90614674Y-97604674D01*
X90618317Y-97601372D01*
X90622266Y-97598443D01*
X90626483Y-97595916D01*
X90630928Y-97593814D01*
X90635557Y-97592157D01*
X90640326Y-97590963D01*
X90645189Y-97590241D01*
X90650100Y-97590000D01*
X90849900Y-97590000D01*
X90854811Y-97590241D01*
G37*
G04 #@! TD.AperFunction*
G04 #@! TA.AperFunction,SMDPad,CuDef*
G36*
X90354811Y-97590241D02*
G01*
X90359674Y-97590963D01*
X90364443Y-97592157D01*
X90369072Y-97593814D01*
X90373517Y-97595916D01*
X90377734Y-97598443D01*
X90381683Y-97601372D01*
X90385326Y-97604674D01*
X90388628Y-97608317D01*
X90391557Y-97612266D01*
X90394084Y-97616483D01*
X90396186Y-97620928D01*
X90397843Y-97625557D01*
X90399037Y-97630326D01*
X90399759Y-97635189D01*
X90400000Y-97640100D01*
X90400000Y-98739900D01*
X90399759Y-98744811D01*
X90399037Y-98749674D01*
X90397843Y-98754443D01*
X90396186Y-98759072D01*
X90394084Y-98763517D01*
X90391557Y-98767734D01*
X90388628Y-98771683D01*
X90385326Y-98775326D01*
X90381683Y-98778628D01*
X90377734Y-98781557D01*
X90373517Y-98784084D01*
X90369072Y-98786186D01*
X90364443Y-98787843D01*
X90359674Y-98789037D01*
X90354811Y-98789759D01*
X90349900Y-98790000D01*
X90150100Y-98790000D01*
X90145189Y-98789759D01*
X90140326Y-98789037D01*
X90135557Y-98787843D01*
X90130928Y-98786186D01*
X90126483Y-98784084D01*
X90122266Y-98781557D01*
X90118317Y-98778628D01*
X90114674Y-98775326D01*
X90111372Y-98771683D01*
X90108443Y-98767734D01*
X90105916Y-98763517D01*
X90103814Y-98759072D01*
X90102157Y-98754443D01*
X90100963Y-98749674D01*
X90100241Y-98744811D01*
X90100000Y-98739900D01*
X90100000Y-97640100D01*
X90100241Y-97635189D01*
X90100963Y-97630326D01*
X90102157Y-97625557D01*
X90103814Y-97620928D01*
X90105916Y-97616483D01*
X90108443Y-97612266D01*
X90111372Y-97608317D01*
X90114674Y-97604674D01*
X90118317Y-97601372D01*
X90122266Y-97598443D01*
X90126483Y-97595916D01*
X90130928Y-97593814D01*
X90135557Y-97592157D01*
X90140326Y-97590963D01*
X90145189Y-97590241D01*
X90150100Y-97590000D01*
X90349900Y-97590000D01*
X90354811Y-97590241D01*
G37*
G04 #@! TD.AperFunction*
G04 #@! TA.AperFunction,ComponentPad*
G36*
X86269603Y-99080963D02*
G01*
X86289018Y-99083843D01*
X86308057Y-99088612D01*
X86326537Y-99095224D01*
X86344279Y-99103616D01*
X86361114Y-99113706D01*
X86376879Y-99125398D01*
X86391421Y-99138579D01*
X86404602Y-99153121D01*
X86416294Y-99168886D01*
X86426384Y-99185721D01*
X86434776Y-99203463D01*
X86441388Y-99221943D01*
X86446157Y-99240982D01*
X86449037Y-99260397D01*
X86450000Y-99280000D01*
X86450000Y-100480000D01*
X86449037Y-100499603D01*
X86446157Y-100519018D01*
X86441388Y-100538057D01*
X86434776Y-100556537D01*
X86426384Y-100574279D01*
X86416294Y-100591114D01*
X86404602Y-100606879D01*
X86391421Y-100621421D01*
X86376879Y-100634602D01*
X86361114Y-100646294D01*
X86344279Y-100656384D01*
X86326537Y-100664776D01*
X86308057Y-100671388D01*
X86289018Y-100676157D01*
X86269603Y-100679037D01*
X86250000Y-100680000D01*
X85050000Y-100680000D01*
X85030397Y-100679037D01*
X85010982Y-100676157D01*
X84991943Y-100671388D01*
X84973463Y-100664776D01*
X84955721Y-100656384D01*
X84938886Y-100646294D01*
X84923121Y-100634602D01*
X84908579Y-100621421D01*
X84895398Y-100606879D01*
X84883706Y-100591114D01*
X84873616Y-100574279D01*
X84865224Y-100556537D01*
X84858612Y-100538057D01*
X84853843Y-100519018D01*
X84850963Y-100499603D01*
X84850000Y-100480000D01*
X84850000Y-99280000D01*
X84850963Y-99260397D01*
X84853843Y-99240982D01*
X84858612Y-99221943D01*
X84865224Y-99203463D01*
X84873616Y-99185721D01*
X84883706Y-99168886D01*
X84895398Y-99153121D01*
X84908579Y-99138579D01*
X84923121Y-99125398D01*
X84938886Y-99113706D01*
X84955721Y-99103616D01*
X84973463Y-99095224D01*
X84991943Y-99088612D01*
X85010982Y-99083843D01*
X85030397Y-99080963D01*
X85050000Y-99080000D01*
X86250000Y-99080000D01*
X86269603Y-99080963D01*
G37*
G04 #@! TD.AperFunction*
G04 #@! TA.AperFunction,ComponentPad*
G36*
X86269603Y-96540963D02*
G01*
X86289018Y-96543843D01*
X86308057Y-96548612D01*
X86326537Y-96555224D01*
X86344279Y-96563616D01*
X86361114Y-96573706D01*
X86376879Y-96585398D01*
X86391421Y-96598579D01*
X86404602Y-96613121D01*
X86416294Y-96628886D01*
X86426384Y-96645721D01*
X86434776Y-96663463D01*
X86441388Y-96681943D01*
X86446157Y-96700982D01*
X86449037Y-96720397D01*
X86450000Y-96740000D01*
X86450000Y-97940000D01*
X86449037Y-97959603D01*
X86446157Y-97979018D01*
X86441388Y-97998057D01*
X86434776Y-98016537D01*
X86426384Y-98034279D01*
X86416294Y-98051114D01*
X86404602Y-98066879D01*
X86391421Y-98081421D01*
X86376879Y-98094602D01*
X86361114Y-98106294D01*
X86344279Y-98116384D01*
X86326537Y-98124776D01*
X86308057Y-98131388D01*
X86289018Y-98136157D01*
X86269603Y-98139037D01*
X86250000Y-98140000D01*
X85050000Y-98140000D01*
X85030397Y-98139037D01*
X85010982Y-98136157D01*
X84991943Y-98131388D01*
X84973463Y-98124776D01*
X84955721Y-98116384D01*
X84938886Y-98106294D01*
X84923121Y-98094602D01*
X84908579Y-98081421D01*
X84895398Y-98066879D01*
X84883706Y-98051114D01*
X84873616Y-98034279D01*
X84865224Y-98016537D01*
X84858612Y-97998057D01*
X84853843Y-97979018D01*
X84850963Y-97959603D01*
X84850000Y-97940000D01*
X84850000Y-96740000D01*
X84850963Y-96720397D01*
X84853843Y-96700982D01*
X84858612Y-96681943D01*
X84865224Y-96663463D01*
X84873616Y-96645721D01*
X84883706Y-96628886D01*
X84895398Y-96613121D01*
X84908579Y-96598579D01*
X84923121Y-96585398D01*
X84938886Y-96573706D01*
X84955721Y-96563616D01*
X84973463Y-96555224D01*
X84991943Y-96548612D01*
X85010982Y-96543843D01*
X85030397Y-96540963D01*
X85050000Y-96540000D01*
X86250000Y-96540000D01*
X86269603Y-96540963D01*
G37*
G04 #@! TD.AperFunction*
G04 #@! TA.AperFunction,ComponentPad*
G36*
X86269603Y-94000963D02*
G01*
X86289018Y-94003843D01*
X86308057Y-94008612D01*
X86326537Y-94015224D01*
X86344279Y-94023616D01*
X86361114Y-94033706D01*
X86376879Y-94045398D01*
X86391421Y-94058579D01*
X86404602Y-94073121D01*
X86416294Y-94088886D01*
X86426384Y-94105721D01*
X86434776Y-94123463D01*
X86441388Y-94141943D01*
X86446157Y-94160982D01*
X86449037Y-94180397D01*
X86450000Y-94200000D01*
X86450000Y-95400000D01*
X86449037Y-95419603D01*
X86446157Y-95439018D01*
X86441388Y-95458057D01*
X86434776Y-95476537D01*
X86426384Y-95494279D01*
X86416294Y-95511114D01*
X86404602Y-95526879D01*
X86391421Y-95541421D01*
X86376879Y-95554602D01*
X86361114Y-95566294D01*
X86344279Y-95576384D01*
X86326537Y-95584776D01*
X86308057Y-95591388D01*
X86289018Y-95596157D01*
X86269603Y-95599037D01*
X86250000Y-95600000D01*
X85050000Y-95600000D01*
X85030397Y-95599037D01*
X85010982Y-95596157D01*
X84991943Y-95591388D01*
X84973463Y-95584776D01*
X84955721Y-95576384D01*
X84938886Y-95566294D01*
X84923121Y-95554602D01*
X84908579Y-95541421D01*
X84895398Y-95526879D01*
X84883706Y-95511114D01*
X84873616Y-95494279D01*
X84865224Y-95476537D01*
X84858612Y-95458057D01*
X84853843Y-95439018D01*
X84850963Y-95419603D01*
X84850000Y-95400000D01*
X84850000Y-94200000D01*
X84850963Y-94180397D01*
X84853843Y-94160982D01*
X84858612Y-94141943D01*
X84865224Y-94123463D01*
X84873616Y-94105721D01*
X84883706Y-94088886D01*
X84895398Y-94073121D01*
X84908579Y-94058579D01*
X84923121Y-94045398D01*
X84938886Y-94033706D01*
X84955721Y-94023616D01*
X84973463Y-94015224D01*
X84991943Y-94008612D01*
X85010982Y-94003843D01*
X85030397Y-94000963D01*
X85050000Y-94000000D01*
X86250000Y-94000000D01*
X86269603Y-94000963D01*
G37*
G04 #@! TD.AperFunction*
G04 #@! TA.AperFunction,ComponentPad*
G36*
X86269603Y-91460963D02*
G01*
X86289018Y-91463843D01*
X86308057Y-91468612D01*
X86326537Y-91475224D01*
X86344279Y-91483616D01*
X86361114Y-91493706D01*
X86376879Y-91505398D01*
X86391421Y-91518579D01*
X86404602Y-91533121D01*
X86416294Y-91548886D01*
X86426384Y-91565721D01*
X86434776Y-91583463D01*
X86441388Y-91601943D01*
X86446157Y-91620982D01*
X86449037Y-91640397D01*
X86450000Y-91660000D01*
X86450000Y-92860000D01*
X86449037Y-92879603D01*
X86446157Y-92899018D01*
X86441388Y-92918057D01*
X86434776Y-92936537D01*
X86426384Y-92954279D01*
X86416294Y-92971114D01*
X86404602Y-92986879D01*
X86391421Y-93001421D01*
X86376879Y-93014602D01*
X86361114Y-93026294D01*
X86344279Y-93036384D01*
X86326537Y-93044776D01*
X86308057Y-93051388D01*
X86289018Y-93056157D01*
X86269603Y-93059037D01*
X86250000Y-93060000D01*
X85050000Y-93060000D01*
X85030397Y-93059037D01*
X85010982Y-93056157D01*
X84991943Y-93051388D01*
X84973463Y-93044776D01*
X84955721Y-93036384D01*
X84938886Y-93026294D01*
X84923121Y-93014602D01*
X84908579Y-93001421D01*
X84895398Y-92986879D01*
X84883706Y-92971114D01*
X84873616Y-92954279D01*
X84865224Y-92936537D01*
X84858612Y-92918057D01*
X84853843Y-92899018D01*
X84850963Y-92879603D01*
X84850000Y-92860000D01*
X84850000Y-91660000D01*
X84850963Y-91640397D01*
X84853843Y-91620982D01*
X84858612Y-91601943D01*
X84865224Y-91583463D01*
X84873616Y-91565721D01*
X84883706Y-91548886D01*
X84895398Y-91533121D01*
X84908579Y-91518579D01*
X84923121Y-91505398D01*
X84938886Y-91493706D01*
X84955721Y-91483616D01*
X84973463Y-91475224D01*
X84991943Y-91468612D01*
X85010982Y-91463843D01*
X85030397Y-91460963D01*
X85050000Y-91460000D01*
X86250000Y-91460000D01*
X86269603Y-91460963D01*
G37*
G04 #@! TD.AperFunction*
G04 #@! TA.AperFunction,ComponentPad*
G36*
X86269603Y-88920963D02*
G01*
X86289018Y-88923843D01*
X86308057Y-88928612D01*
X86326537Y-88935224D01*
X86344279Y-88943616D01*
X86361114Y-88953706D01*
X86376879Y-88965398D01*
X86391421Y-88978579D01*
X86404602Y-88993121D01*
X86416294Y-89008886D01*
X86426384Y-89025721D01*
X86434776Y-89043463D01*
X86441388Y-89061943D01*
X86446157Y-89080982D01*
X86449037Y-89100397D01*
X86450000Y-89120000D01*
X86450000Y-90320000D01*
X86449037Y-90339603D01*
X86446157Y-90359018D01*
X86441388Y-90378057D01*
X86434776Y-90396537D01*
X86426384Y-90414279D01*
X86416294Y-90431114D01*
X86404602Y-90446879D01*
X86391421Y-90461421D01*
X86376879Y-90474602D01*
X86361114Y-90486294D01*
X86344279Y-90496384D01*
X86326537Y-90504776D01*
X86308057Y-90511388D01*
X86289018Y-90516157D01*
X86269603Y-90519037D01*
X86250000Y-90520000D01*
X85050000Y-90520000D01*
X85030397Y-90519037D01*
X85010982Y-90516157D01*
X84991943Y-90511388D01*
X84973463Y-90504776D01*
X84955721Y-90496384D01*
X84938886Y-90486294D01*
X84923121Y-90474602D01*
X84908579Y-90461421D01*
X84895398Y-90446879D01*
X84883706Y-90431114D01*
X84873616Y-90414279D01*
X84865224Y-90396537D01*
X84858612Y-90378057D01*
X84853843Y-90359018D01*
X84850963Y-90339603D01*
X84850000Y-90320000D01*
X84850000Y-89120000D01*
X84850963Y-89100397D01*
X84853843Y-89080982D01*
X84858612Y-89061943D01*
X84865224Y-89043463D01*
X84873616Y-89025721D01*
X84883706Y-89008886D01*
X84895398Y-88993121D01*
X84908579Y-88978579D01*
X84923121Y-88965398D01*
X84938886Y-88953706D01*
X84955721Y-88943616D01*
X84973463Y-88935224D01*
X84991943Y-88928612D01*
X85010982Y-88923843D01*
X85030397Y-88920963D01*
X85050000Y-88920000D01*
X86250000Y-88920000D01*
X86269603Y-88920963D01*
G37*
G04 #@! TD.AperFunction*
G04 #@! TA.AperFunction,ComponentPad*
G36*
X86269603Y-86380963D02*
G01*
X86289018Y-86383843D01*
X86308057Y-86388612D01*
X86326537Y-86395224D01*
X86344279Y-86403616D01*
X86361114Y-86413706D01*
X86376879Y-86425398D01*
X86391421Y-86438579D01*
X86404602Y-86453121D01*
X86416294Y-86468886D01*
X86426384Y-86485721D01*
X86434776Y-86503463D01*
X86441388Y-86521943D01*
X86446157Y-86540982D01*
X86449037Y-86560397D01*
X86450000Y-86580000D01*
X86450000Y-87780000D01*
X86449037Y-87799603D01*
X86446157Y-87819018D01*
X86441388Y-87838057D01*
X86434776Y-87856537D01*
X86426384Y-87874279D01*
X86416294Y-87891114D01*
X86404602Y-87906879D01*
X86391421Y-87921421D01*
X86376879Y-87934602D01*
X86361114Y-87946294D01*
X86344279Y-87956384D01*
X86326537Y-87964776D01*
X86308057Y-87971388D01*
X86289018Y-87976157D01*
X86269603Y-87979037D01*
X86250000Y-87980000D01*
X85050000Y-87980000D01*
X85030397Y-87979037D01*
X85010982Y-87976157D01*
X84991943Y-87971388D01*
X84973463Y-87964776D01*
X84955721Y-87956384D01*
X84938886Y-87946294D01*
X84923121Y-87934602D01*
X84908579Y-87921421D01*
X84895398Y-87906879D01*
X84883706Y-87891114D01*
X84873616Y-87874279D01*
X84865224Y-87856537D01*
X84858612Y-87838057D01*
X84853843Y-87819018D01*
X84850963Y-87799603D01*
X84850000Y-87780000D01*
X84850000Y-86580000D01*
X84850963Y-86560397D01*
X84853843Y-86540982D01*
X84858612Y-86521943D01*
X84865224Y-86503463D01*
X84873616Y-86485721D01*
X84883706Y-86468886D01*
X84895398Y-86453121D01*
X84908579Y-86438579D01*
X84923121Y-86425398D01*
X84938886Y-86413706D01*
X84955721Y-86403616D01*
X84973463Y-86395224D01*
X84991943Y-86388612D01*
X85010982Y-86383843D01*
X85030397Y-86380963D01*
X85050000Y-86380000D01*
X86250000Y-86380000D01*
X86269603Y-86380963D01*
G37*
G04 #@! TD.AperFunction*
G04 #@! TA.AperFunction,ComponentPad*
G36*
X86269603Y-83840963D02*
G01*
X86289018Y-83843843D01*
X86308057Y-83848612D01*
X86326537Y-83855224D01*
X86344279Y-83863616D01*
X86361114Y-83873706D01*
X86376879Y-83885398D01*
X86391421Y-83898579D01*
X86404602Y-83913121D01*
X86416294Y-83928886D01*
X86426384Y-83945721D01*
X86434776Y-83963463D01*
X86441388Y-83981943D01*
X86446157Y-84000982D01*
X86449037Y-84020397D01*
X86450000Y-84040000D01*
X86450000Y-85240000D01*
X86449037Y-85259603D01*
X86446157Y-85279018D01*
X86441388Y-85298057D01*
X86434776Y-85316537D01*
X86426384Y-85334279D01*
X86416294Y-85351114D01*
X86404602Y-85366879D01*
X86391421Y-85381421D01*
X86376879Y-85394602D01*
X86361114Y-85406294D01*
X86344279Y-85416384D01*
X86326537Y-85424776D01*
X86308057Y-85431388D01*
X86289018Y-85436157D01*
X86269603Y-85439037D01*
X86250000Y-85440000D01*
X85050000Y-85440000D01*
X85030397Y-85439037D01*
X85010982Y-85436157D01*
X84991943Y-85431388D01*
X84973463Y-85424776D01*
X84955721Y-85416384D01*
X84938886Y-85406294D01*
X84923121Y-85394602D01*
X84908579Y-85381421D01*
X84895398Y-85366879D01*
X84883706Y-85351114D01*
X84873616Y-85334279D01*
X84865224Y-85316537D01*
X84858612Y-85298057D01*
X84853843Y-85279018D01*
X84850963Y-85259603D01*
X84850000Y-85240000D01*
X84850000Y-84040000D01*
X84850963Y-84020397D01*
X84853843Y-84000982D01*
X84858612Y-83981943D01*
X84865224Y-83963463D01*
X84873616Y-83945721D01*
X84883706Y-83928886D01*
X84895398Y-83913121D01*
X84908579Y-83898579D01*
X84923121Y-83885398D01*
X84938886Y-83873706D01*
X84955721Y-83863616D01*
X84973463Y-83855224D01*
X84991943Y-83848612D01*
X85010982Y-83843843D01*
X85030397Y-83840963D01*
X85050000Y-83840000D01*
X86250000Y-83840000D01*
X86269603Y-83840963D01*
G37*
G04 #@! TD.AperFunction*
G04 #@! TA.AperFunction,ComponentPad*
G36*
X86269603Y-81300963D02*
G01*
X86289018Y-81303843D01*
X86308057Y-81308612D01*
X86326537Y-81315224D01*
X86344279Y-81323616D01*
X86361114Y-81333706D01*
X86376879Y-81345398D01*
X86391421Y-81358579D01*
X86404602Y-81373121D01*
X86416294Y-81388886D01*
X86426384Y-81405721D01*
X86434776Y-81423463D01*
X86441388Y-81441943D01*
X86446157Y-81460982D01*
X86449037Y-81480397D01*
X86450000Y-81500000D01*
X86450000Y-82700000D01*
X86449037Y-82719603D01*
X86446157Y-82739018D01*
X86441388Y-82758057D01*
X86434776Y-82776537D01*
X86426384Y-82794279D01*
X86416294Y-82811114D01*
X86404602Y-82826879D01*
X86391421Y-82841421D01*
X86376879Y-82854602D01*
X86361114Y-82866294D01*
X86344279Y-82876384D01*
X86326537Y-82884776D01*
X86308057Y-82891388D01*
X86289018Y-82896157D01*
X86269603Y-82899037D01*
X86250000Y-82900000D01*
X85050000Y-82900000D01*
X85030397Y-82899037D01*
X85010982Y-82896157D01*
X84991943Y-82891388D01*
X84973463Y-82884776D01*
X84955721Y-82876384D01*
X84938886Y-82866294D01*
X84923121Y-82854602D01*
X84908579Y-82841421D01*
X84895398Y-82826879D01*
X84883706Y-82811114D01*
X84873616Y-82794279D01*
X84865224Y-82776537D01*
X84858612Y-82758057D01*
X84853843Y-82739018D01*
X84850963Y-82719603D01*
X84850000Y-82700000D01*
X84850000Y-81500000D01*
X84850963Y-81480397D01*
X84853843Y-81460982D01*
X84858612Y-81441943D01*
X84865224Y-81423463D01*
X84873616Y-81405721D01*
X84883706Y-81388886D01*
X84895398Y-81373121D01*
X84908579Y-81358579D01*
X84923121Y-81345398D01*
X84938886Y-81333706D01*
X84955721Y-81323616D01*
X84973463Y-81315224D01*
X84991943Y-81308612D01*
X85010982Y-81303843D01*
X85030397Y-81300963D01*
X85050000Y-81300000D01*
X86250000Y-81300000D01*
X86269603Y-81300963D01*
G37*
G04 #@! TD.AperFunction*
G04 #@! TA.AperFunction,ComponentPad*
G36*
X98969603Y-99080963D02*
G01*
X98989018Y-99083843D01*
X99008057Y-99088612D01*
X99026537Y-99095224D01*
X99044279Y-99103616D01*
X99061114Y-99113706D01*
X99076879Y-99125398D01*
X99091421Y-99138579D01*
X99104602Y-99153121D01*
X99116294Y-99168886D01*
X99126384Y-99185721D01*
X99134776Y-99203463D01*
X99141388Y-99221943D01*
X99146157Y-99240982D01*
X99149037Y-99260397D01*
X99150000Y-99280000D01*
X99150000Y-100480000D01*
X99149037Y-100499603D01*
X99146157Y-100519018D01*
X99141388Y-100538057D01*
X99134776Y-100556537D01*
X99126384Y-100574279D01*
X99116294Y-100591114D01*
X99104602Y-100606879D01*
X99091421Y-100621421D01*
X99076879Y-100634602D01*
X99061114Y-100646294D01*
X99044279Y-100656384D01*
X99026537Y-100664776D01*
X99008057Y-100671388D01*
X98989018Y-100676157D01*
X98969603Y-100679037D01*
X98950000Y-100680000D01*
X97750000Y-100680000D01*
X97730397Y-100679037D01*
X97710982Y-100676157D01*
X97691943Y-100671388D01*
X97673463Y-100664776D01*
X97655721Y-100656384D01*
X97638886Y-100646294D01*
X97623121Y-100634602D01*
X97608579Y-100621421D01*
X97595398Y-100606879D01*
X97583706Y-100591114D01*
X97573616Y-100574279D01*
X97565224Y-100556537D01*
X97558612Y-100538057D01*
X97553843Y-100519018D01*
X97550963Y-100499603D01*
X97550000Y-100480000D01*
X97550000Y-99280000D01*
X97550963Y-99260397D01*
X97553843Y-99240982D01*
X97558612Y-99221943D01*
X97565224Y-99203463D01*
X97573616Y-99185721D01*
X97583706Y-99168886D01*
X97595398Y-99153121D01*
X97608579Y-99138579D01*
X97623121Y-99125398D01*
X97638886Y-99113706D01*
X97655721Y-99103616D01*
X97673463Y-99095224D01*
X97691943Y-99088612D01*
X97710982Y-99083843D01*
X97730397Y-99080963D01*
X97750000Y-99080000D01*
X98950000Y-99080000D01*
X98969603Y-99080963D01*
G37*
G04 #@! TD.AperFunction*
G04 #@! TA.AperFunction,ComponentPad*
G36*
X98969603Y-96540963D02*
G01*
X98989018Y-96543843D01*
X99008057Y-96548612D01*
X99026537Y-96555224D01*
X99044279Y-96563616D01*
X99061114Y-96573706D01*
X99076879Y-96585398D01*
X99091421Y-96598579D01*
X99104602Y-96613121D01*
X99116294Y-96628886D01*
X99126384Y-96645721D01*
X99134776Y-96663463D01*
X99141388Y-96681943D01*
X99146157Y-96700982D01*
X99149037Y-96720397D01*
X99150000Y-96740000D01*
X99150000Y-97940000D01*
X99149037Y-97959603D01*
X99146157Y-97979018D01*
X99141388Y-97998057D01*
X99134776Y-98016537D01*
X99126384Y-98034279D01*
X99116294Y-98051114D01*
X99104602Y-98066879D01*
X99091421Y-98081421D01*
X99076879Y-98094602D01*
X99061114Y-98106294D01*
X99044279Y-98116384D01*
X99026537Y-98124776D01*
X99008057Y-98131388D01*
X98989018Y-98136157D01*
X98969603Y-98139037D01*
X98950000Y-98140000D01*
X97750000Y-98140000D01*
X97730397Y-98139037D01*
X97710982Y-98136157D01*
X97691943Y-98131388D01*
X97673463Y-98124776D01*
X97655721Y-98116384D01*
X97638886Y-98106294D01*
X97623121Y-98094602D01*
X97608579Y-98081421D01*
X97595398Y-98066879D01*
X97583706Y-98051114D01*
X97573616Y-98034279D01*
X97565224Y-98016537D01*
X97558612Y-97998057D01*
X97553843Y-97979018D01*
X97550963Y-97959603D01*
X97550000Y-97940000D01*
X97550000Y-96740000D01*
X97550963Y-96720397D01*
X97553843Y-96700982D01*
X97558612Y-96681943D01*
X97565224Y-96663463D01*
X97573616Y-96645721D01*
X97583706Y-96628886D01*
X97595398Y-96613121D01*
X97608579Y-96598579D01*
X97623121Y-96585398D01*
X97638886Y-96573706D01*
X97655721Y-96563616D01*
X97673463Y-96555224D01*
X97691943Y-96548612D01*
X97710982Y-96543843D01*
X97730397Y-96540963D01*
X97750000Y-96540000D01*
X98950000Y-96540000D01*
X98969603Y-96540963D01*
G37*
G04 #@! TD.AperFunction*
G04 #@! TA.AperFunction,ComponentPad*
G36*
X98969603Y-94000963D02*
G01*
X98989018Y-94003843D01*
X99008057Y-94008612D01*
X99026537Y-94015224D01*
X99044279Y-94023616D01*
X99061114Y-94033706D01*
X99076879Y-94045398D01*
X99091421Y-94058579D01*
X99104602Y-94073121D01*
X99116294Y-94088886D01*
X99126384Y-94105721D01*
X99134776Y-94123463D01*
X99141388Y-94141943D01*
X99146157Y-94160982D01*
X99149037Y-94180397D01*
X99150000Y-94200000D01*
X99150000Y-95400000D01*
X99149037Y-95419603D01*
X99146157Y-95439018D01*
X99141388Y-95458057D01*
X99134776Y-95476537D01*
X99126384Y-95494279D01*
X99116294Y-95511114D01*
X99104602Y-95526879D01*
X99091421Y-95541421D01*
X99076879Y-95554602D01*
X99061114Y-95566294D01*
X99044279Y-95576384D01*
X99026537Y-95584776D01*
X99008057Y-95591388D01*
X98989018Y-95596157D01*
X98969603Y-95599037D01*
X98950000Y-95600000D01*
X97750000Y-95600000D01*
X97730397Y-95599037D01*
X97710982Y-95596157D01*
X97691943Y-95591388D01*
X97673463Y-95584776D01*
X97655721Y-95576384D01*
X97638886Y-95566294D01*
X97623121Y-95554602D01*
X97608579Y-95541421D01*
X97595398Y-95526879D01*
X97583706Y-95511114D01*
X97573616Y-95494279D01*
X97565224Y-95476537D01*
X97558612Y-95458057D01*
X97553843Y-95439018D01*
X97550963Y-95419603D01*
X97550000Y-95400000D01*
X97550000Y-94200000D01*
X97550963Y-94180397D01*
X97553843Y-94160982D01*
X97558612Y-94141943D01*
X97565224Y-94123463D01*
X97573616Y-94105721D01*
X97583706Y-94088886D01*
X97595398Y-94073121D01*
X97608579Y-94058579D01*
X97623121Y-94045398D01*
X97638886Y-94033706D01*
X97655721Y-94023616D01*
X97673463Y-94015224D01*
X97691943Y-94008612D01*
X97710982Y-94003843D01*
X97730397Y-94000963D01*
X97750000Y-94000000D01*
X98950000Y-94000000D01*
X98969603Y-94000963D01*
G37*
G04 #@! TD.AperFunction*
G04 #@! TA.AperFunction,ComponentPad*
G36*
X98969603Y-91460963D02*
G01*
X98989018Y-91463843D01*
X99008057Y-91468612D01*
X99026537Y-91475224D01*
X99044279Y-91483616D01*
X99061114Y-91493706D01*
X99076879Y-91505398D01*
X99091421Y-91518579D01*
X99104602Y-91533121D01*
X99116294Y-91548886D01*
X99126384Y-91565721D01*
X99134776Y-91583463D01*
X99141388Y-91601943D01*
X99146157Y-91620982D01*
X99149037Y-91640397D01*
X99150000Y-91660000D01*
X99150000Y-92860000D01*
X99149037Y-92879603D01*
X99146157Y-92899018D01*
X99141388Y-92918057D01*
X99134776Y-92936537D01*
X99126384Y-92954279D01*
X99116294Y-92971114D01*
X99104602Y-92986879D01*
X99091421Y-93001421D01*
X99076879Y-93014602D01*
X99061114Y-93026294D01*
X99044279Y-93036384D01*
X99026537Y-93044776D01*
X99008057Y-93051388D01*
X98989018Y-93056157D01*
X98969603Y-93059037D01*
X98950000Y-93060000D01*
X97750000Y-93060000D01*
X97730397Y-93059037D01*
X97710982Y-93056157D01*
X97691943Y-93051388D01*
X97673463Y-93044776D01*
X97655721Y-93036384D01*
X97638886Y-93026294D01*
X97623121Y-93014602D01*
X97608579Y-93001421D01*
X97595398Y-92986879D01*
X97583706Y-92971114D01*
X97573616Y-92954279D01*
X97565224Y-92936537D01*
X97558612Y-92918057D01*
X97553843Y-92899018D01*
X97550963Y-92879603D01*
X97550000Y-92860000D01*
X97550000Y-91660000D01*
X97550963Y-91640397D01*
X97553843Y-91620982D01*
X97558612Y-91601943D01*
X97565224Y-91583463D01*
X97573616Y-91565721D01*
X97583706Y-91548886D01*
X97595398Y-91533121D01*
X97608579Y-91518579D01*
X97623121Y-91505398D01*
X97638886Y-91493706D01*
X97655721Y-91483616D01*
X97673463Y-91475224D01*
X97691943Y-91468612D01*
X97710982Y-91463843D01*
X97730397Y-91460963D01*
X97750000Y-91460000D01*
X98950000Y-91460000D01*
X98969603Y-91460963D01*
G37*
G04 #@! TD.AperFunction*
G04 #@! TA.AperFunction,ComponentPad*
G36*
X98969603Y-88920963D02*
G01*
X98989018Y-88923843D01*
X99008057Y-88928612D01*
X99026537Y-88935224D01*
X99044279Y-88943616D01*
X99061114Y-88953706D01*
X99076879Y-88965398D01*
X99091421Y-88978579D01*
X99104602Y-88993121D01*
X99116294Y-89008886D01*
X99126384Y-89025721D01*
X99134776Y-89043463D01*
X99141388Y-89061943D01*
X99146157Y-89080982D01*
X99149037Y-89100397D01*
X99150000Y-89120000D01*
X99150000Y-90320000D01*
X99149037Y-90339603D01*
X99146157Y-90359018D01*
X99141388Y-90378057D01*
X99134776Y-90396537D01*
X99126384Y-90414279D01*
X99116294Y-90431114D01*
X99104602Y-90446879D01*
X99091421Y-90461421D01*
X99076879Y-90474602D01*
X99061114Y-90486294D01*
X99044279Y-90496384D01*
X99026537Y-90504776D01*
X99008057Y-90511388D01*
X98989018Y-90516157D01*
X98969603Y-90519037D01*
X98950000Y-90520000D01*
X97750000Y-90520000D01*
X97730397Y-90519037D01*
X97710982Y-90516157D01*
X97691943Y-90511388D01*
X97673463Y-90504776D01*
X97655721Y-90496384D01*
X97638886Y-90486294D01*
X97623121Y-90474602D01*
X97608579Y-90461421D01*
X97595398Y-90446879D01*
X97583706Y-90431114D01*
X97573616Y-90414279D01*
X97565224Y-90396537D01*
X97558612Y-90378057D01*
X97553843Y-90359018D01*
X97550963Y-90339603D01*
X97550000Y-90320000D01*
X97550000Y-89120000D01*
X97550963Y-89100397D01*
X97553843Y-89080982D01*
X97558612Y-89061943D01*
X97565224Y-89043463D01*
X97573616Y-89025721D01*
X97583706Y-89008886D01*
X97595398Y-88993121D01*
X97608579Y-88978579D01*
X97623121Y-88965398D01*
X97638886Y-88953706D01*
X97655721Y-88943616D01*
X97673463Y-88935224D01*
X97691943Y-88928612D01*
X97710982Y-88923843D01*
X97730397Y-88920963D01*
X97750000Y-88920000D01*
X98950000Y-88920000D01*
X98969603Y-88920963D01*
G37*
G04 #@! TD.AperFunction*
G04 #@! TA.AperFunction,ComponentPad*
G36*
X98969603Y-86380963D02*
G01*
X98989018Y-86383843D01*
X99008057Y-86388612D01*
X99026537Y-86395224D01*
X99044279Y-86403616D01*
X99061114Y-86413706D01*
X99076879Y-86425398D01*
X99091421Y-86438579D01*
X99104602Y-86453121D01*
X99116294Y-86468886D01*
X99126384Y-86485721D01*
X99134776Y-86503463D01*
X99141388Y-86521943D01*
X99146157Y-86540982D01*
X99149037Y-86560397D01*
X99150000Y-86580000D01*
X99150000Y-87780000D01*
X99149037Y-87799603D01*
X99146157Y-87819018D01*
X99141388Y-87838057D01*
X99134776Y-87856537D01*
X99126384Y-87874279D01*
X99116294Y-87891114D01*
X99104602Y-87906879D01*
X99091421Y-87921421D01*
X99076879Y-87934602D01*
X99061114Y-87946294D01*
X99044279Y-87956384D01*
X99026537Y-87964776D01*
X99008057Y-87971388D01*
X98989018Y-87976157D01*
X98969603Y-87979037D01*
X98950000Y-87980000D01*
X97750000Y-87980000D01*
X97730397Y-87979037D01*
X97710982Y-87976157D01*
X97691943Y-87971388D01*
X97673463Y-87964776D01*
X97655721Y-87956384D01*
X97638886Y-87946294D01*
X97623121Y-87934602D01*
X97608579Y-87921421D01*
X97595398Y-87906879D01*
X97583706Y-87891114D01*
X97573616Y-87874279D01*
X97565224Y-87856537D01*
X97558612Y-87838057D01*
X97553843Y-87819018D01*
X97550963Y-87799603D01*
X97550000Y-87780000D01*
X97550000Y-86580000D01*
X97550963Y-86560397D01*
X97553843Y-86540982D01*
X97558612Y-86521943D01*
X97565224Y-86503463D01*
X97573616Y-86485721D01*
X97583706Y-86468886D01*
X97595398Y-86453121D01*
X97608579Y-86438579D01*
X97623121Y-86425398D01*
X97638886Y-86413706D01*
X97655721Y-86403616D01*
X97673463Y-86395224D01*
X97691943Y-86388612D01*
X97710982Y-86383843D01*
X97730397Y-86380963D01*
X97750000Y-86380000D01*
X98950000Y-86380000D01*
X98969603Y-86380963D01*
G37*
G04 #@! TD.AperFunction*
G04 #@! TA.AperFunction,ComponentPad*
G36*
X98969603Y-83840963D02*
G01*
X98989018Y-83843843D01*
X99008057Y-83848612D01*
X99026537Y-83855224D01*
X99044279Y-83863616D01*
X99061114Y-83873706D01*
X99076879Y-83885398D01*
X99091421Y-83898579D01*
X99104602Y-83913121D01*
X99116294Y-83928886D01*
X99126384Y-83945721D01*
X99134776Y-83963463D01*
X99141388Y-83981943D01*
X99146157Y-84000982D01*
X99149037Y-84020397D01*
X99150000Y-84040000D01*
X99150000Y-85240000D01*
X99149037Y-85259603D01*
X99146157Y-85279018D01*
X99141388Y-85298057D01*
X99134776Y-85316537D01*
X99126384Y-85334279D01*
X99116294Y-85351114D01*
X99104602Y-85366879D01*
X99091421Y-85381421D01*
X99076879Y-85394602D01*
X99061114Y-85406294D01*
X99044279Y-85416384D01*
X99026537Y-85424776D01*
X99008057Y-85431388D01*
X98989018Y-85436157D01*
X98969603Y-85439037D01*
X98950000Y-85440000D01*
X97750000Y-85440000D01*
X97730397Y-85439037D01*
X97710982Y-85436157D01*
X97691943Y-85431388D01*
X97673463Y-85424776D01*
X97655721Y-85416384D01*
X97638886Y-85406294D01*
X97623121Y-85394602D01*
X97608579Y-85381421D01*
X97595398Y-85366879D01*
X97583706Y-85351114D01*
X97573616Y-85334279D01*
X97565224Y-85316537D01*
X97558612Y-85298057D01*
X97553843Y-85279018D01*
X97550963Y-85259603D01*
X97550000Y-85240000D01*
X97550000Y-84040000D01*
X97550963Y-84020397D01*
X97553843Y-84000982D01*
X97558612Y-83981943D01*
X97565224Y-83963463D01*
X97573616Y-83945721D01*
X97583706Y-83928886D01*
X97595398Y-83913121D01*
X97608579Y-83898579D01*
X97623121Y-83885398D01*
X97638886Y-83873706D01*
X97655721Y-83863616D01*
X97673463Y-83855224D01*
X97691943Y-83848612D01*
X97710982Y-83843843D01*
X97730397Y-83840963D01*
X97750000Y-83840000D01*
X98950000Y-83840000D01*
X98969603Y-83840963D01*
G37*
G04 #@! TD.AperFunction*
G04 #@! TA.AperFunction,ComponentPad*
G36*
X98969603Y-81300963D02*
G01*
X98989018Y-81303843D01*
X99008057Y-81308612D01*
X99026537Y-81315224D01*
X99044279Y-81323616D01*
X99061114Y-81333706D01*
X99076879Y-81345398D01*
X99091421Y-81358579D01*
X99104602Y-81373121D01*
X99116294Y-81388886D01*
X99126384Y-81405721D01*
X99134776Y-81423463D01*
X99141388Y-81441943D01*
X99146157Y-81460982D01*
X99149037Y-81480397D01*
X99150000Y-81500000D01*
X99150000Y-82700000D01*
X99149037Y-82719603D01*
X99146157Y-82739018D01*
X99141388Y-82758057D01*
X99134776Y-82776537D01*
X99126384Y-82794279D01*
X99116294Y-82811114D01*
X99104602Y-82826879D01*
X99091421Y-82841421D01*
X99076879Y-82854602D01*
X99061114Y-82866294D01*
X99044279Y-82876384D01*
X99026537Y-82884776D01*
X99008057Y-82891388D01*
X98989018Y-82896157D01*
X98969603Y-82899037D01*
X98950000Y-82900000D01*
X97750000Y-82900000D01*
X97730397Y-82899037D01*
X97710982Y-82896157D01*
X97691943Y-82891388D01*
X97673463Y-82884776D01*
X97655721Y-82876384D01*
X97638886Y-82866294D01*
X97623121Y-82854602D01*
X97608579Y-82841421D01*
X97595398Y-82826879D01*
X97583706Y-82811114D01*
X97573616Y-82794279D01*
X97565224Y-82776537D01*
X97558612Y-82758057D01*
X97553843Y-82739018D01*
X97550963Y-82719603D01*
X97550000Y-82700000D01*
X97550000Y-81500000D01*
X97550963Y-81480397D01*
X97553843Y-81460982D01*
X97558612Y-81441943D01*
X97565224Y-81423463D01*
X97573616Y-81405721D01*
X97583706Y-81388886D01*
X97595398Y-81373121D01*
X97608579Y-81358579D01*
X97623121Y-81345398D01*
X97638886Y-81333706D01*
X97655721Y-81323616D01*
X97673463Y-81315224D01*
X97691943Y-81308612D01*
X97710982Y-81303843D01*
X97730397Y-81300963D01*
X97750000Y-81300000D01*
X98950000Y-81300000D01*
X98969603Y-81300963D01*
G37*
G04 #@! TD.AperFunction*
D12*
X97000000Y-107240000D03*
D13*
X99400000Y-107240000D03*
X98697056Y-108937056D03*
X97000000Y-109640000D03*
X95302944Y-108937056D03*
X94600000Y-107240000D03*
X95302944Y-105542944D03*
X97000000Y-104840000D03*
X98697056Y-105542944D03*
D12*
X87000000Y-107240000D03*
D13*
X89400000Y-107240000D03*
X88697056Y-108937056D03*
X87000000Y-109640000D03*
X85302944Y-108937056D03*
X84600000Y-107240000D03*
X85302944Y-105542944D03*
X87000000Y-104840000D03*
X88697056Y-105542944D03*
D12*
X97000000Y-74740000D03*
D13*
X99400000Y-74740000D03*
X98697056Y-76437056D03*
X97000000Y-77140000D03*
X95302944Y-76437056D03*
X94600000Y-74740000D03*
X95302944Y-73042944D03*
X97000000Y-72340000D03*
X98697056Y-73042944D03*
D12*
X87000000Y-74740000D03*
D13*
X89400000Y-74740000D03*
X88697056Y-76437056D03*
X87000000Y-77140000D03*
X85302944Y-76437056D03*
X84600000Y-74740000D03*
X85302944Y-73042944D03*
X87000000Y-72340000D03*
X88697056Y-73042944D03*
D14*
X98349999Y-94799999D02*
X98350000Y-94800000D01*
X85650000Y-94800000D02*
X85650001Y-94799999D01*
X85650001Y-87180001D02*
X85650000Y-87180000D01*
X98350000Y-87180000D02*
X98349999Y-87180001D01*
X98349999Y-84640001D02*
X98350000Y-84640000D01*
X85650000Y-84640000D02*
X85650001Y-84640001D01*
D15*
G36*
X99050000Y-98410000D02*
G01*
X96365731Y-98410000D01*
X96351000Y-98408549D01*
X94349000Y-98408549D01*
X94334269Y-98410000D01*
X94201451Y-98410000D01*
X94201451Y-97640100D01*
X94200000Y-97625368D01*
X94200000Y-97390000D01*
X94198079Y-97370491D01*
X94192388Y-97351732D01*
X94183147Y-97334443D01*
X94170711Y-97319289D01*
X94155557Y-97306853D01*
X94138268Y-97297612D01*
X94119509Y-97291921D01*
X94100000Y-97290000D01*
X93864632Y-97290000D01*
X93849900Y-97288549D01*
X93650100Y-97288549D01*
X93635368Y-97290000D01*
X93400000Y-97290000D01*
X93380491Y-97291921D01*
X93361732Y-97297612D01*
X93344443Y-97306853D01*
X93329289Y-97319289D01*
X93316853Y-97334443D01*
X93307612Y-97351732D01*
X93301921Y-97370491D01*
X93300000Y-97390000D01*
X93300000Y-97625368D01*
X93298549Y-97640100D01*
X93298549Y-98640000D01*
X93201451Y-98640001D01*
X93201451Y-97640100D01*
X93200002Y-97625385D01*
X93200000Y-96270000D01*
X99050000Y-96270000D01*
X99050000Y-98410000D01*
G37*
X99050000Y-98410000D02*
X96365731Y-98410000D01*
X96351000Y-98408549D01*
X94349000Y-98408549D01*
X94334269Y-98410000D01*
X94201451Y-98410000D01*
X94201451Y-97640100D01*
X94200000Y-97625368D01*
X94200000Y-97390000D01*
X94198079Y-97370491D01*
X94192388Y-97351732D01*
X94183147Y-97334443D01*
X94170711Y-97319289D01*
X94155557Y-97306853D01*
X94138268Y-97297612D01*
X94119509Y-97291921D01*
X94100000Y-97290000D01*
X93864632Y-97290000D01*
X93849900Y-97288549D01*
X93650100Y-97288549D01*
X93635368Y-97290000D01*
X93400000Y-97290000D01*
X93380491Y-97291921D01*
X93361732Y-97297612D01*
X93344443Y-97306853D01*
X93329289Y-97319289D01*
X93316853Y-97334443D01*
X93307612Y-97351732D01*
X93301921Y-97370491D01*
X93300000Y-97390000D01*
X93300000Y-97625368D01*
X93298549Y-97640100D01*
X93298549Y-98640000D01*
X93201451Y-98640001D01*
X93201451Y-97640100D01*
X93200002Y-97625385D01*
X93200000Y-96270000D01*
X99050000Y-96270000D01*
X99050000Y-98410000D01*
G36*
X99050000Y-95870000D02*
G01*
X92900000Y-95870000D01*
X92880491Y-95871921D01*
X92861732Y-95877612D01*
X92844443Y-95886853D01*
X92829289Y-95899289D01*
X92816853Y-95914443D01*
X92807612Y-95931732D01*
X92801921Y-95950491D01*
X92800000Y-95970000D01*
X92800001Y-97625362D01*
X92798549Y-97640100D01*
X92798549Y-98640000D01*
X92701451Y-98640001D01*
X92701451Y-97640100D01*
X92700002Y-97625384D01*
X92700000Y-93730000D01*
X99050000Y-93730000D01*
X99050000Y-95870000D01*
G37*
X99050000Y-95870000D02*
X92900000Y-95870000D01*
X92880491Y-95871921D01*
X92861732Y-95877612D01*
X92844443Y-95886853D01*
X92829289Y-95899289D01*
X92816853Y-95914443D01*
X92807612Y-95931732D01*
X92801921Y-95950491D01*
X92800000Y-95970000D01*
X92800001Y-97625362D01*
X92798549Y-97640100D01*
X92798549Y-98640000D01*
X92701451Y-98640001D01*
X92701451Y-97640100D01*
X92700002Y-97625384D01*
X92700000Y-93730000D01*
X99050000Y-93730000D01*
X99050000Y-95870000D01*
G36*
X99050000Y-93330000D02*
G01*
X92400000Y-93330000D01*
X92380491Y-93331921D01*
X92361732Y-93337612D01*
X92344443Y-93346853D01*
X92329289Y-93359289D01*
X92316853Y-93374443D01*
X92307612Y-93391732D01*
X92301921Y-93410491D01*
X92300000Y-93430000D01*
X92300002Y-97625352D01*
X92298549Y-97640100D01*
X92298549Y-98640000D01*
X92201451Y-98640000D01*
X92201451Y-97640100D01*
X92200001Y-97625377D01*
X92200000Y-91190000D01*
X99050000Y-91190000D01*
X99050000Y-93330000D01*
G37*
X99050000Y-93330000D02*
X92400000Y-93330000D01*
X92380491Y-93331921D01*
X92361732Y-93337612D01*
X92344443Y-93346853D01*
X92329289Y-93359289D01*
X92316853Y-93374443D01*
X92307612Y-93391732D01*
X92301921Y-93410491D01*
X92300000Y-93430000D01*
X92300002Y-97625352D01*
X92298549Y-97640100D01*
X92298549Y-98640000D01*
X92201451Y-98640000D01*
X92201451Y-97640100D01*
X92200001Y-97625377D01*
X92200000Y-91190000D01*
X99050000Y-91190000D01*
X99050000Y-93330000D01*
G36*
X99050000Y-90790000D02*
G01*
X91900000Y-90790000D01*
X91880491Y-90791921D01*
X91861732Y-90797612D01*
X91844443Y-90806853D01*
X91829289Y-90819289D01*
X91816853Y-90834443D01*
X91807612Y-90851732D01*
X91801921Y-90870491D01*
X91800000Y-90890000D01*
X91800000Y-97625368D01*
X91798549Y-97640100D01*
X91798549Y-98640000D01*
X91701451Y-98640001D01*
X91701451Y-97640100D01*
X91700000Y-97625368D01*
X91700000Y-88650000D01*
X99050000Y-88650000D01*
X99050000Y-90790000D01*
G37*
X99050000Y-90790000D02*
X91900000Y-90790000D01*
X91880491Y-90791921D01*
X91861732Y-90797612D01*
X91844443Y-90806853D01*
X91829289Y-90819289D01*
X91816853Y-90834443D01*
X91807612Y-90851732D01*
X91801921Y-90870491D01*
X91800000Y-90890000D01*
X91800000Y-97625368D01*
X91798549Y-97640100D01*
X91798549Y-98640000D01*
X91701451Y-98640001D01*
X91701451Y-97640100D01*
X91700000Y-97625368D01*
X91700000Y-88650000D01*
X99050000Y-88650000D01*
X99050000Y-90790000D01*
G36*
X99050000Y-88250000D02*
G01*
X91400000Y-88250000D01*
X91380491Y-88251921D01*
X91361732Y-88257612D01*
X91344443Y-88266853D01*
X91329289Y-88279289D01*
X91316853Y-88294443D01*
X91307612Y-88311732D01*
X91301921Y-88330491D01*
X91300000Y-88350000D01*
X91300000Y-97625368D01*
X91298549Y-97640100D01*
X91298549Y-98640000D01*
X91201451Y-98640000D01*
X91201451Y-97640100D01*
X91200002Y-97625387D01*
X91200000Y-86110000D01*
X99050000Y-86110000D01*
X99050000Y-88250000D01*
G37*
X99050000Y-88250000D02*
X91400000Y-88250000D01*
X91380491Y-88251921D01*
X91361732Y-88257612D01*
X91344443Y-88266853D01*
X91329289Y-88279289D01*
X91316853Y-88294443D01*
X91307612Y-88311732D01*
X91301921Y-88330491D01*
X91300000Y-88350000D01*
X91300000Y-97625368D01*
X91298549Y-97640100D01*
X91298549Y-98640000D01*
X91201451Y-98640000D01*
X91201451Y-97640100D01*
X91200002Y-97625387D01*
X91200000Y-86110000D01*
X99050000Y-86110000D01*
X99050000Y-88250000D01*
G36*
X99050000Y-85710000D02*
G01*
X90900000Y-85710000D01*
X90880491Y-85711921D01*
X90861732Y-85717612D01*
X90844443Y-85726853D01*
X90829289Y-85739289D01*
X90816853Y-85754443D01*
X90807612Y-85771732D01*
X90801921Y-85790491D01*
X90800000Y-85810000D01*
X90800000Y-97625368D01*
X90798549Y-97640100D01*
X90798549Y-98640000D01*
X90701451Y-98640000D01*
X90701451Y-97640100D01*
X90700000Y-97625368D01*
X90700000Y-83570000D01*
X99050000Y-83570000D01*
X99050000Y-85710000D01*
G37*
X99050000Y-85710000D02*
X90900000Y-85710000D01*
X90880491Y-85711921D01*
X90861732Y-85717612D01*
X90844443Y-85726853D01*
X90829289Y-85739289D01*
X90816853Y-85754443D01*
X90807612Y-85771732D01*
X90801921Y-85790491D01*
X90800000Y-85810000D01*
X90800000Y-97625368D01*
X90798549Y-97640100D01*
X90798549Y-98640000D01*
X90701451Y-98640000D01*
X90701451Y-97640100D01*
X90700000Y-97625368D01*
X90700000Y-83570000D01*
X99050000Y-83570000D01*
X99050000Y-85710000D01*
G36*
X99650000Y-83170000D02*
G01*
X90400000Y-83170000D01*
X90380491Y-83171921D01*
X90361732Y-83177612D01*
X90344443Y-83186853D01*
X90329289Y-83199289D01*
X90316853Y-83214443D01*
X90307612Y-83231732D01*
X90301921Y-83250491D01*
X90300000Y-83270000D01*
X90300000Y-97625368D01*
X90298549Y-97640100D01*
X90298549Y-98739900D01*
X90300000Y-98754632D01*
X90300000Y-102389999D01*
X84350000Y-102390001D01*
X84350000Y-99280000D01*
X84548549Y-99280000D01*
X84548549Y-100480000D01*
X84558184Y-100577828D01*
X84586720Y-100671897D01*
X84633059Y-100758591D01*
X84695421Y-100834579D01*
X84771409Y-100896941D01*
X84858103Y-100943280D01*
X84952172Y-100971816D01*
X85050000Y-100981451D01*
X86250000Y-100981451D01*
X86347828Y-100971816D01*
X86441897Y-100943280D01*
X86528591Y-100896941D01*
X86604579Y-100834579D01*
X86666941Y-100758591D01*
X86713280Y-100671897D01*
X86741816Y-100577828D01*
X86751451Y-100480000D01*
X86751451Y-99280000D01*
X86741816Y-99182172D01*
X86713280Y-99088103D01*
X86666941Y-99001409D01*
X86604579Y-98925421D01*
X86528591Y-98863059D01*
X86441897Y-98816720D01*
X86416448Y-98809000D01*
X87248549Y-98809000D01*
X87248549Y-101911000D01*
X87256244Y-101989124D01*
X87279032Y-102064246D01*
X87316037Y-102133479D01*
X87365838Y-102194162D01*
X87426521Y-102243963D01*
X87495754Y-102280968D01*
X87570876Y-102303756D01*
X87649000Y-102311451D01*
X89651000Y-102311451D01*
X89729124Y-102303756D01*
X89804246Y-102280968D01*
X89873479Y-102243963D01*
X89934162Y-102194162D01*
X89983963Y-102133479D01*
X90020968Y-102064246D01*
X90043756Y-101989124D01*
X90051451Y-101911000D01*
X90051451Y-98809000D01*
X90043756Y-98730876D01*
X90020968Y-98655754D01*
X89983963Y-98586521D01*
X89934162Y-98525838D01*
X89873479Y-98476037D01*
X89804246Y-98439032D01*
X89768683Y-98428244D01*
X89793158Y-98408158D01*
X89830647Y-98362477D01*
X89858504Y-98310360D01*
X89875659Y-98253810D01*
X89881451Y-98195000D01*
X89881451Y-98185000D01*
X89873792Y-98117479D01*
X89854974Y-98061461D01*
X89825589Y-98010190D01*
X89786767Y-97965637D01*
X89739998Y-97929514D01*
X89687081Y-97903209D01*
X89187081Y-97713209D01*
X89138810Y-97699341D01*
X89080000Y-97693549D01*
X89021190Y-97699341D01*
X88964640Y-97716496D01*
X88912523Y-97744353D01*
X88866842Y-97781842D01*
X88829353Y-97827523D01*
X88801496Y-97879640D01*
X88784341Y-97936190D01*
X88778549Y-97995000D01*
X88778549Y-98385000D01*
X88780518Y-98408549D01*
X87649000Y-98408549D01*
X87570876Y-98416244D01*
X87495754Y-98439032D01*
X87426521Y-98476037D01*
X87365838Y-98525838D01*
X87316037Y-98586521D01*
X87279032Y-98655754D01*
X87256244Y-98730876D01*
X87248549Y-98809000D01*
X86416448Y-98809000D01*
X86347828Y-98788184D01*
X86250000Y-98778549D01*
X85050000Y-98778549D01*
X84952172Y-98788184D01*
X84858103Y-98816720D01*
X84771409Y-98863059D01*
X84695421Y-98925421D01*
X84633059Y-99001409D01*
X84586720Y-99088103D01*
X84558184Y-99182172D01*
X84548549Y-99280000D01*
X84350000Y-99280000D01*
X84350000Y-96740000D01*
X84548549Y-96740000D01*
X84548549Y-97940000D01*
X84558184Y-98037828D01*
X84586720Y-98131897D01*
X84633059Y-98218591D01*
X84695421Y-98294579D01*
X84771409Y-98356941D01*
X84858103Y-98403280D01*
X84952172Y-98431816D01*
X85050000Y-98441451D01*
X86250000Y-98441451D01*
X86347828Y-98431816D01*
X86441897Y-98403280D01*
X86528591Y-98356941D01*
X86604579Y-98294579D01*
X86666941Y-98218591D01*
X86713280Y-98131897D01*
X86741816Y-98037828D01*
X86751451Y-97940000D01*
X86751451Y-96740000D01*
X86741816Y-96642172D01*
X86713280Y-96548103D01*
X86666941Y-96461409D01*
X86604579Y-96385421D01*
X86528591Y-96323059D01*
X86441897Y-96276720D01*
X86347828Y-96248184D01*
X86250000Y-96238549D01*
X85050000Y-96238549D01*
X84952172Y-96248184D01*
X84858103Y-96276720D01*
X84771409Y-96323059D01*
X84695421Y-96385421D01*
X84633059Y-96461409D01*
X84586720Y-96548103D01*
X84558184Y-96642172D01*
X84548549Y-96740000D01*
X84350000Y-96740000D01*
X84350000Y-94800000D01*
X84544678Y-94800000D01*
X84548549Y-94839302D01*
X84548549Y-95400000D01*
X84558184Y-95497828D01*
X84586720Y-95591897D01*
X84633059Y-95678591D01*
X84695421Y-95754579D01*
X84771409Y-95816941D01*
X84858103Y-95863280D01*
X84952172Y-95891816D01*
X85050000Y-95901451D01*
X85610698Y-95901451D01*
X85650000Y-95905322D01*
X85689302Y-95901451D01*
X86250000Y-95901451D01*
X86347828Y-95891816D01*
X86441897Y-95863280D01*
X86528591Y-95816941D01*
X86604579Y-95754579D01*
X86666941Y-95678591D01*
X86713280Y-95591897D01*
X86741816Y-95497828D01*
X86751451Y-95400000D01*
X86751451Y-94839312D01*
X86755323Y-94800000D01*
X86751451Y-94760688D01*
X86751451Y-94200000D01*
X86741816Y-94102172D01*
X86713280Y-94008103D01*
X86666941Y-93921409D01*
X86604579Y-93845421D01*
X86528591Y-93783059D01*
X86441897Y-93736720D01*
X86347828Y-93708184D01*
X86250000Y-93698549D01*
X85689312Y-93698549D01*
X85650000Y-93694677D01*
X85610688Y-93698549D01*
X85050000Y-93698549D01*
X84952172Y-93708184D01*
X84858103Y-93736720D01*
X84771409Y-93783059D01*
X84695421Y-93845421D01*
X84633059Y-93921409D01*
X84586720Y-94008103D01*
X84558184Y-94102172D01*
X84548549Y-94200000D01*
X84548549Y-94760698D01*
X84544678Y-94800000D01*
X84350000Y-94800000D01*
X84350000Y-91660000D01*
X84548549Y-91660000D01*
X84548549Y-92860000D01*
X84558184Y-92957828D01*
X84586720Y-93051897D01*
X84633059Y-93138591D01*
X84695421Y-93214579D01*
X84771409Y-93276941D01*
X84858103Y-93323280D01*
X84952172Y-93351816D01*
X85050000Y-93361451D01*
X86250000Y-93361451D01*
X86347828Y-93351816D01*
X86441897Y-93323280D01*
X86528591Y-93276941D01*
X86604579Y-93214579D01*
X86666941Y-93138591D01*
X86713280Y-93051897D01*
X86741816Y-92957828D01*
X86751451Y-92860000D01*
X86751451Y-91660000D01*
X86741816Y-91562172D01*
X86713280Y-91468103D01*
X86666941Y-91381409D01*
X86604579Y-91305421D01*
X86528591Y-91243059D01*
X86441897Y-91196720D01*
X86347828Y-91168184D01*
X86250000Y-91158549D01*
X85050000Y-91158549D01*
X84952172Y-91168184D01*
X84858103Y-91196720D01*
X84771409Y-91243059D01*
X84695421Y-91305421D01*
X84633059Y-91381409D01*
X84586720Y-91468103D01*
X84558184Y-91562172D01*
X84548549Y-91660000D01*
X84350000Y-91660000D01*
X84350000Y-89120000D01*
X84548549Y-89120000D01*
X84548549Y-90320000D01*
X84558184Y-90417828D01*
X84586720Y-90511897D01*
X84633059Y-90598591D01*
X84695421Y-90674579D01*
X84771409Y-90736941D01*
X84858103Y-90783280D01*
X84952172Y-90811816D01*
X85050000Y-90821451D01*
X86250000Y-90821451D01*
X86347828Y-90811816D01*
X86441897Y-90783280D01*
X86528591Y-90736941D01*
X86604579Y-90674579D01*
X86666941Y-90598591D01*
X86713280Y-90511897D01*
X86741816Y-90417828D01*
X86751451Y-90320000D01*
X86751451Y-89120000D01*
X86741816Y-89022172D01*
X86713280Y-88928103D01*
X86666941Y-88841409D01*
X86604579Y-88765421D01*
X86528591Y-88703059D01*
X86441897Y-88656720D01*
X86347828Y-88628184D01*
X86250000Y-88618549D01*
X85050000Y-88618549D01*
X84952172Y-88628184D01*
X84858103Y-88656720D01*
X84771409Y-88703059D01*
X84695421Y-88765421D01*
X84633059Y-88841409D01*
X84586720Y-88928103D01*
X84558184Y-89022172D01*
X84548549Y-89120000D01*
X84350000Y-89120000D01*
X84350000Y-87180000D01*
X84544678Y-87180000D01*
X84548549Y-87219302D01*
X84548549Y-87780000D01*
X84558184Y-87877828D01*
X84586720Y-87971897D01*
X84633059Y-88058591D01*
X84695421Y-88134579D01*
X84771409Y-88196941D01*
X84858103Y-88243280D01*
X84952172Y-88271816D01*
X85050000Y-88281451D01*
X85610688Y-88281451D01*
X85650000Y-88285323D01*
X85689312Y-88281451D01*
X86250000Y-88281451D01*
X86347828Y-88271816D01*
X86441897Y-88243280D01*
X86528591Y-88196941D01*
X86604579Y-88134579D01*
X86666941Y-88058591D01*
X86713280Y-87971897D01*
X86741816Y-87877828D01*
X86751451Y-87780000D01*
X86751451Y-87219312D01*
X86755323Y-87180000D01*
X86751451Y-87140688D01*
X86751451Y-86580000D01*
X86741816Y-86482172D01*
X86713280Y-86388103D01*
X86666941Y-86301409D01*
X86604579Y-86225421D01*
X86528591Y-86163059D01*
X86441897Y-86116720D01*
X86347828Y-86088184D01*
X86250000Y-86078549D01*
X85689302Y-86078549D01*
X85650000Y-86074678D01*
X85610698Y-86078549D01*
X85050000Y-86078549D01*
X84952172Y-86088184D01*
X84858103Y-86116720D01*
X84771409Y-86163059D01*
X84695421Y-86225421D01*
X84633059Y-86301409D01*
X84586720Y-86388103D01*
X84558184Y-86482172D01*
X84548549Y-86580000D01*
X84548549Y-87140698D01*
X84544678Y-87180000D01*
X84350000Y-87180000D01*
X84350000Y-84640000D01*
X84544678Y-84640000D01*
X84548549Y-84679302D01*
X84548549Y-85240000D01*
X84558184Y-85337828D01*
X84586720Y-85431897D01*
X84633059Y-85518591D01*
X84695421Y-85594579D01*
X84771409Y-85656941D01*
X84858103Y-85703280D01*
X84952172Y-85731816D01*
X85050000Y-85741451D01*
X85610688Y-85741451D01*
X85650000Y-85745323D01*
X85689312Y-85741451D01*
X86250000Y-85741451D01*
X86347828Y-85731816D01*
X86441897Y-85703280D01*
X86528591Y-85656941D01*
X86604579Y-85594579D01*
X86666941Y-85518591D01*
X86713280Y-85431897D01*
X86741816Y-85337828D01*
X86751451Y-85240000D01*
X86751451Y-84679312D01*
X86755323Y-84640000D01*
X86751451Y-84600688D01*
X86751451Y-84040000D01*
X86741816Y-83942172D01*
X86713280Y-83848103D01*
X86666941Y-83761409D01*
X86604579Y-83685421D01*
X86528591Y-83623059D01*
X86441897Y-83576720D01*
X86347828Y-83548184D01*
X86250000Y-83538549D01*
X85689302Y-83538549D01*
X85650000Y-83534678D01*
X85610698Y-83538549D01*
X85050000Y-83538549D01*
X84952172Y-83548184D01*
X84858103Y-83576720D01*
X84771409Y-83623059D01*
X84695421Y-83685421D01*
X84633059Y-83761409D01*
X84586720Y-83848103D01*
X84558184Y-83942172D01*
X84548549Y-84040000D01*
X84548549Y-84600698D01*
X84544678Y-84640000D01*
X84350000Y-84640000D01*
X84350000Y-81500000D01*
X84548549Y-81500000D01*
X84548549Y-82700000D01*
X84558184Y-82797828D01*
X84586720Y-82891897D01*
X84633059Y-82978591D01*
X84695421Y-83054579D01*
X84771409Y-83116941D01*
X84858103Y-83163280D01*
X84952172Y-83191816D01*
X85050000Y-83201451D01*
X86250000Y-83201451D01*
X86347828Y-83191816D01*
X86441897Y-83163280D01*
X86528591Y-83116941D01*
X86604579Y-83054579D01*
X86666941Y-82978591D01*
X86713280Y-82891897D01*
X86741816Y-82797828D01*
X86751451Y-82700000D01*
X86751451Y-81500000D01*
X86741816Y-81402172D01*
X86713280Y-81308103D01*
X86666941Y-81221409D01*
X86604579Y-81145421D01*
X86528591Y-81083059D01*
X86441897Y-81036720D01*
X86347828Y-81008184D01*
X86250000Y-80998549D01*
X85050000Y-80998549D01*
X84952172Y-81008184D01*
X84858103Y-81036720D01*
X84771409Y-81083059D01*
X84695421Y-81145421D01*
X84633059Y-81221409D01*
X84586720Y-81308103D01*
X84558184Y-81402172D01*
X84548549Y-81500000D01*
X84350000Y-81500000D01*
X84350000Y-79590000D01*
X99650000Y-79590000D01*
X99650000Y-83170000D01*
G37*
X99650000Y-83170000D02*
X90400000Y-83170000D01*
X90380491Y-83171921D01*
X90361732Y-83177612D01*
X90344443Y-83186853D01*
X90329289Y-83199289D01*
X90316853Y-83214443D01*
X90307612Y-83231732D01*
X90301921Y-83250491D01*
X90300000Y-83270000D01*
X90300000Y-97625368D01*
X90298549Y-97640100D01*
X90298549Y-98739900D01*
X90300000Y-98754632D01*
X90300000Y-102389999D01*
X84350000Y-102390001D01*
X84350000Y-99280000D01*
X84548549Y-99280000D01*
X84548549Y-100480000D01*
X84558184Y-100577828D01*
X84586720Y-100671897D01*
X84633059Y-100758591D01*
X84695421Y-100834579D01*
X84771409Y-100896941D01*
X84858103Y-100943280D01*
X84952172Y-100971816D01*
X85050000Y-100981451D01*
X86250000Y-100981451D01*
X86347828Y-100971816D01*
X86441897Y-100943280D01*
X86528591Y-100896941D01*
X86604579Y-100834579D01*
X86666941Y-100758591D01*
X86713280Y-100671897D01*
X86741816Y-100577828D01*
X86751451Y-100480000D01*
X86751451Y-99280000D01*
X86741816Y-99182172D01*
X86713280Y-99088103D01*
X86666941Y-99001409D01*
X86604579Y-98925421D01*
X86528591Y-98863059D01*
X86441897Y-98816720D01*
X86416448Y-98809000D01*
X87248549Y-98809000D01*
X87248549Y-101911000D01*
X87256244Y-101989124D01*
X87279032Y-102064246D01*
X87316037Y-102133479D01*
X87365838Y-102194162D01*
X87426521Y-102243963D01*
X87495754Y-102280968D01*
X87570876Y-102303756D01*
X87649000Y-102311451D01*
X89651000Y-102311451D01*
X89729124Y-102303756D01*
X89804246Y-102280968D01*
X89873479Y-102243963D01*
X89934162Y-102194162D01*
X89983963Y-102133479D01*
X90020968Y-102064246D01*
X90043756Y-101989124D01*
X90051451Y-101911000D01*
X90051451Y-98809000D01*
X90043756Y-98730876D01*
X90020968Y-98655754D01*
X89983963Y-98586521D01*
X89934162Y-98525838D01*
X89873479Y-98476037D01*
X89804246Y-98439032D01*
X89768683Y-98428244D01*
X89793158Y-98408158D01*
X89830647Y-98362477D01*
X89858504Y-98310360D01*
X89875659Y-98253810D01*
X89881451Y-98195000D01*
X89881451Y-98185000D01*
X89873792Y-98117479D01*
X89854974Y-98061461D01*
X89825589Y-98010190D01*
X89786767Y-97965637D01*
X89739998Y-97929514D01*
X89687081Y-97903209D01*
X89187081Y-97713209D01*
X89138810Y-97699341D01*
X89080000Y-97693549D01*
X89021190Y-97699341D01*
X88964640Y-97716496D01*
X88912523Y-97744353D01*
X88866842Y-97781842D01*
X88829353Y-97827523D01*
X88801496Y-97879640D01*
X88784341Y-97936190D01*
X88778549Y-97995000D01*
X88778549Y-98385000D01*
X88780518Y-98408549D01*
X87649000Y-98408549D01*
X87570876Y-98416244D01*
X87495754Y-98439032D01*
X87426521Y-98476037D01*
X87365838Y-98525838D01*
X87316037Y-98586521D01*
X87279032Y-98655754D01*
X87256244Y-98730876D01*
X87248549Y-98809000D01*
X86416448Y-98809000D01*
X86347828Y-98788184D01*
X86250000Y-98778549D01*
X85050000Y-98778549D01*
X84952172Y-98788184D01*
X84858103Y-98816720D01*
X84771409Y-98863059D01*
X84695421Y-98925421D01*
X84633059Y-99001409D01*
X84586720Y-99088103D01*
X84558184Y-99182172D01*
X84548549Y-99280000D01*
X84350000Y-99280000D01*
X84350000Y-96740000D01*
X84548549Y-96740000D01*
X84548549Y-97940000D01*
X84558184Y-98037828D01*
X84586720Y-98131897D01*
X84633059Y-98218591D01*
X84695421Y-98294579D01*
X84771409Y-98356941D01*
X84858103Y-98403280D01*
X84952172Y-98431816D01*
X85050000Y-98441451D01*
X86250000Y-98441451D01*
X86347828Y-98431816D01*
X86441897Y-98403280D01*
X86528591Y-98356941D01*
X86604579Y-98294579D01*
X86666941Y-98218591D01*
X86713280Y-98131897D01*
X86741816Y-98037828D01*
X86751451Y-97940000D01*
X86751451Y-96740000D01*
X86741816Y-96642172D01*
X86713280Y-96548103D01*
X86666941Y-96461409D01*
X86604579Y-96385421D01*
X86528591Y-96323059D01*
X86441897Y-96276720D01*
X86347828Y-96248184D01*
X86250000Y-96238549D01*
X85050000Y-96238549D01*
X84952172Y-96248184D01*
X84858103Y-96276720D01*
X84771409Y-96323059D01*
X84695421Y-96385421D01*
X84633059Y-96461409D01*
X84586720Y-96548103D01*
X84558184Y-96642172D01*
X84548549Y-96740000D01*
X84350000Y-96740000D01*
X84350000Y-94800000D01*
X84544678Y-94800000D01*
X84548549Y-94839302D01*
X84548549Y-95400000D01*
X84558184Y-95497828D01*
X84586720Y-95591897D01*
X84633059Y-95678591D01*
X84695421Y-95754579D01*
X84771409Y-95816941D01*
X84858103Y-95863280D01*
X84952172Y-95891816D01*
X85050000Y-95901451D01*
X85610698Y-95901451D01*
X85650000Y-95905322D01*
X85689302Y-95901451D01*
X86250000Y-95901451D01*
X86347828Y-95891816D01*
X86441897Y-95863280D01*
X86528591Y-95816941D01*
X86604579Y-95754579D01*
X86666941Y-95678591D01*
X86713280Y-95591897D01*
X86741816Y-95497828D01*
X86751451Y-95400000D01*
X86751451Y-94839312D01*
X86755323Y-94800000D01*
X86751451Y-94760688D01*
X86751451Y-94200000D01*
X86741816Y-94102172D01*
X86713280Y-94008103D01*
X86666941Y-93921409D01*
X86604579Y-93845421D01*
X86528591Y-93783059D01*
X86441897Y-93736720D01*
X86347828Y-93708184D01*
X86250000Y-93698549D01*
X85689312Y-93698549D01*
X85650000Y-93694677D01*
X85610688Y-93698549D01*
X85050000Y-93698549D01*
X84952172Y-93708184D01*
X84858103Y-93736720D01*
X84771409Y-93783059D01*
X84695421Y-93845421D01*
X84633059Y-93921409D01*
X84586720Y-94008103D01*
X84558184Y-94102172D01*
X84548549Y-94200000D01*
X84548549Y-94760698D01*
X84544678Y-94800000D01*
X84350000Y-94800000D01*
X84350000Y-91660000D01*
X84548549Y-91660000D01*
X84548549Y-92860000D01*
X84558184Y-92957828D01*
X84586720Y-93051897D01*
X84633059Y-93138591D01*
X84695421Y-93214579D01*
X84771409Y-93276941D01*
X84858103Y-93323280D01*
X84952172Y-93351816D01*
X85050000Y-93361451D01*
X86250000Y-93361451D01*
X86347828Y-93351816D01*
X86441897Y-93323280D01*
X86528591Y-93276941D01*
X86604579Y-93214579D01*
X86666941Y-93138591D01*
X86713280Y-93051897D01*
X86741816Y-92957828D01*
X86751451Y-92860000D01*
X86751451Y-91660000D01*
X86741816Y-91562172D01*
X86713280Y-91468103D01*
X86666941Y-91381409D01*
X86604579Y-91305421D01*
X86528591Y-91243059D01*
X86441897Y-91196720D01*
X86347828Y-91168184D01*
X86250000Y-91158549D01*
X85050000Y-91158549D01*
X84952172Y-91168184D01*
X84858103Y-91196720D01*
X84771409Y-91243059D01*
X84695421Y-91305421D01*
X84633059Y-91381409D01*
X84586720Y-91468103D01*
X84558184Y-91562172D01*
X84548549Y-91660000D01*
X84350000Y-91660000D01*
X84350000Y-89120000D01*
X84548549Y-89120000D01*
X84548549Y-90320000D01*
X84558184Y-90417828D01*
X84586720Y-90511897D01*
X84633059Y-90598591D01*
X84695421Y-90674579D01*
X84771409Y-90736941D01*
X84858103Y-90783280D01*
X84952172Y-90811816D01*
X85050000Y-90821451D01*
X86250000Y-90821451D01*
X86347828Y-90811816D01*
X86441897Y-90783280D01*
X86528591Y-90736941D01*
X86604579Y-90674579D01*
X86666941Y-90598591D01*
X86713280Y-90511897D01*
X86741816Y-90417828D01*
X86751451Y-90320000D01*
X86751451Y-89120000D01*
X86741816Y-89022172D01*
X86713280Y-88928103D01*
X86666941Y-88841409D01*
X86604579Y-88765421D01*
X86528591Y-88703059D01*
X86441897Y-88656720D01*
X86347828Y-88628184D01*
X86250000Y-88618549D01*
X85050000Y-88618549D01*
X84952172Y-88628184D01*
X84858103Y-88656720D01*
X84771409Y-88703059D01*
X84695421Y-88765421D01*
X84633059Y-88841409D01*
X84586720Y-88928103D01*
X84558184Y-89022172D01*
X84548549Y-89120000D01*
X84350000Y-89120000D01*
X84350000Y-87180000D01*
X84544678Y-87180000D01*
X84548549Y-87219302D01*
X84548549Y-87780000D01*
X84558184Y-87877828D01*
X84586720Y-87971897D01*
X84633059Y-88058591D01*
X84695421Y-88134579D01*
X84771409Y-88196941D01*
X84858103Y-88243280D01*
X84952172Y-88271816D01*
X85050000Y-88281451D01*
X85610688Y-88281451D01*
X85650000Y-88285323D01*
X85689312Y-88281451D01*
X86250000Y-88281451D01*
X86347828Y-88271816D01*
X86441897Y-88243280D01*
X86528591Y-88196941D01*
X86604579Y-88134579D01*
X86666941Y-88058591D01*
X86713280Y-87971897D01*
X86741816Y-87877828D01*
X86751451Y-87780000D01*
X86751451Y-87219312D01*
X86755323Y-87180000D01*
X86751451Y-87140688D01*
X86751451Y-86580000D01*
X86741816Y-86482172D01*
X86713280Y-86388103D01*
X86666941Y-86301409D01*
X86604579Y-86225421D01*
X86528591Y-86163059D01*
X86441897Y-86116720D01*
X86347828Y-86088184D01*
X86250000Y-86078549D01*
X85689302Y-86078549D01*
X85650000Y-86074678D01*
X85610698Y-86078549D01*
X85050000Y-86078549D01*
X84952172Y-86088184D01*
X84858103Y-86116720D01*
X84771409Y-86163059D01*
X84695421Y-86225421D01*
X84633059Y-86301409D01*
X84586720Y-86388103D01*
X84558184Y-86482172D01*
X84548549Y-86580000D01*
X84548549Y-87140698D01*
X84544678Y-87180000D01*
X84350000Y-87180000D01*
X84350000Y-84640000D01*
X84544678Y-84640000D01*
X84548549Y-84679302D01*
X84548549Y-85240000D01*
X84558184Y-85337828D01*
X84586720Y-85431897D01*
X84633059Y-85518591D01*
X84695421Y-85594579D01*
X84771409Y-85656941D01*
X84858103Y-85703280D01*
X84952172Y-85731816D01*
X85050000Y-85741451D01*
X85610688Y-85741451D01*
X85650000Y-85745323D01*
X85689312Y-85741451D01*
X86250000Y-85741451D01*
X86347828Y-85731816D01*
X86441897Y-85703280D01*
X86528591Y-85656941D01*
X86604579Y-85594579D01*
X86666941Y-85518591D01*
X86713280Y-85431897D01*
X86741816Y-85337828D01*
X86751451Y-85240000D01*
X86751451Y-84679312D01*
X86755323Y-84640000D01*
X86751451Y-84600688D01*
X86751451Y-84040000D01*
X86741816Y-83942172D01*
X86713280Y-83848103D01*
X86666941Y-83761409D01*
X86604579Y-83685421D01*
X86528591Y-83623059D01*
X86441897Y-83576720D01*
X86347828Y-83548184D01*
X86250000Y-83538549D01*
X85689302Y-83538549D01*
X85650000Y-83534678D01*
X85610698Y-83538549D01*
X85050000Y-83538549D01*
X84952172Y-83548184D01*
X84858103Y-83576720D01*
X84771409Y-83623059D01*
X84695421Y-83685421D01*
X84633059Y-83761409D01*
X84586720Y-83848103D01*
X84558184Y-83942172D01*
X84548549Y-84040000D01*
X84548549Y-84600698D01*
X84544678Y-84640000D01*
X84350000Y-84640000D01*
X84350000Y-81500000D01*
X84548549Y-81500000D01*
X84548549Y-82700000D01*
X84558184Y-82797828D01*
X84586720Y-82891897D01*
X84633059Y-82978591D01*
X84695421Y-83054579D01*
X84771409Y-83116941D01*
X84858103Y-83163280D01*
X84952172Y-83191816D01*
X85050000Y-83201451D01*
X86250000Y-83201451D01*
X86347828Y-83191816D01*
X86441897Y-83163280D01*
X86528591Y-83116941D01*
X86604579Y-83054579D01*
X86666941Y-82978591D01*
X86713280Y-82891897D01*
X86741816Y-82797828D01*
X86751451Y-82700000D01*
X86751451Y-81500000D01*
X86741816Y-81402172D01*
X86713280Y-81308103D01*
X86666941Y-81221409D01*
X86604579Y-81145421D01*
X86528591Y-81083059D01*
X86441897Y-81036720D01*
X86347828Y-81008184D01*
X86250000Y-80998549D01*
X85050000Y-80998549D01*
X84952172Y-81008184D01*
X84858103Y-81036720D01*
X84771409Y-81083059D01*
X84695421Y-81145421D01*
X84633059Y-81221409D01*
X84586720Y-81308103D01*
X84558184Y-81402172D01*
X84548549Y-81500000D01*
X84350000Y-81500000D01*
X84350000Y-79590000D01*
X99650000Y-79590000D01*
X99650000Y-83170000D01*
G36*
X99650000Y-102390000D02*
G01*
X93700000Y-102390000D01*
X93700000Y-98754632D01*
X93701451Y-98739900D01*
X93701451Y-97690000D01*
X93800000Y-97690000D01*
X93800000Y-98710000D01*
X93801921Y-98729509D01*
X93807612Y-98748268D01*
X93816853Y-98765557D01*
X93829289Y-98780711D01*
X93844443Y-98793147D01*
X93861732Y-98802388D01*
X93880491Y-98808079D01*
X93900000Y-98810000D01*
X93948549Y-98810000D01*
X93948549Y-101911000D01*
X93956244Y-101989124D01*
X93979032Y-102064246D01*
X94016037Y-102133479D01*
X94065838Y-102194162D01*
X94126521Y-102243963D01*
X94195754Y-102280968D01*
X94270876Y-102303756D01*
X94349000Y-102311451D01*
X96351000Y-102311451D01*
X96429124Y-102303756D01*
X96504246Y-102280968D01*
X96573479Y-102243963D01*
X96634162Y-102194162D01*
X96683963Y-102133479D01*
X96720968Y-102064246D01*
X96743756Y-101989124D01*
X96751451Y-101911000D01*
X96751451Y-98810000D01*
X99350000Y-98810000D01*
X99369509Y-98808079D01*
X99388268Y-98802388D01*
X99405557Y-98793147D01*
X99420711Y-98780711D01*
X99433147Y-98765557D01*
X99442388Y-98748268D01*
X99448079Y-98729509D01*
X99450000Y-98710000D01*
X99450000Y-97954733D01*
X99451451Y-97940000D01*
X99451451Y-96740000D01*
X99450000Y-96725267D01*
X99450000Y-95414733D01*
X99451451Y-95400000D01*
X99451451Y-94839301D01*
X99455322Y-94799999D01*
X99451451Y-94760697D01*
X99451451Y-94200000D01*
X99450000Y-94185267D01*
X99450000Y-92874733D01*
X99451451Y-92860000D01*
X99451451Y-91660000D01*
X99450000Y-91645267D01*
X99450000Y-90334733D01*
X99451451Y-90320000D01*
X99451451Y-89120000D01*
X99450000Y-89105267D01*
X99450000Y-87794733D01*
X99451451Y-87780000D01*
X99451451Y-87219303D01*
X99455322Y-87180001D01*
X99451451Y-87140699D01*
X99451451Y-86580000D01*
X99450000Y-86565267D01*
X99450000Y-85254733D01*
X99451451Y-85240000D01*
X99451451Y-84679303D01*
X99455322Y-84640001D01*
X99451451Y-84600699D01*
X99451451Y-84040000D01*
X99450000Y-84025267D01*
X99450000Y-83570000D01*
X99650000Y-83570000D01*
X99650000Y-102390000D01*
G37*
X99650000Y-102390000D02*
X93700000Y-102390000D01*
X93700000Y-98754632D01*
X93701451Y-98739900D01*
X93701451Y-97690000D01*
X93800000Y-97690000D01*
X93800000Y-98710000D01*
X93801921Y-98729509D01*
X93807612Y-98748268D01*
X93816853Y-98765557D01*
X93829289Y-98780711D01*
X93844443Y-98793147D01*
X93861732Y-98802388D01*
X93880491Y-98808079D01*
X93900000Y-98810000D01*
X93948549Y-98810000D01*
X93948549Y-101911000D01*
X93956244Y-101989124D01*
X93979032Y-102064246D01*
X94016037Y-102133479D01*
X94065838Y-102194162D01*
X94126521Y-102243963D01*
X94195754Y-102280968D01*
X94270876Y-102303756D01*
X94349000Y-102311451D01*
X96351000Y-102311451D01*
X96429124Y-102303756D01*
X96504246Y-102280968D01*
X96573479Y-102243963D01*
X96634162Y-102194162D01*
X96683963Y-102133479D01*
X96720968Y-102064246D01*
X96743756Y-101989124D01*
X96751451Y-101911000D01*
X96751451Y-98810000D01*
X99350000Y-98810000D01*
X99369509Y-98808079D01*
X99388268Y-98802388D01*
X99405557Y-98793147D01*
X99420711Y-98780711D01*
X99433147Y-98765557D01*
X99442388Y-98748268D01*
X99448079Y-98729509D01*
X99450000Y-98710000D01*
X99450000Y-97954733D01*
X99451451Y-97940000D01*
X99451451Y-96740000D01*
X99450000Y-96725267D01*
X99450000Y-95414733D01*
X99451451Y-95400000D01*
X99451451Y-94839301D01*
X99455322Y-94799999D01*
X99451451Y-94760697D01*
X99451451Y-94200000D01*
X99450000Y-94185267D01*
X99450000Y-92874733D01*
X99451451Y-92860000D01*
X99451451Y-91660000D01*
X99450000Y-91645267D01*
X99450000Y-90334733D01*
X99451451Y-90320000D01*
X99451451Y-89120000D01*
X99450000Y-89105267D01*
X99450000Y-87794733D01*
X99451451Y-87780000D01*
X99451451Y-87219303D01*
X99455322Y-87180001D01*
X99451451Y-87140699D01*
X99451451Y-86580000D01*
X99450000Y-86565267D01*
X99450000Y-85254733D01*
X99451451Y-85240000D01*
X99451451Y-84679303D01*
X99455322Y-84640001D01*
X99451451Y-84600699D01*
X99451451Y-84040000D01*
X99450000Y-84025267D01*
X99450000Y-83570000D01*
X99650000Y-83570000D01*
X99650000Y-102390000D01*
G36*
X92000000Y-77507406D02*
G01*
X91658378Y-76790000D01*
X92341622Y-76790000D01*
X92000000Y-77507406D01*
G37*
X92000000Y-77507406D02*
X91658378Y-76790000D01*
X92341622Y-76790000D01*
X92000000Y-77507406D01*
M02*
