<?xml version="1.0" encoding="UTF-8" standalone="no"?>
<svg
   xmlns:dc="http://purl.org/dc/elements/1.1/"
   xmlns:cc="http://creativecommons.org/ns#"
   xmlns:rdf="http://www.w3.org/1999/02/22-rdf-syntax-ns#"
   xmlns:svg="http://www.w3.org/2000/svg"
   xmlns="http://www.w3.org/2000/svg"
   xmlns:sodipodi="http://sodipodi.sourceforge.net/DTD/sodipodi-0.dtd"
   xmlns:inkscape="http://www.inkscape.org/namespaces/inkscape"
   width="210mm"
   height="297mm"
   viewBox="0 0 210 297"
   version="1.1"
   id="svg8"
   inkscape:version="1.0beta2 (2b71d25, 2019-12-03)"
   sodipodi:docname="drawing.svg">
  <defs
     id="defs2" />
  <sodipodi:namedview
     id="base"
     pagecolor="#ffffff"
     bordercolor="#666666"
     borderopacity="1.0"
     inkscape:pageopacity="0.0"
     inkscape:pageshadow="2"
     inkscape:zoom="5.5734896"
     inkscape:cx="386.11698"
     inkscape:cy="523.9349"
     inkscape:document-units="mm"
     inkscape:current-layer="g604"
     inkscape:document-rotation="0"
     showgrid="false"
     inkscape:window-width="1280"
     inkscape:window-height="755"
     inkscape:window-x="0"
     inkscape:window-y="23"
     inkscape:window-maximized="0" />
  <metadata
     id="metadata5">
    <rdf:RDF>
      <cc:Work
         rdf:about="">
        <dc:format>image/svg+xml</dc:format>
        <dc:type
           rdf:resource="http://purl.org/dc/dcmitype/StillImage" />
        <dc:title />
      </cc:Work>
    </rdf:RDF>
  </metadata>
  <g
     inkscape:label="Layer 1"
     inkscape:groupmode="layer"
     id="layer1">
    <g
       id="g750"
       transform="matrix(0.00254,0,0,0.00254,12.322628,50.606721)">
      <g
         id="g334"
         style="fill:#000000;fill-opacity:1;stroke:#000000;stroke-linecap:round;stroke-linejoin:round;stroke-opacity:1" />
      <g
         id="g336"
         style="fill:#000000;fill-opacity:0;stroke:#000000;stroke-width:-0.000393701;stroke-linecap:round;stroke-linejoin:round;stroke-opacity:1" />
      <g
         id="g604"
         style="fill:#000000;fill-opacity:0;stroke:#000000;stroke-width:3.93701;stroke-linecap:round;stroke-linejoin:round;stroke-opacity:1">
        <g
           id="g943"
           style="opacity:0.1">
          <path
             d="m 39133.842,30901.6 a 78.740196,78.740196 0 0 1 -78.74,78.74 78.740196,78.740196 0 0 1 -78.741,-78.74 78.740196,78.740196 0 0 1 78.741,-78.741 78.740196,78.740196 0 0 1 78.74,78.741"
             style=""
             id="circle338" />
          <path
             d="m 38897.639,30901.6 a 78.740196,78.740196 0 0 1 -78.741,78.74 78.740196,78.740196 0 0 1 -78.74,-78.74 78.740196,78.740196 0 0 1 78.74,-78.741 78.740196,78.740196 0 0 1 78.741,78.741"
             style=""
             id="circle340" />
          <path
             d="m 38425.24,30901.6 a 78.740196,78.740196 0 0 1 -78.74,78.74 78.740196,78.740196 0 0 1 -78.74,-78.74 78.740196,78.740196 0 0 1 78.74,-78.741 78.740196,78.740196 0 0 1 78.74,78.741"
             style=""
             id="circle342" />
          <path
             d="m 38188.939,30901.6 a 78.740196,78.740196 0 0 1 -78.74,78.74 78.740196,78.740196 0 0 1 -78.74,-78.74 78.740196,78.740196 0 0 1 78.74,-78.741 78.740196,78.740196 0 0 1 78.74,78.741"
             style=""
             id="circle344" />
          <path
             d="m 38661.439,30901.6 a 78.740196,78.740196 0 0 1 -78.74,78.74 78.740196,78.740196 0 0 1 -78.74,-78.74 78.740196,78.740196 0 0 1 78.74,-78.741 78.740196,78.740196 0 0 1 78.74,78.741"
             style=""
             id="circle346" />
          <path
             d="m 37480.342,30901.6 a 78.740196,78.740196 0 0 1 -78.74,78.74 78.740196,78.740196 0 0 1 -78.741,-78.74 78.740196,78.740196 0 0 1 78.741,-78.741 78.740196,78.740196 0 0 1 78.74,78.741"
             style=""
             id="circle348" />
          <path
             d="m 37244.139,30901.6 a 78.740196,78.740196 0 0 1 -78.741,78.74 78.740196,78.740196 0 0 1 -78.74,-78.74 78.740196,78.740196 0 0 1 78.74,-78.741 78.740196,78.740196 0 0 1 78.741,78.741"
             style=""
             id="circle350" />
          <path
             d="m 37952.74,30901.6 a 78.740196,78.740196 0 0 1 -78.74,78.74 78.740196,78.740196 0 0 1 -78.74,-78.74 78.740196,78.740196 0 0 1 78.74,-78.741 78.740196,78.740196 0 0 1 78.74,78.741"
             style=""
             id="circle352" />
          <path
             d="m 37716.541,30901.6 a 78.740196,78.740196 0 0 1 -78.74,78.74 78.740196,78.740196 0 0 1 -78.74,-78.74 78.740196,78.740196 0 0 1 78.74,-78.741 78.740196,78.740196 0 0 1 78.74,78.741"
             style=""
             id="circle354" />
          <path
             d="m 33464.541,30901.6 a 78.740196,78.740196 0 0 1 -78.74,78.74 78.740196,78.740196 0 0 1 -78.74,-78.74 78.740196,78.740196 0 0 1 78.74,-78.741 78.740196,78.740196 0 0 1 78.74,78.741"
             style=""
             id="circle356" />
          <path
             d="m 33700.74,30901.6 a 78.740196,78.740196 0 0 1 -78.74,78.74 78.740196,78.740196 0 0 1 -78.74,-78.74 78.740196,78.740196 0 0 1 78.74,-78.741 78.740196,78.740196 0 0 1 78.74,78.741"
             style=""
             id="circle358" />
          <path
             d="m 34173.24,30901.6 a 78.740196,78.740196 0 0 1 -78.74,78.74 78.740196,78.740196 0 0 1 -78.74,-78.74 78.740196,78.740196 0 0 1 78.74,-78.741 78.740196,78.740196 0 0 1 78.74,78.741"
             style=""
             id="circle360" />
          <path
             d="m 33937.041,30901.6 a 78.740196,78.740196 0 0 1 -78.74,78.74 78.740196,78.740196 0 0 1 -78.74,-78.74 78.740196,78.740196 0 0 1 78.74,-78.741 78.740196,78.740196 0 0 1 78.74,78.741"
             style=""
             id="circle362" />
          <path
             d="m 34881.842,30901.6 a 78.740196,78.740196 0 0 1 -78.74,78.74 78.740196,78.740196 0 0 1 -78.741,-78.74 78.740196,78.740196 0 0 1 78.741,-78.741 78.740196,78.740196 0 0 1 78.74,78.741"
             style=""
             id="circle364" />
          <path
             d="m 34409.439,30901.6 a 78.740196,78.740196 0 0 1 -78.74,78.74 78.740196,78.740196 0 0 1 -78.74,-78.74 78.740196,78.740196 0 0 1 78.74,-78.741 78.740196,78.740196 0 0 1 78.74,78.741"
             style=""
             id="circle366" />
          <path
             d="m 34645.639,30901.6 a 78.740196,78.740196 0 0 1 -78.741,78.74 78.740196,78.740196 0 0 1 -78.74,-78.74 78.740196,78.740196 0 0 1 78.74,-78.741 78.740196,78.740196 0 0 1 78.741,78.741"
             style=""
             id="circle368" />
          <path
             d="m 35118.139,30901.6 a 78.740196,78.740196 0 0 1 -78.741,78.74 78.740196,78.740196 0 0 1 -78.74,-78.74 78.740196,78.740196 0 0 1 78.74,-78.741 78.740196,78.740196 0 0 1 78.741,78.741"
             style=""
             id="circle370" />
          <path
             d="m 35826.74,30901.6 a 78.740196,78.740196 0 0 1 -78.74,78.74 78.740196,78.740196 0 0 1 -78.74,-78.74 78.740196,78.740196 0 0 1 78.74,-78.741 78.740196,78.740196 0 0 1 78.74,78.741"
             style=""
             id="circle372" />
          <path
             d="m 35354.342,30901.6 a 78.740196,78.740196 0 0 1 -78.74,78.74 78.740196,78.740196 0 0 1 -78.741,-78.74 78.740196,78.740196 0 0 1 78.741,-78.741 78.740196,78.740196 0 0 1 78.74,78.741"
             style=""
             id="circle374" />
          <path
             d="m 36063.041,30901.6 a 78.740196,78.740196 0 0 1 -78.74,78.74 78.740196,78.740196 0 0 1 -78.74,-78.74 78.740196,78.740196 0 0 1 78.74,-78.741 78.740196,78.740196 0 0 1 78.74,78.741"
             style=""
             id="circle376" />
          <path
             d="m 35590.541,30901.6 a 78.740196,78.740196 0 0 1 -78.74,78.74 78.740196,78.740196 0 0 1 -78.74,-78.74 78.740196,78.740196 0 0 1 78.74,-78.741 78.740196,78.740196 0 0 1 78.74,78.741"
             style=""
             id="circle378" />
          <path
             d="m 37007.842,30901.6 a 78.740196,78.740196 0 0 1 -78.74,78.74 78.740196,78.740196 0 0 1 -78.741,-78.74 78.740196,78.740196 0 0 1 78.741,-78.741 78.740196,78.740196 0 0 1 78.74,78.741"
             style=""
             id="circle380" />
          <path
             d="m 36771.639,30901.6 a 78.740196,78.740196 0 0 1 -78.741,78.74 78.740196,78.740196 0 0 1 -78.74,-78.74 78.740196,78.740196 0 0 1 78.74,-78.741 78.740196,78.740196 0 0 1 78.741,78.741"
             style=""
             id="circle382" />
          <path
             d="m 36535.439,30901.6 a 78.740196,78.740196 0 0 1 -78.74,78.74 78.740196,78.740196 0 0 1 -78.74,-78.74 78.740196,78.740196 0 0 1 78.74,-78.741 78.740196,78.740196 0 0 1 78.74,78.741"
             style=""
             id="circle384" />
          <path
             d="m 36299.24,30901.6 a 78.740196,78.740196 0 0 1 -78.74,78.74 78.740196,78.740196 0 0 1 -78.74,-78.74 78.740196,78.740196 0 0 1 78.74,-78.741 78.740196,78.740196 0 0 1 78.74,78.741"
             style=""
             id="circle386" />
          <path
             inkscape:connector-curvature="0"
             d="M 33267,41728 V 27948"
             id="path388"
             style="" />
          <path
             inkscape:connector-curvature="0"
             d="M 39173,27948 V 41728"
             id="path390"
             style="" />
          <path
             inkscape:connector-curvature="0"
             d="M 39173,41728 H 33267"
             id="path392"
             style="" />
          <path
             inkscape:connector-curvature="0"
             d="m 33267,27948 h 5906"
             id="path394"
             style="" />
          <g
             id="g396"
             style="" />
          <g
             id="g398"
             style="" />
          <g
             style="fill:#000000;fill-opacity:0;stroke:#000000;stroke-width:3.93701;stroke-linecap:round;stroke-linejoin:round;stroke-opacity:1"
             id="g400" />
          <g
             style="fill:#000000;fill-opacity:1;stroke:#000000;stroke-width:0;stroke-linecap:round;stroke-linejoin:round;stroke-opacity:1"
             id="g404">
            <path
               d="m 38779.498,29523.6 a 1181.1,1181.1 0 0 1 -1181.1,1181.1 1181.1,1181.1 0 0 1 -1181.1,-1181.1 1181.1,1181.1 0 0 1 1181.1,-1181.1 1181.1,1181.1 0 0 1 1181.1,1181.1"
               style=""
               id="circle402" />
          </g>
          <g
             style="fill:#000000;fill-opacity:1;stroke:#000000;stroke-width:39.3701;stroke-linecap:round;stroke-linejoin:round;stroke-opacity:1"
             id="g406" />
          <g
             style="fill:#000000;fill-opacity:1;stroke:#000000;stroke-width:0;stroke-linecap:round;stroke-linejoin:round;stroke-opacity:1"
             id="g410">
            <path
               d="m 38700.781,29523.6 a 157.48,157.48 0 0 1 -157.48,157.48 157.48,157.48 0 0 1 -157.48,-157.48 157.48,157.48 0 0 1 157.48,-157.48 157.48,157.48 0 0 1 157.48,157.48"
               style=""
               id="circle408" />
          </g>
          <g
             style="fill:#000000;fill-opacity:1;stroke:#000000;stroke-width:39.3701;stroke-linecap:round;stroke-linejoin:round;stroke-opacity:1"
             id="g412" />
          <g
             style="fill:#000000;fill-opacity:1;stroke:#000000;stroke-width:0;stroke-linecap:round;stroke-linejoin:round;stroke-opacity:1"
             id="g416">
            <path
               d="m 38424.082,30191.801 a 157.48,157.48 0 0 1 -157.48,157.48 157.48,157.48 0 0 1 -157.48,-157.48 157.48,157.48 0 0 1 157.48,-157.48 157.48,157.48 0 0 1 157.48,157.48"
               style=""
               id="circle414" />
          </g>
          <g
             style="fill:#000000;fill-opacity:1;stroke:#000000;stroke-width:39.3701;stroke-linecap:round;stroke-linejoin:round;stroke-opacity:1"
             id="g418" />
          <g
             style="fill:#000000;fill-opacity:1;stroke:#000000;stroke-width:0;stroke-linecap:round;stroke-linejoin:round;stroke-opacity:1"
             id="g422">
            <path
               d="m 37755.878,30468.5 a 157.48,157.48 0 0 1 -157.48,157.48 157.48,157.48 0 0 1 -157.48,-157.48 157.48,157.48 0 0 1 157.48,-157.48 157.48,157.48 0 0 1 157.48,157.48"
               style=""
               id="circle420" />
          </g>
          <g
             style="fill:#000000;fill-opacity:1;stroke:#000000;stroke-width:39.3701;stroke-linecap:round;stroke-linejoin:round;stroke-opacity:1"
             id="g424" />
          <g
             style="fill:#000000;fill-opacity:1;stroke:#000000;stroke-width:0;stroke-linecap:round;stroke-linejoin:round;stroke-opacity:1"
             id="g428">
            <path
               d="m 37087.781,30191.801 a 157.48,157.48 0 0 1 -157.48,157.48 157.48,157.48 0 0 1 -157.48,-157.48 157.48,157.48 0 0 1 157.48,-157.48 157.48,157.48 0 0 1 157.48,157.48"
               style=""
               id="circle426" />
          </g>
          <g
             style="fill:#000000;fill-opacity:1;stroke:#000000;stroke-width:39.3701;stroke-linecap:round;stroke-linejoin:round;stroke-opacity:1"
             id="g430" />
          <g
             style="fill:#000000;fill-opacity:1;stroke:#000000;stroke-width:0;stroke-linecap:round;stroke-linejoin:round;stroke-opacity:1"
             id="g434">
            <path
               d="m 36810.98,29523.6 a 157.48,157.48 0 0 1 -157.48,157.48 157.48,157.48 0 0 1 -157.48,-157.48 157.48,157.48 0 0 1 157.48,-157.48 157.48,157.48 0 0 1 157.48,157.48"
               style=""
               id="circle432" />
          </g>
          <g
             style="fill:#000000;fill-opacity:1;stroke:#000000;stroke-width:39.3701;stroke-linecap:round;stroke-linejoin:round;stroke-opacity:1"
             id="g436" />
          <g
             style="fill:#000000;fill-opacity:1;stroke:#000000;stroke-width:0;stroke-linecap:round;stroke-linejoin:round;stroke-opacity:1"
             id="g440">
            <path
               d="m 37087.781,28855.5 a 157.48,157.48 0 0 1 -157.48,157.48 157.48,157.48 0 0 1 -157.48,-157.48 157.48,157.48 0 0 1 157.48,-157.48 157.48,157.48 0 0 1 157.48,157.48"
               style=""
               id="circle438" />
          </g>
          <g
             style="fill:#000000;fill-opacity:1;stroke:#000000;stroke-width:39.3701;stroke-linecap:round;stroke-linejoin:round;stroke-opacity:1"
             id="g442" />
          <g
             style="fill:#000000;fill-opacity:1;stroke:#000000;stroke-width:0;stroke-linecap:round;stroke-linejoin:round;stroke-opacity:1"
             id="g446">
            <path
               d="m 37755.878,28578.699 a 157.48,157.48 0 0 1 -157.48,157.48 157.48,157.48 0 0 1 -157.48,-157.48 157.48,157.48 0 0 1 157.48,-157.48 157.48,157.48 0 0 1 157.48,157.48"
               style=""
               id="circle444" />
          </g>
          <g
             style="fill:#000000;fill-opacity:1;stroke:#000000;stroke-width:39.3701;stroke-linecap:round;stroke-linejoin:round;stroke-opacity:1"
             id="g448" />
          <g
             style="fill:#000000;fill-opacity:1;stroke:#000000;stroke-width:0;stroke-linecap:round;stroke-linejoin:round;stroke-opacity:1"
             id="g452">
            <path
               d="m 38424.082,28855.5 a 157.48,157.48 0 0 1 -157.48,157.48 157.48,157.48 0 0 1 -157.48,-157.48 157.48,157.48 0 0 1 157.48,-157.48 157.48,157.48 0 0 1 157.48,157.48"
               style=""
               id="circle450" />
          </g>
          <g
             style="fill:#000000;fill-opacity:1;stroke:#000000;stroke-width:39.3701;stroke-linecap:round;stroke-linejoin:round;stroke-opacity:1"
             id="g454" />
          <g
             id="g456"
             style="" />
          <g
             style="fill:#000000;fill-opacity:1;stroke:#000000;stroke-width:39.3701;stroke-linecap:round;stroke-linejoin:round;stroke-opacity:1"
             id="g458" />
          <g
             style="fill:#000000;fill-opacity:1;stroke:#000000;stroke-width:0;stroke-linecap:round;stroke-linejoin:round;stroke-opacity:1"
             id="g462">
            <path
               d="m 36417.35,30429.1 a 196.85001,196.85001 0 0 1 -196.85,196.85 196.85001,196.85001 0 0 1 -196.85,-196.85 196.85001,196.85001 0 0 1 196.85,-196.85 196.85001,196.85001 0 0 1 196.85,196.85"
               style=""
               id="circle460" />
          </g>
          <g
             style="fill:#000000;fill-opacity:1;stroke:#000000;stroke-width:39.3701;stroke-linecap:round;stroke-linejoin:round;stroke-opacity:1"
             id="g464" />
          <g
             id="g466"
             style="" />
          <g
             style="fill:#000000;fill-opacity:1;stroke:#000000;stroke-width:39.3701;stroke-linecap:round;stroke-linejoin:round;stroke-opacity:1"
             id="g468" />
          <g
             style="fill:#000000;fill-opacity:1;stroke:#000000;stroke-width:0;stroke-linecap:round;stroke-linejoin:round;stroke-opacity:1"
             id="g472">
            <path
               d="m 36023.6,29523.6 a 1181.1,1181.1 0 0 1 -1181.1,1181.1 1181.1,1181.1 0 0 1 -1181.1,-1181.1 1181.1,1181.1 0 0 1 1181.1,-1181.1 1181.1,1181.1 0 0 1 1181.1,1181.1"
               style=""
               id="circle470" />
          </g>
          <g
             style="fill:#000000;fill-opacity:1;stroke:#000000;stroke-width:39.3701;stroke-linecap:round;stroke-linejoin:round;stroke-opacity:1"
             id="g474" />
          <g
             style="fill:#000000;fill-opacity:1;stroke:#000000;stroke-width:0;stroke-linecap:round;stroke-linejoin:round;stroke-opacity:1"
             id="g478">
            <path
               d="m 35944.878,29523.6 a 157.48,157.48 0 0 1 -157.48,157.48 157.48,157.48 0 0 1 -157.48,-157.48 157.48,157.48 0 0 1 157.48,-157.48 157.48,157.48 0 0 1 157.48,157.48"
               style=""
               id="circle476" />
          </g>
          <g
             style="fill:#000000;fill-opacity:1;stroke:#000000;stroke-width:39.3701;stroke-linecap:round;stroke-linejoin:round;stroke-opacity:1"
             id="g480" />
          <g
             style="fill:#000000;fill-opacity:1;stroke:#000000;stroke-width:0;stroke-linecap:round;stroke-linejoin:round;stroke-opacity:1"
             id="g484">
            <path
               d="m 35668.179,30191.801 a 157.48,157.48 0 0 1 -157.48,157.48 157.48,157.48 0 0 1 -157.48,-157.48 157.48,157.48 0 0 1 157.48,-157.48 157.48,157.48 0 0 1 157.48,157.48"
               style=""
               id="circle482" />
          </g>
          <g
             style="fill:#000000;fill-opacity:1;stroke:#000000;stroke-width:39.3701;stroke-linecap:round;stroke-linejoin:round;stroke-opacity:1"
             id="g486" />
          <g
             style="fill:#000000;fill-opacity:1;stroke:#000000;stroke-width:0;stroke-linecap:round;stroke-linejoin:round;stroke-opacity:1"
             id="g490">
            <path
               d="m 34999.98,30468.5 a 157.48,157.48 0 0 1 -157.48,157.48 157.48,157.48 0 0 1 -157.48,-157.48 157.48,157.48 0 0 1 157.48,-157.48 157.48,157.48 0 0 1 157.48,157.48"
               style=""
               id="circle488" />
          </g>
          <g
             style="fill:#000000;fill-opacity:1;stroke:#000000;stroke-width:39.3701;stroke-linecap:round;stroke-linejoin:round;stroke-opacity:1"
             id="g492" />
          <g
             style="fill:#000000;fill-opacity:1;stroke:#000000;stroke-width:0;stroke-linecap:round;stroke-linejoin:round;stroke-opacity:1"
             id="g496">
            <path
               d="m 34331.878,30191.801 a 157.48,157.48 0 0 1 -157.48,157.48 157.48,157.48 0 0 1 -157.48,-157.48 157.48,157.48 0 0 1 157.48,-157.48 157.48,157.48 0 0 1 157.48,157.48"
               style=""
               id="circle494" />
          </g>
          <g
             style="fill:#000000;fill-opacity:1;stroke:#000000;stroke-width:39.3701;stroke-linecap:round;stroke-linejoin:round;stroke-opacity:1"
             id="g498" />
          <g
             style="fill:#000000;fill-opacity:1;stroke:#000000;stroke-width:0;stroke-linecap:round;stroke-linejoin:round;stroke-opacity:1"
             id="g502">
            <path
               d="m 34055.082,29523.6 a 157.48,157.48 0 0 1 -157.48,157.48 157.48,157.48 0 0 1 -157.48,-157.48 157.48,157.48 0 0 1 157.48,-157.48 157.48,157.48 0 0 1 157.48,157.48"
               style=""
               id="circle500" />
          </g>
          <g
             style="fill:#000000;fill-opacity:1;stroke:#000000;stroke-width:39.3701;stroke-linecap:round;stroke-linejoin:round;stroke-opacity:1"
             id="g504" />
          <g
             style="fill:#000000;fill-opacity:1;stroke:#000000;stroke-width:0;stroke-linecap:round;stroke-linejoin:round;stroke-opacity:1"
             id="g508">
            <path
               d="m 34331.878,28855.5 a 157.48,157.48 0 0 1 -157.48,157.48 157.48,157.48 0 0 1 -157.48,-157.48 157.48,157.48 0 0 1 157.48,-157.48 157.48,157.48 0 0 1 157.48,157.48"
               style=""
               id="circle506" />
          </g>
          <g
             style="fill:#000000;fill-opacity:1;stroke:#000000;stroke-width:39.3701;stroke-linecap:round;stroke-linejoin:round;stroke-opacity:1"
             id="g510" />
          <g
             style="fill:#000000;fill-opacity:1;stroke:#000000;stroke-width:0;stroke-linecap:round;stroke-linejoin:round;stroke-opacity:1"
             id="g514">
            <path
               d="m 34999.98,28578.699 a 157.48,157.48 0 0 1 -157.48,157.48 157.48,157.48 0 0 1 -157.48,-157.48 157.48,157.48 0 0 1 157.48,-157.48 157.48,157.48 0 0 1 157.48,157.48"
               style=""
               id="circle512" />
          </g>
          <g
             style="fill:#000000;fill-opacity:1;stroke:#000000;stroke-width:39.3701;stroke-linecap:round;stroke-linejoin:round;stroke-opacity:1"
             id="g516" />
          <g
             style="fill:#000000;fill-opacity:1;stroke:#000000;stroke-width:0;stroke-linecap:round;stroke-linejoin:round;stroke-opacity:1"
             id="g520">
            <path
               d="m 35668.179,28855.5 a 157.48,157.48 0 0 1 -157.48,157.48 157.48,157.48 0 0 1 -157.48,-157.48 157.48,157.48 0 0 1 157.48,-157.48 157.48,157.48 0 0 1 157.48,157.48"
               style=""
               id="circle518" />
          </g>
          <g
             style="fill:#000000;fill-opacity:1;stroke:#000000;stroke-width:39.3701;stroke-linecap:round;stroke-linejoin:round;stroke-opacity:1"
             id="g522" />
          <g
             id="g524"
             style="" />
          <g
             id="g526"
             style="" />
          <g
             style="fill:#000000;fill-opacity:1;stroke:#000000;stroke-width:39.3701;stroke-linecap:round;stroke-linejoin:round;stroke-opacity:1"
             id="g528" />
          <g
             style="fill:#000000;fill-opacity:1;stroke:#000000;stroke-width:0;stroke-linecap:round;stroke-linejoin:round;stroke-opacity:1"
             id="g546">
            <path
               inkscape:connector-curvature="0"
               style="fill:#000000;fill-opacity:1;fill-rule:evenodd;stroke:#000000;stroke-width:0;stroke-linecap:round;stroke-linejoin:round;stroke-opacity:1"
               d="m 35035.4,38389.8 v 629.9 h -629.9 v -629.9 z"
               id="path530" />
            <path
               inkscape:connector-curvature="0"
               style="fill:#000000;fill-opacity:1;fill-rule:evenodd;stroke:#000000;stroke-width:0;stroke-linecap:round;stroke-linejoin:round;stroke-opacity:1"
               d="m 35035.4,37389.8 v 629.9 h -629.9 v -629.9 z"
               id="path532" />
            <path
               inkscape:connector-curvature="0"
               style="fill:#000000;fill-opacity:1;fill-rule:evenodd;stroke:#000000;stroke-width:0;stroke-linecap:round;stroke-linejoin:round;stroke-opacity:1"
               d="m 35035.4,36389.8 v 629.9 h -629.9 v -629.9 z"
               id="path534" />
            <path
               inkscape:connector-curvature="0"
               style="fill:#000000;fill-opacity:1;fill-rule:evenodd;stroke:#000000;stroke-width:0;stroke-linecap:round;stroke-linejoin:round;stroke-opacity:1"
               d="m 35035.4,35389.8 v 629.9 h -629.9 v -629.9 z"
               id="path536" />
            <path
               inkscape:connector-curvature="0"
               style="fill:#000000;fill-opacity:1;fill-rule:evenodd;stroke:#000000;stroke-width:0;stroke-linecap:round;stroke-linejoin:round;stroke-opacity:1"
               d="m 35035.4,34389.8 v 629.9 h -629.9 v -629.9 z"
               id="path538" />
            <path
               inkscape:connector-curvature="0"
               style="fill:#000000;fill-opacity:1;fill-rule:evenodd;stroke:#000000;stroke-width:0;stroke-linecap:round;stroke-linejoin:round;stroke-opacity:1"
               d="m 35035.4,33389.8 v 629.9 h -629.9 v -629.9 z"
               id="path540" />
            <path
               inkscape:connector-curvature="0"
               style="fill:#000000;fill-opacity:1;fill-rule:evenodd;stroke:#000000;stroke-width:0;stroke-linecap:round;stroke-linejoin:round;stroke-opacity:1"
               d="m 35035.4,32389.8 v 629.9 h -629.9 v -629.9 z"
               id="path542" />
            <path
               inkscape:connector-curvature="0"
               style="fill:#000000;fill-opacity:1;fill-rule:evenodd;stroke:#000000;stroke-width:0;stroke-linecap:round;stroke-linejoin:round;stroke-opacity:1"
               d="m 35035.4,31389.8 v 629.9 h -629.9 v -629.9 z"
               id="path544" />
          </g>
          <g
             id="g548"
             style="" />
          <g
             style="fill:#000000;fill-opacity:1;stroke:#000000;stroke-width:0;stroke-linecap:round;stroke-linejoin:round;stroke-opacity:1"
             id="g566">
            <path
               inkscape:connector-curvature="0"
               style="fill:#000000;fill-opacity:1;fill-rule:evenodd;stroke:#000000;stroke-width:0;stroke-linecap:round;stroke-linejoin:round;stroke-opacity:1"
               d="m 38035.4,38389.8 v 629.9 h -629.9 v -629.9 z"
               id="path550" />
            <path
               inkscape:connector-curvature="0"
               style="fill:#000000;fill-opacity:1;fill-rule:evenodd;stroke:#000000;stroke-width:0;stroke-linecap:round;stroke-linejoin:round;stroke-opacity:1"
               d="m 38035.4,37389.8 v 629.9 h -629.9 v -629.9 z"
               id="path552" />
            <path
               inkscape:connector-curvature="0"
               style="fill:#000000;fill-opacity:1;fill-rule:evenodd;stroke:#000000;stroke-width:0;stroke-linecap:round;stroke-linejoin:round;stroke-opacity:1"
               d="m 38035.4,36389.8 v 629.9 h -629.9 v -629.9 z"
               id="path554" />
            <path
               inkscape:connector-curvature="0"
               style="fill:#000000;fill-opacity:1;fill-rule:evenodd;stroke:#000000;stroke-width:0;stroke-linecap:round;stroke-linejoin:round;stroke-opacity:1"
               d="m 38035.4,35389.8 v 629.9 h -629.9 v -629.9 z"
               id="path556" />
            <path
               inkscape:connector-curvature="0"
               style="fill:#000000;fill-opacity:1;fill-rule:evenodd;stroke:#000000;stroke-width:0;stroke-linecap:round;stroke-linejoin:round;stroke-opacity:1"
               d="m 38035.4,34389.8 v 629.9 h -629.9 v -629.9 z"
               id="path558" />
            <path
               inkscape:connector-curvature="0"
               style="fill:#000000;fill-opacity:1;fill-rule:evenodd;stroke:#000000;stroke-width:0;stroke-linecap:round;stroke-linejoin:round;stroke-opacity:1"
               d="m 38035.4,33389.8 v 629.9 h -629.9 v -629.9 z"
               id="path560" />
            <path
               inkscape:connector-curvature="0"
               style="fill:#000000;fill-opacity:1;fill-rule:evenodd;stroke:#000000;stroke-width:0;stroke-linecap:round;stroke-linejoin:round;stroke-opacity:1"
               d="m 38035.4,32389.8 v 629.9 h -629.9 v -629.9 z"
               id="path562" />
            <path
               inkscape:connector-curvature="0"
               style="fill:#000000;fill-opacity:1;fill-rule:evenodd;stroke:#000000;stroke-width:0;stroke-linecap:round;stroke-linejoin:round;stroke-opacity:1"
               d="m 38035.4,31389.8 v 629.9 h -629.9 v -629.9 z"
               id="path564" />
          </g>
          <g
             id="g568"
             style="" />
          <g
             id="g570"
             style="" />
          <g
             id="g572"
             style="" />
          <g
             style="fill:#000000;fill-opacity:1;stroke:#000000;stroke-width:0;stroke-linecap:round;stroke-linejoin:round;stroke-opacity:1"
             id="g574" />
          <g
             style="fill:#000000;fill-opacity:1;stroke:#000000;stroke-width:629.921;stroke-linecap:round;stroke-linejoin:round;stroke-opacity:1"
             id="g576" />
          <g
             style="fill:#000000;fill-opacity:0;stroke:#000000;stroke-width:629.921;stroke-linecap:round;stroke-linejoin:round;stroke-opacity:1"
             id="g592">
            <path
               inkscape:connector-curvature="0"
               d="M 37720,37704 H 34720"
               id="path578"
               style="" />
            <path
               inkscape:connector-curvature="0"
               d="m 34720,36704 h 3000"
               id="path580"
               style="" />
            <path
               inkscape:connector-curvature="0"
               d="M 37720,35704 H 34720"
               id="path582"
               style="" />
            <path
               inkscape:connector-curvature="0"
               d="m 34720,34704 h 3000"
               id="path584"
               style="" />
            <path
               inkscape:connector-curvature="0"
               d="M 37720,33704 H 34720"
               id="path586"
               style="" />
            <path
               inkscape:connector-curvature="0"
               d="m 34720,32704 h 3000"
               id="path588"
               style="" />
            <path
               inkscape:connector-curvature="0"
               d="m 34720,38704 h 3000"
               id="path590"
               style="" />
          </g>
          <g
             id="g594"
             style="" />
          <g
             style="fill:#000000;fill-opacity:0;stroke:#000000;stroke-width:629.921;stroke-linecap:round;stroke-linejoin:round;stroke-opacity:1"
             id="g596" />
          <g
             style="fill:#000000;fill-opacity:1;stroke:#000000;stroke-width:78.7402;stroke-linecap:round;stroke-linejoin:round;stroke-opacity:1"
             id="g602">
            <path
               inkscape:connector-curvature="0"
               style="fill:#000000;fill-opacity:1;fill-rule:evenodd;stroke:#000000;stroke-width:78.7402;stroke-linecap:round;stroke-linejoin:round;stroke-opacity:1"
               d="m 38740.2,32240.2 h -5039.4 v -1102.4 h 5039.4 z"
               id="path598" />
            <path
               inkscape:connector-curvature="0"
               style="fill:#000000;fill-opacity:1;fill-rule:evenodd;stroke:#000000;stroke-width:78.7402;stroke-linecap:round;stroke-linejoin:round;stroke-opacity:1"
               d="m 34286.8,32689.2 -1.5,15.5 1.5,15.5 v 299.5 l 2.3,23.1 6.8,22.3 10.9,20.5 14.8,18 18,14.8 20.5,10.9 22.3,6.8 23.1,2.3 h 629.9 l 5.8,-0.6 h 2358.5 l 5.8,0.6 h 629.9 l 23.2,-2.3 22.3,-6.8 20.5,-10.9 18,-14.8 14.7,-18 11,-20.5 6.7,-22.3 2.3,-23.1 v -299.5 l 1.5,-15.5 -1.5,-15.4 v -260.2 h 586.1 v 5913 2953.2 h -5039.4 v -3590.6 h 584.5 l 1.5,15.5 v 299.5 l 2.3,23.1 6.8,22.3 10.9,20.5 14.8,18 18,14.8 20.5,10.9 22.3,6.8 23.1,2.3 h 629.9 l 5.8,-0.6 h 2358.5 l 5.8,0.6 h 629.9 l 23.2,-2.3 22.3,-6.8 20.5,-10.9 18,-14.8 14.7,-18 11,-20.5 6.7,-22.3 2.3,-23.1 v -299.5 l 1.5,-15.5 -1.5,-15.5 v -299.4 l -2.3,-23.2 -6.7,-22.3 -11,-20.5 -14.7,-18 -18,-14.7 -20.5,-11 -22.3,-6.7 -23.2,-2.3 h -629.9 l -5.8,0.6 h -2358.5 l -5.8,-0.6 h -629.9 l -23.1,2.3 -22.3,6.7 -20.5,11 -18,14.7 -14.8,18 -10.9,20.5 -6.8,22.3 -2.3,23.2 v 299.5 l -1.5,15.4 h -584.5 v -1000 h 584.5 l 1.5,15.5 v 299.5 l 2.3,23.1 6.8,22.3 10.9,20.5 14.8,18 18,14.8 20.5,10.9 22.3,6.8 23.1,2.3 h 629.9 l 5.8,-0.6 h 2358.5 l 5.8,0.6 h 629.9 l 23.2,-2.3 22.3,-6.8 20.5,-10.9 18,-14.8 14.7,-18 11,-20.5 6.7,-22.3 2.3,-23.1 v -299.5 l 1.5,-15.5 -1.5,-15.4 v -299.5 l -2.3,-23.2 -6.7,-22.3 -11,-20.5 -14.7,-18 -18,-14.7 -20.5,-11 -22.3,-6.7 -23.2,-2.3 h -629.9 l -5.8,0.6 h -2358.5 l -5.8,-0.6 h -629.9 l -23.1,2.3 -22.3,6.7 -20.5,11 -18,14.7 -14.8,18 -10.9,20.5 -6.8,22.3 -2.3,23.2 v 299.4 l -1.5,15.5 h -584.5 v -1000 h 584.5 l 1.5,15.5 v 299.5 l 2.3,23.1 6.8,22.3 10.9,20.5 14.8,18 18,14.8 20.5,10.9 22.3,6.8 23.1,2.3 h 629.9 l 5.8,-0.6 h 2358.5 l 5.8,0.6 h 629.9 l 23.2,-2.3 22.3,-6.8 20.5,-10.9 18,-14.8 14.7,-18 11,-20.5 6.7,-22.3 2.3,-23.1 v -299.5 l 1.5,-15.5 -1.5,-15.4 v -299.5 l -2.3,-23.2 -6.7,-22.3 -11,-20.5 -14.7,-18 -18,-14.7 -20.5,-11 -22.3,-6.7 -23.2,-2.3 h -629.9 l -5.8,0.6 h -2358.5 l -5.8,-0.6 h -629.9 l -23.1,2.3 -22.3,6.7 -20.5,11 -18,14.7 -14.8,18 -10.9,20.5 -6.8,22.3 -2.3,23.2 v 299.4 l -1.5,15.5 h -584.5 v -1000 h 584.5 l 1.5,15.5 v 299.5 l 2.3,23.1 6.8,22.3 10.9,20.5 14.8,18 18,14.8 20.5,10.9 22.3,6.8 23.1,2.3 h 629.9 l 5.8,-0.6 h 2358.5 l 5.8,0.6 h 629.9 l 23.2,-2.3 22.3,-6.8 20.5,-10.9 18,-14.8 14.7,-18 11,-20.5 6.7,-22.3 2.3,-23.1 v -299.5 l 1.5,-15.5 -1.5,-15.4 v -299.5 l -2.3,-23.2 -6.7,-22.3 -11,-20.5 -14.7,-18 -18,-14.7 -20.5,-11 -22.3,-6.7 -23.2,-2.3 h -629.9 l -5.8,0.6 h -2358.5 l -5.8,-0.6 h -629.9 l -23.1,2.3 -22.3,6.7 -20.5,11 -18,14.7 -14.8,18 -10.9,20.5 -6.8,22.3 -2.3,23.2 v 299.4 l -1.5,15.5 h -584.5 v -1000 h 584.5 l 1.5,15.5 v 299.5 l 2.3,23.1 6.8,22.3 10.9,20.5 14.8,18 18,14.8 20.5,10.9 22.3,6.8 23.1,2.3 h 629.9 l 5.8,-0.6 h 2358.5 l 5.8,0.6 h 629.9 l 23.2,-2.3 22.3,-6.8 20.5,-10.9 18,-14.8 14.7,-18 11,-20.5 6.7,-22.3 2.3,-23.1 v -299.5 l 1.5,-15.5 -1.5,-15.4 v -299.5 l -2.3,-23.2 -6.7,-22.3 -11,-20.5 -14.7,-18 -18,-14.7 -20.5,-11 -22.3,-6.7 -23.2,-2.3 h -629.9 l -5.8,0.6 h -2358.5 l -5.8,-0.6 h -629.9 l -23.1,2.3 -22.3,6.7 -20.5,11 -18,14.7 -14.8,18 -10.9,20.5 -6.8,22.3 -2.3,23.2 v 299.5 l -1.5,15.4 h -584.5 v -1275.6 h 586 z"
               id="path600" />
          </g>
          <g
             transform="matrix(0.53457069,0,0,0.53457069,16216.721,13741.149)"
             id="g754"
             style="fill:#ffffff;fill-opacity:1;stroke:#000000;stroke-width:0;stroke-linecap:round;stroke-linejoin:round;stroke-opacity:1">
            <path
               d="m 36023.6,29523.6 a 1181.1,1181.1 0 0 1 -1181.1,1181.1 1181.1,1181.1 0 0 1 -1181.1,-1181.1 1181.1,1181.1 0 0 1 1181.1,-1181.1 1181.1,1181.1 0 0 1 1181.1,1181.1"
               style="fill:#ffffff"
               id="circle752" />
          </g>
          <g
             style="fill:#ffffff;fill-opacity:1;stroke:#000000;stroke-width:0;stroke-linecap:round;stroke-linejoin:round;stroke-opacity:1"
             id="g758"
             transform="matrix(0.53457069,0,0,0.53457069,18972.619,13741.149)">
            <path
               d="m 36023.6,29523.6 a 1181.1,1181.1 0 0 1 -1181.1,1181.1 1181.1,1181.1 0 0 1 -1181.1,-1181.1 1181.1,1181.1 0 0 1 1181.1,-1181.1 1181.1,1181.1 0 0 1 1181.1,1181.1"
               style="fill:#ffffff"
               id="circle756" />
          </g>
        </g>
        <text
           id="text159"
           y="31911.303"
           x="36189.332"
           style="font-style:normal;font-weight:normal;font-size:625px;line-height:1.59;font-family:sans-serif;fill:#000000;fill-opacity:1;stroke:none;stroke-width:410.105"
           xml:space="preserve"><tspan
             style="font-style:normal;font-variant:normal;font-weight:800;font-stretch:normal;font-family:Muli;-inkscape-font-specification:'Muli Ultra-Bold';text-align:center;letter-spacing:52.0833px;text-anchor:middle;stroke-width:410.105"
             y="31911.303"
             x="36189.332"
             id="tspan157"
             sodipodi:role="line">VDD</tspan><tspan
             id="tspan163"
             style="font-style:normal;font-variant:normal;font-weight:800;font-stretch:normal;font-family:Muli;-inkscape-font-specification:'Muli Ultra-Bold';text-align:center;letter-spacing:52.0833px;text-anchor:middle;stroke-width:410.105"
             y="32913.469"
             x="36189.332"
             sodipodi:role="line">1</tspan><tspan
             id="tspan161"
             style="font-style:normal;font-variant:normal;font-weight:800;font-stretch:normal;font-family:Muli;-inkscape-font-specification:'Muli Ultra-Bold';text-align:center;letter-spacing:52.0833px;text-anchor:middle;stroke-width:410.105"
             y="33915.637"
             x="36189.332"
             sodipodi:role="line">2</tspan><tspan
             id="tspan165"
             style="font-style:normal;font-variant:normal;font-weight:800;font-stretch:normal;font-family:Muli;-inkscape-font-specification:'Muli Ultra-Bold';text-align:center;letter-spacing:52.0833px;text-anchor:middle;stroke-width:410.105"
             y="34917.801"
             x="36189.332"
             sodipodi:role="line">3</tspan><tspan
             id="tspan167"
             style="font-style:normal;font-variant:normal;font-weight:800;font-stretch:normal;font-family:Muli;-inkscape-font-specification:'Muli Ultra-Bold';text-align:center;letter-spacing:52.0833px;text-anchor:middle;stroke-width:410.105"
             y="35919.969"
             x="36189.332"
             sodipodi:role="line">4</tspan><tspan
             id="tspan169"
             style="font-style:normal;font-variant:normal;font-weight:800;font-stretch:normal;font-family:Muli;-inkscape-font-specification:'Muli Ultra-Bold';text-align:center;letter-spacing:52.0833px;text-anchor:middle;stroke-width:410.105"
             y="36922.137"
             x="36189.332"
             sodipodi:role="line">5</tspan><tspan
             id="tspan171"
             style="font-style:normal;font-variant:normal;font-weight:800;font-stretch:normal;font-family:Muli;-inkscape-font-specification:'Muli Ultra-Bold';text-align:center;letter-spacing:52.0833px;text-anchor:middle;stroke-width:410.105"
             y="37924.301"
             x="36189.332"
             sodipodi:role="line">6</tspan><tspan
             id="tspan173"
             style="font-style:normal;font-variant:normal;font-weight:800;font-stretch:normal;font-family:Muli;-inkscape-font-specification:'Muli Ultra-Bold';text-align:center;letter-spacing:52.0833px;text-anchor:middle;stroke-width:410.105"
             y="38926.469"
             x="36215.375"
             sodipodi:role="line">GND</tspan></text>
      </g>
    </g>
  </g>
</svg>
