<?xml version="1.0" encoding="UTF-8" standalone="no"?>
<!-- Created with Inkscape (http://www.inkscape.org/) -->

<svg
   xmlns:dc="http://purl.org/dc/elements/1.1/"
   xmlns:cc="http://creativecommons.org/ns#"
   xmlns:rdf="http://www.w3.org/1999/02/22-rdf-syntax-ns#"
   xmlns:svg="http://www.w3.org/2000/svg"
   xmlns="http://www.w3.org/2000/svg"
   xmlns:sodipodi="http://sodipodi.sourceforge.net/DTD/sodipodi-0.dtd"
   xmlns:inkscape="http://www.inkscape.org/namespaces/inkscape"
   width="210mm"
   height="297mm"
   viewBox="0 0 210 297"
   version="1.1"
   id="svg1223"
   inkscape:version="0.92.2 5c3e80d, 2017-08-06"
   sodipodi:docname="cable.svg">
  <defs
     id="defs1217">
    <style
       id="style1905">.a{fill:#fff;}</style>
  </defs>
  <sodipodi:namedview
     id="base"
     pagecolor="#ffffff"
     bordercolor="#666666"
     borderopacity="1.0"
     inkscape:pageopacity="0.0"
     inkscape:pageshadow="2"
     inkscape:zoom="2"
     inkscape:cx="379.65024"
     inkscape:cy="257.94494"
     inkscape:document-units="mm"
     inkscape:current-layer="layer1"
     showgrid="false"
     inkscape:measure-start="0,0"
     inkscape:measure-end="0,0"
     inkscape:window-width="1440"
     inkscape:window-height="855"
     inkscape:window-x="-1"
     inkscape:window-y="0"
     inkscape:window-maximized="0" />
  <metadata
     id="metadata1220">
    <rdf:RDF>
      <cc:Work
         rdf:about="">
        <dc:format>image/svg+xml</dc:format>
        <dc:type
           rdf:resource="http://purl.org/dc/dcmitype/StillImage" />
        <dc:title></dc:title>
      </cc:Work>
    </rdf:RDF>
  </metadata>
  <g
     inkscape:label="Layer 1"
     inkscape:groupmode="layer"
     id="layer1">
    <rect
       style="opacity:1;fill:#ffffff;fill-opacity:1;stroke:none;stroke-width:4.64749336;stroke-linecap:butt;stroke-linejoin:round;stroke-miterlimit:4;stroke-dasharray:9.29498647, 4.64749326;stroke-dashoffset:0;stroke-opacity:1;paint-order:normal"
       id="rect2198"
       width="104.90343"
       height="47.881615"
       x="47.502979"
       y="206.0365"
       inkscape:export-xdpi="364.57001"
       inkscape:export-ydpi="364.57001" />
    <g
       id="g1945"
       transform="translate(50,-50)">
      <rect
         y="292.5"
         x="-7.1054274e-15"
         height="4.5"
         width="100"
         id="rect1768"
         style="opacity:1;fill:#000000;fill-opacity:1;stroke:none;stroke-width:2.91928053;stroke-linecap:butt;stroke-linejoin:round;stroke-miterlimit:4;stroke-dasharray:5.83856134, 2.91928066;stroke-dashoffset:0;stroke-opacity:1;paint-order:normal" />
      <g
         transform="translate(0,-0.3499817)"
         id="g1834">
        <rect
           style="opacity:1;fill:#fbdd00;fill-opacity:1;stroke:none;stroke-width:6.32435894;stroke-linecap:butt;stroke-linejoin:round;stroke-miterlimit:4;stroke-dasharray:12.64871876, 6.32435937999999975;stroke-dashoffset:0;stroke-opacity:1;paint-order:normal"
           id="rect1770"
           width="4"
           height="0.30000001"
           x="0"
           y="296.69998" />
        <rect
           y="296.20001"
           x="0"
           height="0.30000001"
           width="4"
           id="rect1812"
           style="opacity:1;fill:#fbdd00;fill-opacity:1;stroke:none;stroke-width:6.32435894;stroke-linecap:butt;stroke-linejoin:round;stroke-miterlimit:4;stroke-dasharray:12.64871876, 6.32435937999999975;stroke-dashoffset:0;stroke-opacity:1;paint-order:normal" />
        <rect
           style="opacity:1;fill:#fbdd00;fill-opacity:1;stroke:none;stroke-width:6.32435894;stroke-linecap:butt;stroke-linejoin:round;stroke-miterlimit:4;stroke-dasharray:12.64871876, 6.32435937999999975;stroke-dashoffset:0;stroke-opacity:1;paint-order:normal"
           id="rect1814"
           width="4"
           height="0.30000001"
           x="0"
           y="295.70001" />
        <rect
           y="295.20001"
           x="0"
           height="0.30000001"
           width="4"
           id="rect1816"
           style="opacity:1;fill:#fbdd00;fill-opacity:1;stroke:none;stroke-width:6.32435894;stroke-linecap:butt;stroke-linejoin:round;stroke-miterlimit:4;stroke-dasharray:12.64871876, 6.32435937999999975;stroke-dashoffset:0;stroke-opacity:1;paint-order:normal" />
        <rect
           style="opacity:1;fill:#fbdd00;fill-opacity:1;stroke:none;stroke-width:6.32435894;stroke-linecap:butt;stroke-linejoin:round;stroke-miterlimit:4;stroke-dasharray:12.64871876, 6.32435937999999975;stroke-dashoffset:0;stroke-opacity:1;paint-order:normal"
           id="rect1818"
           width="4"
           height="0.30000001"
           x="0"
           y="294.70001" />
        <rect
           y="294.20001"
           x="0"
           height="0.30000001"
           width="4"
           id="rect1820"
           style="opacity:1;fill:#fbdd00;fill-opacity:1;stroke:none;stroke-width:6.32435894;stroke-linecap:butt;stroke-linejoin:round;stroke-miterlimit:4;stroke-dasharray:12.64871876, 6.32435937999999975;stroke-dashoffset:0;stroke-opacity:1;paint-order:normal" />
        <rect
           style="opacity:1;fill:#fbdd00;fill-opacity:1;stroke:none;stroke-width:6.32435894;stroke-linecap:butt;stroke-linejoin:round;stroke-miterlimit:4;stroke-dasharray:12.64871876, 6.32435937999999975;stroke-dashoffset:0;stroke-opacity:1;paint-order:normal"
           id="rect1822"
           width="4"
           height="0.30000001"
           x="0"
           y="293.70001" />
        <rect
           y="293.20001"
           x="0"
           height="0.30000001"
           width="4"
           id="rect1824"
           style="opacity:1;fill:#fbdd00;fill-opacity:1;stroke:none;stroke-width:6.32435894;stroke-linecap:butt;stroke-linejoin:round;stroke-miterlimit:4;stroke-dasharray:12.64871876, 6.32435937999999975;stroke-dashoffset:0;stroke-opacity:1;paint-order:normal" />
      </g>
      <rect
         y="292.5"
         x="92"
         height="4.5"
         width="8"
         id="rect1932"
         style="opacity:1;fill:#4d4d4d;fill-opacity:1;stroke:none;stroke-width:4.27391481;stroke-linecap:butt;stroke-linejoin:round;stroke-miterlimit:4;stroke-dasharray:8.54782921, 4.27391461000000028;stroke-dashoffset:0;stroke-opacity:1;paint-order:normal" />
    </g>
    <g
       transform="rotate(-180,75,264.75)"
       id="g2016">
      <rect
         style="opacity:1;fill:#000000;fill-opacity:1;stroke:none;stroke-width:2.91928053;stroke-linecap:butt;stroke-linejoin:round;stroke-miterlimit:4;stroke-dasharray:5.83856134, 2.91928066;stroke-dashoffset:0;stroke-opacity:1;paint-order:normal"
         id="rect1994"
         width="100"
         height="4.5"
         x="-7.1054274e-15"
         y="292.5" />
      <g
         id="g2012"
         transform="translate(0,-0.3499817)"
         style="fill:#fbdd00;fill-opacity:1">
        <rect
           y="296.69998"
           x="0"
           height="0.30000001"
           width="4"
           id="rect1996"
           style="opacity:1;fill:#fbdd00;fill-opacity:1;stroke:none;stroke-width:6.32435894;stroke-linecap:butt;stroke-linejoin:round;stroke-miterlimit:4;stroke-dasharray:12.64871876, 6.32435937999999975;stroke-dashoffset:0;stroke-opacity:1;paint-order:normal" />
        <rect
           style="opacity:1;fill:#fbdd00;fill-opacity:1;stroke:none;stroke-width:6.32435894;stroke-linecap:butt;stroke-linejoin:round;stroke-miterlimit:4;stroke-dasharray:12.64871876, 6.32435937999999975;stroke-dashoffset:0;stroke-opacity:1;paint-order:normal"
           id="rect1998"
           width="4"
           height="0.30000001"
           x="0"
           y="296.20001" />
        <rect
           y="295.70001"
           x="0"
           height="0.30000001"
           width="4"
           id="rect2000"
           style="opacity:1;fill:#fbdd00;fill-opacity:1;stroke:none;stroke-width:6.32435894;stroke-linecap:butt;stroke-linejoin:round;stroke-miterlimit:4;stroke-dasharray:12.64871876, 6.32435937999999975;stroke-dashoffset:0;stroke-opacity:1;paint-order:normal" />
        <rect
           style="opacity:1;fill:#fbdd00;fill-opacity:1;stroke:none;stroke-width:6.32435894;stroke-linecap:butt;stroke-linejoin:round;stroke-miterlimit:4;stroke-dasharray:12.64871876, 6.32435937999999975;stroke-dashoffset:0;stroke-opacity:1;paint-order:normal"
           id="rect2002"
           width="4"
           height="0.30000001"
           x="0"
           y="295.20001" />
        <rect
           y="294.70001"
           x="0"
           height="0.30000001"
           width="4"
           id="rect2004"
           style="opacity:1;fill:#fbdd00;fill-opacity:1;stroke:none;stroke-width:6.32435894;stroke-linecap:butt;stroke-linejoin:round;stroke-miterlimit:4;stroke-dasharray:12.64871876, 6.32435937999999975;stroke-dashoffset:0;stroke-opacity:1;paint-order:normal" />
        <rect
           style="opacity:1;fill:#fbdd00;fill-opacity:1;stroke:none;stroke-width:6.32435894;stroke-linecap:butt;stroke-linejoin:round;stroke-miterlimit:4;stroke-dasharray:12.64871876, 6.32435937999999975;stroke-dashoffset:0;stroke-opacity:1;paint-order:normal"
           id="rect2006"
           width="4"
           height="0.30000001"
           x="0"
           y="294.20001" />
        <rect
           y="293.70001"
           x="0"
           height="0.30000001"
           width="4"
           id="rect2008"
           style="opacity:1;fill:#fbdd00;fill-opacity:1;stroke:none;stroke-width:6.32435894;stroke-linecap:butt;stroke-linejoin:round;stroke-miterlimit:4;stroke-dasharray:12.64871876, 6.32435937999999975;stroke-dashoffset:0;stroke-opacity:1;paint-order:normal" />
        <rect
           style="opacity:1;fill:#fbdd00;fill-opacity:1;stroke:none;stroke-width:6.32435894;stroke-linecap:butt;stroke-linejoin:round;stroke-miterlimit:4;stroke-dasharray:12.64871876, 6.32435937999999975;stroke-dashoffset:0;stroke-opacity:1;paint-order:normal"
           id="rect2010"
           width="4"
           height="0.30000001"
           x="0"
           y="293.20001" />
      </g>
      <rect
         style="opacity:1;fill:#4d4d4d;fill-opacity:1;stroke:none;stroke-width:4.27391481;stroke-linecap:butt;stroke-linejoin:round;stroke-miterlimit:4;stroke-dasharray:8.54782921, 4.27391461000000028;stroke-dashoffset:0;stroke-opacity:1;paint-order:normal"
         id="rect2014"
         width="8"
         height="4.5"
         x="92"
         y="292.5" />
    </g>
    <g
       transform="translate(50,-70)"
       id="g2128">
      <rect
         style="opacity:1;fill:#000000;fill-opacity:1;stroke:none;stroke-width:2.91928053;stroke-linecap:butt;stroke-linejoin:round;stroke-miterlimit:4;stroke-dasharray:5.83856134, 2.91928066;stroke-dashoffset:0;stroke-opacity:1;paint-order:normal"
         id="rect2106"
         width="50"
         height="4.5"
         x="-7.1054274e-15"
         y="292.5" />
      <g
         id="g2124"
         transform="translate(0,-0.3499817)"
         style="fill:#fbdd00;fill-opacity:1">
        <rect
           y="296.69998"
           x="0"
           height="0.30000001"
           width="4"
           id="rect2108"
           style="opacity:1;fill:#fbdd00;fill-opacity:1;stroke:none;stroke-width:6.32435894;stroke-linecap:butt;stroke-linejoin:round;stroke-miterlimit:4;stroke-dasharray:12.64871876, 6.32435937999999975;stroke-dashoffset:0;stroke-opacity:1;paint-order:normal" />
        <rect
           style="opacity:1;fill:#fbdd00;fill-opacity:1;stroke:none;stroke-width:6.32435894;stroke-linecap:butt;stroke-linejoin:round;stroke-miterlimit:4;stroke-dasharray:12.64871876, 6.32435937999999975;stroke-dashoffset:0;stroke-opacity:1;paint-order:normal"
           id="rect2110"
           width="4"
           height="0.30000001"
           x="0"
           y="296.20001" />
        <rect
           y="295.70001"
           x="0"
           height="0.30000001"
           width="4"
           id="rect2112"
           style="opacity:1;fill:#fbdd00;fill-opacity:1;stroke:none;stroke-width:6.32435894;stroke-linecap:butt;stroke-linejoin:round;stroke-miterlimit:4;stroke-dasharray:12.64871876, 6.32435937999999975;stroke-dashoffset:0;stroke-opacity:1;paint-order:normal" />
        <rect
           style="opacity:1;fill:#fbdd00;fill-opacity:1;stroke:none;stroke-width:6.32435894;stroke-linecap:butt;stroke-linejoin:round;stroke-miterlimit:4;stroke-dasharray:12.64871876, 6.32435937999999975;stroke-dashoffset:0;stroke-opacity:1;paint-order:normal"
           id="rect2114"
           width="4"
           height="0.30000001"
           x="0"
           y="295.20001" />
        <rect
           y="294.70001"
           x="0"
           height="0.30000001"
           width="4"
           id="rect2116"
           style="opacity:1;fill:#fbdd00;fill-opacity:1;stroke:none;stroke-width:6.32435894;stroke-linecap:butt;stroke-linejoin:round;stroke-miterlimit:4;stroke-dasharray:12.64871876, 6.32435937999999975;stroke-dashoffset:0;stroke-opacity:1;paint-order:normal" />
        <rect
           style="opacity:1;fill:#fbdd00;fill-opacity:1;stroke:none;stroke-width:6.32435894;stroke-linecap:butt;stroke-linejoin:round;stroke-miterlimit:4;stroke-dasharray:12.64871876, 6.32435937999999975;stroke-dashoffset:0;stroke-opacity:1;paint-order:normal"
           id="rect2118"
           width="4"
           height="0.30000001"
           x="0"
           y="294.20001" />
        <rect
           y="293.70001"
           x="0"
           height="0.30000001"
           width="4"
           id="rect2120"
           style="opacity:1;fill:#fbdd00;fill-opacity:1;stroke:none;stroke-width:6.32435894;stroke-linecap:butt;stroke-linejoin:round;stroke-miterlimit:4;stroke-dasharray:12.64871876, 6.32435937999999975;stroke-dashoffset:0;stroke-opacity:1;paint-order:normal" />
        <rect
           style="opacity:1;fill:#fbdd00;fill-opacity:1;stroke:none;stroke-width:6.32435894;stroke-linecap:butt;stroke-linejoin:round;stroke-miterlimit:4;stroke-dasharray:12.64871876, 6.32435937999999975;stroke-dashoffset:0;stroke-opacity:1;paint-order:normal"
           id="rect2122"
           width="4"
           height="0.30000001"
           x="0"
           y="293.20001" />
      </g>
      <rect
         style="opacity:1;fill:#4d4d4d;fill-opacity:1;stroke:none;stroke-width:4.27391481;stroke-linecap:butt;stroke-linejoin:round;stroke-miterlimit:4;stroke-dasharray:8.54782921, 4.27391461000000028;stroke-dashoffset:0;stroke-opacity:1;paint-order:normal"
         id="rect2126"
         width="8"
         height="4.5"
         x="42"
         y="292.5" />
    </g>
    <g
       id="g2276"
       transform="matrix(0.00638292,0,0,0.00638292,68.84472,223.45637)">
      <path
         id="path2268"
         transform="translate(17.41,-346.01)"
         d="M 1717.63,347 C 1610.7,347 1524,433.7 1524,540.67 c 0,106.97 86.66,193.7 193.59,193.71 106.93,0.01 193.6,-86.67 193.63,-193.63 C 1911.25,433.79 1825,347.2 1718.22,347 h -0.59 m 40.06,320.51 a 123.36,123.36 0 0 1 -123.33,-122.17 84,84 0 0 0 27.39,4.51 85.43,85.43 0 0 0 74.42,-127.32 127.35,127.35 0 0 1 21.51,-2 123.415,123.415 0 0 1 0,246.83"
         class="a"
         inkscape:connector-curvature="0"
         style="fill:#ffffff" />
      <path
         id="path2270"
         transform="translate(17.41,-346.01)"
         d="m 1375.08,733.14 c -10.88,-1.07 -22.46,-6.66 -28.68,-13.65 a 40.93,40.93 0 0 1 -9,-18.36 c -1.52,-6.74 -1.15,-9.88 -1.15,-83.56 0,-88.33 0,-80.32 4.76,-93.11 a 43.68,43.68 0 0 1 17,-17.37 55.7,55.7 0 0 1 32.63,-5.14 c 24.27,2.79 35.55,14.39 37.69,38.87 0.43,5 0.61,33.45 0.53,81.41 -0.28,73.23 -0.28,69.79 -1.7,78.7 -3.67,13 -10.8,22 -22.12,27.66 -7.37,3.68 -19.44,5.47 -29.84,4.49 z m -614.62,0 c -43.61,-2 -81.38,-19.76 -110.33,-51.38 A 152.59,152.59 0 0 1 611,602 c -2.61,-15.29 -2.88,-26.44 -2.61,-123.4 0.26,-104 -1,-92.58 5.29,-106.59 a 42.09,42.09 0 0 1 27.51,-21.74 68.45,68.45 0 0 1 27.43,0.43 43.72,43.72 0 0 1 31.21,32 c 1,3.77 1.17,12.84 1.44,102.53 l 0.43,98.4 c 1.09,20.43 13.59,37.54 27.79,46.42 22,15.65 54,14.92 77,1.17 19.16,-12.86 30.38,-31.85 32.73,-52.19 0.43,-3.77 0.71,-40.74 0.71,-99 0,-103.17 -0.28,-97.67 4.33,-107.12 a 44,44 0 0 1 28.74,-23.25 75.71,75.71 0 0 1 27,0 44.49,44.49 0 0 1 19.44,10.61 c 8,7.55 12.07,16.56 12.68,23.22 v 102 c 0,114.61 0.28,108.68 -5,129.15 A 157.08,157.08 0 0 1 875.94,696 c -31.34,27 -69.72,39.22 -115.48,37.14 z m -738.82,0 C 10.68,732.08 -1,726.48 -7,719.49 a 53.12,53.12 0 0 1 -9.07,-18.36 c -1.64,-7.47 -1.26,-10.89 -1.26,-105 0,-78.62 0.18,-101.92 0.89,-107.4 C -12,452.87 2,422.91 26.14,397.86 c 30.2,-31.48 67,-47.86 111.38,-49.56 12.15,-0.55 18,0.16 25.08,2.79 a 45.1,45.1 0 0 1 24.91,24.46 55.35,55.35 0 0 1 3.24,22 c -1.26,19.76 -9.88,32.37 -26.51,38.69 a 85.51,85.51 0 0 1 -21.13,4.58 c -14,1.7 -21,3.68 -31,8.81 A 68.16,68.16 0 0 0 81.89,479.13 91.51,91.51 0 0 0 76.67,494 c -1.44,8.36 -0.89,26.79 -1.26,102.36 0.55,88.7 0.81,95.52 -1.8,104.61 -3.67,13.12 -10.71,21.85 -22.12,27.66 -7.35,3.7 -19.34,5.5 -29.85,4.51 z M 1093.48,705.48 C 1090.32,699.1 975.76,408.39 974.24,402.72 a 37,37 0 0 1 0,-22.59 c 4.68,-15.29 18.88,-28 35.24,-31.75 10.88,-2.33 24.65,-0.81 33.44,3.77 a 46.09,46.09 0 0 1 15.47,15.37 c 3,5 2.63,4.05 44.7,111.11 16.37,41.5 29.92,75.09 30.1,74.93 0.18,-0.16 16.37,-41 35.89,-90.6 25,-63.51 36.42,-91.75 38.57,-95.36 a 40.37,40.37 0 0 1 26,-19.33 62.66,62.66 0 0 1 27.24,1.34 47.4,47.4 0 0 1 20.11,12.88 36.56,36.56 0 0 1 10.88,18.26 36,36 0 0 1 0,21.22 c -1.26,5.3 -115,294.42 -119.32,303.3 -17.24,40.39 -65.26,32.74 -79.1,0.28 z"
         class="a"
         inkscape:connector-curvature="0"
         style="fill:#ffffff" />
      <path
         id="path2272"
         transform="translate(17.41,-346.01)"
         d="m 390.81,733.89 c -43.59,-2 -81.28,-19.62 -110.33,-51.38 a 153.7,153.7 0 0 1 -39.11,-79.69 c -2.61,-15.29 -2.78,-26.52 -2.61,-123.4 0.28,-104 -1,-92.58 5.39,-106.7 a 41.86,41.86 0 0 1 27.55,-21.64 66.67,66.67 0 0 1 27.32,0.34 43.94,43.94 0 0 1 31.21,31.93 c 1.07,3.77 1.15,13 1.52,102.53 l 0.38,98.5 a 60.21,60.21 0 0 0 27.79,46.4 c 22.12,15.57 53.92,14.94 77,1.17 a 67.17,67.17 0 0 0 25.89,-28.41 68.83,68.83 0 0 0 6.93,-23.85 c 0.38,-3.68 0.61,-40.65 0.61,-98.92 0,-103.09 -0.26,-97.71 4.33,-107.14 a 43.85,43.85 0 0 1 28.68,-23.22 c 6,-1.7 21.13,-1.7 27.06,0 a 45,45 0 0 1 19.34,10.71 c 7.9,7.49 12,16.56 12.66,23.22 v 101.9 c 0,114.61 0.28,108.68 -4.92,129.15 a 157.36,157.36 0 0 1 -51.16,81.49 C 475.09,723.7 436.69,736 390.81,733.89 Z"
         class="a"
         inkscape:connector-curvature="0"
         style="fill:#ffffff" />
      <path
         id="path2274"
         transform="translate(17.41,-346.01)"
         d="m 1439.64,404.2 a 58.16,58.16 0 1 1 0,-0.06 z"
         class="a"
         inkscape:connector-curvature="0"
         style="fill:#ffffff" />
    </g>
    <rect
       style="opacity:1;fill:#000000;fill-opacity:1;stroke:none;stroke-width:2.91928053;stroke-linecap:butt;stroke-linejoin:round;stroke-miterlimit:4;stroke-dasharray:5.83856134, 2.91928066;stroke-dashoffset:0;stroke-opacity:1;paint-order:normal"
       id="rect2162"
       width="50"
       height="4.5"
       x="-100"
       y="-217"
       transform="scale(-1)" />
    <g
       style="fill:#fbdd00;fill-opacity:1"
       id="g2180"
       transform="rotate(180,50,254.92499)">
      <rect
         y="296.69998"
         x="0"
         height="0.30000001"
         width="4"
         id="rect2164"
         style="opacity:1;fill:#fbdd00;fill-opacity:1;stroke:none;stroke-width:6.32435894;stroke-linecap:butt;stroke-linejoin:round;stroke-miterlimit:4;stroke-dasharray:12.64871876, 6.32435938;stroke-dashoffset:0;stroke-opacity:1;paint-order:normal" />
      <rect
         style="opacity:1;fill:#fbdd00;fill-opacity:1;stroke:none;stroke-width:6.32435894;stroke-linecap:butt;stroke-linejoin:round;stroke-miterlimit:4;stroke-dasharray:12.64871876, 6.32435938;stroke-dashoffset:0;stroke-opacity:1;paint-order:normal"
         id="rect2166"
         width="4"
         height="0.30000001"
         x="0"
         y="296.20001" />
      <rect
         y="295.70001"
         x="0"
         height="0.30000001"
         width="4"
         id="rect2168"
         style="opacity:1;fill:#fbdd00;fill-opacity:1;stroke:none;stroke-width:6.32435894;stroke-linecap:butt;stroke-linejoin:round;stroke-miterlimit:4;stroke-dasharray:12.64871876, 6.32435938;stroke-dashoffset:0;stroke-opacity:1;paint-order:normal" />
      <rect
         style="opacity:1;fill:#fbdd00;fill-opacity:1;stroke:none;stroke-width:6.32435894;stroke-linecap:butt;stroke-linejoin:round;stroke-miterlimit:4;stroke-dasharray:12.64871876, 6.32435938;stroke-dashoffset:0;stroke-opacity:1;paint-order:normal"
         id="rect2170"
         width="4"
         height="0.30000001"
         x="0"
         y="295.20001" />
      <rect
         y="294.70001"
         x="0"
         height="0.30000001"
         width="4"
         id="rect2172"
         style="opacity:1;fill:#fbdd00;fill-opacity:1;stroke:none;stroke-width:6.32435894;stroke-linecap:butt;stroke-linejoin:round;stroke-miterlimit:4;stroke-dasharray:12.64871876, 6.32435938;stroke-dashoffset:0;stroke-opacity:1;paint-order:normal" />
      <rect
         style="opacity:1;fill:#fbdd00;fill-opacity:1;stroke:none;stroke-width:6.32435894;stroke-linecap:butt;stroke-linejoin:round;stroke-miterlimit:4;stroke-dasharray:12.64871876, 6.32435938;stroke-dashoffset:0;stroke-opacity:1;paint-order:normal"
         id="rect2174"
         width="4"
         height="0.30000001"
         x="0"
         y="294.20001" />
      <rect
         y="293.70001"
         x="0"
         height="0.30000001"
         width="4"
         id="rect2176"
         style="opacity:1;fill:#fbdd00;fill-opacity:1;stroke:none;stroke-width:6.32435894;stroke-linecap:butt;stroke-linejoin:round;stroke-miterlimit:4;stroke-dasharray:12.64871876, 6.32435938;stroke-dashoffset:0;stroke-opacity:1;paint-order:normal" />
      <rect
         style="opacity:1;fill:#fbdd00;fill-opacity:1;stroke:none;stroke-width:6.32435894;stroke-linecap:butt;stroke-linejoin:round;stroke-miterlimit:4;stroke-dasharray:12.64871876, 6.32435938;stroke-dashoffset:0;stroke-opacity:1;paint-order:normal"
         id="rect2178"
         width="4"
         height="0.30000001"
         x="0"
         y="293.20001" />
    </g>
    <rect
       style="opacity:1;fill:#4d4d4d;fill-opacity:1;stroke:none;stroke-width:4.27391481;stroke-linecap:butt;stroke-linejoin:round;stroke-miterlimit:4;stroke-dasharray:8.54782921, 4.27391461;stroke-dashoffset:0;stroke-opacity:1;paint-order:normal"
       id="rect2182"
       width="8"
       height="4.5"
       x="-58"
       y="-217"
       transform="scale(-1)" />
    <text
       id="text2254"
       y="215.71802"
       x="102.79063"
       style="font-style:normal;font-weight:normal;font-size:7.05555534px;line-height:1.25;font-family:sans-serif;letter-spacing:0px;word-spacing:0px;fill:#000000;fill-opacity:1;stroke:none;stroke-width:0.26458332"
       xml:space="preserve"><tspan
         style="font-style:normal;font-variant:normal;font-weight:normal;font-stretch:normal;font-size:2.82222223px;font-family:'Montserrat ExtraBold';-inkscape-font-specification:'Montserrat ExtraBold, ';stroke-width:0.26458332"
         y="215.71802"
         x="102.79063"
         id="tspan2252"
         sodipodi:role="line">4.5mm</tspan></text>
    <text
       xml:space="preserve"
       style="font-style:normal;font-weight:normal;font-size:7.05555534px;line-height:1.25;font-family:sans-serif;letter-spacing:0px;word-spacing:0px;fill:#000000;fill-opacity:1;stroke:none;stroke-width:0.26458332"
       x="69.825035"
       y="209.89719"
       id="text2258"><tspan
         id="tspan2260"
         sodipodi:role="line"
         x="69.825035"
         y="209.89719"
         style="font-style:normal;font-variant:normal;font-weight:normal;font-stretch:normal;font-size:2.82222223px;font-family:'Montserrat ExtraBold';-inkscape-font-specification:'Montserrat ExtraBold, ';stroke-width:0.26458332">50mm</tspan></text>
    <text
       id="text2266"
       y="252.2305"
       x="91.955208"
       style="font-style:normal;font-weight:normal;font-size:7.05555534px;line-height:1.25;font-family:sans-serif;letter-spacing:0px;word-spacing:0px;fill:#000000;fill-opacity:1;stroke:none;stroke-width:0.26458332"
       xml:space="preserve"><tspan
         style="font-style:normal;font-variant:normal;font-weight:normal;font-stretch:normal;font-size:2.82222223px;font-family:'Montserrat ExtraBold';-inkscape-font-specification:'Montserrat ExtraBold, ';stroke-width:0.26458332"
         y="252.2305"
         x="91.955208"
         sodipodi:role="line"
         id="tspan2264">50-500mm</tspan></text>
    <g
       id="g2208"
       transform="translate(95)">
      <rect
         ry="0.2"
         rx="0.2"
         y="242.2"
         x="52"
         height="0.60000002"
         width="0.60000002"
         id="rect2202"
         style="opacity:1;fill:#ffffff;fill-opacity:1;stroke:none;stroke-width:5;stroke-linecap:butt;stroke-linejoin:round;stroke-miterlimit:4;stroke-dasharray:10.00000015, 5.00000008;stroke-dashoffset:0;stroke-opacity:1;paint-order:normal" />
      <rect
         style="opacity:1;fill:#ffffff;fill-opacity:1;stroke:none;stroke-width:5;stroke-linecap:butt;stroke-linejoin:round;stroke-miterlimit:4;stroke-dasharray:10.00000015, 5.00000008;stroke-dashoffset:0;stroke-opacity:1;paint-order:normal"
         id="rect2204"
         width="0.60000002"
         height="0.60000002"
         x="52"
         y="246.7"
         rx="0.2"
         ry="0.2" />
    </g>
    <g
       id="g2214">
      <rect
         style="opacity:1;fill:#ffffff;fill-opacity:1;stroke:none;stroke-width:5;stroke-linecap:butt;stroke-linejoin:round;stroke-miterlimit:4;stroke-dasharray:10.00000015, 5.00000008;stroke-dashoffset:0;stroke-opacity:1;paint-order:normal"
         id="rect2210"
         width="0.60000002"
         height="0.60000002"
         x="52"
         y="242.2"
         rx="0.2"
         ry="0.2" />
      <rect
         ry="0.2"
         rx="0.2"
         y="246.7"
         x="52"
         height="0.60000002"
         width="0.60000002"
         id="rect2212"
         style="opacity:1;fill:#ffffff;fill-opacity:1;stroke:none;stroke-width:5;stroke-linecap:butt;stroke-linejoin:round;stroke-miterlimit:4;stroke-dasharray:10.00000015, 5.00000008;stroke-dashoffset:0;stroke-opacity:1;paint-order:normal" />
    </g>
    <g
       transform="translate(95,-9.999997)"
       id="g2220">
      <rect
         style="opacity:1;fill:#ffffff;fill-opacity:1;stroke:none;stroke-width:5;stroke-linecap:butt;stroke-linejoin:round;stroke-miterlimit:4;stroke-dasharray:10.00000015, 5.00000008;stroke-dashoffset:0;stroke-opacity:1;paint-order:normal"
         id="rect2216"
         width="0.60000002"
         height="0.60000002"
         x="52"
         y="242.2"
         rx="0.2"
         ry="0.2" />
      <rect
         ry="0.2"
         rx="0.2"
         y="246.7"
         x="52"
         height="0.60000002"
         width="0.60000002"
         id="rect2218"
         style="opacity:1;fill:#ffffff;fill-opacity:1;stroke:none;stroke-width:5;stroke-linecap:butt;stroke-linejoin:round;stroke-miterlimit:4;stroke-dasharray:10.00000015, 5.00000008;stroke-dashoffset:0;stroke-opacity:1;paint-order:normal" />
    </g>
    <g
       id="g2226"
       transform="translate(0,-9.999997)">
      <rect
         ry="0.2"
         rx="0.2"
         y="242.2"
         x="52"
         height="0.60000002"
         width="0.60000002"
         id="rect2222"
         style="opacity:1;fill:#ffffff;fill-opacity:1;stroke:none;stroke-width:5;stroke-linecap:butt;stroke-linejoin:round;stroke-miterlimit:4;stroke-dasharray:10.00000015, 5.00000008;stroke-dashoffset:0;stroke-opacity:1;paint-order:normal" />
      <rect
         style="opacity:1;fill:#ffffff;fill-opacity:1;stroke:none;stroke-width:5;stroke-linecap:butt;stroke-linejoin:round;stroke-miterlimit:4;stroke-dasharray:10.00000015, 5.00000008;stroke-dashoffset:0;stroke-opacity:1;paint-order:normal"
         id="rect2224"
         width="0.60000002"
         height="0.60000002"
         x="52"
         y="246.7"
         rx="0.2"
         ry="0.2" />
    </g>
    <g
       id="g2232"
       transform="translate(45,-19.999997)">
      <rect
         ry="0.2"
         rx="0.2"
         y="242.2"
         x="52"
         height="0.60000002"
         width="0.60000002"
         id="rect2228"
         style="opacity:1;fill:#ffffff;fill-opacity:1;stroke:none;stroke-width:5;stroke-linecap:butt;stroke-linejoin:round;stroke-miterlimit:4;stroke-dasharray:10.00000015, 5.00000008;stroke-dashoffset:0;stroke-opacity:1;paint-order:normal" />
      <rect
         style="opacity:1;fill:#ffffff;fill-opacity:1;stroke:none;stroke-width:5;stroke-linecap:butt;stroke-linejoin:round;stroke-miterlimit:4;stroke-dasharray:10.00000015, 5.00000008;stroke-dashoffset:0;stroke-opacity:1;paint-order:normal"
         id="rect2230"
         width="0.60000002"
         height="0.60000002"
         x="52"
         y="246.7"
         rx="0.2"
         ry="0.2" />
    </g>
    <g
       transform="translate(0,-19.999997)"
       id="g2238">
      <rect
         style="opacity:1;fill:#ffffff;fill-opacity:1;stroke:none;stroke-width:5;stroke-linecap:butt;stroke-linejoin:round;stroke-miterlimit:4;stroke-dasharray:10.00000015, 5.00000008;stroke-dashoffset:0;stroke-opacity:1;paint-order:normal"
         id="rect2234"
         width="0.60000002"
         height="0.60000002"
         x="52"
         y="242.2"
         rx="0.2"
         ry="0.2" />
      <rect
         ry="0.2"
         rx="0.2"
         y="246.7"
         x="52"
         height="0.60000002"
         width="0.60000002"
         id="rect2236"
         style="opacity:1;fill:#ffffff;fill-opacity:1;stroke:none;stroke-width:5;stroke-linecap:butt;stroke-linejoin:round;stroke-miterlimit:4;stroke-dasharray:10.00000015, 5.00000008;stroke-dashoffset:0;stroke-opacity:1;paint-order:normal" />
    </g>
    <g
       transform="translate(45,-29.999997)"
       id="g2244">
      <rect
         style="opacity:1;fill:#ffffff;fill-opacity:1;stroke:none;stroke-width:5;stroke-linecap:butt;stroke-linejoin:round;stroke-miterlimit:4;stroke-dasharray:10.00000015, 5.00000008;stroke-dashoffset:0;stroke-opacity:1;paint-order:normal"
         id="rect2240"
         width="0.60000002"
         height="0.60000002"
         x="52"
         y="242.2"
         rx="0.2"
         ry="0.2" />
      <rect
         ry="0.2"
         rx="0.2"
         y="246.7"
         x="52"
         height="0.60000002"
         width="0.60000002"
         id="rect2242"
         style="opacity:1;fill:#ffffff;fill-opacity:1;stroke:none;stroke-width:5;stroke-linecap:butt;stroke-linejoin:round;stroke-miterlimit:4;stroke-dasharray:10.00000015, 5.00000008;stroke-dashoffset:0;stroke-opacity:1;paint-order:normal" />
    </g>
    <g
       id="g2250"
       transform="translate(0,-29.999997)">
      <rect
         ry="0.2"
         rx="0.2"
         y="242.2"
         x="52"
         height="0.60000002"
         width="0.60000002"
         id="rect2246"
         style="opacity:1;fill:#ffffff;fill-opacity:1;stroke:none;stroke-width:5;stroke-linecap:butt;stroke-linejoin:round;stroke-miterlimit:4;stroke-dasharray:10.00000015, 5.00000008;stroke-dashoffset:0;stroke-opacity:1;paint-order:normal" />
      <rect
         style="opacity:1;fill:#ffffff;fill-opacity:1;stroke:none;stroke-width:5;stroke-linecap:butt;stroke-linejoin:round;stroke-miterlimit:4;stroke-dasharray:10.00000015, 5.00000008;stroke-dashoffset:0;stroke-opacity:1;paint-order:normal"
         id="rect2248"
         width="0.60000002"
         height="0.60000002"
         x="52"
         y="246.7"
         rx="0.2"
         ry="0.2" />
    </g>
    <g
       transform="matrix(0.00638292,0,0,0.00638292,68.84472,213.66679)"
       id="g2379">
      <path
         style="fill:#ffffff"
         inkscape:connector-curvature="0"
         class="a"
         d="M 1717.63,347 C 1610.7,347 1524,433.7 1524,540.67 c 0,106.97 86.66,193.7 193.59,193.71 106.93,0.01 193.6,-86.67 193.63,-193.63 C 1911.25,433.79 1825,347.2 1718.22,347 h -0.59 m 40.06,320.51 a 123.36,123.36 0 0 1 -123.33,-122.17 84,84 0 0 0 27.39,4.51 85.43,85.43 0 0 0 74.42,-127.32 127.35,127.35 0 0 1 21.51,-2 123.415,123.415 0 0 1 0,246.83"
         transform="translate(17.41,-346.01)"
         id="path2371" />
      <path
         style="fill:#ffffff"
         inkscape:connector-curvature="0"
         class="a"
         d="m 1375.08,733.14 c -10.88,-1.07 -22.46,-6.66 -28.68,-13.65 a 40.93,40.93 0 0 1 -9,-18.36 c -1.52,-6.74 -1.15,-9.88 -1.15,-83.56 0,-88.33 0,-80.32 4.76,-93.11 a 43.68,43.68 0 0 1 17,-17.37 55.7,55.7 0 0 1 32.63,-5.14 c 24.27,2.79 35.55,14.39 37.69,38.87 0.43,5 0.61,33.45 0.53,81.41 -0.28,73.23 -0.28,69.79 -1.7,78.7 -3.67,13 -10.8,22 -22.12,27.66 -7.37,3.68 -19.44,5.47 -29.84,4.49 z m -614.62,0 c -43.61,-2 -81.38,-19.76 -110.33,-51.38 A 152.59,152.59 0 0 1 611,602 c -2.61,-15.29 -2.88,-26.44 -2.61,-123.4 0.26,-104 -1,-92.58 5.29,-106.59 a 42.09,42.09 0 0 1 27.51,-21.74 68.45,68.45 0 0 1 27.43,0.43 43.72,43.72 0 0 1 31.21,32 c 1,3.77 1.17,12.84 1.44,102.53 l 0.43,98.4 c 1.09,20.43 13.59,37.54 27.79,46.42 22,15.65 54,14.92 77,1.17 19.16,-12.86 30.38,-31.85 32.73,-52.19 0.43,-3.77 0.71,-40.74 0.71,-99 0,-103.17 -0.28,-97.67 4.33,-107.12 a 44,44 0 0 1 28.74,-23.25 75.71,75.71 0 0 1 27,0 44.49,44.49 0 0 1 19.44,10.61 c 8,7.55 12.07,16.56 12.68,23.22 v 102 c 0,114.61 0.28,108.68 -5,129.15 A 157.08,157.08 0 0 1 875.94,696 c -31.34,27 -69.72,39.22 -115.48,37.14 z m -738.82,0 C 10.68,732.08 -1,726.48 -7,719.49 a 53.12,53.12 0 0 1 -9.07,-18.36 c -1.64,-7.47 -1.26,-10.89 -1.26,-105 0,-78.62 0.18,-101.92 0.89,-107.4 C -12,452.87 2,422.91 26.14,397.86 c 30.2,-31.48 67,-47.86 111.38,-49.56 12.15,-0.55 18,0.16 25.08,2.79 a 45.1,45.1 0 0 1 24.91,24.46 55.35,55.35 0 0 1 3.24,22 c -1.26,19.76 -9.88,32.37 -26.51,38.69 a 85.51,85.51 0 0 1 -21.13,4.58 c -14,1.7 -21,3.68 -31,8.81 A 68.16,68.16 0 0 0 81.89,479.13 91.51,91.51 0 0 0 76.67,494 c -1.44,8.36 -0.89,26.79 -1.26,102.36 0.55,88.7 0.81,95.52 -1.8,104.61 -3.67,13.12 -10.71,21.85 -22.12,27.66 -7.35,3.7 -19.34,5.5 -29.85,4.51 z M 1093.48,705.48 C 1090.32,699.1 975.76,408.39 974.24,402.72 a 37,37 0 0 1 0,-22.59 c 4.68,-15.29 18.88,-28 35.24,-31.75 10.88,-2.33 24.65,-0.81 33.44,3.77 a 46.09,46.09 0 0 1 15.47,15.37 c 3,5 2.63,4.05 44.7,111.11 16.37,41.5 29.92,75.09 30.1,74.93 0.18,-0.16 16.37,-41 35.89,-90.6 25,-63.51 36.42,-91.75 38.57,-95.36 a 40.37,40.37 0 0 1 26,-19.33 62.66,62.66 0 0 1 27.24,1.34 47.4,47.4 0 0 1 20.11,12.88 36.56,36.56 0 0 1 10.88,18.26 36,36 0 0 1 0,21.22 c -1.26,5.3 -115,294.42 -119.32,303.3 -17.24,40.39 -65.26,32.74 -79.1,0.28 z"
         transform="translate(17.41,-346.01)"
         id="path2373" />
      <path
         style="fill:#ffffff"
         inkscape:connector-curvature="0"
         class="a"
         d="m 390.81,733.89 c -43.59,-2 -81.28,-19.62 -110.33,-51.38 a 153.7,153.7 0 0 1 -39.11,-79.69 c -2.61,-15.29 -2.78,-26.52 -2.61,-123.4 0.28,-104 -1,-92.58 5.39,-106.7 a 41.86,41.86 0 0 1 27.55,-21.64 66.67,66.67 0 0 1 27.32,0.34 43.94,43.94 0 0 1 31.21,31.93 c 1.07,3.77 1.15,13 1.52,102.53 l 0.38,98.5 a 60.21,60.21 0 0 0 27.79,46.4 c 22.12,15.57 53.92,14.94 77,1.17 a 67.17,67.17 0 0 0 25.89,-28.41 68.83,68.83 0 0 0 6.93,-23.85 c 0.38,-3.68 0.61,-40.65 0.61,-98.92 0,-103.09 -0.26,-97.71 4.33,-107.14 a 43.85,43.85 0 0 1 28.68,-23.22 c 6,-1.7 21.13,-1.7 27.06,0 a 45,45 0 0 1 19.34,10.71 c 7.9,7.49 12,16.56 12.66,23.22 v 101.9 c 0,114.61 0.28,108.68 -4.92,129.15 a 157.36,157.36 0 0 1 -51.16,81.49 C 475.09,723.7 436.69,736 390.81,733.89 Z"
         transform="translate(17.41,-346.01)"
         id="path2375" />
      <path
         style="fill:#ffffff"
         inkscape:connector-curvature="0"
         class="a"
         d="m 1439.64,404.2 a 58.16,58.16 0 1 1 0,-0.06 z"
         transform="translate(17.41,-346.01)"
         id="path2377" />
    </g>
    <g
       id="g2443">
      <g
         id="g2406"
         transform="matrix(0.00638292,0,0,0.00638292,68.84472,233.51053)">
        <path
           id="path2398"
           transform="translate(17.41,-346.01)"
           d="M 1717.63,347 C 1610.7,347 1524,433.7 1524,540.67 c 0,106.97 86.66,193.7 193.59,193.71 106.93,0.01 193.6,-86.67 193.63,-193.63 C 1911.25,433.79 1825,347.2 1718.22,347 h -0.59 m 40.06,320.51 a 123.36,123.36 0 0 1 -123.33,-122.17 84,84 0 0 0 27.39,4.51 85.43,85.43 0 0 0 74.42,-127.32 127.35,127.35 0 0 1 21.51,-2 123.415,123.415 0 0 1 0,246.83"
           class="a"
           inkscape:connector-curvature="0"
           style="fill:#ffffff" />
        <path
           id="path2400"
           transform="translate(17.41,-346.01)"
           d="m 1375.08,733.14 c -10.88,-1.07 -22.46,-6.66 -28.68,-13.65 a 40.93,40.93 0 0 1 -9,-18.36 c -1.52,-6.74 -1.15,-9.88 -1.15,-83.56 0,-88.33 0,-80.32 4.76,-93.11 a 43.68,43.68 0 0 1 17,-17.37 55.7,55.7 0 0 1 32.63,-5.14 c 24.27,2.79 35.55,14.39 37.69,38.87 0.43,5 0.61,33.45 0.53,81.41 -0.28,73.23 -0.28,69.79 -1.7,78.7 -3.67,13 -10.8,22 -22.12,27.66 -7.37,3.68 -19.44,5.47 -29.84,4.49 z m -614.62,0 c -43.61,-2 -81.38,-19.76 -110.33,-51.38 A 152.59,152.59 0 0 1 611,602 c -2.61,-15.29 -2.88,-26.44 -2.61,-123.4 0.26,-104 -1,-92.58 5.29,-106.59 a 42.09,42.09 0 0 1 27.51,-21.74 68.45,68.45 0 0 1 27.43,0.43 43.72,43.72 0 0 1 31.21,32 c 1,3.77 1.17,12.84 1.44,102.53 l 0.43,98.4 c 1.09,20.43 13.59,37.54 27.79,46.42 22,15.65 54,14.92 77,1.17 19.16,-12.86 30.38,-31.85 32.73,-52.19 0.43,-3.77 0.71,-40.74 0.71,-99 0,-103.17 -0.28,-97.67 4.33,-107.12 a 44,44 0 0 1 28.74,-23.25 75.71,75.71 0 0 1 27,0 44.49,44.49 0 0 1 19.44,10.61 c 8,7.55 12.07,16.56 12.68,23.22 v 102 c 0,114.61 0.28,108.68 -5,129.15 A 157.08,157.08 0 0 1 875.94,696 c -31.34,27 -69.72,39.22 -115.48,37.14 z m -738.82,0 C 10.68,732.08 -1,726.48 -7,719.49 a 53.12,53.12 0 0 1 -9.07,-18.36 c -1.64,-7.47 -1.26,-10.89 -1.26,-105 0,-78.62 0.18,-101.92 0.89,-107.4 C -12,452.87 2,422.91 26.14,397.86 c 30.2,-31.48 67,-47.86 111.38,-49.56 12.15,-0.55 18,0.16 25.08,2.79 a 45.1,45.1 0 0 1 24.91,24.46 55.35,55.35 0 0 1 3.24,22 c -1.26,19.76 -9.88,32.37 -26.51,38.69 a 85.51,85.51 0 0 1 -21.13,4.58 c -14,1.7 -21,3.68 -31,8.81 A 68.16,68.16 0 0 0 81.89,479.13 91.51,91.51 0 0 0 76.67,494 c -1.44,8.36 -0.89,26.79 -1.26,102.36 0.55,88.7 0.81,95.52 -1.8,104.61 -3.67,13.12 -10.71,21.85 -22.12,27.66 -7.35,3.7 -19.34,5.5 -29.85,4.51 z M 1093.48,705.48 C 1090.32,699.1 975.76,408.39 974.24,402.72 a 37,37 0 0 1 0,-22.59 c 4.68,-15.29 18.88,-28 35.24,-31.75 10.88,-2.33 24.65,-0.81 33.44,3.77 a 46.09,46.09 0 0 1 15.47,15.37 c 3,5 2.63,4.05 44.7,111.11 16.37,41.5 29.92,75.09 30.1,74.93 0.18,-0.16 16.37,-41 35.89,-90.6 25,-63.51 36.42,-91.75 38.57,-95.36 a 40.37,40.37 0 0 1 26,-19.33 62.66,62.66 0 0 1 27.24,1.34 47.4,47.4 0 0 1 20.11,12.88 36.56,36.56 0 0 1 10.88,18.26 36,36 0 0 1 0,21.22 c -1.26,5.3 -115,294.42 -119.32,303.3 -17.24,40.39 -65.26,32.74 -79.1,0.28 z"
           class="a"
           inkscape:connector-curvature="0"
           style="fill:#ffffff" />
        <path
           id="path2402"
           transform="translate(17.41,-346.01)"
           d="m 390.81,733.89 c -43.59,-2 -81.28,-19.62 -110.33,-51.38 a 153.7,153.7 0 0 1 -39.11,-79.69 c -2.61,-15.29 -2.78,-26.52 -2.61,-123.4 0.28,-104 -1,-92.58 5.39,-106.7 a 41.86,41.86 0 0 1 27.55,-21.64 66.67,66.67 0 0 1 27.32,0.34 43.94,43.94 0 0 1 31.21,31.93 c 1.07,3.77 1.15,13 1.52,102.53 l 0.38,98.5 a 60.21,60.21 0 0 0 27.79,46.4 c 22.12,15.57 53.92,14.94 77,1.17 a 67.17,67.17 0 0 0 25.89,-28.41 68.83,68.83 0 0 0 6.93,-23.85 c 0.38,-3.68 0.61,-40.65 0.61,-98.92 0,-103.09 -0.26,-97.71 4.33,-107.14 a 43.85,43.85 0 0 1 28.68,-23.22 c 6,-1.7 21.13,-1.7 27.06,0 a 45,45 0 0 1 19.34,10.71 c 7.9,7.49 12,16.56 12.66,23.22 v 101.9 c 0,114.61 0.28,108.68 -4.92,129.15 a 157.36,157.36 0 0 1 -51.16,81.49 C 475.09,723.7 436.69,736 390.81,733.89 Z"
           class="a"
           inkscape:connector-curvature="0"
           style="fill:#ffffff" />
        <path
           id="path2404"
           transform="translate(17.41,-346.01)"
           d="m 1439.64,404.2 a 58.16,58.16 0 1 1 0,-0.06 z"
           class="a"
           inkscape:connector-curvature="0"
           style="fill:#ffffff" />
      </g>
      <g
         transform="matrix(0.00638292,0,0,0.00638292,94.112428,233.51053)"
         id="g2416">
        <path
           style="fill:#ffffff"
           inkscape:connector-curvature="0"
           class="a"
           d="M 1717.63,347 C 1610.7,347 1524,433.7 1524,540.67 c 0,106.97 86.66,193.7 193.59,193.71 106.93,0.01 193.6,-86.67 193.63,-193.63 C 1911.25,433.79 1825,347.2 1718.22,347 h -0.59 m 40.06,320.51 a 123.36,123.36 0 0 1 -123.33,-122.17 84,84 0 0 0 27.39,4.51 85.43,85.43 0 0 0 74.42,-127.32 127.35,127.35 0 0 1 21.51,-2 123.415,123.415 0 0 1 0,246.83"
           transform="translate(17.41,-346.01)"
           id="path2408" />
        <path
           style="fill:#ffffff"
           inkscape:connector-curvature="0"
           class="a"
           d="m 1375.08,733.14 c -10.88,-1.07 -22.46,-6.66 -28.68,-13.65 a 40.93,40.93 0 0 1 -9,-18.36 c -1.52,-6.74 -1.15,-9.88 -1.15,-83.56 0,-88.33 0,-80.32 4.76,-93.11 a 43.68,43.68 0 0 1 17,-17.37 55.7,55.7 0 0 1 32.63,-5.14 c 24.27,2.79 35.55,14.39 37.69,38.87 0.43,5 0.61,33.45 0.53,81.41 -0.28,73.23 -0.28,69.79 -1.7,78.7 -3.67,13 -10.8,22 -22.12,27.66 -7.37,3.68 -19.44,5.47 -29.84,4.49 z m -614.62,0 c -43.61,-2 -81.38,-19.76 -110.33,-51.38 A 152.59,152.59 0 0 1 611,602 c -2.61,-15.29 -2.88,-26.44 -2.61,-123.4 0.26,-104 -1,-92.58 5.29,-106.59 a 42.09,42.09 0 0 1 27.51,-21.74 68.45,68.45 0 0 1 27.43,0.43 43.72,43.72 0 0 1 31.21,32 c 1,3.77 1.17,12.84 1.44,102.53 l 0.43,98.4 c 1.09,20.43 13.59,37.54 27.79,46.42 22,15.65 54,14.92 77,1.17 19.16,-12.86 30.38,-31.85 32.73,-52.19 0.43,-3.77 0.71,-40.74 0.71,-99 0,-103.17 -0.28,-97.67 4.33,-107.12 a 44,44 0 0 1 28.74,-23.25 75.71,75.71 0 0 1 27,0 44.49,44.49 0 0 1 19.44,10.61 c 8,7.55 12.07,16.56 12.68,23.22 v 102 c 0,114.61 0.28,108.68 -5,129.15 A 157.08,157.08 0 0 1 875.94,696 c -31.34,27 -69.72,39.22 -115.48,37.14 z m -738.82,0 C 10.68,732.08 -1,726.48 -7,719.49 a 53.12,53.12 0 0 1 -9.07,-18.36 c -1.64,-7.47 -1.26,-10.89 -1.26,-105 0,-78.62 0.18,-101.92 0.89,-107.4 C -12,452.87 2,422.91 26.14,397.86 c 30.2,-31.48 67,-47.86 111.38,-49.56 12.15,-0.55 18,0.16 25.08,2.79 a 45.1,45.1 0 0 1 24.91,24.46 55.35,55.35 0 0 1 3.24,22 c -1.26,19.76 -9.88,32.37 -26.51,38.69 a 85.51,85.51 0 0 1 -21.13,4.58 c -14,1.7 -21,3.68 -31,8.81 A 68.16,68.16 0 0 0 81.89,479.13 91.51,91.51 0 0 0 76.67,494 c -1.44,8.36 -0.89,26.79 -1.26,102.36 0.55,88.7 0.81,95.52 -1.8,104.61 -3.67,13.12 -10.71,21.85 -22.12,27.66 -7.35,3.7 -19.34,5.5 -29.85,4.51 z M 1093.48,705.48 C 1090.32,699.1 975.76,408.39 974.24,402.72 a 37,37 0 0 1 0,-22.59 c 4.68,-15.29 18.88,-28 35.24,-31.75 10.88,-2.33 24.65,-0.81 33.44,3.77 a 46.09,46.09 0 0 1 15.47,15.37 c 3,5 2.63,4.05 44.7,111.11 16.37,41.5 29.92,75.09 30.1,74.93 0.18,-0.16 16.37,-41 35.89,-90.6 25,-63.51 36.42,-91.75 38.57,-95.36 a 40.37,40.37 0 0 1 26,-19.33 62.66,62.66 0 0 1 27.24,1.34 47.4,47.4 0 0 1 20.11,12.88 36.56,36.56 0 0 1 10.88,18.26 36,36 0 0 1 0,21.22 c -1.26,5.3 -115,294.42 -119.32,303.3 -17.24,40.39 -65.26,32.74 -79.1,0.28 z"
           transform="translate(17.41,-346.01)"
           id="path2410" />
        <path
           style="fill:#ffffff"
           inkscape:connector-curvature="0"
           class="a"
           d="m 390.81,733.89 c -43.59,-2 -81.28,-19.62 -110.33,-51.38 a 153.7,153.7 0 0 1 -39.11,-79.69 c -2.61,-15.29 -2.78,-26.52 -2.61,-123.4 0.28,-104 -1,-92.58 5.39,-106.7 a 41.86,41.86 0 0 1 27.55,-21.64 66.67,66.67 0 0 1 27.32,0.34 43.94,43.94 0 0 1 31.21,31.93 c 1.07,3.77 1.15,13 1.52,102.53 l 0.38,98.5 a 60.21,60.21 0 0 0 27.79,46.4 c 22.12,15.57 53.92,14.94 77,1.17 a 67.17,67.17 0 0 0 25.89,-28.41 68.83,68.83 0 0 0 6.93,-23.85 c 0.38,-3.68 0.61,-40.65 0.61,-98.92 0,-103.09 -0.26,-97.71 4.33,-107.14 a 43.85,43.85 0 0 1 28.68,-23.22 c 6,-1.7 21.13,-1.7 27.06,0 a 45,45 0 0 1 19.34,10.71 c 7.9,7.49 12,16.56 12.66,23.22 v 101.9 c 0,114.61 0.28,108.68 -4.92,129.15 a 157.36,157.36 0 0 1 -51.16,81.49 C 475.09,723.7 436.69,736 390.81,733.89 Z"
           transform="translate(17.41,-346.01)"
           id="path2412" />
        <path
           style="fill:#ffffff"
           inkscape:connector-curvature="0"
           class="a"
           d="m 1439.64,404.2 a 58.16,58.16 0 1 1 0,-0.06 z"
           transform="translate(17.41,-346.01)"
           id="path2414" />
      </g>
      <g
         id="g2426"
         transform="matrix(0.00638292,0,0,0.00638292,118.98326,233.51053)">
        <path
           id="path2418"
           transform="translate(17.41,-346.01)"
           d="M 1717.63,347 C 1610.7,347 1524,433.7 1524,540.67 c 0,106.97 86.66,193.7 193.59,193.71 106.93,0.01 193.6,-86.67 193.63,-193.63 C 1911.25,433.79 1825,347.2 1718.22,347 h -0.59 m 40.06,320.51 a 123.36,123.36 0 0 1 -123.33,-122.17 84,84 0 0 0 27.39,4.51 85.43,85.43 0 0 0 74.42,-127.32 127.35,127.35 0 0 1 21.51,-2 123.415,123.415 0 0 1 0,246.83"
           class="a"
           inkscape:connector-curvature="0"
           style="fill:#ffffff" />
        <path
           id="path2420"
           transform="translate(17.41,-346.01)"
           d="m 1375.08,733.14 c -10.88,-1.07 -22.46,-6.66 -28.68,-13.65 a 40.93,40.93 0 0 1 -9,-18.36 c -1.52,-6.74 -1.15,-9.88 -1.15,-83.56 0,-88.33 0,-80.32 4.76,-93.11 a 43.68,43.68 0 0 1 17,-17.37 55.7,55.7 0 0 1 32.63,-5.14 c 24.27,2.79 35.55,14.39 37.69,38.87 0.43,5 0.61,33.45 0.53,81.41 -0.28,73.23 -0.28,69.79 -1.7,78.7 -3.67,13 -10.8,22 -22.12,27.66 -7.37,3.68 -19.44,5.47 -29.84,4.49 z m -614.62,0 c -43.61,-2 -81.38,-19.76 -110.33,-51.38 A 152.59,152.59 0 0 1 611,602 c -2.61,-15.29 -2.88,-26.44 -2.61,-123.4 0.26,-104 -1,-92.58 5.29,-106.59 a 42.09,42.09 0 0 1 27.51,-21.74 68.45,68.45 0 0 1 27.43,0.43 43.72,43.72 0 0 1 31.21,32 c 1,3.77 1.17,12.84 1.44,102.53 l 0.43,98.4 c 1.09,20.43 13.59,37.54 27.79,46.42 22,15.65 54,14.92 77,1.17 19.16,-12.86 30.38,-31.85 32.73,-52.19 0.43,-3.77 0.71,-40.74 0.71,-99 0,-103.17 -0.28,-97.67 4.33,-107.12 a 44,44 0 0 1 28.74,-23.25 75.71,75.71 0 0 1 27,0 44.49,44.49 0 0 1 19.44,10.61 c 8,7.55 12.07,16.56 12.68,23.22 v 102 c 0,114.61 0.28,108.68 -5,129.15 A 157.08,157.08 0 0 1 875.94,696 c -31.34,27 -69.72,39.22 -115.48,37.14 z m -738.82,0 C 10.68,732.08 -1,726.48 -7,719.49 a 53.12,53.12 0 0 1 -9.07,-18.36 c -1.64,-7.47 -1.26,-10.89 -1.26,-105 0,-78.62 0.18,-101.92 0.89,-107.4 C -12,452.87 2,422.91 26.14,397.86 c 30.2,-31.48 67,-47.86 111.38,-49.56 12.15,-0.55 18,0.16 25.08,2.79 a 45.1,45.1 0 0 1 24.91,24.46 55.35,55.35 0 0 1 3.24,22 c -1.26,19.76 -9.88,32.37 -26.51,38.69 a 85.51,85.51 0 0 1 -21.13,4.58 c -14,1.7 -21,3.68 -31,8.81 A 68.16,68.16 0 0 0 81.89,479.13 91.51,91.51 0 0 0 76.67,494 c -1.44,8.36 -0.89,26.79 -1.26,102.36 0.55,88.7 0.81,95.52 -1.8,104.61 -3.67,13.12 -10.71,21.85 -22.12,27.66 -7.35,3.7 -19.34,5.5 -29.85,4.51 z M 1093.48,705.48 C 1090.32,699.1 975.76,408.39 974.24,402.72 a 37,37 0 0 1 0,-22.59 c 4.68,-15.29 18.88,-28 35.24,-31.75 10.88,-2.33 24.65,-0.81 33.44,3.77 a 46.09,46.09 0 0 1 15.47,15.37 c 3,5 2.63,4.05 44.7,111.11 16.37,41.5 29.92,75.09 30.1,74.93 0.18,-0.16 16.37,-41 35.89,-90.6 25,-63.51 36.42,-91.75 38.57,-95.36 a 40.37,40.37 0 0 1 26,-19.33 62.66,62.66 0 0 1 27.24,1.34 47.4,47.4 0 0 1 20.11,12.88 36.56,36.56 0 0 1 10.88,18.26 36,36 0 0 1 0,21.22 c -1.26,5.3 -115,294.42 -119.32,303.3 -17.24,40.39 -65.26,32.74 -79.1,0.28 z"
           class="a"
           inkscape:connector-curvature="0"
           style="fill:#ffffff" />
        <path
           id="path2422"
           transform="translate(17.41,-346.01)"
           d="m 390.81,733.89 c -43.59,-2 -81.28,-19.62 -110.33,-51.38 a 153.7,153.7 0 0 1 -39.11,-79.69 c -2.61,-15.29 -2.78,-26.52 -2.61,-123.4 0.28,-104 -1,-92.58 5.39,-106.7 a 41.86,41.86 0 0 1 27.55,-21.64 66.67,66.67 0 0 1 27.32,0.34 43.94,43.94 0 0 1 31.21,31.93 c 1.07,3.77 1.15,13 1.52,102.53 l 0.38,98.5 a 60.21,60.21 0 0 0 27.79,46.4 c 22.12,15.57 53.92,14.94 77,1.17 a 67.17,67.17 0 0 0 25.89,-28.41 68.83,68.83 0 0 0 6.93,-23.85 c 0.38,-3.68 0.61,-40.65 0.61,-98.92 0,-103.09 -0.26,-97.71 4.33,-107.14 a 43.85,43.85 0 0 1 28.68,-23.22 c 6,-1.7 21.13,-1.7 27.06,0 a 45,45 0 0 1 19.34,10.71 c 7.9,7.49 12,16.56 12.66,23.22 v 101.9 c 0,114.61 0.28,108.68 -4.92,129.15 a 157.36,157.36 0 0 1 -51.16,81.49 C 475.09,723.7 436.69,736 390.81,733.89 Z"
           class="a"
           inkscape:connector-curvature="0"
           style="fill:#ffffff" />
        <path
           id="path2424"
           transform="translate(17.41,-346.01)"
           d="m 1439.64,404.2 a 58.16,58.16 0 1 1 0,-0.06 z"
           class="a"
           inkscape:connector-curvature="0"
           style="fill:#ffffff" />
      </g>
    </g>
    <g
       id="g2475"
       transform="translate(0,10.000003)">
      <g
         transform="matrix(0.00638292,0,0,0.00638292,68.84472,233.51053)"
         id="g2453">
        <path
           style="fill:#ffffff"
           inkscape:connector-curvature="0"
           class="a"
           d="M 1717.63,347 C 1610.7,347 1524,433.7 1524,540.67 c 0,106.97 86.66,193.7 193.59,193.71 106.93,0.01 193.6,-86.67 193.63,-193.63 C 1911.25,433.79 1825,347.2 1718.22,347 h -0.59 m 40.06,320.51 a 123.36,123.36 0 0 1 -123.33,-122.17 84,84 0 0 0 27.39,4.51 85.43,85.43 0 0 0 74.42,-127.32 127.35,127.35 0 0 1 21.51,-2 123.415,123.415 0 0 1 0,246.83"
           transform="translate(17.41,-346.01)"
           id="path2445" />
        <path
           style="fill:#ffffff"
           inkscape:connector-curvature="0"
           class="a"
           d="m 1375.08,733.14 c -10.88,-1.07 -22.46,-6.66 -28.68,-13.65 a 40.93,40.93 0 0 1 -9,-18.36 c -1.52,-6.74 -1.15,-9.88 -1.15,-83.56 0,-88.33 0,-80.32 4.76,-93.11 a 43.68,43.68 0 0 1 17,-17.37 55.7,55.7 0 0 1 32.63,-5.14 c 24.27,2.79 35.55,14.39 37.69,38.87 0.43,5 0.61,33.45 0.53,81.41 -0.28,73.23 -0.28,69.79 -1.7,78.7 -3.67,13 -10.8,22 -22.12,27.66 -7.37,3.68 -19.44,5.47 -29.84,4.49 z m -614.62,0 c -43.61,-2 -81.38,-19.76 -110.33,-51.38 A 152.59,152.59 0 0 1 611,602 c -2.61,-15.29 -2.88,-26.44 -2.61,-123.4 0.26,-104 -1,-92.58 5.29,-106.59 a 42.09,42.09 0 0 1 27.51,-21.74 68.45,68.45 0 0 1 27.43,0.43 43.72,43.72 0 0 1 31.21,32 c 1,3.77 1.17,12.84 1.44,102.53 l 0.43,98.4 c 1.09,20.43 13.59,37.54 27.79,46.42 22,15.65 54,14.92 77,1.17 19.16,-12.86 30.38,-31.85 32.73,-52.19 0.43,-3.77 0.71,-40.74 0.71,-99 0,-103.17 -0.28,-97.67 4.33,-107.12 a 44,44 0 0 1 28.74,-23.25 75.71,75.71 0 0 1 27,0 44.49,44.49 0 0 1 19.44,10.61 c 8,7.55 12.07,16.56 12.68,23.22 v 102 c 0,114.61 0.28,108.68 -5,129.15 A 157.08,157.08 0 0 1 875.94,696 c -31.34,27 -69.72,39.22 -115.48,37.14 z m -738.82,0 C 10.68,732.08 -1,726.48 -7,719.49 a 53.12,53.12 0 0 1 -9.07,-18.36 c -1.64,-7.47 -1.26,-10.89 -1.26,-105 0,-78.62 0.18,-101.92 0.89,-107.4 C -12,452.87 2,422.91 26.14,397.86 c 30.2,-31.48 67,-47.86 111.38,-49.56 12.15,-0.55 18,0.16 25.08,2.79 a 45.1,45.1 0 0 1 24.91,24.46 55.35,55.35 0 0 1 3.24,22 c -1.26,19.76 -9.88,32.37 -26.51,38.69 a 85.51,85.51 0 0 1 -21.13,4.58 c -14,1.7 -21,3.68 -31,8.81 A 68.16,68.16 0 0 0 81.89,479.13 91.51,91.51 0 0 0 76.67,494 c -1.44,8.36 -0.89,26.79 -1.26,102.36 0.55,88.7 0.81,95.52 -1.8,104.61 -3.67,13.12 -10.71,21.85 -22.12,27.66 -7.35,3.7 -19.34,5.5 -29.85,4.51 z M 1093.48,705.48 C 1090.32,699.1 975.76,408.39 974.24,402.72 a 37,37 0 0 1 0,-22.59 c 4.68,-15.29 18.88,-28 35.24,-31.75 10.88,-2.33 24.65,-0.81 33.44,3.77 a 46.09,46.09 0 0 1 15.47,15.37 c 3,5 2.63,4.05 44.7,111.11 16.37,41.5 29.92,75.09 30.1,74.93 0.18,-0.16 16.37,-41 35.89,-90.6 25,-63.51 36.42,-91.75 38.57,-95.36 a 40.37,40.37 0 0 1 26,-19.33 62.66,62.66 0 0 1 27.24,1.34 47.4,47.4 0 0 1 20.11,12.88 36.56,36.56 0 0 1 10.88,18.26 36,36 0 0 1 0,21.22 c -1.26,5.3 -115,294.42 -119.32,303.3 -17.24,40.39 -65.26,32.74 -79.1,0.28 z"
           transform="translate(17.41,-346.01)"
           id="path2447" />
        <path
           style="fill:#ffffff"
           inkscape:connector-curvature="0"
           class="a"
           d="m 390.81,733.89 c -43.59,-2 -81.28,-19.62 -110.33,-51.38 a 153.7,153.7 0 0 1 -39.11,-79.69 c -2.61,-15.29 -2.78,-26.52 -2.61,-123.4 0.28,-104 -1,-92.58 5.39,-106.7 a 41.86,41.86 0 0 1 27.55,-21.64 66.67,66.67 0 0 1 27.32,0.34 43.94,43.94 0 0 1 31.21,31.93 c 1.07,3.77 1.15,13 1.52,102.53 l 0.38,98.5 a 60.21,60.21 0 0 0 27.79,46.4 c 22.12,15.57 53.92,14.94 77,1.17 a 67.17,67.17 0 0 0 25.89,-28.41 68.83,68.83 0 0 0 6.93,-23.85 c 0.38,-3.68 0.61,-40.65 0.61,-98.92 0,-103.09 -0.26,-97.71 4.33,-107.14 a 43.85,43.85 0 0 1 28.68,-23.22 c 6,-1.7 21.13,-1.7 27.06,0 a 45,45 0 0 1 19.34,10.71 c 7.9,7.49 12,16.56 12.66,23.22 v 101.9 c 0,114.61 0.28,108.68 -4.92,129.15 a 157.36,157.36 0 0 1 -51.16,81.49 C 475.09,723.7 436.69,736 390.81,733.89 Z"
           transform="translate(17.41,-346.01)"
           id="path2449" />
        <path
           style="fill:#ffffff"
           inkscape:connector-curvature="0"
           class="a"
           d="m 1439.64,404.2 a 58.16,58.16 0 1 1 0,-0.06 z"
           transform="translate(17.41,-346.01)"
           id="path2451" />
      </g>
      <g
         id="g2463"
         transform="matrix(0.00638292,0,0,0.00638292,94.112428,233.51053)">
        <path
           id="path2455"
           transform="translate(17.41,-346.01)"
           d="M 1717.63,347 C 1610.7,347 1524,433.7 1524,540.67 c 0,106.97 86.66,193.7 193.59,193.71 106.93,0.01 193.6,-86.67 193.63,-193.63 C 1911.25,433.79 1825,347.2 1718.22,347 h -0.59 m 40.06,320.51 a 123.36,123.36 0 0 1 -123.33,-122.17 84,84 0 0 0 27.39,4.51 85.43,85.43 0 0 0 74.42,-127.32 127.35,127.35 0 0 1 21.51,-2 123.415,123.415 0 0 1 0,246.83"
           class="a"
           inkscape:connector-curvature="0"
           style="fill:#ffffff" />
        <path
           id="path2457"
           transform="translate(17.41,-346.01)"
           d="m 1375.08,733.14 c -10.88,-1.07 -22.46,-6.66 -28.68,-13.65 a 40.93,40.93 0 0 1 -9,-18.36 c -1.52,-6.74 -1.15,-9.88 -1.15,-83.56 0,-88.33 0,-80.32 4.76,-93.11 a 43.68,43.68 0 0 1 17,-17.37 55.7,55.7 0 0 1 32.63,-5.14 c 24.27,2.79 35.55,14.39 37.69,38.87 0.43,5 0.61,33.45 0.53,81.41 -0.28,73.23 -0.28,69.79 -1.7,78.7 -3.67,13 -10.8,22 -22.12,27.66 -7.37,3.68 -19.44,5.47 -29.84,4.49 z m -614.62,0 c -43.61,-2 -81.38,-19.76 -110.33,-51.38 A 152.59,152.59 0 0 1 611,602 c -2.61,-15.29 -2.88,-26.44 -2.61,-123.4 0.26,-104 -1,-92.58 5.29,-106.59 a 42.09,42.09 0 0 1 27.51,-21.74 68.45,68.45 0 0 1 27.43,0.43 43.72,43.72 0 0 1 31.21,32 c 1,3.77 1.17,12.84 1.44,102.53 l 0.43,98.4 c 1.09,20.43 13.59,37.54 27.79,46.42 22,15.65 54,14.92 77,1.17 19.16,-12.86 30.38,-31.85 32.73,-52.19 0.43,-3.77 0.71,-40.74 0.71,-99 0,-103.17 -0.28,-97.67 4.33,-107.12 a 44,44 0 0 1 28.74,-23.25 75.71,75.71 0 0 1 27,0 44.49,44.49 0 0 1 19.44,10.61 c 8,7.55 12.07,16.56 12.68,23.22 v 102 c 0,114.61 0.28,108.68 -5,129.15 A 157.08,157.08 0 0 1 875.94,696 c -31.34,27 -69.72,39.22 -115.48,37.14 z m -738.82,0 C 10.68,732.08 -1,726.48 -7,719.49 a 53.12,53.12 0 0 1 -9.07,-18.36 c -1.64,-7.47 -1.26,-10.89 -1.26,-105 0,-78.62 0.18,-101.92 0.89,-107.4 C -12,452.87 2,422.91 26.14,397.86 c 30.2,-31.48 67,-47.86 111.38,-49.56 12.15,-0.55 18,0.16 25.08,2.79 a 45.1,45.1 0 0 1 24.91,24.46 55.35,55.35 0 0 1 3.24,22 c -1.26,19.76 -9.88,32.37 -26.51,38.69 a 85.51,85.51 0 0 1 -21.13,4.58 c -14,1.7 -21,3.68 -31,8.81 A 68.16,68.16 0 0 0 81.89,479.13 91.51,91.51 0 0 0 76.67,494 c -1.44,8.36 -0.89,26.79 -1.26,102.36 0.55,88.7 0.81,95.52 -1.8,104.61 -3.67,13.12 -10.71,21.85 -22.12,27.66 -7.35,3.7 -19.34,5.5 -29.85,4.51 z M 1093.48,705.48 C 1090.32,699.1 975.76,408.39 974.24,402.72 a 37,37 0 0 1 0,-22.59 c 4.68,-15.29 18.88,-28 35.24,-31.75 10.88,-2.33 24.65,-0.81 33.44,3.77 a 46.09,46.09 0 0 1 15.47,15.37 c 3,5 2.63,4.05 44.7,111.11 16.37,41.5 29.92,75.09 30.1,74.93 0.18,-0.16 16.37,-41 35.89,-90.6 25,-63.51 36.42,-91.75 38.57,-95.36 a 40.37,40.37 0 0 1 26,-19.33 62.66,62.66 0 0 1 27.24,1.34 47.4,47.4 0 0 1 20.11,12.88 36.56,36.56 0 0 1 10.88,18.26 36,36 0 0 1 0,21.22 c -1.26,5.3 -115,294.42 -119.32,303.3 -17.24,40.39 -65.26,32.74 -79.1,0.28 z"
           class="a"
           inkscape:connector-curvature="0"
           style="fill:#ffffff" />
        <path
           id="path2459"
           transform="translate(17.41,-346.01)"
           d="m 390.81,733.89 c -43.59,-2 -81.28,-19.62 -110.33,-51.38 a 153.7,153.7 0 0 1 -39.11,-79.69 c -2.61,-15.29 -2.78,-26.52 -2.61,-123.4 0.28,-104 -1,-92.58 5.39,-106.7 a 41.86,41.86 0 0 1 27.55,-21.64 66.67,66.67 0 0 1 27.32,0.34 43.94,43.94 0 0 1 31.21,31.93 c 1.07,3.77 1.15,13 1.52,102.53 l 0.38,98.5 a 60.21,60.21 0 0 0 27.79,46.4 c 22.12,15.57 53.92,14.94 77,1.17 a 67.17,67.17 0 0 0 25.89,-28.41 68.83,68.83 0 0 0 6.93,-23.85 c 0.38,-3.68 0.61,-40.65 0.61,-98.92 0,-103.09 -0.26,-97.71 4.33,-107.14 a 43.85,43.85 0 0 1 28.68,-23.22 c 6,-1.7 21.13,-1.7 27.06,0 a 45,45 0 0 1 19.34,10.71 c 7.9,7.49 12,16.56 12.66,23.22 v 101.9 c 0,114.61 0.28,108.68 -4.92,129.15 a 157.36,157.36 0 0 1 -51.16,81.49 C 475.09,723.7 436.69,736 390.81,733.89 Z"
           class="a"
           inkscape:connector-curvature="0"
           style="fill:#ffffff" />
        <path
           id="path2461"
           transform="translate(17.41,-346.01)"
           d="m 1439.64,404.2 a 58.16,58.16 0 1 1 0,-0.06 z"
           class="a"
           inkscape:connector-curvature="0"
           style="fill:#ffffff" />
      </g>
      <g
         transform="matrix(0.00638292,0,0,0.00638292,118.98326,233.51053)"
         id="g2473">
        <path
           style="fill:#ffffff"
           inkscape:connector-curvature="0"
           class="a"
           d="M 1717.63,347 C 1610.7,347 1524,433.7 1524,540.67 c 0,106.97 86.66,193.7 193.59,193.71 106.93,0.01 193.6,-86.67 193.63,-193.63 C 1911.25,433.79 1825,347.2 1718.22,347 h -0.59 m 40.06,320.51 a 123.36,123.36 0 0 1 -123.33,-122.17 84,84 0 0 0 27.39,4.51 85.43,85.43 0 0 0 74.42,-127.32 127.35,127.35 0 0 1 21.51,-2 123.415,123.415 0 0 1 0,246.83"
           transform="translate(17.41,-346.01)"
           id="path2465" />
        <path
           style="fill:#ffffff"
           inkscape:connector-curvature="0"
           class="a"
           d="m 1375.08,733.14 c -10.88,-1.07 -22.46,-6.66 -28.68,-13.65 a 40.93,40.93 0 0 1 -9,-18.36 c -1.52,-6.74 -1.15,-9.88 -1.15,-83.56 0,-88.33 0,-80.32 4.76,-93.11 a 43.68,43.68 0 0 1 17,-17.37 55.7,55.7 0 0 1 32.63,-5.14 c 24.27,2.79 35.55,14.39 37.69,38.87 0.43,5 0.61,33.45 0.53,81.41 -0.28,73.23 -0.28,69.79 -1.7,78.7 -3.67,13 -10.8,22 -22.12,27.66 -7.37,3.68 -19.44,5.47 -29.84,4.49 z m -614.62,0 c -43.61,-2 -81.38,-19.76 -110.33,-51.38 A 152.59,152.59 0 0 1 611,602 c -2.61,-15.29 -2.88,-26.44 -2.61,-123.4 0.26,-104 -1,-92.58 5.29,-106.59 a 42.09,42.09 0 0 1 27.51,-21.74 68.45,68.45 0 0 1 27.43,0.43 43.72,43.72 0 0 1 31.21,32 c 1,3.77 1.17,12.84 1.44,102.53 l 0.43,98.4 c 1.09,20.43 13.59,37.54 27.79,46.42 22,15.65 54,14.92 77,1.17 19.16,-12.86 30.38,-31.85 32.73,-52.19 0.43,-3.77 0.71,-40.74 0.71,-99 0,-103.17 -0.28,-97.67 4.33,-107.12 a 44,44 0 0 1 28.74,-23.25 75.71,75.71 0 0 1 27,0 44.49,44.49 0 0 1 19.44,10.61 c 8,7.55 12.07,16.56 12.68,23.22 v 102 c 0,114.61 0.28,108.68 -5,129.15 A 157.08,157.08 0 0 1 875.94,696 c -31.34,27 -69.72,39.22 -115.48,37.14 z m -738.82,0 C 10.68,732.08 -1,726.48 -7,719.49 a 53.12,53.12 0 0 1 -9.07,-18.36 c -1.64,-7.47 -1.26,-10.89 -1.26,-105 0,-78.62 0.18,-101.92 0.89,-107.4 C -12,452.87 2,422.91 26.14,397.86 c 30.2,-31.48 67,-47.86 111.38,-49.56 12.15,-0.55 18,0.16 25.08,2.79 a 45.1,45.1 0 0 1 24.91,24.46 55.35,55.35 0 0 1 3.24,22 c -1.26,19.76 -9.88,32.37 -26.51,38.69 a 85.51,85.51 0 0 1 -21.13,4.58 c -14,1.7 -21,3.68 -31,8.81 A 68.16,68.16 0 0 0 81.89,479.13 91.51,91.51 0 0 0 76.67,494 c -1.44,8.36 -0.89,26.79 -1.26,102.36 0.55,88.7 0.81,95.52 -1.8,104.61 -3.67,13.12 -10.71,21.85 -22.12,27.66 -7.35,3.7 -19.34,5.5 -29.85,4.51 z M 1093.48,705.48 C 1090.32,699.1 975.76,408.39 974.24,402.72 a 37,37 0 0 1 0,-22.59 c 4.68,-15.29 18.88,-28 35.24,-31.75 10.88,-2.33 24.65,-0.81 33.44,3.77 a 46.09,46.09 0 0 1 15.47,15.37 c 3,5 2.63,4.05 44.7,111.11 16.37,41.5 29.92,75.09 30.1,74.93 0.18,-0.16 16.37,-41 35.89,-90.6 25,-63.51 36.42,-91.75 38.57,-95.36 a 40.37,40.37 0 0 1 26,-19.33 62.66,62.66 0 0 1 27.24,1.34 47.4,47.4 0 0 1 20.11,12.88 36.56,36.56 0 0 1 10.88,18.26 36,36 0 0 1 0,21.22 c -1.26,5.3 -115,294.42 -119.32,303.3 -17.24,40.39 -65.26,32.74 -79.1,0.28 z"
           transform="translate(17.41,-346.01)"
           id="path2467" />
        <path
           style="fill:#ffffff"
           inkscape:connector-curvature="0"
           class="a"
           d="m 390.81,733.89 c -43.59,-2 -81.28,-19.62 -110.33,-51.38 a 153.7,153.7 0 0 1 -39.11,-79.69 c -2.61,-15.29 -2.78,-26.52 -2.61,-123.4 0.28,-104 -1,-92.58 5.39,-106.7 a 41.86,41.86 0 0 1 27.55,-21.64 66.67,66.67 0 0 1 27.32,0.34 43.94,43.94 0 0 1 31.21,31.93 c 1.07,3.77 1.15,13 1.52,102.53 l 0.38,98.5 a 60.21,60.21 0 0 0 27.79,46.4 c 22.12,15.57 53.92,14.94 77,1.17 a 67.17,67.17 0 0 0 25.89,-28.41 68.83,68.83 0 0 0 6.93,-23.85 c 0.38,-3.68 0.61,-40.65 0.61,-98.92 0,-103.09 -0.26,-97.71 4.33,-107.14 a 43.85,43.85 0 0 1 28.68,-23.22 c 6,-1.7 21.13,-1.7 27.06,0 a 45,45 0 0 1 19.34,10.71 c 7.9,7.49 12,16.56 12.66,23.22 v 101.9 c 0,114.61 0.28,108.68 -4.92,129.15 a 157.36,157.36 0 0 1 -51.16,81.49 C 475.09,723.7 436.69,736 390.81,733.89 Z"
           transform="translate(17.41,-346.01)"
           id="path2469" />
        <path
           style="fill:#ffffff"
           inkscape:connector-curvature="0"
           class="a"
           d="m 1439.64,404.2 a 58.16,58.16 0 1 1 0,-0.06 z"
           transform="translate(17.41,-346.01)"
           id="path2471" />
      </g>
    </g>
    <rect
       style="opacity:1;fill:#4d4d4d;fill-opacity:1;stroke:none;stroke-width:5;stroke-linecap:butt;stroke-linejoin:round;stroke-miterlimit:4;stroke-dasharray:10.00000015, 5.00000008;stroke-dashoffset:0;stroke-opacity:1;paint-order:normal"
       id="rect2477"
       width="4.5"
       height="0.30000001"
       x="122.50209"
       y="218.94586" />
    <text
       xml:space="preserve"
       style="font-style:normal;font-weight:normal;font-size:7.05555534px;line-height:1.25;font-family:sans-serif;letter-spacing:0px;word-spacing:0px;fill:#000000;fill-opacity:1;stroke:none;stroke-width:0.26458332"
       x="129.51353"
       y="220.08363"
       id="text2481"><tspan
         sodipodi:role="line"
         id="tspan2479"
         x="129.51353"
         y="220.08363"
         style="font-style:normal;font-variant:normal;font-weight:normal;font-stretch:normal;font-size:2.82222223px;font-family:'Montserrat ExtraBold';-inkscape-font-specification:'Montserrat ExtraBold, ';stroke-width:0.26458332">0.3mm</tspan></text>
  </g>
</svg>
