%FSLAX45Y45*%
G04 Gerber Fmt 4.5, Leading zero omitted, Abs format (unit mm)*
G04 Created by KiCad (PCBNEW (5.99.0-10020-g5020012b14)) date 2021-04-02 13:20:54*
%MOMM*%
%LPD*%
G01*
G04 APERTURE LIST*
%TA.AperFunction,Profile*%
%ADD10C,0.010000*%
%TD*%
%ADD11C,0.200000*%
%ADD12C,0.040000*%
G04 APERTURE END LIST*
D10*
X14323223Y-9026777D02*
X14341421Y-9043579D01*
X15050000Y-7600000D02*
X15050000Y-10100000D01*
X14743431Y-9128432D02*
G75*
G03*
X14720000Y-9185000I56568J-56569D01*
G01*
X13950000Y-10100000D02*
X13950000Y-7600000D01*
X14256569Y-9128432D02*
G75*
G02*
X14280000Y-9185000I-56569J-56569D01*
G01*
X13950000Y-7600000D02*
X15050000Y-7600000D01*
X14658579Y-9043579D02*
G75*
G03*
X14600000Y-9185000I141421J-141421D01*
G01*
X14743431Y-9128431D02*
X14761629Y-9111629D01*
X15050000Y-10100000D02*
X13950000Y-10100000D01*
X14400000Y-9185000D02*
G75*
G03*
X14341421Y-9043579I-200000J0D01*
G01*
X14720000Y-9240000D02*
X14720000Y-9185000D01*
X14720000Y-9240000D02*
G75*
G02*
X14600000Y-9240000I-60000J0D01*
G01*
X14761629Y-9111630D02*
G75*
G03*
X14238370Y-9111629I-261630J261630D01*
G01*
X14676777Y-9026777D02*
G75*
G03*
X14323223Y-9026777I-176777J176777D01*
G01*
X14676777Y-9026777D02*
X14658579Y-9043579D01*
X14600000Y-9185000D02*
X14600000Y-9240000D01*
X14238370Y-9111629D02*
X14256568Y-9128432D01*
X14400000Y-9240000D02*
G75*
G02*
X14280000Y-9240000I-60000J0D01*
G01*
X14280000Y-9240000D02*
X14280000Y-9185000D01*
X14400000Y-9185000D02*
X14400000Y-9240000D01*
D11*
D12*
X14000000Y-9280000D02*
X14040000Y-9320000D01*
X14040000Y-9280000D02*
X14000000Y-9320000D01*
X14060000Y-9280000D02*
X14100000Y-9320000D01*
X14100000Y-9280000D02*
X14060000Y-9320000D01*
X14120000Y-9280000D02*
X14160000Y-9320000D01*
X14160000Y-9280000D02*
X14120000Y-9320000D01*
X14180000Y-9280000D02*
X14220000Y-9320000D01*
X14220000Y-9280000D02*
X14180000Y-9320000D01*
X14240000Y-9280000D02*
X14280000Y-9320000D01*
X14280000Y-9280000D02*
X14240000Y-9320000D01*
X14720000Y-9280000D02*
X14760000Y-9320000D01*
X14760000Y-9280000D02*
X14720000Y-9320000D01*
X14780000Y-9280000D02*
X14820000Y-9320000D01*
X14820000Y-9280000D02*
X14780000Y-9320000D01*
X14840000Y-9280000D02*
X14880000Y-9320000D01*
X14880000Y-9280000D02*
X14840000Y-9320000D01*
X14900000Y-9280000D02*
X14940000Y-9320000D01*
X14940000Y-9280000D02*
X14900000Y-9320000D01*
X14960000Y-9280000D02*
X15000000Y-9320000D01*
X15000000Y-9280000D02*
X14960000Y-9320000D01*
D11*
X14207119Y-10410976D02*
X14207119Y-10210976D01*
X14254738Y-10210976D01*
X14283309Y-10220500D01*
X14302357Y-10239548D01*
X14311881Y-10258595D01*
X14321405Y-10296690D01*
X14321405Y-10325262D01*
X14311881Y-10363357D01*
X14302357Y-10382405D01*
X14283309Y-10401452D01*
X14254738Y-10410976D01*
X14207119Y-10410976D01*
X14407119Y-10410976D02*
X14407119Y-10277643D01*
X14407119Y-10315738D02*
X14416643Y-10296690D01*
X14426167Y-10287167D01*
X14445214Y-10277643D01*
X14464262Y-10277643D01*
X14530928Y-10410976D02*
X14530928Y-10277643D01*
X14530928Y-10210976D02*
X14521405Y-10220500D01*
X14530928Y-10230024D01*
X14540452Y-10220500D01*
X14530928Y-10210976D01*
X14530928Y-10230024D01*
X14654738Y-10410976D02*
X14635690Y-10401452D01*
X14626167Y-10382405D01*
X14626167Y-10210976D01*
X14759500Y-10410976D02*
X14740452Y-10401452D01*
X14730928Y-10382405D01*
X14730928Y-10210976D01*
X14988071Y-10410976D02*
X14988071Y-10210976D01*
X15054738Y-10353833D01*
X15121405Y-10210976D01*
X15121405Y-10410976D01*
X15302357Y-10410976D02*
X15302357Y-10306214D01*
X15292833Y-10287167D01*
X15273786Y-10277643D01*
X15235690Y-10277643D01*
X15216643Y-10287167D01*
X15302357Y-10401452D02*
X15283309Y-10410976D01*
X15235690Y-10410976D01*
X15216643Y-10401452D01*
X15207119Y-10382405D01*
X15207119Y-10363357D01*
X15216643Y-10344310D01*
X15235690Y-10334786D01*
X15283309Y-10334786D01*
X15302357Y-10325262D01*
X15397595Y-10277643D02*
X15397595Y-10477643D01*
X15397595Y-10287167D02*
X15416643Y-10277643D01*
X15454738Y-10277643D01*
X15473786Y-10287167D01*
X15483309Y-10296690D01*
X15492833Y-10315738D01*
X15492833Y-10372881D01*
X15483309Y-10391929D01*
X15473786Y-10401452D01*
X15454738Y-10410976D01*
X15416643Y-10410976D01*
X15397595Y-10401452D01*
X15578548Y-10391929D02*
X15588071Y-10401452D01*
X15578548Y-10410976D01*
X15569024Y-10401452D01*
X15578548Y-10391929D01*
X15578548Y-10410976D01*
X15578548Y-10287167D02*
X15588071Y-10296690D01*
X15578548Y-10306214D01*
X15569024Y-10296690D01*
X15578548Y-10287167D01*
X15578548Y-10306214D01*
D12*
X13909500Y-10720500D02*
X13949500Y-10760500D01*
X13949500Y-10720500D02*
X13909500Y-10760500D01*
D11*
X14245214Y-10630976D02*
X14264262Y-10630976D01*
X14283309Y-10640500D01*
X14292833Y-10650024D01*
X14302357Y-10669071D01*
X14311881Y-10707167D01*
X14311881Y-10754786D01*
X14302357Y-10792881D01*
X14292833Y-10811929D01*
X14283309Y-10821452D01*
X14264262Y-10830976D01*
X14245214Y-10830976D01*
X14226167Y-10821452D01*
X14216643Y-10811929D01*
X14207119Y-10792881D01*
X14197595Y-10754786D01*
X14197595Y-10707167D01*
X14207119Y-10669071D01*
X14216643Y-10650024D01*
X14226167Y-10640500D01*
X14245214Y-10630976D01*
X14397595Y-10811929D02*
X14407119Y-10821452D01*
X14397595Y-10830976D01*
X14388071Y-10821452D01*
X14397595Y-10811929D01*
X14397595Y-10830976D01*
X14578548Y-10697643D02*
X14578548Y-10830976D01*
X14530928Y-10621452D02*
X14483309Y-10764310D01*
X14607119Y-10764310D01*
X14721405Y-10630976D02*
X14740452Y-10630976D01*
X14759500Y-10640500D01*
X14769024Y-10650024D01*
X14778548Y-10669071D01*
X14788071Y-10707167D01*
X14788071Y-10754786D01*
X14778548Y-10792881D01*
X14769024Y-10811929D01*
X14759500Y-10821452D01*
X14740452Y-10830976D01*
X14721405Y-10830976D01*
X14702357Y-10821452D01*
X14692833Y-10811929D01*
X14683309Y-10792881D01*
X14673786Y-10754786D01*
X14673786Y-10707167D01*
X14683309Y-10669071D01*
X14692833Y-10650024D01*
X14702357Y-10640500D01*
X14721405Y-10630976D01*
X14911881Y-10630976D02*
X14930928Y-10630976D01*
X14949976Y-10640500D01*
X14959500Y-10650024D01*
X14969024Y-10669071D01*
X14978548Y-10707167D01*
X14978548Y-10754786D01*
X14969024Y-10792881D01*
X14959500Y-10811929D01*
X14949976Y-10821452D01*
X14930928Y-10830976D01*
X14911881Y-10830976D01*
X14892833Y-10821452D01*
X14883309Y-10811929D01*
X14873786Y-10792881D01*
X14864262Y-10754786D01*
X14864262Y-10707167D01*
X14873786Y-10669071D01*
X14883309Y-10650024D01*
X14892833Y-10640500D01*
X14911881Y-10630976D01*
X15064262Y-10830976D02*
X15064262Y-10697643D01*
X15064262Y-10716690D02*
X15073786Y-10707167D01*
X15092833Y-10697643D01*
X15121405Y-10697643D01*
X15140452Y-10707167D01*
X15149976Y-10726214D01*
X15149976Y-10830976D01*
X15149976Y-10726214D02*
X15159500Y-10707167D01*
X15178548Y-10697643D01*
X15207119Y-10697643D01*
X15226167Y-10707167D01*
X15235690Y-10726214D01*
X15235690Y-10830976D01*
X15330928Y-10830976D02*
X15330928Y-10697643D01*
X15330928Y-10716690D02*
X15340452Y-10707167D01*
X15359500Y-10697643D01*
X15388071Y-10697643D01*
X15407119Y-10707167D01*
X15416643Y-10726214D01*
X15416643Y-10830976D01*
X15416643Y-10726214D02*
X15426167Y-10707167D01*
X15445214Y-10697643D01*
X15473786Y-10697643D01*
X15492833Y-10707167D01*
X15502357Y-10726214D01*
X15502357Y-10830976D01*
X15892833Y-10621452D02*
X15721405Y-10878595D01*
X16149976Y-10630976D02*
X16169024Y-10630976D01*
X16188071Y-10640500D01*
X16197595Y-10650024D01*
X16207119Y-10669071D01*
X16216643Y-10707167D01*
X16216643Y-10754786D01*
X16207119Y-10792881D01*
X16197595Y-10811929D01*
X16188071Y-10821452D01*
X16169024Y-10830976D01*
X16149976Y-10830976D01*
X16130928Y-10821452D01*
X16121405Y-10811929D01*
X16111881Y-10792881D01*
X16102357Y-10754786D01*
X16102357Y-10707167D01*
X16111881Y-10669071D01*
X16121405Y-10650024D01*
X16130928Y-10640500D01*
X16149976Y-10630976D01*
X16302357Y-10811929D02*
X16311881Y-10821452D01*
X16302357Y-10830976D01*
X16292833Y-10821452D01*
X16302357Y-10811929D01*
X16302357Y-10830976D01*
X16435690Y-10630976D02*
X16454738Y-10630976D01*
X16473786Y-10640500D01*
X16483309Y-10650024D01*
X16492833Y-10669071D01*
X16502357Y-10707167D01*
X16502357Y-10754786D01*
X16492833Y-10792881D01*
X16483309Y-10811929D01*
X16473786Y-10821452D01*
X16454738Y-10830976D01*
X16435690Y-10830976D01*
X16416643Y-10821452D01*
X16407119Y-10811929D01*
X16397595Y-10792881D01*
X16388071Y-10754786D01*
X16388071Y-10707167D01*
X16397595Y-10669071D01*
X16407119Y-10650024D01*
X16416643Y-10640500D01*
X16435690Y-10630976D01*
X16692833Y-10830976D02*
X16578548Y-10830976D01*
X16635690Y-10830976D02*
X16635690Y-10630976D01*
X16616643Y-10659548D01*
X16597595Y-10678595D01*
X16578548Y-10688119D01*
X16873786Y-10630976D02*
X16778548Y-10630976D01*
X16769024Y-10726214D01*
X16778548Y-10716690D01*
X16797595Y-10707167D01*
X16845214Y-10707167D01*
X16864262Y-10716690D01*
X16873786Y-10726214D01*
X16883310Y-10745262D01*
X16883310Y-10792881D01*
X16873786Y-10811929D01*
X16864262Y-10821452D01*
X16845214Y-10830976D01*
X16797595Y-10830976D01*
X16778548Y-10821452D01*
X16769024Y-10811929D01*
X16949976Y-10630976D02*
X17083310Y-10630976D01*
X16997595Y-10830976D01*
X17149976Y-10630976D02*
X17149976Y-10669071D01*
X17226167Y-10630976D02*
X17226167Y-10669071D01*
X17521405Y-10907167D02*
X17511881Y-10897643D01*
X17492833Y-10869071D01*
X17483310Y-10850024D01*
X17473786Y-10821452D01*
X17464262Y-10773833D01*
X17464262Y-10735738D01*
X17473786Y-10688119D01*
X17483310Y-10659548D01*
X17492833Y-10640500D01*
X17511881Y-10611929D01*
X17521405Y-10602405D01*
X17702357Y-10830976D02*
X17588071Y-10830976D01*
X17645214Y-10830976D02*
X17645214Y-10630976D01*
X17626167Y-10659548D01*
X17607119Y-10678595D01*
X17588071Y-10688119D01*
X17826167Y-10630976D02*
X17845214Y-10630976D01*
X17864262Y-10640500D01*
X17873786Y-10650024D01*
X17883310Y-10669071D01*
X17892833Y-10707167D01*
X17892833Y-10754786D01*
X17883310Y-10792881D01*
X17873786Y-10811929D01*
X17864262Y-10821452D01*
X17845214Y-10830976D01*
X17826167Y-10830976D01*
X17807119Y-10821452D01*
X17797595Y-10811929D01*
X17788071Y-10792881D01*
X17778548Y-10754786D01*
X17778548Y-10707167D01*
X17788071Y-10669071D01*
X17797595Y-10650024D01*
X17807119Y-10640500D01*
X17826167Y-10630976D01*
X18130929Y-10830976D02*
X18130929Y-10630976D01*
X18216643Y-10830976D02*
X18216643Y-10726214D01*
X18207119Y-10707167D01*
X18188071Y-10697643D01*
X18159500Y-10697643D01*
X18140452Y-10707167D01*
X18130929Y-10716690D01*
X18340452Y-10830976D02*
X18321405Y-10821452D01*
X18311881Y-10811929D01*
X18302357Y-10792881D01*
X18302357Y-10735738D01*
X18311881Y-10716690D01*
X18321405Y-10707167D01*
X18340452Y-10697643D01*
X18369024Y-10697643D01*
X18388071Y-10707167D01*
X18397595Y-10716690D01*
X18407119Y-10735738D01*
X18407119Y-10792881D01*
X18397595Y-10811929D01*
X18388071Y-10821452D01*
X18369024Y-10830976D01*
X18340452Y-10830976D01*
X18521405Y-10830976D02*
X18502357Y-10821452D01*
X18492833Y-10802405D01*
X18492833Y-10630976D01*
X18673786Y-10821452D02*
X18654738Y-10830976D01*
X18616643Y-10830976D01*
X18597595Y-10821452D01*
X18588071Y-10802405D01*
X18588071Y-10726214D01*
X18597595Y-10707167D01*
X18616643Y-10697643D01*
X18654738Y-10697643D01*
X18673786Y-10707167D01*
X18683310Y-10726214D01*
X18683310Y-10745262D01*
X18588071Y-10764310D01*
X18759500Y-10821452D02*
X18778548Y-10830976D01*
X18816643Y-10830976D01*
X18835690Y-10821452D01*
X18845214Y-10802405D01*
X18845214Y-10792881D01*
X18835690Y-10773833D01*
X18816643Y-10764310D01*
X18788071Y-10764310D01*
X18769024Y-10754786D01*
X18759500Y-10735738D01*
X18759500Y-10726214D01*
X18769024Y-10707167D01*
X18788071Y-10697643D01*
X18816643Y-10697643D01*
X18835690Y-10707167D01*
X18911881Y-10907167D02*
X18921405Y-10897643D01*
X18940452Y-10869071D01*
X18949976Y-10850024D01*
X18959500Y-10821452D01*
X18969024Y-10773833D01*
X18969024Y-10735738D01*
X18959500Y-10688119D01*
X18949976Y-10659548D01*
X18940452Y-10640500D01*
X18921405Y-10611929D01*
X18911881Y-10602405D01*
X19273786Y-10907167D02*
X19264262Y-10897643D01*
X19245214Y-10869071D01*
X19235690Y-10850024D01*
X19226167Y-10821452D01*
X19216643Y-10773833D01*
X19216643Y-10735738D01*
X19226167Y-10688119D01*
X19235690Y-10659548D01*
X19245214Y-10640500D01*
X19264262Y-10611929D01*
X19273786Y-10602405D01*
X19349976Y-10697643D02*
X19349976Y-10830976D01*
X19349976Y-10716690D02*
X19359500Y-10707167D01*
X19378548Y-10697643D01*
X19407119Y-10697643D01*
X19426167Y-10707167D01*
X19435690Y-10726214D01*
X19435690Y-10830976D01*
X19559500Y-10830976D02*
X19540452Y-10821452D01*
X19530929Y-10811929D01*
X19521405Y-10792881D01*
X19521405Y-10735738D01*
X19530929Y-10716690D01*
X19540452Y-10707167D01*
X19559500Y-10697643D01*
X19588071Y-10697643D01*
X19607119Y-10707167D01*
X19616643Y-10716690D01*
X19626167Y-10735738D01*
X19626167Y-10792881D01*
X19616643Y-10811929D01*
X19607119Y-10821452D01*
X19588071Y-10830976D01*
X19559500Y-10830976D01*
X19683310Y-10697643D02*
X19759500Y-10697643D01*
X19711881Y-10630976D02*
X19711881Y-10802405D01*
X19721405Y-10821452D01*
X19740452Y-10830976D01*
X19759500Y-10830976D01*
X19978548Y-10697643D02*
X19978548Y-10897643D01*
X19978548Y-10707167D02*
X19997595Y-10697643D01*
X20035690Y-10697643D01*
X20054738Y-10707167D01*
X20064262Y-10716690D01*
X20073786Y-10735738D01*
X20073786Y-10792881D01*
X20064262Y-10811929D01*
X20054738Y-10821452D01*
X20035690Y-10830976D01*
X19997595Y-10830976D01*
X19978548Y-10821452D01*
X20188071Y-10830976D02*
X20169024Y-10821452D01*
X20159500Y-10802405D01*
X20159500Y-10630976D01*
X20349976Y-10830976D02*
X20349976Y-10726214D01*
X20340452Y-10707167D01*
X20321405Y-10697643D01*
X20283310Y-10697643D01*
X20264262Y-10707167D01*
X20349976Y-10821452D02*
X20330929Y-10830976D01*
X20283310Y-10830976D01*
X20264262Y-10821452D01*
X20254738Y-10802405D01*
X20254738Y-10783357D01*
X20264262Y-10764310D01*
X20283310Y-10754786D01*
X20330929Y-10754786D01*
X20349976Y-10745262D01*
X20416643Y-10697643D02*
X20492833Y-10697643D01*
X20445214Y-10630976D02*
X20445214Y-10802405D01*
X20454738Y-10821452D01*
X20473786Y-10830976D01*
X20492833Y-10830976D01*
X20635690Y-10821452D02*
X20616643Y-10830976D01*
X20578548Y-10830976D01*
X20559500Y-10821452D01*
X20549976Y-10802405D01*
X20549976Y-10726214D01*
X20559500Y-10707167D01*
X20578548Y-10697643D01*
X20616643Y-10697643D01*
X20635690Y-10707167D01*
X20645214Y-10726214D01*
X20645214Y-10745262D01*
X20549976Y-10764310D01*
X20816643Y-10830976D02*
X20816643Y-10630976D01*
X20816643Y-10821452D02*
X20797595Y-10830976D01*
X20759500Y-10830976D01*
X20740452Y-10821452D01*
X20730929Y-10811929D01*
X20721405Y-10792881D01*
X20721405Y-10735738D01*
X20730929Y-10716690D01*
X20740452Y-10707167D01*
X20759500Y-10697643D01*
X20797595Y-10697643D01*
X20816643Y-10707167D01*
X20892833Y-10907167D02*
X20902357Y-10897643D01*
X20921405Y-10869071D01*
X20930929Y-10850024D01*
X20940452Y-10821452D01*
X20949976Y-10773833D01*
X20949976Y-10735738D01*
X20940452Y-10688119D01*
X20930929Y-10659548D01*
X20921405Y-10640500D01*
X20902357Y-10611929D01*
X20892833Y-10602405D01*
M02*
