%FSLAX45Y45*%
G04 Gerber Fmt 4.5, Leading zero omitted, Abs format (unit mm)*
G04 Created by KiCad (PCBNEW (5.99.0-10020-g5020012b14)) date 2021-04-02 13:20:54*
%MOMM*%
%LPD*%
G01*
G04 APERTURE LIST*
%TA.AperFunction,Profile*%
%ADD10C,0.010000*%
%TD*%
%ADD11C,0.200000*%
%ADD12C,0.030000*%
%ADD13C,0.040000*%
%ADD14C,0.320000*%
G04 APERTURE END LIST*
D10*
X14323223Y-9026777D02*
X14341421Y-9043579D01*
X15050000Y-7600000D02*
X15050000Y-10100000D01*
X14743431Y-9128432D02*
G75*
G03*
X14720000Y-9185000I56568J-56569D01*
G01*
X13950000Y-10100000D02*
X13950000Y-7600000D01*
X14256569Y-9128432D02*
G75*
G02*
X14280000Y-9185000I-56569J-56569D01*
G01*
X13950000Y-7600000D02*
X15050000Y-7600000D01*
X14658579Y-9043579D02*
G75*
G03*
X14600000Y-9185000I141421J-141421D01*
G01*
X14743431Y-9128431D02*
X14761629Y-9111629D01*
X15050000Y-10100000D02*
X13950000Y-10100000D01*
X14400000Y-9185000D02*
G75*
G03*
X14341421Y-9043579I-200000J0D01*
G01*
X14720000Y-9240000D02*
X14720000Y-9185000D01*
X14720000Y-9240000D02*
G75*
G02*
X14600000Y-9240000I-60000J0D01*
G01*
X14761629Y-9111630D02*
G75*
G03*
X14238370Y-9111629I-261630J261630D01*
G01*
X14676777Y-9026777D02*
G75*
G03*
X14323223Y-9026777I-176777J176777D01*
G01*
X14676777Y-9026777D02*
X14658579Y-9043579D01*
X14600000Y-9185000D02*
X14600000Y-9240000D01*
X14238370Y-9111629D02*
X14256568Y-9128432D01*
X14400000Y-9240000D02*
G75*
G02*
X14280000Y-9240000I-60000J0D01*
G01*
X14280000Y-9240000D02*
X14280000Y-9185000D01*
X14400000Y-9185000D02*
X14400000Y-9240000D01*
D11*
D12*
X14115000Y-7765000D02*
X14145000Y-7795000D01*
X14145000Y-7765000D02*
X14115000Y-7795000D01*
X14115000Y-8475000D02*
X14145000Y-8505000D01*
X14145000Y-8475000D02*
X14115000Y-8505000D01*
X14115000Y-9185000D02*
X14145000Y-9215000D01*
X14145000Y-9185000D02*
X14115000Y-9215000D01*
X14115000Y-9385000D02*
X14145000Y-9415000D01*
X14145000Y-9385000D02*
X14115000Y-9415000D01*
X14305000Y-9445000D02*
X14335000Y-9475000D01*
X14335000Y-9445000D02*
X14305000Y-9475000D01*
X14345000Y-9825000D02*
X14375000Y-9855000D01*
X14375000Y-9825000D02*
X14345000Y-9855000D01*
X14425000Y-9380000D02*
X14455000Y-9410000D01*
X14455000Y-9380000D02*
X14425000Y-9410000D01*
X14445000Y-9460000D02*
X14475000Y-9490000D01*
X14475000Y-9460000D02*
X14445000Y-9490000D01*
X14485000Y-8685000D02*
X14515000Y-8715000D01*
X14515000Y-8685000D02*
X14485000Y-8715000D01*
X14485000Y-8755000D02*
X14515000Y-8785000D01*
X14515000Y-8755000D02*
X14485000Y-8785000D01*
X14485000Y-8825000D02*
X14515000Y-8855000D01*
X14515000Y-8825000D02*
X14485000Y-8855000D01*
X14585000Y-9397500D02*
X14615000Y-9427500D01*
X14615000Y-9397500D02*
X14585000Y-9427500D01*
X14625000Y-9826250D02*
X14655000Y-9856250D01*
X14655000Y-9826250D02*
X14625000Y-9856250D01*
X14650000Y-9455000D02*
X14680000Y-9485000D01*
X14680000Y-9455000D02*
X14650000Y-9485000D01*
X14735000Y-9535000D02*
X14765000Y-9565000D01*
X14765000Y-9535000D02*
X14735000Y-9565000D01*
X14855000Y-7765000D02*
X14885000Y-7795000D01*
X14885000Y-7765000D02*
X14855000Y-7795000D01*
X14855000Y-8475000D02*
X14885000Y-8505000D01*
X14885000Y-8475000D02*
X14855000Y-8505000D01*
X14855000Y-9185000D02*
X14885000Y-9215000D01*
X14885000Y-9185000D02*
X14855000Y-9215000D01*
X14855000Y-9385000D02*
X14885000Y-9415000D01*
X14885000Y-9385000D02*
X14855000Y-9415000D01*
D13*
X14280000Y-8100000D02*
G75*
G03*
X14280000Y-8100000I-20000J0D01*
G01*
X14350294Y-7930294D02*
G75*
G03*
X14350294Y-7930294I-20000J0D01*
G01*
X14350294Y-8269706D02*
G75*
G03*
X14350294Y-8269706I-20000J0D01*
G01*
X14520000Y-7860000D02*
G75*
G03*
X14520000Y-7860000I-20000J0D01*
G01*
X14520000Y-8340000D02*
G75*
G03*
X14520000Y-8340000I-20000J0D01*
G01*
X14689706Y-7930294D02*
G75*
G03*
X14689706Y-7930294I-20000J0D01*
G01*
X14689706Y-8269706D02*
G75*
G03*
X14689706Y-8269706I-20000J0D01*
G01*
X14760000Y-8100000D02*
G75*
G03*
X14760000Y-8100000I-20000J0D01*
G01*
D14*
X14500000Y-7940000D02*
X14500000Y-8260000D01*
X14340000Y-8100000D02*
X14660000Y-8100000D01*
D11*
X14207119Y-10410976D02*
X14207119Y-10210976D01*
X14254738Y-10210976D01*
X14283309Y-10220500D01*
X14302357Y-10239548D01*
X14311881Y-10258595D01*
X14321405Y-10296690D01*
X14321405Y-10325262D01*
X14311881Y-10363357D01*
X14302357Y-10382405D01*
X14283309Y-10401452D01*
X14254738Y-10410976D01*
X14207119Y-10410976D01*
X14407119Y-10410976D02*
X14407119Y-10277643D01*
X14407119Y-10315738D02*
X14416643Y-10296690D01*
X14426167Y-10287167D01*
X14445214Y-10277643D01*
X14464262Y-10277643D01*
X14530928Y-10410976D02*
X14530928Y-10277643D01*
X14530928Y-10210976D02*
X14521405Y-10220500D01*
X14530928Y-10230024D01*
X14540452Y-10220500D01*
X14530928Y-10210976D01*
X14530928Y-10230024D01*
X14654738Y-10410976D02*
X14635690Y-10401452D01*
X14626167Y-10382405D01*
X14626167Y-10210976D01*
X14759500Y-10410976D02*
X14740452Y-10401452D01*
X14730928Y-10382405D01*
X14730928Y-10210976D01*
X14988071Y-10410976D02*
X14988071Y-10210976D01*
X15054738Y-10353833D01*
X15121405Y-10210976D01*
X15121405Y-10410976D01*
X15302357Y-10410976D02*
X15302357Y-10306214D01*
X15292833Y-10287167D01*
X15273786Y-10277643D01*
X15235690Y-10277643D01*
X15216643Y-10287167D01*
X15302357Y-10401452D02*
X15283309Y-10410976D01*
X15235690Y-10410976D01*
X15216643Y-10401452D01*
X15207119Y-10382405D01*
X15207119Y-10363357D01*
X15216643Y-10344310D01*
X15235690Y-10334786D01*
X15283309Y-10334786D01*
X15302357Y-10325262D01*
X15397595Y-10277643D02*
X15397595Y-10477643D01*
X15397595Y-10287167D02*
X15416643Y-10277643D01*
X15454738Y-10277643D01*
X15473786Y-10287167D01*
X15483309Y-10296690D01*
X15492833Y-10315738D01*
X15492833Y-10372881D01*
X15483309Y-10391929D01*
X15473786Y-10401452D01*
X15454738Y-10410976D01*
X15416643Y-10410976D01*
X15397595Y-10401452D01*
X15578548Y-10391929D02*
X15588071Y-10401452D01*
X15578548Y-10410976D01*
X15569024Y-10401452D01*
X15578548Y-10391929D01*
X15578548Y-10410976D01*
X15578548Y-10287167D02*
X15588071Y-10296690D01*
X15578548Y-10306214D01*
X15569024Y-10296690D01*
X15578548Y-10287167D01*
X15578548Y-10306214D01*
D12*
X13919500Y-10725500D02*
X13949500Y-10755500D01*
X13949500Y-10725500D02*
X13919500Y-10755500D01*
D11*
X14245214Y-10630976D02*
X14264262Y-10630976D01*
X14283309Y-10640500D01*
X14292833Y-10650024D01*
X14302357Y-10669071D01*
X14311881Y-10707167D01*
X14311881Y-10754786D01*
X14302357Y-10792881D01*
X14292833Y-10811929D01*
X14283309Y-10821452D01*
X14264262Y-10830976D01*
X14245214Y-10830976D01*
X14226167Y-10821452D01*
X14216643Y-10811929D01*
X14207119Y-10792881D01*
X14197595Y-10754786D01*
X14197595Y-10707167D01*
X14207119Y-10669071D01*
X14216643Y-10650024D01*
X14226167Y-10640500D01*
X14245214Y-10630976D01*
X14397595Y-10811929D02*
X14407119Y-10821452D01*
X14397595Y-10830976D01*
X14388071Y-10821452D01*
X14397595Y-10811929D01*
X14397595Y-10830976D01*
X14473786Y-10630976D02*
X14597595Y-10630976D01*
X14530928Y-10707167D01*
X14559500Y-10707167D01*
X14578548Y-10716690D01*
X14588071Y-10726214D01*
X14597595Y-10745262D01*
X14597595Y-10792881D01*
X14588071Y-10811929D01*
X14578548Y-10821452D01*
X14559500Y-10830976D01*
X14502357Y-10830976D01*
X14483309Y-10821452D01*
X14473786Y-10811929D01*
X14721405Y-10630976D02*
X14740452Y-10630976D01*
X14759500Y-10640500D01*
X14769024Y-10650024D01*
X14778548Y-10669071D01*
X14788071Y-10707167D01*
X14788071Y-10754786D01*
X14778548Y-10792881D01*
X14769024Y-10811929D01*
X14759500Y-10821452D01*
X14740452Y-10830976D01*
X14721405Y-10830976D01*
X14702357Y-10821452D01*
X14692833Y-10811929D01*
X14683309Y-10792881D01*
X14673786Y-10754786D01*
X14673786Y-10707167D01*
X14683309Y-10669071D01*
X14692833Y-10650024D01*
X14702357Y-10640500D01*
X14721405Y-10630976D01*
X14911881Y-10630976D02*
X14930928Y-10630976D01*
X14949976Y-10640500D01*
X14959500Y-10650024D01*
X14969024Y-10669071D01*
X14978548Y-10707167D01*
X14978548Y-10754786D01*
X14969024Y-10792881D01*
X14959500Y-10811929D01*
X14949976Y-10821452D01*
X14930928Y-10830976D01*
X14911881Y-10830976D01*
X14892833Y-10821452D01*
X14883309Y-10811929D01*
X14873786Y-10792881D01*
X14864262Y-10754786D01*
X14864262Y-10707167D01*
X14873786Y-10669071D01*
X14883309Y-10650024D01*
X14892833Y-10640500D01*
X14911881Y-10630976D01*
X15064262Y-10830976D02*
X15064262Y-10697643D01*
X15064262Y-10716690D02*
X15073786Y-10707167D01*
X15092833Y-10697643D01*
X15121405Y-10697643D01*
X15140452Y-10707167D01*
X15149976Y-10726214D01*
X15149976Y-10830976D01*
X15149976Y-10726214D02*
X15159500Y-10707167D01*
X15178548Y-10697643D01*
X15207119Y-10697643D01*
X15226167Y-10707167D01*
X15235690Y-10726214D01*
X15235690Y-10830976D01*
X15330928Y-10830976D02*
X15330928Y-10697643D01*
X15330928Y-10716690D02*
X15340452Y-10707167D01*
X15359500Y-10697643D01*
X15388071Y-10697643D01*
X15407119Y-10707167D01*
X15416643Y-10726214D01*
X15416643Y-10830976D01*
X15416643Y-10726214D02*
X15426167Y-10707167D01*
X15445214Y-10697643D01*
X15473786Y-10697643D01*
X15492833Y-10707167D01*
X15502357Y-10726214D01*
X15502357Y-10830976D01*
X15892833Y-10621452D02*
X15721405Y-10878595D01*
X16149976Y-10630976D02*
X16169024Y-10630976D01*
X16188071Y-10640500D01*
X16197595Y-10650024D01*
X16207119Y-10669071D01*
X16216643Y-10707167D01*
X16216643Y-10754786D01*
X16207119Y-10792881D01*
X16197595Y-10811929D01*
X16188071Y-10821452D01*
X16169024Y-10830976D01*
X16149976Y-10830976D01*
X16130928Y-10821452D01*
X16121405Y-10811929D01*
X16111881Y-10792881D01*
X16102357Y-10754786D01*
X16102357Y-10707167D01*
X16111881Y-10669071D01*
X16121405Y-10650024D01*
X16130928Y-10640500D01*
X16149976Y-10630976D01*
X16302357Y-10811929D02*
X16311881Y-10821452D01*
X16302357Y-10830976D01*
X16292833Y-10821452D01*
X16302357Y-10811929D01*
X16302357Y-10830976D01*
X16435690Y-10630976D02*
X16454738Y-10630976D01*
X16473786Y-10640500D01*
X16483309Y-10650024D01*
X16492833Y-10669071D01*
X16502357Y-10707167D01*
X16502357Y-10754786D01*
X16492833Y-10792881D01*
X16483309Y-10811929D01*
X16473786Y-10821452D01*
X16454738Y-10830976D01*
X16435690Y-10830976D01*
X16416643Y-10821452D01*
X16407119Y-10811929D01*
X16397595Y-10792881D01*
X16388071Y-10754786D01*
X16388071Y-10707167D01*
X16397595Y-10669071D01*
X16407119Y-10650024D01*
X16416643Y-10640500D01*
X16435690Y-10630976D01*
X16692833Y-10830976D02*
X16578548Y-10830976D01*
X16635690Y-10830976D02*
X16635690Y-10630976D01*
X16616643Y-10659548D01*
X16597595Y-10678595D01*
X16578548Y-10688119D01*
X16883310Y-10830976D02*
X16769024Y-10830976D01*
X16826167Y-10830976D02*
X16826167Y-10630976D01*
X16807119Y-10659548D01*
X16788071Y-10678595D01*
X16769024Y-10688119D01*
X16997595Y-10716690D02*
X16978548Y-10707167D01*
X16969024Y-10697643D01*
X16959500Y-10678595D01*
X16959500Y-10669071D01*
X16969024Y-10650024D01*
X16978548Y-10640500D01*
X16997595Y-10630976D01*
X17035690Y-10630976D01*
X17054738Y-10640500D01*
X17064262Y-10650024D01*
X17073786Y-10669071D01*
X17073786Y-10678595D01*
X17064262Y-10697643D01*
X17054738Y-10707167D01*
X17035690Y-10716690D01*
X16997595Y-10716690D01*
X16978548Y-10726214D01*
X16969024Y-10735738D01*
X16959500Y-10754786D01*
X16959500Y-10792881D01*
X16969024Y-10811929D01*
X16978548Y-10821452D01*
X16997595Y-10830976D01*
X17035690Y-10830976D01*
X17054738Y-10821452D01*
X17064262Y-10811929D01*
X17073786Y-10792881D01*
X17073786Y-10754786D01*
X17064262Y-10735738D01*
X17054738Y-10726214D01*
X17035690Y-10716690D01*
X17149976Y-10630976D02*
X17149976Y-10669071D01*
X17226167Y-10630976D02*
X17226167Y-10669071D01*
X17521405Y-10907167D02*
X17511881Y-10897643D01*
X17492833Y-10869071D01*
X17483310Y-10850024D01*
X17473786Y-10821452D01*
X17464262Y-10773833D01*
X17464262Y-10735738D01*
X17473786Y-10688119D01*
X17483310Y-10659548D01*
X17492833Y-10640500D01*
X17511881Y-10611929D01*
X17521405Y-10602405D01*
X17702357Y-10830976D02*
X17588071Y-10830976D01*
X17645214Y-10830976D02*
X17645214Y-10630976D01*
X17626167Y-10659548D01*
X17607119Y-10678595D01*
X17588071Y-10688119D01*
X17797595Y-10830976D02*
X17835690Y-10830976D01*
X17854738Y-10821452D01*
X17864262Y-10811929D01*
X17883310Y-10783357D01*
X17892833Y-10745262D01*
X17892833Y-10669071D01*
X17883310Y-10650024D01*
X17873786Y-10640500D01*
X17854738Y-10630976D01*
X17816643Y-10630976D01*
X17797595Y-10640500D01*
X17788071Y-10650024D01*
X17778548Y-10669071D01*
X17778548Y-10716690D01*
X17788071Y-10735738D01*
X17797595Y-10745262D01*
X17816643Y-10754786D01*
X17854738Y-10754786D01*
X17873786Y-10745262D01*
X17883310Y-10735738D01*
X17892833Y-10716690D01*
X18130929Y-10830976D02*
X18130929Y-10630976D01*
X18216643Y-10830976D02*
X18216643Y-10726214D01*
X18207119Y-10707167D01*
X18188071Y-10697643D01*
X18159500Y-10697643D01*
X18140452Y-10707167D01*
X18130929Y-10716690D01*
X18340452Y-10830976D02*
X18321405Y-10821452D01*
X18311881Y-10811929D01*
X18302357Y-10792881D01*
X18302357Y-10735738D01*
X18311881Y-10716690D01*
X18321405Y-10707167D01*
X18340452Y-10697643D01*
X18369024Y-10697643D01*
X18388071Y-10707167D01*
X18397595Y-10716690D01*
X18407119Y-10735738D01*
X18407119Y-10792881D01*
X18397595Y-10811929D01*
X18388071Y-10821452D01*
X18369024Y-10830976D01*
X18340452Y-10830976D01*
X18521405Y-10830976D02*
X18502357Y-10821452D01*
X18492833Y-10802405D01*
X18492833Y-10630976D01*
X18673786Y-10821452D02*
X18654738Y-10830976D01*
X18616643Y-10830976D01*
X18597595Y-10821452D01*
X18588071Y-10802405D01*
X18588071Y-10726214D01*
X18597595Y-10707167D01*
X18616643Y-10697643D01*
X18654738Y-10697643D01*
X18673786Y-10707167D01*
X18683310Y-10726214D01*
X18683310Y-10745262D01*
X18588071Y-10764310D01*
X18759500Y-10821452D02*
X18778548Y-10830976D01*
X18816643Y-10830976D01*
X18835690Y-10821452D01*
X18845214Y-10802405D01*
X18845214Y-10792881D01*
X18835690Y-10773833D01*
X18816643Y-10764310D01*
X18788071Y-10764310D01*
X18769024Y-10754786D01*
X18759500Y-10735738D01*
X18759500Y-10726214D01*
X18769024Y-10707167D01*
X18788071Y-10697643D01*
X18816643Y-10697643D01*
X18835690Y-10707167D01*
X18911881Y-10907167D02*
X18921405Y-10897643D01*
X18940452Y-10869071D01*
X18949976Y-10850024D01*
X18959500Y-10821452D01*
X18969024Y-10773833D01*
X18969024Y-10735738D01*
X18959500Y-10688119D01*
X18949976Y-10659548D01*
X18940452Y-10640500D01*
X18921405Y-10611929D01*
X18911881Y-10602405D01*
D13*
X13949500Y-11004500D02*
G75*
G03*
X13949500Y-11004500I-20000J0D01*
G01*
D11*
X14245214Y-10894976D02*
X14264262Y-10894976D01*
X14283309Y-10904500D01*
X14292833Y-10914024D01*
X14302357Y-10933071D01*
X14311881Y-10971167D01*
X14311881Y-11018786D01*
X14302357Y-11056881D01*
X14292833Y-11075929D01*
X14283309Y-11085452D01*
X14264262Y-11094976D01*
X14245214Y-11094976D01*
X14226167Y-11085452D01*
X14216643Y-11075929D01*
X14207119Y-11056881D01*
X14197595Y-11018786D01*
X14197595Y-10971167D01*
X14207119Y-10933071D01*
X14216643Y-10914024D01*
X14226167Y-10904500D01*
X14245214Y-10894976D01*
X14397595Y-11075929D02*
X14407119Y-11085452D01*
X14397595Y-11094976D01*
X14388071Y-11085452D01*
X14397595Y-11075929D01*
X14397595Y-11094976D01*
X14578548Y-10961643D02*
X14578548Y-11094976D01*
X14530928Y-10885452D02*
X14483309Y-11028310D01*
X14607119Y-11028310D01*
X14721405Y-10894976D02*
X14740452Y-10894976D01*
X14759500Y-10904500D01*
X14769024Y-10914024D01*
X14778548Y-10933071D01*
X14788071Y-10971167D01*
X14788071Y-11018786D01*
X14778548Y-11056881D01*
X14769024Y-11075929D01*
X14759500Y-11085452D01*
X14740452Y-11094976D01*
X14721405Y-11094976D01*
X14702357Y-11085452D01*
X14692833Y-11075929D01*
X14683309Y-11056881D01*
X14673786Y-11018786D01*
X14673786Y-10971167D01*
X14683309Y-10933071D01*
X14692833Y-10914024D01*
X14702357Y-10904500D01*
X14721405Y-10894976D01*
X14911881Y-10894976D02*
X14930928Y-10894976D01*
X14949976Y-10904500D01*
X14959500Y-10914024D01*
X14969024Y-10933071D01*
X14978548Y-10971167D01*
X14978548Y-11018786D01*
X14969024Y-11056881D01*
X14959500Y-11075929D01*
X14949976Y-11085452D01*
X14930928Y-11094976D01*
X14911881Y-11094976D01*
X14892833Y-11085452D01*
X14883309Y-11075929D01*
X14873786Y-11056881D01*
X14864262Y-11018786D01*
X14864262Y-10971167D01*
X14873786Y-10933071D01*
X14883309Y-10914024D01*
X14892833Y-10904500D01*
X14911881Y-10894976D01*
X15064262Y-11094976D02*
X15064262Y-10961643D01*
X15064262Y-10980690D02*
X15073786Y-10971167D01*
X15092833Y-10961643D01*
X15121405Y-10961643D01*
X15140452Y-10971167D01*
X15149976Y-10990214D01*
X15149976Y-11094976D01*
X15149976Y-10990214D02*
X15159500Y-10971167D01*
X15178548Y-10961643D01*
X15207119Y-10961643D01*
X15226167Y-10971167D01*
X15235690Y-10990214D01*
X15235690Y-11094976D01*
X15330928Y-11094976D02*
X15330928Y-10961643D01*
X15330928Y-10980690D02*
X15340452Y-10971167D01*
X15359500Y-10961643D01*
X15388071Y-10961643D01*
X15407119Y-10971167D01*
X15416643Y-10990214D01*
X15416643Y-11094976D01*
X15416643Y-10990214D02*
X15426167Y-10971167D01*
X15445214Y-10961643D01*
X15473786Y-10961643D01*
X15492833Y-10971167D01*
X15502357Y-10990214D01*
X15502357Y-11094976D01*
X15892833Y-10885452D02*
X15721405Y-11142595D01*
X16149976Y-10894976D02*
X16169024Y-10894976D01*
X16188071Y-10904500D01*
X16197595Y-10914024D01*
X16207119Y-10933071D01*
X16216643Y-10971167D01*
X16216643Y-11018786D01*
X16207119Y-11056881D01*
X16197595Y-11075929D01*
X16188071Y-11085452D01*
X16169024Y-11094976D01*
X16149976Y-11094976D01*
X16130928Y-11085452D01*
X16121405Y-11075929D01*
X16111881Y-11056881D01*
X16102357Y-11018786D01*
X16102357Y-10971167D01*
X16111881Y-10933071D01*
X16121405Y-10914024D01*
X16130928Y-10904500D01*
X16149976Y-10894976D01*
X16302357Y-11075929D02*
X16311881Y-11085452D01*
X16302357Y-11094976D01*
X16292833Y-11085452D01*
X16302357Y-11075929D01*
X16302357Y-11094976D01*
X16435690Y-10894976D02*
X16454738Y-10894976D01*
X16473786Y-10904500D01*
X16483309Y-10914024D01*
X16492833Y-10933071D01*
X16502357Y-10971167D01*
X16502357Y-11018786D01*
X16492833Y-11056881D01*
X16483309Y-11075929D01*
X16473786Y-11085452D01*
X16454738Y-11094976D01*
X16435690Y-11094976D01*
X16416643Y-11085452D01*
X16407119Y-11075929D01*
X16397595Y-11056881D01*
X16388071Y-11018786D01*
X16388071Y-10971167D01*
X16397595Y-10933071D01*
X16407119Y-10914024D01*
X16416643Y-10904500D01*
X16435690Y-10894976D01*
X16692833Y-11094976D02*
X16578548Y-11094976D01*
X16635690Y-11094976D02*
X16635690Y-10894976D01*
X16616643Y-10923548D01*
X16597595Y-10942595D01*
X16578548Y-10952119D01*
X16873786Y-10894976D02*
X16778548Y-10894976D01*
X16769024Y-10990214D01*
X16778548Y-10980690D01*
X16797595Y-10971167D01*
X16845214Y-10971167D01*
X16864262Y-10980690D01*
X16873786Y-10990214D01*
X16883310Y-11009262D01*
X16883310Y-11056881D01*
X16873786Y-11075929D01*
X16864262Y-11085452D01*
X16845214Y-11094976D01*
X16797595Y-11094976D01*
X16778548Y-11085452D01*
X16769024Y-11075929D01*
X16949976Y-10894976D02*
X17083310Y-10894976D01*
X16997595Y-11094976D01*
X17149976Y-10894976D02*
X17149976Y-10933071D01*
X17226167Y-10894976D02*
X17226167Y-10933071D01*
X17521405Y-11171167D02*
X17511881Y-11161643D01*
X17492833Y-11133071D01*
X17483310Y-11114024D01*
X17473786Y-11085452D01*
X17464262Y-11037833D01*
X17464262Y-10999738D01*
X17473786Y-10952119D01*
X17483310Y-10923548D01*
X17492833Y-10904500D01*
X17511881Y-10875929D01*
X17521405Y-10866405D01*
X17626167Y-10980690D02*
X17607119Y-10971167D01*
X17597595Y-10961643D01*
X17588071Y-10942595D01*
X17588071Y-10933071D01*
X17597595Y-10914024D01*
X17607119Y-10904500D01*
X17626167Y-10894976D01*
X17664262Y-10894976D01*
X17683310Y-10904500D01*
X17692833Y-10914024D01*
X17702357Y-10933071D01*
X17702357Y-10942595D01*
X17692833Y-10961643D01*
X17683310Y-10971167D01*
X17664262Y-10980690D01*
X17626167Y-10980690D01*
X17607119Y-10990214D01*
X17597595Y-10999738D01*
X17588071Y-11018786D01*
X17588071Y-11056881D01*
X17597595Y-11075929D01*
X17607119Y-11085452D01*
X17626167Y-11094976D01*
X17664262Y-11094976D01*
X17683310Y-11085452D01*
X17692833Y-11075929D01*
X17702357Y-11056881D01*
X17702357Y-11018786D01*
X17692833Y-10999738D01*
X17683310Y-10990214D01*
X17664262Y-10980690D01*
X17940452Y-11094976D02*
X17940452Y-10894976D01*
X18026167Y-11094976D02*
X18026167Y-10990214D01*
X18016643Y-10971167D01*
X17997595Y-10961643D01*
X17969024Y-10961643D01*
X17949976Y-10971167D01*
X17940452Y-10980690D01*
X18149976Y-11094976D02*
X18130929Y-11085452D01*
X18121405Y-11075929D01*
X18111881Y-11056881D01*
X18111881Y-10999738D01*
X18121405Y-10980690D01*
X18130929Y-10971167D01*
X18149976Y-10961643D01*
X18178548Y-10961643D01*
X18197595Y-10971167D01*
X18207119Y-10980690D01*
X18216643Y-10999738D01*
X18216643Y-11056881D01*
X18207119Y-11075929D01*
X18197595Y-11085452D01*
X18178548Y-11094976D01*
X18149976Y-11094976D01*
X18330929Y-11094976D02*
X18311881Y-11085452D01*
X18302357Y-11066405D01*
X18302357Y-10894976D01*
X18483310Y-11085452D02*
X18464262Y-11094976D01*
X18426167Y-11094976D01*
X18407119Y-11085452D01*
X18397595Y-11066405D01*
X18397595Y-10990214D01*
X18407119Y-10971167D01*
X18426167Y-10961643D01*
X18464262Y-10961643D01*
X18483310Y-10971167D01*
X18492833Y-10990214D01*
X18492833Y-11009262D01*
X18397595Y-11028310D01*
X18569024Y-11085452D02*
X18588071Y-11094976D01*
X18626167Y-11094976D01*
X18645214Y-11085452D01*
X18654738Y-11066405D01*
X18654738Y-11056881D01*
X18645214Y-11037833D01*
X18626167Y-11028310D01*
X18597595Y-11028310D01*
X18578548Y-11018786D01*
X18569024Y-10999738D01*
X18569024Y-10990214D01*
X18578548Y-10971167D01*
X18597595Y-10961643D01*
X18626167Y-10961643D01*
X18645214Y-10971167D01*
X18721405Y-11171167D02*
X18730929Y-11161643D01*
X18749976Y-11133071D01*
X18759500Y-11114024D01*
X18769024Y-11085452D01*
X18778548Y-11037833D01*
X18778548Y-10999738D01*
X18769024Y-10952119D01*
X18759500Y-10923548D01*
X18749976Y-10904500D01*
X18730929Y-10875929D01*
X18721405Y-10866405D01*
X13849500Y-11168500D02*
X13849500Y-11368500D01*
X13749500Y-11268500D02*
X13949500Y-11268500D01*
X14188071Y-11158976D02*
X14311881Y-11158976D01*
X14245214Y-11235167D01*
X14273786Y-11235167D01*
X14292833Y-11244690D01*
X14302357Y-11254214D01*
X14311881Y-11273262D01*
X14311881Y-11320881D01*
X14302357Y-11339928D01*
X14292833Y-11349452D01*
X14273786Y-11358976D01*
X14216643Y-11358976D01*
X14197595Y-11349452D01*
X14188071Y-11339928D01*
X14397595Y-11339928D02*
X14407119Y-11349452D01*
X14397595Y-11358976D01*
X14388071Y-11349452D01*
X14397595Y-11339928D01*
X14397595Y-11358976D01*
X14483309Y-11178024D02*
X14492833Y-11168500D01*
X14511881Y-11158976D01*
X14559500Y-11158976D01*
X14578548Y-11168500D01*
X14588071Y-11178024D01*
X14597595Y-11197071D01*
X14597595Y-11216119D01*
X14588071Y-11244690D01*
X14473786Y-11358976D01*
X14597595Y-11358976D01*
X14721405Y-11158976D02*
X14740452Y-11158976D01*
X14759500Y-11168500D01*
X14769024Y-11178024D01*
X14778548Y-11197071D01*
X14788071Y-11235167D01*
X14788071Y-11282786D01*
X14778548Y-11320881D01*
X14769024Y-11339928D01*
X14759500Y-11349452D01*
X14740452Y-11358976D01*
X14721405Y-11358976D01*
X14702357Y-11349452D01*
X14692833Y-11339928D01*
X14683309Y-11320881D01*
X14673786Y-11282786D01*
X14673786Y-11235167D01*
X14683309Y-11197071D01*
X14692833Y-11178024D01*
X14702357Y-11168500D01*
X14721405Y-11158976D01*
X14911881Y-11158976D02*
X14930928Y-11158976D01*
X14949976Y-11168500D01*
X14959500Y-11178024D01*
X14969024Y-11197071D01*
X14978548Y-11235167D01*
X14978548Y-11282786D01*
X14969024Y-11320881D01*
X14959500Y-11339928D01*
X14949976Y-11349452D01*
X14930928Y-11358976D01*
X14911881Y-11358976D01*
X14892833Y-11349452D01*
X14883309Y-11339928D01*
X14873786Y-11320881D01*
X14864262Y-11282786D01*
X14864262Y-11235167D01*
X14873786Y-11197071D01*
X14883309Y-11178024D01*
X14892833Y-11168500D01*
X14911881Y-11158976D01*
X15064262Y-11358976D02*
X15064262Y-11225643D01*
X15064262Y-11244690D02*
X15073786Y-11235167D01*
X15092833Y-11225643D01*
X15121405Y-11225643D01*
X15140452Y-11235167D01*
X15149976Y-11254214D01*
X15149976Y-11358976D01*
X15149976Y-11254214D02*
X15159500Y-11235167D01*
X15178548Y-11225643D01*
X15207119Y-11225643D01*
X15226167Y-11235167D01*
X15235690Y-11254214D01*
X15235690Y-11358976D01*
X15330928Y-11358976D02*
X15330928Y-11225643D01*
X15330928Y-11244690D02*
X15340452Y-11235167D01*
X15359500Y-11225643D01*
X15388071Y-11225643D01*
X15407119Y-11235167D01*
X15416643Y-11254214D01*
X15416643Y-11358976D01*
X15416643Y-11254214D02*
X15426167Y-11235167D01*
X15445214Y-11225643D01*
X15473786Y-11225643D01*
X15492833Y-11235167D01*
X15502357Y-11254214D01*
X15502357Y-11358976D01*
X15892833Y-11149452D02*
X15721405Y-11406595D01*
X16149976Y-11158976D02*
X16169024Y-11158976D01*
X16188071Y-11168500D01*
X16197595Y-11178024D01*
X16207119Y-11197071D01*
X16216643Y-11235167D01*
X16216643Y-11282786D01*
X16207119Y-11320881D01*
X16197595Y-11339928D01*
X16188071Y-11349452D01*
X16169024Y-11358976D01*
X16149976Y-11358976D01*
X16130928Y-11349452D01*
X16121405Y-11339928D01*
X16111881Y-11320881D01*
X16102357Y-11282786D01*
X16102357Y-11235167D01*
X16111881Y-11197071D01*
X16121405Y-11178024D01*
X16130928Y-11168500D01*
X16149976Y-11158976D01*
X16302357Y-11339928D02*
X16311881Y-11349452D01*
X16302357Y-11358976D01*
X16292833Y-11349452D01*
X16302357Y-11339928D01*
X16302357Y-11358976D01*
X16502357Y-11358976D02*
X16388071Y-11358976D01*
X16445214Y-11358976D02*
X16445214Y-11158976D01*
X16426167Y-11187548D01*
X16407119Y-11206595D01*
X16388071Y-11216119D01*
X16578548Y-11178024D02*
X16588071Y-11168500D01*
X16607119Y-11158976D01*
X16654738Y-11158976D01*
X16673786Y-11168500D01*
X16683309Y-11178024D01*
X16692833Y-11197071D01*
X16692833Y-11216119D01*
X16683309Y-11244690D01*
X16569024Y-11358976D01*
X16692833Y-11358976D01*
X16864262Y-11158976D02*
X16826167Y-11158976D01*
X16807119Y-11168500D01*
X16797595Y-11178024D01*
X16778548Y-11206595D01*
X16769024Y-11244690D01*
X16769024Y-11320881D01*
X16778548Y-11339928D01*
X16788071Y-11349452D01*
X16807119Y-11358976D01*
X16845214Y-11358976D01*
X16864262Y-11349452D01*
X16873786Y-11339928D01*
X16883310Y-11320881D01*
X16883310Y-11273262D01*
X16873786Y-11254214D01*
X16864262Y-11244690D01*
X16845214Y-11235167D01*
X16807119Y-11235167D01*
X16788071Y-11244690D01*
X16778548Y-11254214D01*
X16769024Y-11273262D01*
X17007119Y-11158976D02*
X17026167Y-11158976D01*
X17045214Y-11168500D01*
X17054738Y-11178024D01*
X17064262Y-11197071D01*
X17073786Y-11235167D01*
X17073786Y-11282786D01*
X17064262Y-11320881D01*
X17054738Y-11339928D01*
X17045214Y-11349452D01*
X17026167Y-11358976D01*
X17007119Y-11358976D01*
X16988071Y-11349452D01*
X16978548Y-11339928D01*
X16969024Y-11320881D01*
X16959500Y-11282786D01*
X16959500Y-11235167D01*
X16969024Y-11197071D01*
X16978548Y-11178024D01*
X16988071Y-11168500D01*
X17007119Y-11158976D01*
X17149976Y-11158976D02*
X17149976Y-11197071D01*
X17226167Y-11158976D02*
X17226167Y-11197071D01*
X17521405Y-11435167D02*
X17511881Y-11425643D01*
X17492833Y-11397071D01*
X17483310Y-11378024D01*
X17473786Y-11349452D01*
X17464262Y-11301833D01*
X17464262Y-11263738D01*
X17473786Y-11216119D01*
X17483310Y-11187548D01*
X17492833Y-11168500D01*
X17511881Y-11139929D01*
X17521405Y-11130405D01*
X17702357Y-11358976D02*
X17588071Y-11358976D01*
X17645214Y-11358976D02*
X17645214Y-11158976D01*
X17626167Y-11187548D01*
X17607119Y-11206595D01*
X17588071Y-11216119D01*
X17940452Y-11358976D02*
X17940452Y-11158976D01*
X18026167Y-11358976D02*
X18026167Y-11254214D01*
X18016643Y-11235167D01*
X17997595Y-11225643D01*
X17969024Y-11225643D01*
X17949976Y-11235167D01*
X17940452Y-11244690D01*
X18149976Y-11358976D02*
X18130929Y-11349452D01*
X18121405Y-11339928D01*
X18111881Y-11320881D01*
X18111881Y-11263738D01*
X18121405Y-11244690D01*
X18130929Y-11235167D01*
X18149976Y-11225643D01*
X18178548Y-11225643D01*
X18197595Y-11235167D01*
X18207119Y-11244690D01*
X18216643Y-11263738D01*
X18216643Y-11320881D01*
X18207119Y-11339928D01*
X18197595Y-11349452D01*
X18178548Y-11358976D01*
X18149976Y-11358976D01*
X18330929Y-11358976D02*
X18311881Y-11349452D01*
X18302357Y-11330405D01*
X18302357Y-11158976D01*
X18483310Y-11349452D02*
X18464262Y-11358976D01*
X18426167Y-11358976D01*
X18407119Y-11349452D01*
X18397595Y-11330405D01*
X18397595Y-11254214D01*
X18407119Y-11235167D01*
X18426167Y-11225643D01*
X18464262Y-11225643D01*
X18483310Y-11235167D01*
X18492833Y-11254214D01*
X18492833Y-11273262D01*
X18397595Y-11292309D01*
X18559500Y-11435167D02*
X18569024Y-11425643D01*
X18588071Y-11397071D01*
X18597595Y-11378024D01*
X18607119Y-11349452D01*
X18616643Y-11301833D01*
X18616643Y-11263738D01*
X18607119Y-11216119D01*
X18597595Y-11187548D01*
X18588071Y-11168500D01*
X18569024Y-11139929D01*
X18559500Y-11130405D01*
M02*
