%TF.GenerationSoftware,KiCad,Pcbnew,(5.99.0-10020-g5020012b14)*%
%TF.CreationDate,2021-04-02T13:20:48+07:00*%
%TF.ProjectId,temperature-a1,74656d70-6572-4617-9475-72652d61312e,A1*%
%TF.SameCoordinates,Original*%
%TF.FileFunction,Profile,NP*%
%FSLAX46Y46*%
G04 Gerber Fmt 4.6, Leading zero omitted, Abs format (unit mm)*
G04 Created by KiCad (PCBNEW (5.99.0-10020-g5020012b14)) date 2021-04-02 13:20:48*
%MOMM*%
%LPD*%
G01*
G04 APERTURE LIST*
%TA.AperFunction,Profile*%
%ADD10C,0.010000*%
%TD*%
G04 APERTURE END LIST*
D10*
X143232233Y-90267767D02*
X143414214Y-90435785D01*
X150500000Y-76000000D02*
X150500000Y-101000000D01*
X147434315Y-91284315D02*
G75*
G03*
X147200000Y-91849999I565684J-565685D01*
G01*
X139500000Y-101000000D02*
X139500000Y-76000000D01*
X142565686Y-91284315D02*
G75*
G02*
X142800000Y-91850000I-565685J-565685D01*
G01*
X139500000Y-76000000D02*
X150500000Y-76000000D01*
X146585786Y-90435786D02*
G75*
G03*
X146000000Y-91850000I1414214J-1414214D01*
G01*
X147434315Y-91284314D02*
X147616292Y-91116291D01*
X150500000Y-101000000D02*
X139500000Y-101000000D01*
X144000001Y-91849999D02*
G75*
G03*
X143414214Y-90435785I-2000001J-1D01*
G01*
X147200000Y-92400000D02*
X147200000Y-91849999D01*
X147200000Y-92400000D02*
G75*
G02*
X146000000Y-92400000I-600000J0D01*
G01*
X147616295Y-91116295D02*
G75*
G03*
X142383703Y-91116293I-2616295J2616297D01*
G01*
X146767767Y-90267767D02*
G75*
G03*
X143232233Y-90267767I-1767767J1767767D01*
G01*
X146767767Y-90267767D02*
X146585786Y-90435786D01*
X146000000Y-91850000D02*
X146000000Y-92400000D01*
X142383703Y-91116293D02*
X142565685Y-91284315D01*
X144000000Y-92400000D02*
G75*
G02*
X142800000Y-92400000I-600000J0D01*
G01*
X142800000Y-92400000D02*
X142800000Y-91850000D01*
X144000001Y-91850000D02*
X144000000Y-92400000D01*
M02*
