%TF.GenerationSoftware,KiCad,Pcbnew,(5.99.0-10020-g5020012b14)*%
%TF.CreationDate,2021-04-02T13:20:48+07:00*%
%TF.ProjectId,temperature-a1,74656d70-6572-4617-9475-72652d61312e,A1*%
%TF.SameCoordinates,Original*%
%TF.FileFunction,Copper,L2,Bot*%
%TF.FilePolarity,Positive*%
%FSLAX46Y46*%
G04 Gerber Fmt 4.6, Leading zero omitted, Abs format (unit mm)*
G04 Created by KiCad (PCBNEW (5.99.0-10020-g5020012b14)) date 2021-04-02 13:20:48*
%MOMM*%
%LPD*%
G01*
G04 APERTURE LIST*
%TA.AperFunction,ComponentPad*%
%ADD10C,5.500000*%
%TD*%
%TA.AperFunction,ComponentPad*%
%ADD11C,0.700000*%
%TD*%
%TA.AperFunction,ViaPad*%
%ADD12C,0.600000*%
%TD*%
%TA.AperFunction,Conductor*%
%ADD13C,0.250000*%
%TD*%
%TA.AperFunction,Conductor*%
%ADD14C,0.150000*%
%TD*%
G04 APERTURE END LIST*
D10*
%TO.P,T2,1*%
%TO.N,Earth_Clean*%
X145000000Y-81000000D03*
D11*
X146697056Y-79302944D03*
X145000000Y-83400000D03*
X145000000Y-78600000D03*
X146697056Y-82697056D03*
X143302944Y-82697056D03*
X147400000Y-81000000D03*
X142600000Y-81000000D03*
X143302944Y-79302944D03*
%TD*%
D12*
%TO.N,GND*%
X144400000Y-93950000D03*
X148700000Y-94000000D03*
X143600000Y-98400000D03*
X147500000Y-95500000D03*
X141300000Y-94000000D03*
X146400000Y-98412500D03*
%TO.N,VDD*%
X143200000Y-94600000D03*
X146650000Y-94700000D03*
%TO.N,/SDA*%
X144600000Y-94750000D03*
X146000000Y-94125000D03*
%TO.N,Earth_Protective*%
X145000000Y-88400000D03*
X145000000Y-87700000D03*
X145000000Y-87000000D03*
%TO.N,Earth_Clean*%
X148700000Y-84900000D03*
X148700000Y-92000000D03*
X141300000Y-77800000D03*
X141300000Y-92000000D03*
X148700000Y-77800000D03*
X141300000Y-84900000D03*
%TD*%
D13*
%TO.N,VDD*%
X145920004Y-94700000D02*
X145294993Y-95325011D01*
X145294993Y-95325011D02*
X143925011Y-95325011D01*
X143925011Y-95325011D02*
X143200000Y-94600000D01*
X146650000Y-94700000D02*
X145920004Y-94700000D01*
D14*
%TO.N,/SDA*%
X145375000Y-94750000D02*
X144600000Y-94750000D01*
X146000000Y-94125000D02*
X145375000Y-94750000D01*
%TO.N,Earth_Clean*%
X145000000Y-83400000D02*
X145000000Y-81000000D01*
X142600000Y-81000000D02*
X145000000Y-81000000D01*
X147400000Y-81000000D02*
X145000000Y-81000000D01*
X145000000Y-78600000D02*
X145000000Y-81000000D01*
%TD*%
%TA.AperFunction,Conductor*%
%TO.N,GND*%
G36*
X149173566Y-93517313D02*
G01*
X149198876Y-93561150D01*
X149200000Y-93574000D01*
X149200000Y-99626000D01*
X149182687Y-99673566D01*
X149138850Y-99698876D01*
X149126000Y-99700000D01*
X140874000Y-99700000D01*
X140826434Y-99682687D01*
X140801124Y-99638850D01*
X140800000Y-99626000D01*
X140800000Y-94664181D01*
X142749044Y-94664181D01*
X142787851Y-94793942D01*
X142790924Y-94798541D01*
X142822437Y-94845703D01*
X142863098Y-94906557D01*
X142968132Y-94992068D01*
X142973261Y-94994146D01*
X142973262Y-94994146D01*
X142980738Y-94997174D01*
X143093666Y-95042914D01*
X143161134Y-95048758D01*
X143223090Y-95054124D01*
X143223092Y-95054124D01*
X143228601Y-95054601D01*
X143230295Y-95054236D01*
X143277270Y-95068062D01*
X143285683Y-95075298D01*
X143707278Y-95496894D01*
X143716479Y-95508105D01*
X143726668Y-95523354D01*
X143747975Y-95537591D01*
X143747977Y-95537593D01*
X143817668Y-95584159D01*
X143824813Y-95585580D01*
X143824815Y-95585581D01*
X143899867Y-95600510D01*
X143899872Y-95600511D01*
X143899875Y-95600511D01*
X143899883Y-95600512D01*
X143925011Y-95605510D01*
X143942994Y-95601933D01*
X143957431Y-95600511D01*
X145262573Y-95600511D01*
X145277010Y-95601933D01*
X145294993Y-95605510D01*
X145302142Y-95604088D01*
X145302143Y-95604088D01*
X145320121Y-95600512D01*
X145320129Y-95600511D01*
X145320132Y-95600511D01*
X145320137Y-95600510D01*
X145395187Y-95585581D01*
X145402336Y-95584159D01*
X145493336Y-95523354D01*
X145503526Y-95508104D01*
X145512728Y-95496891D01*
X146012445Y-94997174D01*
X146058321Y-94975782D01*
X146064771Y-94975500D01*
X146253235Y-94975500D01*
X146300801Y-94992813D01*
X146307968Y-94999697D01*
X146310024Y-95001957D01*
X146313098Y-95006557D01*
X146418132Y-95092068D01*
X146543666Y-95142914D01*
X146603730Y-95148116D01*
X146673089Y-95154124D01*
X146673092Y-95154124D01*
X146678601Y-95154601D01*
X146811008Y-95126095D01*
X146815835Y-95123392D01*
X146924357Y-95062617D01*
X146924360Y-95062615D01*
X146929179Y-95059916D01*
X146939105Y-95049511D01*
X147018849Y-94965918D01*
X147018851Y-94965915D01*
X147022667Y-94961915D01*
X147083206Y-94840757D01*
X147084113Y-94835308D01*
X147084114Y-94835305D01*
X147104967Y-94710019D01*
X147105444Y-94707155D01*
X147105500Y-94700000D01*
X147100912Y-94669479D01*
X147091973Y-94610025D01*
X147085364Y-94566065D01*
X147077462Y-94549608D01*
X147048794Y-94489909D01*
X147026735Y-94443971D01*
X147022982Y-94439911D01*
X147022980Y-94439908D01*
X146938553Y-94348576D01*
X146938552Y-94348576D01*
X146934798Y-94344514D01*
X146817681Y-94276487D01*
X146812294Y-94275238D01*
X146812293Y-94275238D01*
X146691127Y-94247153D01*
X146691126Y-94247153D01*
X146685738Y-94245904D01*
X146606481Y-94251516D01*
X146556156Y-94255079D01*
X146556155Y-94255079D01*
X146550636Y-94255470D01*
X146545474Y-94257467D01*
X146540079Y-94258673D01*
X146539632Y-94256675D01*
X146497348Y-94257527D01*
X146457924Y-94225778D01*
X146448255Y-94175344D01*
X146451628Y-94155079D01*
X146455444Y-94132155D01*
X146455500Y-94125000D01*
X146435364Y-93991065D01*
X146376735Y-93868971D01*
X146372982Y-93864911D01*
X146372980Y-93864908D01*
X146288553Y-93773576D01*
X146288552Y-93773576D01*
X146284798Y-93769514D01*
X146167681Y-93701487D01*
X146162294Y-93700238D01*
X146162293Y-93700238D01*
X146041127Y-93672153D01*
X146041126Y-93672153D01*
X146035738Y-93670904D01*
X145956481Y-93676516D01*
X145906156Y-93680079D01*
X145906155Y-93680079D01*
X145900636Y-93680470D01*
X145774319Y-93729338D01*
X145769972Y-93732765D01*
X145672299Y-93809764D01*
X145672297Y-93809766D01*
X145667955Y-93813189D01*
X145664811Y-93817738D01*
X145664810Y-93817739D01*
X145629401Y-93868971D01*
X145590948Y-93924608D01*
X145589282Y-93929876D01*
X145589281Y-93929878D01*
X145568201Y-93996534D01*
X145550108Y-94053744D01*
X145550065Y-94059274D01*
X145549144Y-94176487D01*
X145549044Y-94189181D01*
X145552016Y-94199118D01*
X145549061Y-94249649D01*
X145533446Y-94272649D01*
X145303269Y-94502826D01*
X145257393Y-94524218D01*
X145250943Y-94524500D01*
X145035669Y-94524500D01*
X144988103Y-94507187D01*
X144977386Y-94495327D01*
X144976735Y-94493971D01*
X144884798Y-94394514D01*
X144767681Y-94326487D01*
X144762294Y-94325238D01*
X144762293Y-94325238D01*
X144641127Y-94297153D01*
X144641126Y-94297153D01*
X144635738Y-94295904D01*
X144556481Y-94301516D01*
X144506156Y-94305079D01*
X144506155Y-94305079D01*
X144500636Y-94305470D01*
X144374319Y-94354338D01*
X144369972Y-94357765D01*
X144272299Y-94434764D01*
X144272297Y-94434766D01*
X144267955Y-94438189D01*
X144264811Y-94442738D01*
X144264810Y-94442739D01*
X144232209Y-94489909D01*
X144190948Y-94549608D01*
X144189282Y-94554876D01*
X144189281Y-94554878D01*
X144153038Y-94669479D01*
X144150108Y-94678744D01*
X144149567Y-94747584D01*
X144149245Y-94788641D01*
X144149044Y-94814181D01*
X144187851Y-94943942D01*
X144188930Y-94945558D01*
X144193377Y-94994413D01*
X144164489Y-95035979D01*
X144121832Y-95049511D01*
X144069779Y-95049511D01*
X144022213Y-95032198D01*
X144017453Y-95027837D01*
X143673992Y-94684377D01*
X143652600Y-94638501D01*
X143653323Y-94619898D01*
X143654967Y-94610025D01*
X143654968Y-94610016D01*
X143655444Y-94607155D01*
X143655500Y-94600000D01*
X143635364Y-94466065D01*
X143620334Y-94434764D01*
X143601267Y-94395059D01*
X143576735Y-94343971D01*
X143572982Y-94339911D01*
X143572980Y-94339908D01*
X143488553Y-94248576D01*
X143488552Y-94248576D01*
X143484798Y-94244514D01*
X143367681Y-94176487D01*
X143362294Y-94175238D01*
X143362293Y-94175238D01*
X143241127Y-94147153D01*
X143241126Y-94147153D01*
X143235738Y-94145904D01*
X143156481Y-94151516D01*
X143106156Y-94155079D01*
X143106155Y-94155079D01*
X143100636Y-94155470D01*
X142974319Y-94204338D01*
X142969972Y-94207765D01*
X142872299Y-94284764D01*
X142872297Y-94284766D01*
X142867955Y-94288189D01*
X142864811Y-94292738D01*
X142864810Y-94292739D01*
X142830945Y-94341737D01*
X142790948Y-94399608D01*
X142789282Y-94404876D01*
X142789281Y-94404878D01*
X142751775Y-94523472D01*
X142750108Y-94528744D01*
X142750065Y-94534274D01*
X142749097Y-94657456D01*
X142749044Y-94664181D01*
X140800000Y-94664181D01*
X140800000Y-93574000D01*
X140817313Y-93526434D01*
X140861150Y-93501124D01*
X140874000Y-93500000D01*
X149126000Y-93500000D01*
X149173566Y-93517313D01*
G37*
%TD.AperFunction*%
%TD*%
%TA.AperFunction,Conductor*%
%TO.N,Earth_Clean*%
G36*
X149173566Y-77317313D02*
G01*
X149198876Y-77361150D01*
X149200000Y-77374000D01*
X149200000Y-92426000D01*
X149182687Y-92473566D01*
X149138850Y-92498876D01*
X149126000Y-92500000D01*
X147428253Y-92500000D01*
X147380687Y-92482687D01*
X147355377Y-92438850D01*
X147354295Y-92423504D01*
X147355377Y-92391424D01*
X147355541Y-92386578D01*
X147351916Y-92370960D01*
X147350000Y-92354229D01*
X147350000Y-91897974D01*
X147352863Y-91877590D01*
X147354653Y-91871346D01*
X147355890Y-91800021D01*
X147356233Y-91794084D01*
X147357209Y-91784177D01*
X147358272Y-91777015D01*
X147368619Y-91725001D01*
X147379190Y-91671856D01*
X147380955Y-91664811D01*
X147382399Y-91660052D01*
X147384844Y-91653220D01*
X147425877Y-91554156D01*
X147428977Y-91547600D01*
X147431321Y-91543215D01*
X147435049Y-91536997D01*
X147494631Y-91447829D01*
X147498957Y-91441996D01*
X147505232Y-91434350D01*
X147509208Y-91429886D01*
X147555395Y-91382067D01*
X147558765Y-91378578D01*
X147561117Y-91374336D01*
X147563834Y-91370665D01*
X147573115Y-91360319D01*
X147684669Y-91257319D01*
X147697020Y-91248100D01*
X147710155Y-91240282D01*
X147710158Y-91240279D01*
X147714324Y-91237800D01*
X147850966Y-91097480D01*
X147853029Y-91095443D01*
X147856283Y-91092354D01*
X147860209Y-91089502D01*
X147865356Y-91083146D01*
X147869854Y-91078083D01*
X147872174Y-91075701D01*
X147875560Y-91072224D01*
X147877931Y-91067988D01*
X147880602Y-91064410D01*
X147882380Y-91062123D01*
X148106323Y-90785576D01*
X148108485Y-90783298D01*
X148108461Y-90783278D01*
X148111610Y-90779591D01*
X148115216Y-90776344D01*
X148118844Y-90770757D01*
X148123395Y-90764493D01*
X148124535Y-90763085D01*
X148127586Y-90759318D01*
X148129559Y-90754887D01*
X148132093Y-90750751D01*
X148132120Y-90750767D01*
X148133619Y-90748005D01*
X148187026Y-90665767D01*
X148328211Y-90448361D01*
X148330126Y-90445867D01*
X148330100Y-90445849D01*
X148332849Y-90441848D01*
X148336094Y-90438245D01*
X148339118Y-90432310D01*
X148342989Y-90425604D01*
X148346616Y-90420020D01*
X148348116Y-90415404D01*
X148350203Y-90411027D01*
X148350232Y-90411041D01*
X148351434Y-90408138D01*
X148513636Y-90089798D01*
X148515281Y-90087112D01*
X148515255Y-90087098D01*
X148517571Y-90082831D01*
X148520420Y-90078910D01*
X148522810Y-90072683D01*
X148525959Y-90065611D01*
X148526778Y-90064004D01*
X148526778Y-90064003D01*
X148528979Y-90059684D01*
X148529987Y-90054944D01*
X148531608Y-90050366D01*
X148531637Y-90050376D01*
X148532530Y-90047363D01*
X148660568Y-89713811D01*
X148661924Y-89710968D01*
X148661896Y-89710956D01*
X148663753Y-89706474D01*
X148666176Y-89702276D01*
X148667902Y-89695833D01*
X148670292Y-89688480D01*
X148670941Y-89686789D01*
X148670942Y-89686786D01*
X148672679Y-89682261D01*
X148673186Y-89677436D01*
X148674317Y-89672726D01*
X148674348Y-89672733D01*
X148674921Y-89669642D01*
X148767393Y-89324530D01*
X148768443Y-89321565D01*
X148768413Y-89321556D01*
X148769790Y-89316905D01*
X148771765Y-89312471D01*
X148772807Y-89305892D01*
X148774418Y-89298312D01*
X148774884Y-89296574D01*
X148774885Y-89296568D01*
X148776140Y-89291886D01*
X148776140Y-89287034D01*
X148776773Y-89282226D01*
X148776804Y-89282230D01*
X148777051Y-89279096D01*
X148832943Y-88926207D01*
X148833678Y-88923149D01*
X148833647Y-88923143D01*
X148834531Y-88918375D01*
X148836029Y-88913763D01*
X148836377Y-88907116D01*
X148837187Y-88899412D01*
X148837470Y-88897625D01*
X148837470Y-88897622D01*
X148838229Y-88892833D01*
X148837722Y-88888009D01*
X148837849Y-88883160D01*
X148837880Y-88883161D01*
X148837798Y-88880014D01*
X148856496Y-88523224D01*
X148856907Y-88520102D01*
X148856876Y-88520100D01*
X148857257Y-88515264D01*
X148858265Y-88510521D01*
X148858011Y-88505680D01*
X148858012Y-88505673D01*
X148857917Y-88503862D01*
X148857917Y-88496130D01*
X148858012Y-88494323D01*
X148858012Y-88494317D01*
X148858265Y-88489477D01*
X148857257Y-88484735D01*
X148856876Y-88479898D01*
X148856907Y-88479896D01*
X148856496Y-88476774D01*
X148851802Y-88387195D01*
X148847147Y-88298379D01*
X148837798Y-88119985D01*
X148837880Y-88116838D01*
X148837849Y-88116839D01*
X148837722Y-88111990D01*
X148838229Y-88107166D01*
X148837470Y-88102374D01*
X148837187Y-88100587D01*
X148836377Y-88092880D01*
X148836283Y-88091081D01*
X148836283Y-88091079D01*
X148836029Y-88086236D01*
X148834529Y-88081621D01*
X148833646Y-88076855D01*
X148833677Y-88076849D01*
X148832943Y-88073792D01*
X148831975Y-88067676D01*
X148777052Y-87720901D01*
X148776805Y-87717767D01*
X148776774Y-87717771D01*
X148776141Y-87712962D01*
X148776141Y-87708113D01*
X148774418Y-87701682D01*
X148772811Y-87694120D01*
X148772526Y-87692322D01*
X148772525Y-87692317D01*
X148771766Y-87687529D01*
X148769794Y-87683100D01*
X148768418Y-87678453D01*
X148768448Y-87678444D01*
X148767395Y-87675469D01*
X148674923Y-87330363D01*
X148674349Y-87327266D01*
X148674318Y-87327273D01*
X148673187Y-87322563D01*
X148672680Y-87317738D01*
X148670293Y-87311518D01*
X148667901Y-87304158D01*
X148666177Y-87297723D01*
X148663751Y-87293521D01*
X148661895Y-87289041D01*
X148661924Y-87289029D01*
X148660569Y-87286187D01*
X148532533Y-86952639D01*
X148531639Y-86949621D01*
X148531610Y-86949631D01*
X148529989Y-86945053D01*
X148528981Y-86940313D01*
X148525958Y-86934379D01*
X148522813Y-86927317D01*
X148520422Y-86921089D01*
X148517571Y-86917165D01*
X148515257Y-86912903D01*
X148515284Y-86912888D01*
X148513638Y-86910200D01*
X148351441Y-86591871D01*
X148350233Y-86588956D01*
X148350205Y-86588969D01*
X148348116Y-86584590D01*
X148346618Y-86579979D01*
X148342988Y-86574389D01*
X148339112Y-86567675D01*
X148338299Y-86566080D01*
X148336095Y-86561754D01*
X148332846Y-86558146D01*
X148330103Y-86554154D01*
X148330130Y-86554136D01*
X148328220Y-86551648D01*
X148133619Y-86251990D01*
X148132122Y-86249232D01*
X148132095Y-86249248D01*
X148129561Y-86245112D01*
X148127588Y-86240681D01*
X148123395Y-86235503D01*
X148118844Y-86229239D01*
X148117860Y-86227724D01*
X148115218Y-86223655D01*
X148111612Y-86220408D01*
X148108463Y-86216721D01*
X148108487Y-86216701D01*
X148106324Y-86214421D01*
X147881476Y-85936758D01*
X147879695Y-85934167D01*
X147879670Y-85934186D01*
X147876718Y-85930338D01*
X147874292Y-85926136D01*
X147870861Y-85922704D01*
X147869583Y-85921426D01*
X147864410Y-85915682D01*
X147863262Y-85914265D01*
X147860210Y-85910496D01*
X147856285Y-85907644D01*
X147852769Y-85904308D01*
X147852791Y-85904285D01*
X147850395Y-85902239D01*
X147597759Y-85649602D01*
X147595713Y-85647207D01*
X147595691Y-85647228D01*
X147592353Y-85643710D01*
X147589504Y-85639789D01*
X147584324Y-85635594D01*
X147578569Y-85630412D01*
X147573865Y-85625708D01*
X147569663Y-85623282D01*
X147565815Y-85620330D01*
X147565834Y-85620305D01*
X147563243Y-85618524D01*
X147285580Y-85393676D01*
X147283300Y-85391513D01*
X147283280Y-85391537D01*
X147279593Y-85388388D01*
X147276346Y-85384782D01*
X147270759Y-85381154D01*
X147264495Y-85376603D01*
X147263087Y-85375463D01*
X147259320Y-85372412D01*
X147254889Y-85370439D01*
X147250753Y-85367905D01*
X147250769Y-85367878D01*
X147248011Y-85366381D01*
X146948366Y-85171789D01*
X146945869Y-85169872D01*
X146945851Y-85169898D01*
X146941850Y-85167149D01*
X146938247Y-85163904D01*
X146932312Y-85160880D01*
X146925606Y-85157009D01*
X146920022Y-85153382D01*
X146915406Y-85151882D01*
X146911029Y-85149795D01*
X146911042Y-85149767D01*
X146908140Y-85148564D01*
X146589787Y-84986355D01*
X146587111Y-84984715D01*
X146587096Y-84984742D01*
X146582838Y-84982430D01*
X146578912Y-84979578D01*
X146572684Y-84977187D01*
X146565622Y-84974042D01*
X146559686Y-84971018D01*
X146554946Y-84970010D01*
X146550368Y-84968389D01*
X146550378Y-84968360D01*
X146547360Y-84967466D01*
X146213810Y-84839428D01*
X146210971Y-84838074D01*
X146210959Y-84838103D01*
X146206479Y-84836247D01*
X146202278Y-84833822D01*
X146195830Y-84832094D01*
X146188496Y-84829711D01*
X146182264Y-84827319D01*
X146177442Y-84826812D01*
X146172723Y-84825679D01*
X146172730Y-84825649D01*
X146169641Y-84825077D01*
X145824514Y-84732600D01*
X145821558Y-84731552D01*
X145821549Y-84731582D01*
X145816902Y-84730205D01*
X145812472Y-84728233D01*
X145807684Y-84727474D01*
X145807679Y-84727473D01*
X145805881Y-84727188D01*
X145798316Y-84725580D01*
X145796573Y-84725113D01*
X145796572Y-84725113D01*
X145791888Y-84723858D01*
X145787039Y-84723858D01*
X145782230Y-84723225D01*
X145782234Y-84723194D01*
X145779097Y-84722947D01*
X145779091Y-84722946D01*
X145426204Y-84667054D01*
X145423150Y-84666320D01*
X145423144Y-84666352D01*
X145418381Y-84665469D01*
X145413764Y-84663969D01*
X145408919Y-84663715D01*
X145408918Y-84663715D01*
X145407121Y-84663621D01*
X145399414Y-84662811D01*
X145397627Y-84662528D01*
X145397626Y-84662528D01*
X145392835Y-84661769D01*
X145388010Y-84662276D01*
X145383163Y-84662149D01*
X145383164Y-84662118D01*
X145380017Y-84662200D01*
X145164338Y-84650897D01*
X145023223Y-84643502D01*
X145020104Y-84643091D01*
X145020102Y-84643122D01*
X145015266Y-84642741D01*
X145010523Y-84641733D01*
X145005682Y-84641986D01*
X145005676Y-84641986D01*
X145003867Y-84642081D01*
X144996135Y-84642081D01*
X144994326Y-84641986D01*
X144994320Y-84641986D01*
X144989479Y-84641733D01*
X144984736Y-84642741D01*
X144979900Y-84643122D01*
X144979898Y-84643091D01*
X144976779Y-84643502D01*
X144798381Y-84652851D01*
X144619987Y-84662200D01*
X144616840Y-84662118D01*
X144616841Y-84662149D01*
X144611992Y-84662276D01*
X144607168Y-84661769D01*
X144602377Y-84662528D01*
X144602376Y-84662528D01*
X144600589Y-84662811D01*
X144592882Y-84663621D01*
X144591083Y-84663715D01*
X144591081Y-84663715D01*
X144586238Y-84663969D01*
X144581623Y-84665469D01*
X144576857Y-84666352D01*
X144576851Y-84666321D01*
X144573798Y-84667054D01*
X144220906Y-84722946D01*
X144217769Y-84723193D01*
X144217773Y-84723224D01*
X144212964Y-84723857D01*
X144208115Y-84723857D01*
X144203431Y-84725112D01*
X144203430Y-84725112D01*
X144201687Y-84725579D01*
X144194122Y-84727187D01*
X144192324Y-84727472D01*
X144192319Y-84727473D01*
X144187531Y-84728232D01*
X144183102Y-84730204D01*
X144178455Y-84731580D01*
X144178446Y-84731550D01*
X144175471Y-84732603D01*
X143937791Y-84796290D01*
X143830362Y-84825075D01*
X143827268Y-84825649D01*
X143827275Y-84825680D01*
X143822565Y-84826811D01*
X143817740Y-84827318D01*
X143813212Y-84829056D01*
X143811521Y-84829705D01*
X143804168Y-84832095D01*
X143797725Y-84833821D01*
X143793523Y-84836247D01*
X143789043Y-84838103D01*
X143789031Y-84838074D01*
X143786189Y-84839429D01*
X143452641Y-84967465D01*
X143449623Y-84968359D01*
X143449633Y-84968388D01*
X143445055Y-84970009D01*
X143440315Y-84971017D01*
X143434381Y-84974040D01*
X143427319Y-84977185D01*
X143421091Y-84979576D01*
X143417167Y-84982427D01*
X143412905Y-84984741D01*
X143412890Y-84984714D01*
X143410202Y-84986360D01*
X143091873Y-85148557D01*
X143088958Y-85149765D01*
X143088971Y-85149793D01*
X143084592Y-85151882D01*
X143079981Y-85153380D01*
X143074393Y-85157009D01*
X143067677Y-85160886D01*
X143061756Y-85163903D01*
X143058148Y-85167152D01*
X143054156Y-85169895D01*
X143054138Y-85169868D01*
X143051650Y-85171778D01*
X142751992Y-85366379D01*
X142749234Y-85367876D01*
X142749250Y-85367903D01*
X142745114Y-85370437D01*
X142740683Y-85372410D01*
X142735508Y-85376601D01*
X142729241Y-85381154D01*
X142723657Y-85384780D01*
X142720410Y-85388386D01*
X142716723Y-85391535D01*
X142716703Y-85391511D01*
X142714423Y-85393674D01*
X142436760Y-85618522D01*
X142434169Y-85620303D01*
X142434188Y-85620328D01*
X142430340Y-85623280D01*
X142426138Y-85625706D01*
X142422706Y-85629137D01*
X142421428Y-85630415D01*
X142415685Y-85635587D01*
X142410498Y-85639788D01*
X142407646Y-85643713D01*
X142404310Y-85647229D01*
X142404287Y-85647207D01*
X142402241Y-85649603D01*
X142149604Y-85902239D01*
X142147209Y-85904285D01*
X142147230Y-85904307D01*
X142143712Y-85907645D01*
X142139791Y-85910494D01*
X142136742Y-85914259D01*
X142136741Y-85914260D01*
X142135596Y-85915674D01*
X142130417Y-85921426D01*
X142125710Y-85926133D01*
X142123284Y-85930335D01*
X142120332Y-85934183D01*
X142120307Y-85934164D01*
X142118526Y-85936754D01*
X142092559Y-85968822D01*
X141893678Y-86214418D01*
X141891515Y-86216698D01*
X141891539Y-86216718D01*
X141888390Y-86220405D01*
X141884784Y-86223652D01*
X141882142Y-86227721D01*
X141881158Y-86229236D01*
X141876606Y-86235502D01*
X141872414Y-86240678D01*
X141870441Y-86245109D01*
X141867907Y-86249245D01*
X141867880Y-86249229D01*
X141866383Y-86251987D01*
X141760554Y-86414949D01*
X141671791Y-86551632D01*
X141669874Y-86554129D01*
X141669900Y-86554147D01*
X141667151Y-86558148D01*
X141663906Y-86561751D01*
X141660888Y-86567675D01*
X141660884Y-86567683D01*
X141657011Y-86574391D01*
X141653384Y-86579976D01*
X141651884Y-86584592D01*
X141649797Y-86588969D01*
X141649769Y-86588956D01*
X141648566Y-86591858D01*
X141486357Y-86910211D01*
X141484717Y-86912887D01*
X141484744Y-86912902D01*
X141482432Y-86917160D01*
X141479580Y-86921086D01*
X141477189Y-86927314D01*
X141474044Y-86934376D01*
X141471020Y-86940312D01*
X141470012Y-86945052D01*
X141468391Y-86949630D01*
X141468362Y-86949620D01*
X141467468Y-86952638D01*
X141339430Y-87286188D01*
X141338076Y-87289027D01*
X141338105Y-87289039D01*
X141336249Y-87293519D01*
X141333824Y-87297720D01*
X141332099Y-87304158D01*
X141329713Y-87311502D01*
X141327321Y-87317734D01*
X141326814Y-87322556D01*
X141325681Y-87327275D01*
X141325651Y-87327268D01*
X141325079Y-87330357D01*
X141232602Y-87675484D01*
X141231554Y-87678440D01*
X141231584Y-87678449D01*
X141230207Y-87683096D01*
X141228235Y-87687526D01*
X141227476Y-87692314D01*
X141227475Y-87692319D01*
X141227190Y-87694117D01*
X141225582Y-87701682D01*
X141223860Y-87708110D01*
X141223860Y-87712959D01*
X141223227Y-87717768D01*
X141223196Y-87717764D01*
X141222949Y-87720901D01*
X141167056Y-88073794D01*
X141166322Y-88076848D01*
X141166354Y-88076854D01*
X141165471Y-88081617D01*
X141163971Y-88086234D01*
X141163717Y-88091079D01*
X141163717Y-88091080D01*
X141163623Y-88092877D01*
X141162813Y-88100584D01*
X141161771Y-88107163D01*
X141162278Y-88111988D01*
X141162151Y-88116835D01*
X141162120Y-88116834D01*
X141162202Y-88119981D01*
X141143504Y-88476772D01*
X141143093Y-88479894D01*
X141143124Y-88479896D01*
X141142743Y-88484732D01*
X141141735Y-88489475D01*
X141141988Y-88494316D01*
X141141988Y-88494322D01*
X141142083Y-88496131D01*
X141142083Y-88503863D01*
X141141988Y-88505672D01*
X141141988Y-88505678D01*
X141141735Y-88510519D01*
X141142743Y-88515262D01*
X141143124Y-88520098D01*
X141143093Y-88520100D01*
X141143504Y-88523222D01*
X141162202Y-88880011D01*
X141162120Y-88883158D01*
X141162151Y-88883157D01*
X141162278Y-88888006D01*
X141161771Y-88892830D01*
X141162530Y-88897621D01*
X141162530Y-88897622D01*
X141162813Y-88899409D01*
X141163623Y-88907116D01*
X141163971Y-88913760D01*
X141165471Y-88918375D01*
X141166354Y-88923141D01*
X141166323Y-88923147D01*
X141167056Y-88926200D01*
X141185584Y-89043182D01*
X141222948Y-89279092D01*
X141223195Y-89282229D01*
X141223226Y-89282225D01*
X141223859Y-89287034D01*
X141223859Y-89291883D01*
X141225114Y-89296567D01*
X141225114Y-89296568D01*
X141225581Y-89298311D01*
X141227189Y-89305876D01*
X141227474Y-89307674D01*
X141227475Y-89307676D01*
X141228234Y-89312467D01*
X141230206Y-89316896D01*
X141231582Y-89321543D01*
X141231552Y-89321552D01*
X141232605Y-89324527D01*
X141325077Y-89669633D01*
X141325651Y-89672730D01*
X141325682Y-89672723D01*
X141326813Y-89677433D01*
X141327320Y-89682258D01*
X141329058Y-89686786D01*
X141329707Y-89688477D01*
X141332097Y-89695830D01*
X141333823Y-89702273D01*
X141336249Y-89706475D01*
X141338105Y-89710955D01*
X141338076Y-89710967D01*
X141339431Y-89713809D01*
X141467468Y-90047357D01*
X141468361Y-90050373D01*
X141468391Y-90050362D01*
X141470010Y-90054935D01*
X141471019Y-90059682D01*
X141473222Y-90064005D01*
X141473223Y-90064008D01*
X141474040Y-90065611D01*
X141477191Y-90072688D01*
X141479578Y-90078907D01*
X141482430Y-90082832D01*
X141484744Y-90087094D01*
X141484717Y-90087109D01*
X141486360Y-90089791D01*
X141648564Y-90408135D01*
X141649766Y-90411038D01*
X141649795Y-90411024D01*
X141651882Y-90415401D01*
X141653382Y-90420017D01*
X141657009Y-90425601D01*
X141660880Y-90432307D01*
X141663904Y-90438242D01*
X141667149Y-90441845D01*
X141669898Y-90445846D01*
X141669872Y-90445864D01*
X141671789Y-90448361D01*
X141812975Y-90665767D01*
X141866379Y-90748002D01*
X141867878Y-90750764D01*
X141867905Y-90750748D01*
X141870439Y-90754884D01*
X141872412Y-90759315D01*
X141875463Y-90763082D01*
X141876603Y-90764490D01*
X141881156Y-90770757D01*
X141884782Y-90776341D01*
X141888386Y-90779586D01*
X141891540Y-90783278D01*
X141891516Y-90783298D01*
X141893681Y-90785579D01*
X142117604Y-91062101D01*
X142119397Y-91064407D01*
X142122070Y-91067989D01*
X142124439Y-91072221D01*
X142130156Y-91078092D01*
X142134640Y-91083139D01*
X142139791Y-91089500D01*
X142143716Y-91092351D01*
X142146970Y-91095440D01*
X142149008Y-91097451D01*
X142285674Y-91237798D01*
X142294790Y-91243224D01*
X142302960Y-91248087D01*
X142315304Y-91257300D01*
X142403930Y-91339127D01*
X142426898Y-91360333D01*
X142436177Y-91370678D01*
X142438885Y-91374338D01*
X142441236Y-91378577D01*
X142444603Y-91382063D01*
X142490780Y-91429872D01*
X142494751Y-91434330D01*
X142501048Y-91442001D01*
X142505380Y-91447842D01*
X142564957Y-91537008D01*
X142568687Y-91543230D01*
X142571011Y-91547577D01*
X142574118Y-91554145D01*
X142615159Y-91653220D01*
X142615159Y-91653221D01*
X142617608Y-91660067D01*
X142619049Y-91664819D01*
X142620811Y-91671856D01*
X142638226Y-91759404D01*
X142641727Y-91777006D01*
X142642792Y-91784184D01*
X142643765Y-91794056D01*
X142643766Y-91794069D01*
X142644111Y-91800034D01*
X142645347Y-91871345D01*
X142646683Y-91876007D01*
X142646684Y-91876012D01*
X142647136Y-91877588D01*
X142650000Y-91897976D01*
X142650000Y-92354230D01*
X142648084Y-92370961D01*
X142644459Y-92386579D01*
X142644623Y-92391424D01*
X142644623Y-92391426D01*
X142645705Y-92423504D01*
X142630006Y-92471627D01*
X142587047Y-92498401D01*
X142571747Y-92500000D01*
X140874000Y-92500000D01*
X140826434Y-92482687D01*
X140801124Y-92438850D01*
X140800000Y-92426000D01*
X140800000Y-83108254D01*
X143010027Y-83108254D01*
X143011653Y-83114321D01*
X143047132Y-83150488D01*
X143050345Y-83153400D01*
X143311366Y-83363643D01*
X143314893Y-83366160D01*
X143598671Y-83544518D01*
X143602463Y-83546602D01*
X143905107Y-83690632D01*
X143909128Y-83692265D01*
X144226508Y-83800001D01*
X144230681Y-83801150D01*
X144558476Y-83871124D01*
X144562729Y-83871776D01*
X144896468Y-83903029D01*
X144900782Y-83903179D01*
X145018888Y-83900396D01*
X145021987Y-83900387D01*
X145057154Y-83901032D01*
X145068686Y-83899595D01*
X145076090Y-83899048D01*
X145235856Y-83895283D01*
X145240180Y-83894928D01*
X145572057Y-83847990D01*
X145576287Y-83847137D01*
X145900418Y-83761800D01*
X145904528Y-83760457D01*
X146216505Y-83637881D01*
X146220408Y-83636077D01*
X146515947Y-83477942D01*
X146519637Y-83475681D01*
X146794697Y-83284152D01*
X146798098Y-83281476D01*
X146984613Y-83116171D01*
X146989681Y-83106818D01*
X146988654Y-83101791D01*
X145009226Y-81122363D01*
X144999587Y-81117868D01*
X144993688Y-81119449D01*
X143014522Y-83098615D01*
X143010027Y-83108254D01*
X140800000Y-83108254D01*
X140800000Y-81043465D01*
X142095451Y-81043465D01*
X142095518Y-81047783D01*
X142120359Y-81382049D01*
X142120930Y-81386330D01*
X142184598Y-81715406D01*
X142185665Y-81719593D01*
X142287295Y-82039003D01*
X142288841Y-82043029D01*
X142427040Y-82348396D01*
X142429047Y-82352219D01*
X142601926Y-82639370D01*
X142604373Y-82642944D01*
X142809576Y-82907967D01*
X142812410Y-82911216D01*
X142884108Y-82984304D01*
X142893704Y-82988891D01*
X142899453Y-82987410D01*
X144877637Y-81009226D01*
X144881747Y-81000413D01*
X145117868Y-81000413D01*
X145119449Y-81006312D01*
X147098069Y-82984932D01*
X147107708Y-82989427D01*
X147112716Y-82988085D01*
X147275184Y-82806053D01*
X147277872Y-82802661D01*
X147470364Y-82528266D01*
X147472633Y-82524591D01*
X147631795Y-82229613D01*
X147633623Y-82225693D01*
X147757283Y-81914158D01*
X147758640Y-81910054D01*
X147845105Y-81586230D01*
X147845978Y-81581980D01*
X147894113Y-81249999D01*
X147894463Y-81246254D01*
X147904257Y-81017384D01*
X147904484Y-81013948D01*
X147904884Y-81009481D01*
X147904984Y-81001328D01*
X147904923Y-80998687D01*
X147885287Y-80663230D01*
X147884784Y-80658945D01*
X147826290Y-80328895D01*
X147825291Y-80324701D01*
X147728695Y-80003750D01*
X147727204Y-79999674D01*
X147593825Y-79692190D01*
X147591876Y-79688331D01*
X147423523Y-79398491D01*
X147421138Y-79394888D01*
X147220127Y-79126680D01*
X147217335Y-79123376D01*
X147115419Y-79016167D01*
X147105893Y-79011428D01*
X147100380Y-79012757D01*
X145122363Y-80990774D01*
X145117868Y-81000413D01*
X144881747Y-81000413D01*
X144882132Y-80999587D01*
X144880551Y-80993688D01*
X142902618Y-79015755D01*
X142892979Y-79011260D01*
X142887741Y-79012664D01*
X142753465Y-79158432D01*
X142750722Y-79161783D01*
X142553950Y-79433114D01*
X142551617Y-79436762D01*
X142387842Y-79729203D01*
X142385953Y-79733095D01*
X142257415Y-80042648D01*
X142255999Y-80046712D01*
X142164451Y-80369162D01*
X142163515Y-80373387D01*
X142110217Y-80704291D01*
X142109779Y-80708597D01*
X142098713Y-80967227D01*
X142097900Y-80975449D01*
X142095849Y-80988624D01*
X142095721Y-80999056D01*
X142096118Y-81002090D01*
X142096675Y-81014847D01*
X142095451Y-81043465D01*
X140800000Y-81043465D01*
X140800000Y-78891946D01*
X143008998Y-78891946D01*
X143009904Y-78896767D01*
X144990774Y-80877637D01*
X145000413Y-80882132D01*
X145006312Y-80880551D01*
X146986929Y-78899934D01*
X146991424Y-78890295D01*
X146989721Y-78883939D01*
X146986399Y-78880445D01*
X146983251Y-78877499D01*
X146725546Y-78663168D01*
X146722067Y-78660603D01*
X146441125Y-78477808D01*
X146437361Y-78475661D01*
X146137018Y-78326896D01*
X146133036Y-78325205D01*
X145817362Y-78212489D01*
X145813238Y-78211283D01*
X145486572Y-78136167D01*
X145482310Y-78135446D01*
X145149124Y-78098956D01*
X145144812Y-78098737D01*
X144985039Y-78099992D01*
X144984006Y-78099993D01*
X144936734Y-78099704D01*
X144936283Y-78099766D01*
X144926814Y-78100450D01*
X144809626Y-78101370D01*
X144805340Y-78101655D01*
X144472745Y-78143376D01*
X144468514Y-78144160D01*
X144143056Y-78224401D01*
X144138950Y-78225672D01*
X143825083Y-78343335D01*
X143821147Y-78345079D01*
X143523157Y-78498554D01*
X143519444Y-78500750D01*
X143241399Y-78687942D01*
X143237960Y-78690562D01*
X143014211Y-78882675D01*
X143008998Y-78891946D01*
X140800000Y-78891946D01*
X140800000Y-77374000D01*
X140817313Y-77326434D01*
X140861150Y-77301124D01*
X140874000Y-77300000D01*
X149126000Y-77300000D01*
X149173566Y-77317313D01*
G37*
%TD.AperFunction*%
%TD*%
%TA.AperFunction,Conductor*%
%TO.N,Earth_Protective*%
G36*
X145037684Y-86155217D02*
G01*
X145260443Y-86169422D01*
X145265133Y-86169871D01*
X145308992Y-86175487D01*
X145330558Y-86178249D01*
X145335201Y-86178994D01*
X145358364Y-86183474D01*
X145554370Y-86221382D01*
X145558965Y-86222424D01*
X145622785Y-86239041D01*
X145627305Y-86240373D01*
X145839312Y-86310256D01*
X145843737Y-86311872D01*
X145874325Y-86324163D01*
X145904920Y-86336457D01*
X145909218Y-86338345D01*
X145983933Y-86374047D01*
X146110644Y-86434595D01*
X146114828Y-86436761D01*
X146172413Y-86468930D01*
X146176426Y-86471342D01*
X146336591Y-86574711D01*
X146363979Y-86592387D01*
X146367854Y-86595067D01*
X146420890Y-86634293D01*
X146424587Y-86637213D01*
X146595254Y-86781108D01*
X146598757Y-86784258D01*
X146646344Y-86829866D01*
X146649637Y-86833229D01*
X146754319Y-86947200D01*
X146800665Y-86997658D01*
X146803740Y-87001228D01*
X146845150Y-87052513D01*
X146847987Y-87056266D01*
X146976890Y-87238520D01*
X146979483Y-87242445D01*
X147014071Y-87298619D01*
X147016399Y-87302684D01*
X147079289Y-87421098D01*
X147121118Y-87499857D01*
X147123192Y-87504081D01*
X147150350Y-87564162D01*
X147152146Y-87568499D01*
X147230978Y-87777393D01*
X147232500Y-87781851D01*
X147251796Y-87844860D01*
X147253032Y-87849406D01*
X147304693Y-88066616D01*
X147305633Y-88071215D01*
X147316772Y-88136178D01*
X147317419Y-88140837D01*
X147341076Y-88362897D01*
X147341421Y-88367535D01*
X147344219Y-88433408D01*
X147344219Y-88433409D01*
X147344269Y-88438120D01*
X147339531Y-88661307D01*
X147339281Y-88666011D01*
X147333690Y-88731709D01*
X147333144Y-88736375D01*
X147300090Y-88957183D01*
X147299244Y-88961818D01*
X147285357Y-89026253D01*
X147284221Y-89030814D01*
X147225687Y-89237522D01*
X147223398Y-89245604D01*
X147221974Y-89250085D01*
X147200000Y-89312277D01*
X147199999Y-89312281D01*
X147198291Y-89316666D01*
X147162301Y-89401011D01*
X147110676Y-89521995D01*
X147108696Y-89526255D01*
X147078997Y-89585158D01*
X147076763Y-89589259D01*
X147026295Y-89675261D01*
X146963772Y-89781805D01*
X146961260Y-89785790D01*
X146924341Y-89840414D01*
X146921579Y-89844232D01*
X146808063Y-89991089D01*
X146801844Y-89998156D01*
X146000000Y-90800000D01*
X145500000Y-91400000D01*
X145250000Y-91750000D01*
X145248707Y-91752586D01*
X145248704Y-91752591D01*
X145066188Y-92117624D01*
X145029430Y-92152426D01*
X144978902Y-92155459D01*
X144938246Y-92125303D01*
X144933812Y-92117624D01*
X144751296Y-91752591D01*
X144751293Y-91752586D01*
X144750000Y-91750000D01*
X144500000Y-91400000D01*
X144000000Y-90800000D01*
X143198156Y-89998156D01*
X143191934Y-89991086D01*
X143078422Y-89844233D01*
X143075660Y-89840415D01*
X143038740Y-89785790D01*
X143036228Y-89781805D01*
X142973705Y-89675261D01*
X142923237Y-89589259D01*
X142921003Y-89585158D01*
X142891304Y-89526255D01*
X142889324Y-89521995D01*
X142879373Y-89498675D01*
X142801704Y-89316654D01*
X142800001Y-89312281D01*
X142778024Y-89250079D01*
X142776604Y-89245611D01*
X142774314Y-89237522D01*
X142715776Y-89030804D01*
X142714640Y-89026242D01*
X142700758Y-88961828D01*
X142699912Y-88957193D01*
X142667723Y-88742157D01*
X142666857Y-88736371D01*
X142666309Y-88731695D01*
X142660719Y-88666012D01*
X142660469Y-88661308D01*
X142655731Y-88438119D01*
X142655781Y-88433408D01*
X142658579Y-88367535D01*
X142658924Y-88362897D01*
X142682581Y-88140837D01*
X142683228Y-88136178D01*
X142694367Y-88071215D01*
X142695307Y-88066616D01*
X142746968Y-87849406D01*
X142748204Y-87844860D01*
X142767500Y-87781852D01*
X142769022Y-87777394D01*
X142822304Y-87636205D01*
X142847861Y-87568481D01*
X142849660Y-87564139D01*
X142876809Y-87504081D01*
X142878873Y-87499875D01*
X142983610Y-87302669D01*
X142985939Y-87298604D01*
X143020506Y-87242463D01*
X143023103Y-87238531D01*
X143105905Y-87121458D01*
X143152010Y-87056268D01*
X143154846Y-87052518D01*
X143196263Y-87001225D01*
X143199337Y-86997656D01*
X143340341Y-86844140D01*
X143350362Y-86833230D01*
X143353656Y-86829866D01*
X143401243Y-86784258D01*
X143404746Y-86781108D01*
X143575413Y-86637213D01*
X143579110Y-86634293D01*
X143632146Y-86595067D01*
X143636021Y-86592387D01*
X143663409Y-86574711D01*
X143823574Y-86471342D01*
X143827587Y-86468930D01*
X143885172Y-86436761D01*
X143889356Y-86434595D01*
X144090768Y-86338352D01*
X144095081Y-86336457D01*
X144156267Y-86311870D01*
X144160693Y-86310254D01*
X144372721Y-86240365D01*
X144377207Y-86239043D01*
X144441035Y-86222424D01*
X144445619Y-86221384D01*
X144664800Y-86178994D01*
X144669448Y-86178248D01*
X144734868Y-86169871D01*
X144739558Y-86169422D01*
X144962317Y-86155217D01*
X144967026Y-86155067D01*
X145032975Y-86155067D01*
X145037684Y-86155217D01*
G37*
%TD.AperFunction*%
%TD*%
M02*
